<svg width="25" height="28" viewBox="0 0 25 28" fill="none" xmlns="http://www.w3.org/2000/svg">
<path d="M17.6663 27.1424C15.8219 27.1424 14.2499 26.4922 12.9503 25.1918C11.6508 23.8913 11.0006 22.3193 10.9997 20.4758C10.9988 18.6322 11.649 17.0602 12.9503 15.7598C14.2517 14.4593 15.8237 13.8091 17.6663 13.8091C19.509 13.8091 21.0815 14.4593 22.3837 15.7598C23.6859 17.0602 24.3357 18.6322 24.333 20.4758C24.3303 22.3193 23.6801 23.8918 22.3823 25.1931C21.0846 26.4944 19.5126 27.1442 17.6663 27.1424ZM0.333008 12.6091V6.30911C0.333008 5.75356 0.494341 5.25356 0.817008 4.80911C1.13967 4.36467 1.55612 4.04245 2.06634 3.84245L10.0663 0.842448C10.3775 0.731337 10.6886 0.675781 10.9997 0.675781C11.3108 0.675781 11.6219 0.731337 11.933 0.842448L19.933 3.84245C20.4441 4.04245 20.861 4.36467 21.1837 4.80911C21.5063 5.25356 21.6672 5.75356 21.6663 6.30911V10.3758C21.6663 10.7536 21.4997 11.0593 21.1663 11.2931C20.833 11.5269 20.4775 11.5878 20.0997 11.4758C19.6997 11.3647 19.2997 11.2816 18.8997 11.2264C18.4997 11.1713 18.0886 11.1433 17.6663 11.1424C15.0886 11.1424 12.8886 12.0536 11.0663 13.8758C9.24412 15.698 8.33301 17.898 8.33301 20.4758C8.33301 21.1869 8.41656 21.8816 8.58367 22.5598C8.75079 23.238 8.98945 23.9211 9.29967 24.6091C9.49967 25.0313 9.43879 25.4091 9.11701 25.7424C8.79523 26.0758 8.42279 26.1424 7.99967 25.9424C7.06634 25.4536 6.21079 24.8536 5.43301 24.1424C4.65523 23.4313 3.96634 22.6536 3.36634 21.8091C2.41079 20.498 1.66634 19.0589 1.13301 17.4918C0.599674 15.9247 0.333008 14.2971 0.333008 12.6091ZM17.6663 20.4758C18.2219 20.4758 18.6943 20.2816 19.0837 19.8931C19.473 19.5047 19.6672 19.0322 19.6663 18.4758C19.6655 17.9193 19.4712 17.4473 19.0837 17.0598C18.6961 16.6722 18.2237 16.4776 17.6663 16.4758C17.109 16.474 16.637 16.6687 16.2503 17.0598C15.8637 17.4509 15.669 17.9229 15.6663 18.4758C15.6637 19.0287 15.8583 19.5011 16.2503 19.8931C16.6423 20.2851 17.1143 20.4793 17.6663 20.4758ZM17.6663 24.4758C18.2219 24.4758 18.7441 24.37 19.233 24.1584C19.7219 23.9469 20.1552 23.6416 20.533 23.2424C20.6441 23.1091 20.6886 22.9593 20.6663 22.7931C20.6441 22.6269 20.5441 22.4989 20.3663 22.4091C19.9441 22.2091 19.5055 22.0593 19.0503 21.9598C18.5952 21.8602 18.1339 21.81 17.6663 21.8091C17.1988 21.8082 16.7379 21.8584 16.2837 21.9598C15.8295 22.0611 15.3903 22.2109 14.9663 22.4091C14.7886 22.498 14.6886 22.626 14.6663 22.7931C14.6441 22.9602 14.6886 23.11 14.7997 23.2424C15.1775 23.6424 15.6108 23.9482 16.0997 24.1598C16.5886 24.3713 17.1108 24.4767 17.6663 24.4758Z" fill="#0884A2"/>
</svg>
