<svg width="50" height="51" viewBox="0 0 50 51" fill="none" xmlns="http://www.w3.org/2000/svg">
<g clip-path="url(#clip0_2155_4790)">
<path d="M10.95 0.5H39.05C45.0977 0.5 50 5.40234 50 11.45V39.55C50 45.5977 45.0977 50.5 39.05 50.5H10.95C4.90234 50.5 0 45.5977 0 39.55V11.45C0 5.40234 4.90234 0.5 10.95 0.5Z" fill="url(#paint0_linear_2155_4790)"/>
<path d="M16.0239 36.7906L16.0286 36.7922L14.319 39.7531C13.695 40.834 12.313 41.2043 11.2321 40.5802C10.1513 39.9562 9.78096 38.5742 10.405 37.4933L11.6644 35.3121L11.7853 35.1027C12.0011 34.7926 12.5337 34.257 13.5991 34.3578C13.5991 34.3578 16.1063 34.6299 16.2878 35.933C16.2878 35.933 16.3124 36.3617 16.0239 36.7906ZM40.2706 29.2281H34.9397C34.5767 29.2037 34.4183 29.074 34.3558 28.9986L34.3519 28.9918L28.6454 19.1078L28.638 19.1127L28.2958 18.622C27.7349 17.7642 26.8442 19.958 26.8442 19.958C25.7808 22.4025 26.9952 25.1816 27.4185 26.0217L35.3446 39.7502C35.9685 40.8308 37.3505 41.2013 38.4315 40.5771C39.5122 39.9531 39.8827 38.5711 39.2585 37.4902L37.2767 34.0574C37.2382 33.9742 37.1714 33.7484 37.5778 33.7474H40.2706C41.5187 33.7474 42.5304 32.7357 42.5304 31.4877C42.5304 30.2396 41.5187 29.2281 40.2706 29.2281ZM29.9163 32.2998C29.9163 32.2998 30.2009 33.7472 29.0999 33.7472H9.39307C8.14502 33.7472 7.1333 32.7355 7.1333 31.4875C7.1333 30.2394 8.14502 29.2277 9.39307 29.2277H14.4595C15.2774 29.1804 15.4712 28.7082 15.4712 28.7082L15.4759 28.7105L22.0892 17.2558L22.0872 17.2554C22.2077 17.0342 22.1073 16.825 22.0899 16.792L19.9058 13.009C19.2817 11.9283 19.6521 10.5461 20.7329 9.92224C21.8138 9.29841 23.1958 9.66833 23.8198 10.7492L24.8327 12.5037L25.8438 10.7523C26.4679 9.67165 27.8499 9.30114 28.9308 9.92536C30.0116 10.5496 30.3819 11.9312 29.7579 13.0121L20.5552 28.9515C20.5149 29.0486 20.5026 29.2009 20.802 29.2277H26.3028L26.304 29.2814C26.304 29.2814 29.4833 29.3308 29.9163 32.2998Z" fill="white"/>
</g>
<defs>
<linearGradient id="paint0_linear_2155_4790" x1="2500" y1="0.5" x2="2500" y2="5000.5" gradientUnits="userSpaceOnUse">
<stop stop-color="#17C9FB"/>
<stop offset="1" stop-color="#1A74E8"/>
</linearGradient>
<clipPath id="clip0_2155_4790">
<rect width="50" height="50" fill="white" transform="translate(0 0.5)"/>
</clipPath>
</defs>
</svg>
