<svg width="25" height="25" viewBox="0 0 25 25" fill="none" xmlns="http://www.w3.org/2000/svg">
<path fill-rule="evenodd" clip-rule="evenodd" d="M11.7932 8.79279C11.9807 8.60532 12.235 8.5 12.5002 8.5C12.7653 8.5 13.0197 8.60532 13.2072 8.79279L18.8642 14.4498C19.0463 14.6384 19.1471 14.891 19.1449 15.1532C19.1426 15.4154 19.0374 15.6662 18.852 15.8516C18.6666 16.037 18.4158 16.1422 18.1536 16.1445C17.8914 16.1467 17.6388 16.0459 17.4502 15.8638L12.5002 10.9138L7.55018 15.8638C7.36158 16.0459 7.10898 16.1467 6.84678 16.1445C6.58458 16.1422 6.33377 16.037 6.14836 15.8516C5.96295 15.6662 5.85778 15.4154 5.85551 15.1532C5.85323 14.891 5.95402 14.6384 6.13618 14.4498L11.7932 8.79279Z" fill="#CCCCCC"/>
</svg>
