<svg width="139" height="120" viewBox="0 0 139 120" fill="none" xmlns="http://www.w3.org/2000/svg">
<path fill-rule="evenodd" clip-rule="evenodd" d="M136.149 41.6255C135.402 42.3556 133.989 42.3747 132.969 41.6803C120.795 33.6377 108.863 29.6693 97.5195 29.8055C86.4746 29.9394 76.1037 34.0753 66.6959 42.0322C64.5987 43.7699 61.5348 47.3602 59.0476 51.575C62.4584 54.7648 65.0624 58.5729 66.7038 62.2601C69.1262 67.706 69.1376 72.7607 67.4117 75.301C66.4552 76.7077 65.038 77.5875 63.2556 77.9797C60.9736 78.4789 57.6741 78.1474 53.4747 75.6709C47.6776 72.2374 45.4425 67.206 45.8704 61.6071C46.0992 58.6637 47.1194 55.5582 48.5623 52.564C45.9208 51.0905 42.8341 50.2713 39.3511 50.6643C31.9701 51.4546 27.3315 56.5974 24.492 62.5924C22.0269 67.7788 19.3315 75.4204 21.6181 81.398C22.3937 83.4293 23.8333 85.1587 22.0962 86.8695C19.4421 89.5157 16.0185 86.9081 14.9484 84.1182C12.6534 78.1247 13.8583 70.8202 15.3629 65.2139C18.1189 54.8972 25.2551 45.5188 37.0832 43.9945C42.6325 43.3011 47.6783 44.4256 52.0186 46.6226C54.8901 42.3658 58.1936 38.8241 60.4661 37.0335C71.7444 28.3456 83.9913 24.1559 96.7026 24.4822C109.4 24.8028 122.594 29.5772 135.656 39.035C136.671 39.7397 136.897 40.8953 136.149 41.6255ZM55.4823 59.7965C55.031 61.5109 54.8285 63.1902 54.985 64.7795C55.1881 66.8004 56.0336 68.6605 58.2238 69.9485C58.5942 70.1633 59.0532 70.4645 59.4237 70.6793C59.5316 69.9737 59.6857 68.5871 59.4676 67.4475C58.9666 64.904 57.6615 61.8924 55.6827 59.1039C55.5953 59.3429 55.5319 59.5669 55.4823 59.7965Z" fill="#0884A2"/>
<path fill-rule="evenodd" clip-rule="evenodd" d="M23.4728 91.336C23.2091 88.7836 23.0311 86.1086 23.1046 83.6555C23.2353 79.8338 23.8959 76.5527 25.6396 74.6664C26.3384 73.6574 27.8378 73.4549 28.9631 74.2139C30.1 74.9643 30.4486 76.4005 29.7395 77.3976C29.4715 77.9291 29.472 78.5916 29.4349 79.3213C29.3326 81.0354 29.7765 83.044 30.2651 85.2141C30.8915 87.9833 31.8098 90.8662 32.5349 93.4837C33.1988 95.8545 33.6887 98.0041 33.9022 99.6386C34.2422 102.212 33.6456 104.022 33.0065 104.967C32.835 105.212 28.8505 108.283 25.1883 104.972C23.8807 103.783 20.7184 100.625 20.5624 100.469C18.7117 98.4379 15.2537 94.7207 11.6372 92.0576C10.4954 91.2134 9.38314 90.4251 8.28418 89.9389C8.19087 90.0086 8.09755 90.0782 7.99392 90.136C6.45741 91.0682 4.31619 90.5799 3.17518 89.0527C2.51677 88.2767 1.90773 86.5864 1.89877 85.7156C1.88844 84.027 2.93747 83.0882 4.80332 82.7096C7.3433 82.1984 10.4508 82.999 13.6956 84.5746C17.1004 86.2451 20.6586 88.9517 23.4728 91.336ZM24.6655 99.6296C24.7517 100.17 24.717 100.527 24.3551 100.466C23.9493 100.398 24.4137 99.9149 24.6655 99.6296Z" fill="#0884A2"/>
</svg>
