<svg width="31" height="26" viewBox="0 0 31 26" fill="none" xmlns="http://www.w3.org/2000/svg">
<path fill-rule="evenodd" clip-rule="evenodd" d="M19.9286 6.5C19.9286 7.48509 19.462 8.42983 18.6315 9.1264C17.801 9.82296 16.6745 10.2143 15.5 10.2143C14.3255 10.2143 13.199 9.82296 12.3685 9.1264C11.538 8.42983 11.0714 7.48509 11.0714 6.5C11.0714 5.51491 11.538 4.57017 12.3685 3.8736C13.199 3.17704 14.3255 2.78571 15.5 2.78571C16.6745 2.78571 17.801 3.17704 18.6315 3.8736C19.462 4.57017 19.9286 5.51491 19.9286 6.5ZM23.25 6.5C23.25 8.22391 22.4335 9.87721 20.9801 11.0962C19.5267 12.3152 17.5554 13 15.5 13C13.4446 13 11.4733 12.3152 10.0199 11.0962C8.56651 9.87721 7.75 8.22391 7.75 6.5C7.75 4.77609 8.56651 3.12279 10.0199 1.90381C11.4733 0.684819 13.4446 0 15.5 0C17.5554 0 19.5267 0.684819 20.9801 1.90381C22.4335 3.12279 23.25 4.77609 23.25 6.5ZM3.32143 21.3571C3.32143 20.9783 3.80857 19.8547 6.24429 18.6476C8.49843 17.5314 11.78 16.7143 15.5 16.7143C19.22 16.7143 22.5016 17.5314 24.7557 18.6476C27.1914 19.8547 27.6786 20.9783 27.6786 21.3571C27.6786 21.8497 27.4453 22.3221 27.03 22.6703C26.6148 23.0186 26.0515 23.2143 25.4643 23.2143H5.53571C4.94845 23.2143 4.38524 23.0186 3.96998 22.6703C3.55472 22.3221 3.32143 21.8497 3.32143 21.3571ZM15.5 13.9286C6.975 13.9286 0 17.6429 0 21.3571C0 22.5885 0.583225 23.7694 1.62137 24.6401C2.65952 25.5108 4.06755 26 5.53571 26H25.4643C26.9324 26 28.3405 25.5108 29.3786 24.6401C30.4168 23.7694 31 22.5885 31 21.3571C31 17.6429 24.025 13.9286 15.5 13.9286Z" fill="black"/>
</svg>
