<svg width="25" height="26" viewBox="0 0 25 26" fill="none" xmlns="http://www.w3.org/2000/svg">
<path d="M12.3166 19.3031C15.7814 19.3031 18.5902 16.4943 18.5902 13.0295C18.5902 9.56465 15.7814 6.75586 12.3166 6.75586C8.85176 6.75586 6.04297 9.56465 6.04297 13.0295C6.04297 16.4943 8.85176 19.3031 12.3166 19.3031Z" fill="white"/>
<path d="M19.0969 4.74023L12.3212 14.5319L8.65039 10.9791V12.726L12.4542 16.4562L19.0969 6.8201V4.74023Z" fill="#D0CFCE"/>
<path d="M18.0845 10.537C18.4104 11.3069 18.5776 12.1347 18.5762 12.9707C18.5762 16.4224 15.7779 19.2207 12.3262 19.2207C8.87444 19.2207 6.07617 16.4224 6.07617 12.9707C6.07617 9.51897 8.87444 6.7207 12.3262 6.7207C13.4605 6.7207 14.5241 7.02279 15.4411 7.55126" stroke="#878787" stroke-width="2" stroke-linecap="round" stroke-linejoin="round"/>
<path d="M18.949 4.90527L12.3261 14.4754L8.73828 11.0032V12.7105L12.4563 16.3563L18.949 6.93791V4.90527Z" stroke="#878787" stroke-width="2" stroke-linecap="round" stroke-linejoin="round"/>
</svg>
