<svg width="25" height="25" viewBox="0 0 25 25" fill="none" xmlns="http://www.w3.org/2000/svg">
<path d="M12.3166 18.8324C15.7814 18.8324 18.5902 16.0236 18.5902 12.5588C18.5902 9.09395 15.7814 6.28516 12.3166 6.28516C8.85176 6.28516 6.04297 9.09395 6.04297 12.5588C6.04297 16.0236 8.85176 18.8324 12.3166 18.8324Z" fill="#0884A2"/>
<path d="M19.0969 4.26953L12.3212 14.0612L8.65039 10.5084V12.2553L12.4542 15.9855L19.0969 6.34939V4.26953Z" fill="#D0CFCE"/>
<path d="M18.0845 10.0663C18.4104 10.8362 18.5776 11.664 18.5762 12.5C18.5762 15.9517 15.7779 18.75 12.3262 18.75C8.87444 18.75 6.07617 15.9517 6.07617 12.5C6.07617 9.04826 8.87444 6.25 12.3262 6.25C13.4605 6.25 14.5241 6.55208 15.4411 7.08056" stroke="white" stroke-width="2" stroke-linecap="round" stroke-linejoin="round"/>
<path d="M18.949 4.43359L12.3261 14.0037L8.73828 10.5315V12.2388L12.4563 15.8846L18.949 6.46623V4.43359Z" stroke="white" stroke-width="2" stroke-linecap="round" stroke-linejoin="round"/>
</svg>
