<svg width="22" height="23" viewBox="0 0 22 23" fill="none" xmlns="http://www.w3.org/2000/svg">
<g clip-path="url(#clip0_3264_3040)">
<path d="M6.2403 0.970703C6.44452 0.970703 6.64037 1.05183 6.78477 1.19623C6.92918 1.34063 7.0103 1.53649 7.0103 1.7407V3.1806H15.279V1.7506C15.279 1.54639 15.3601 1.35053 15.5045 1.20613C15.6489 1.06173 15.8448 0.980603 16.049 0.980603C16.2532 0.980603 16.4491 1.06173 16.5935 1.20613C16.7379 1.35053 16.819 1.54639 16.819 1.7506V3.1806H19.8C20.3833 3.1806 20.9427 3.41224 21.3552 3.82458C21.7678 4.23692 21.9997 4.79622 22 5.3795V20.7718C21.9997 21.3551 21.7678 21.9144 21.3552 22.3267C20.9427 22.7391 20.3833 22.9707 19.8 22.9707H2.2C1.61671 22.9707 1.0573 22.7391 0.644754 22.3267C0.232205 21.9144 0.000291643 21.3551 0 20.7718L0 5.3795C0.000291643 4.79622 0.232205 4.23692 0.644754 3.82458C1.0573 3.41224 1.61671 3.1806 2.2 3.1806H5.4703V1.7396C5.47059 1.53558 5.55185 1.34001 5.69622 1.19584C5.84059 1.05168 6.03627 0.970703 6.2403 0.970703ZM1.54 9.4869V20.7718C1.54 20.8585 1.55707 20.9443 1.59024 21.0244C1.62341 21.1045 1.67202 21.1772 1.73331 21.2385C1.7946 21.2998 1.86735 21.3484 1.94743 21.3816C2.0275 21.4147 2.11333 21.4318 2.2 21.4318H19.8C19.8867 21.4318 19.9725 21.4147 20.0526 21.3816C20.1326 21.3484 20.2054 21.2998 20.2667 21.2385C20.328 21.1772 20.3766 21.1045 20.4098 21.0244C20.4429 20.9443 20.46 20.8585 20.46 20.7718V9.5023L1.54 9.4869ZM7.3337 17.0516V18.8842H5.5V17.0516H7.3337ZM11.9163 17.0516V18.8842H10.0837V17.0516H11.9163ZM16.5 17.0516V18.8842H14.6663V17.0516H16.5ZM7.3337 12.6769V14.5095H5.5V12.6769H7.3337ZM11.9163 12.6769V14.5095H10.0837V12.6769H11.9163ZM16.5 12.6769V14.5095H14.6663V12.6769H16.5ZM5.4703 4.7195H2.2C2.11333 4.7195 2.0275 4.73657 1.94743 4.76974C1.86735 4.80291 1.7946 4.85153 1.73331 4.91281C1.67202 4.9741 1.62341 5.04686 1.59024 5.12693C1.55707 5.20701 1.54 5.29283 1.54 5.3795V7.948L20.46 7.9634V5.3795C20.46 5.29283 20.4429 5.20701 20.4098 5.12693C20.3766 5.04686 20.328 4.9741 20.2667 4.91281C20.2054 4.85153 20.1326 4.80291 20.0526 4.76974C19.9725 4.73657 19.8867 4.7195 19.8 4.7195H16.819V5.7414C16.819 5.94562 16.7379 6.14147 16.5935 6.28588C16.4491 6.43028 16.2532 6.5114 16.049 6.5114C15.8448 6.5114 15.6489 6.43028 15.5045 6.28588C15.3601 6.14147 15.279 5.94562 15.279 5.7414V4.7195H7.0103V5.7315C7.0103 5.93572 6.92918 6.13157 6.78477 6.27598C6.64037 6.42038 6.44452 6.5015 6.2403 6.5015C6.03608 6.5015 5.84023 6.42038 5.69583 6.27598C5.55142 6.13157 5.4703 5.93572 5.4703 5.7315V4.7195Z" fill="#424242"/>
</g>
<defs>
<clipPath id="clip0_3264_3040">
<rect width="22" height="22" fill="white" transform="translate(0 0.970703)"/>
</clipPath>
</defs>
</svg>
