<svg width="36" height="38" viewBox="0 0 36 38" fill="none" xmlns="http://www.w3.org/2000/svg">
<path fill-rule="evenodd" clip-rule="evenodd" d="M25.6309 13.3243C25.3875 13.084 25.0988 12.9638 24.7655 12.9638H23.5349V12.053C23.5349 11.6357 23.3841 11.2783 23.0828 10.9811C22.7814 10.6838 22.4194 10.5352 21.9962 10.5352H21.381C20.9578 10.5352 20.5957 10.6838 20.2944 10.9811C19.993 11.2783 19.8423 11.6357 19.8423 12.0531V12.9638H16.1502V12.0531C16.1502 11.6357 15.9995 11.2784 15.6981 10.9811C15.3969 10.6838 15.0347 10.5352 14.6115 10.5352H13.9962C13.5731 10.5352 13.2109 10.6838 12.9096 10.9811C12.6084 11.2783 12.4576 11.6357 12.4576 12.0531V12.9638H11.2269C10.8935 12.9638 10.6051 13.084 10.3615 13.3243C10.1179 13.5646 9.99609 13.8493 9.99609 14.1781V26.321C9.99609 26.6496 10.1179 26.9342 10.3615 27.1747C10.6051 27.4149 10.8935 27.5352 11.2269 27.5352H24.7653C25.0986 27.5352 25.3873 27.415 25.6306 27.1747C25.8742 26.9343 25.9961 26.6496 25.9961 26.321V14.1781C25.9961 13.8492 25.8743 13.5646 25.6309 13.3243ZM13.9961 26.3208H11.2269V23.5886H13.9961V26.3208ZM11.2269 22.9816H13.9961V19.9461H11.2269V22.9816ZM13.9961 19.3386H11.2269V16.6066H13.9961V19.3386ZM13.6886 14.7852C13.6886 14.8675 13.719 14.9385 13.7799 14.9986C13.8408 15.0587 13.9129 15.0888 13.9962 15.0887H14.6115C14.695 15.0887 14.767 15.0587 14.8279 14.9986C14.8887 14.9385 14.9193 14.8675 14.9193 14.7852V12.0532C14.9193 11.971 14.8888 11.8998 14.8279 11.8397C14.767 11.7796 14.6949 11.7496 14.6115 11.7496H13.9962C13.9128 11.7496 13.8408 11.7796 13.7799 11.8397C13.719 11.8997 13.6886 11.971 13.6886 12.0532V14.7852ZM17.6885 26.3208H14.6114V23.5886H17.6885V26.3208ZM14.6114 22.9816H17.6885V19.9461H14.6114V22.9816ZM17.6885 19.3386H14.6114V16.6066H17.6885V19.3386ZM18.304 26.3208H21.381V23.5886H18.304V26.3208ZM21.381 22.9816H18.304V19.9461H21.381V22.9816ZM18.304 19.3386H21.381V16.6066H18.304V19.3386ZM21.1645 14.9986C21.1037 14.9385 21.0734 14.8675 21.0734 14.7852V12.0532C21.0734 11.971 21.1037 11.8997 21.1645 11.8397C21.2254 11.7796 21.2975 11.7496 21.381 11.7496H21.9962C22.0797 11.7496 22.1517 11.7796 22.2127 11.8397C22.2736 11.8998 22.3038 11.971 22.3038 12.0532V14.7852C22.3038 14.8675 22.2734 14.9385 22.2127 14.9986C22.1518 15.0587 22.0797 15.0887 21.9962 15.0887H21.381C21.2976 15.0888 21.2252 15.0587 21.1645 14.9986ZM21.996 26.3208H24.7653V23.5886H21.996V26.3208ZM24.7653 22.9816H21.996V19.9461H24.7653V22.9816ZM21.996 19.3386H24.7653V16.6066H21.996V19.3386Z" fill="black"/>
</svg>
