<svg width="25" height="25" viewBox="0 0 25 25" fill="none" xmlns="http://www.w3.org/2000/svg">
<path d="M16.668 13.5415L22.1086 17.1686C22.187 17.2208 22.2781 17.2507 22.3722 17.2552C22.4664 17.2597 22.5599 17.2386 22.643 17.1941C22.726 17.1497 22.7955 17.0835 22.8439 17.0027C22.8923 16.9219 22.9179 16.8295 22.918 16.7352V8.19775C22.918 8.1061 22.8938 8.01608 22.8479 7.93675C22.8021 7.85743 22.736 7.79162 22.6566 7.74597C22.5771 7.70032 22.487 7.67645 22.3954 7.67676C22.3037 7.67707 22.2138 7.70156 22.1346 7.74775L16.668 10.9373" stroke="#424242" stroke-width="2" stroke-linecap="round" stroke-linejoin="round"/>
<path d="M14.584 6.25H4.16732C3.01672 6.25 2.08398 7.18274 2.08398 8.33333V16.6667C2.08398 17.8173 3.01672 18.75 4.16732 18.75H14.584C15.7346 18.75 16.6673 17.8173 16.6673 16.6667V8.33333C16.6673 7.18274 15.7346 6.25 14.584 6.25Z" stroke="#424242" stroke-width="2" stroke-linecap="round" stroke-linejoin="round"/>
</svg>
