<svg width="22" height="22" viewBox="0 0 22 22" fill="none" xmlns="http://www.w3.org/2000/svg">
<path fill-rule="evenodd" clip-rule="evenodd" d="M0 3C0 2.20435 0.231785 1.44129 0.644365 0.87868C1.05695 0.316071 1.61652 0 2.2 0H19.8C20.3835 0 20.9431 0.316071 21.3556 0.87868C21.7682 1.44129 22 2.20435 22 3V19C22 19.7956 21.7682 20.5587 21.3556 21.1213C20.9431 21.6839 20.3835 22 19.8 22H2.2C1.61652 22 1.05695 21.6839 0.644365 21.1213C0.231785 20.5587 0 19.7956 0 19L0 3ZM4.4 8C4.4 6.93913 4.70905 5.92172 5.25915 5.17157C5.80926 4.42143 6.55537 4 7.33333 4C8.1113 4 8.85741 4.42143 9.40751 5.17157C9.95762 5.92172 10.2667 6.93913 10.2667 8C10.2667 9.06087 9.95762 10.0783 9.40751 10.8284C8.85741 11.5786 8.1113 12 7.33333 12C6.55537 12 5.80926 11.5786 5.25915 10.8284C4.70905 10.0783 4.4 9.06087 4.4 8ZM17.6 8H13.2V6H17.6V8ZM17.6 14H13.2V12H17.6V14ZM7.33333 14C6.53608 14 5.75458 14.3027 5.0764 14.8743C4.39821 15.4458 3.85014 16.2636 3.4936 17.236L3.0096 18.552C2.95352 18.7046 2.92702 18.8743 2.93263 19.0448C2.93823 19.2153 2.97575 19.381 3.04162 19.5262C3.10749 19.6714 3.19951 19.7911 3.30892 19.874C3.41833 19.957 3.54149 20.0003 3.66667 20H11C11.1251 20 11.248 19.9564 11.3572 19.8733C11.4665 19.7902 11.5583 19.6704 11.624 19.5253C11.6897 19.3802 11.7271 19.2146 11.7326 19.0443C11.7381 18.8739 11.7116 18.7045 11.6556 18.552L11.1731 17.236C10.8165 16.2636 10.2685 15.4458 9.59027 14.8743C8.91209 14.3027 8.13058 14 7.33333 14Z" fill="#CCCCCC"/>
</svg>
