<svg width="73" height="72" viewBox="0 0 73 72" fill="none" xmlns="http://www.w3.org/2000/svg">
<path d="M0.666016 36C0.666016 16.1178 16.7838 0 36.666 0C56.5483 0 72.666 16.1178 72.666 36C72.666 55.8823 56.5483 72 36.666 72C16.7838 72 0.666016 55.8823 0.666016 36Z" fill="#0884A2"/>
<path d="M39.0837 48.5H18.2503C17.0997 48.5 16.167 47.5673 16.167 46.4167V19.3333C16.167 18.1827 17.0997 17.25 18.2503 17.25H55.7503C56.901 17.25 57.8337 18.1827 57.8337 19.3333V46.4167C57.8337 47.5673 56.901 48.5 55.7503 48.5H47.417" stroke="white" stroke-width="4" stroke-linecap="round" stroke-linejoin="round"/>
<path d="M24.5 25.584H49.5" stroke="white" stroke-width="4" stroke-linecap="round" stroke-linejoin="round"/>
<path d="M24.5 32.875H30.75" stroke="white" stroke-width="4" stroke-linecap="round" stroke-linejoin="round"/>
<path d="M24.5 40.166H28.6667" stroke="white" stroke-width="4" stroke-linecap="round" stroke-linejoin="round"/>
<path d="M43.25 45.375C46.7018 45.375 49.5 42.5768 49.5 39.125C49.5 35.6732 46.7018 32.875 43.25 32.875C39.7982 32.875 37 35.6732 37 39.125C37 42.5768 39.7982 45.375 43.25 45.375Z" fill="#0884A2" stroke="white" stroke-width="4"/>
<path d="M43.2507 52.6663L47.4173 54.7497V43.7832C47.4173 43.7832 46.2292 45.3747 43.2507 45.3747C40.2721 45.3747 39.084 43.8122 39.084 43.8122V54.7497L43.2507 52.6663Z" fill="#0884A2" stroke="white" stroke-width="4" stroke-linecap="round" stroke-linejoin="round"/>
</svg>
