<svg width="73" height="72" viewBox="0 0 73 72" fill="none" xmlns="http://www.w3.org/2000/svg">
<path d="M0.666504 36C0.666504 16.1178 16.7843 0 36.6665 0C56.5488 0 72.6665 16.1178 72.6665 36C72.6665 55.8823 56.5488 72 36.6665 72C16.7843 72 0.666504 55.8823 0.666504 36Z" fill="#0884A2"/>
<path d="M33.9366 49.0211L36.925 45.6812C37.1029 45.651 37.2848 45.6359 37.4707 45.6359C38.2009 45.6362 38.9136 45.8865 39.5128 46.3531C40.112 46.8197 40.5689 47.4802 40.8221 48.2458C41.0753 49.0113 41.1127 49.8452 40.9291 50.6352C40.7456 51.4252 40.3499 52.1334 39.7954 52.6645C39.2409 53.1956 38.5542 53.5242 37.8276 53.606C37.101 53.6879 36.3694 53.519 35.7313 53.1222C35.0932 52.7253 34.5791 52.1196 34.2582 51.3864C33.9374 50.6532 33.8251 49.8277 33.9366 49.0211ZM40.9547 41.18L42.7181 39.2091C43.5784 39.7631 44.372 40.4529 45.0702 41.2652C45.2892 41.5199 45.4087 41.8613 45.4025 42.2145C45.3962 42.5676 45.2647 42.9035 45.0369 43.1483C44.809 43.393 44.5035 43.5266 44.1875 43.5196C43.8716 43.5126 43.571 43.3656 43.352 43.111C42.6656 42.3085 41.853 41.654 40.9547 41.18ZM46.1068 35.419L47.8131 33.5147C48.5487 34.1344 49.2398 34.8197 49.8864 35.5708C49.9946 35.6971 50.0796 35.846 50.1364 36.0089C50.1932 36.1719 50.2207 36.3458 50.2174 36.5206C50.2141 36.6955 50.18 36.8679 50.1171 37.028C50.0541 37.1882 49.9636 37.3329 49.8506 37.4539C49.7376 37.5749 49.6045 37.6699 49.4586 37.7333C49.3128 37.7968 49.1573 37.8276 49.0008 37.8239C48.8444 37.8202 48.6901 37.7821 48.5468 37.7117C48.4036 37.6414 48.2741 37.5402 48.1658 37.4139C47.535 36.6806 46.8458 36.0129 46.1068 35.419ZM35.233 32.5052C32.0384 33.0478 29.091 34.7458 26.8423 37.3393C26.6212 37.5884 26.3211 37.73 26.0072 37.7332C25.6933 37.7363 25.3909 37.6009 25.1658 37.3564C24.9407 37.1118 24.8111 36.7779 24.805 36.4271C24.799 36.0763 24.9171 35.737 25.1336 35.4829C26.7721 33.594 28.7409 32.1021 30.9174 31.1C33.094 30.0979 35.4317 29.607 37.7852 29.658L35.233 32.5052ZM51.1327 29.8045L52.8247 27.9135C53.4776 28.5279 54.102 29.1813 54.6977 29.8738C54.9033 30.131 55.0115 30.4674 54.9996 30.812C54.9877 31.1567 54.8567 31.4827 54.634 31.7215C54.4114 31.9603 54.1145 32.0933 53.806 32.0924C53.4974 32.0916 53.2011 31.9569 52.9796 31.7169C52.398 31.0395 51.7813 30.401 51.1327 29.8045ZM42.0604 24.8772C40.5526 24.5103 39.0138 24.3263 37.4707 24.3285C34.5956 24.3255 31.7493 24.9685 29.101 26.2195C26.4527 27.4704 24.0564 29.3037 22.0547 31.6103C21.9461 31.7378 21.8159 31.8399 21.6718 31.9107C21.5276 31.9816 21.3723 32.0199 21.2149 32.0232C21.0574 32.0266 20.9009 31.9951 20.7544 31.9304C20.608 31.8658 20.4744 31.7693 20.3615 31.6467C20.2486 31.524 20.1585 31.3775 20.0966 31.2156C20.0346 31.0538 20.002 30.8799 20.0005 30.7039C19.9991 30.5279 20.0289 30.3533 20.0882 30.1902C20.1475 30.0272 20.2352 29.8789 20.3461 29.7539C22.5699 27.1919 25.2317 25.1557 28.1735 23.7661C31.1153 22.3766 34.277 21.6621 37.4707 21.6651C39.7203 21.6651 41.9222 22.014 44.0241 22.6825L42.0604 24.8772ZM37.4707 50.9627C37.7867 50.9627 38.0898 50.8224 38.3132 50.5727C38.5367 50.323 38.6622 49.9842 38.6622 49.631C38.6622 49.2778 38.5367 48.9391 38.3132 48.6894C38.0898 48.4396 37.7867 48.2993 37.4707 48.2993C37.1547 48.2993 36.8516 48.4396 36.6281 48.6894C36.4047 48.9391 36.2792 49.2778 36.2792 49.631C36.2792 49.9842 36.4047 50.323 36.6281 50.5727C36.8516 50.8224 37.1547 50.9627 37.4707 50.9627ZM24.545 53.6262C24.3203 53.8688 24.0193 54.003 23.7069 54C23.3945 53.9969 23.0956 53.8569 22.8747 53.6099C22.6538 53.363 22.5285 53.029 22.5258 52.6799C22.5231 52.3307 22.6431 51.9943 22.8602 51.7431L52.1169 19.3905C52.3406 19.1405 52.6441 19 52.9605 19C53.2769 19 53.5804 19.1405 53.8041 19.3905C54.0278 19.6406 54.1535 19.9798 54.1535 20.3334C54.1535 20.687 54.0278 21.0262 53.8041 21.2762L24.545 53.6262Z" fill="white"/>
</svg>
