<svg width="30" height="31" viewBox="0 0 30 31" fill="none" xmlns="http://www.w3.org/2000/svg">
<path fill-rule="evenodd" clip-rule="evenodd" d="M15 28.4824C21.9037 28.4824 27.5 22.8862 27.5 15.9824C27.5 9.07867 21.9037 3.48242 15 3.48242C8.09625 3.48242 2.5 9.07867 2.5 15.9824C2.5 22.8862 8.09625 28.4824 15 28.4824ZM21.7138 12.0262C21.7722 11.9659 21.818 11.8945 21.8482 11.8162C21.8785 11.7379 21.8927 11.6543 21.89 11.5704C21.8872 11.4865 21.8676 11.404 21.8322 11.3278C21.7969 11.2517 21.7466 11.1834 21.6843 11.1271C21.622 11.0708 21.549 11.0277 21.4697 11.0002C21.3903 10.9728 21.3063 10.9616 21.2225 10.9673C21.1388 10.9731 21.057 10.9956 20.9822 11.0337C20.9073 11.0717 20.8409 11.1244 20.7869 11.1887L13.3 19.4618L9.18125 15.5299C9.06141 15.4154 8.90097 15.3531 8.73523 15.3569C8.5695 15.3606 8.41204 15.4301 8.2975 15.5499C8.18296 15.6698 8.12072 15.8302 8.12447 15.9959C8.12822 16.1617 8.19766 16.3191 8.3175 16.4337L12.9012 20.8087L13.3656 21.2524L13.7962 20.7762L21.7138 12.0262Z" fill="#2DC071"/>
</svg>
