<svg width="364" height="9" viewBox="0 0 364 9" fill="none" xmlns="http://www.w3.org/2000/svg">
<mask id="mask0_2155_5828" style="mask-type:alpha" maskUnits="userSpaceOnUse" x="0" y="0" width="364" height="9">
<rect width="364" height="8.1974" fill="#C4C4C4"/>
</mask>
<g mask="url(#mask0_2155_5828)">
<path d="M54.6741 -1.73345L55.5637 -1.8415L53.8326 -1.99642L54.6624 -2.10981C55.4946 -2.10878 56.5728 -1.93886 57.1595 -2.02915C57.2312 -2.11656 56.325 -2.14461 56.0938 -2.21426C55.8892 -2.28564 55.7222 -2.35656 55.5948 -2.42617C56.048 -2.42542 56.5462 -2.40858 57.0599 -2.37665C57.7509 -2.3245 58.4286 -2.29914 59.0183 -2.30339C60.2243 -2.28931 61.3893 -2.30336 62.7003 -2.30026L62.2641 -2.51064L63.9538 -2.46142C64.1329 -2.44539 64.3463 -2.47117 64.5223 -2.45134C65.9867 -2.28358 66.6063 -2.375 67.3092 -2.4508C67.4534 -2.47041 67.627 -2.48506 67.8255 -2.49435C69.779 -2.45416 71.5405 -2.21902 73.2997 -2.09831C73.6309 -2.06748 73.9484 -2.02792 74.23 -1.98243C74.8419 -1.89398 75.5225 -1.82176 76.2096 -1.77239C76.8967 -1.72302 77.5684 -1.69807 78.1632 -1.69981C79.4785 -1.70176 80.9644 -1.64326 82.4773 -1.52996C82.9273 -1.49264 83.3774 -1.46802 83.7992 -1.45767C84.221 -1.44732 84.6052 -1.45146 84.9271 -1.46984L85.9499 -1.34975C86.3933 -1.39848 86.9555 -1.42522 87.6025 -1.42833C88.2494 -1.43145 88.9676 -1.41089 89.7133 -1.36789C90.5081 -1.32125 91.3154 -1.28981 92.1399 -1.24049C93.8433 -1.14622 95.501 -1.08856 97.0617 -1.06931C99.3858 -1.01228 101.656 -0.968179 104.001 -0.897072C105.468 -0.862749 106.897 -0.843871 108.28 -0.840537C109.937 -0.827112 111.728 -0.76212 113.569 -0.648698C113.482 -0.542283 112.675 -0.573721 112.133 -0.577322C110.385 -0.59501 108.597 -0.640842 106.799 -0.675273C105.989 -0.688712 105.201 -0.693803 104.44 -0.690507C103.168 -0.694919 101.828 -0.723274 100.441 -0.775087C98.25 -0.832099 96.1293 -0.859505 94.1002 -0.857024C93.9411 -0.852809 93.7953 -0.84534 93.6654 -0.834741C93.6382 -0.825562 93.6329 -0.813985 93.6498 -0.801126C93.6667 -0.788265 93.7054 -0.774546 93.762 -0.761288C93.8187 -0.748031 93.8914 -0.735679 93.9733 -0.725408C94.0552 -0.715139 94.1436 -0.707294 94.2299 -0.702632C95.0358 -0.630515 95.9013 -0.553058 96.6613 -0.542162C96.6907 -0.541347 96.722 -0.539488 96.753 -0.536716C96.784 -0.533945 96.8138 -0.53033 96.8404 -0.526136C98.5418 -0.373888 99.9406 -0.399652 101.266 -0.374881C103.466 -0.307936 105.587 -0.276665 107.597 -0.281543C107.901 -0.281211 108.229 -0.272509 108.569 -0.25575C110.674 -0.187814 112.642 -0.180216 114.382 -0.233298C115.098 -0.246746 115.763 -0.276937 116.533 -0.277442C117.006 -0.27952 117.419 -0.298785 117.745 -0.334085C118.072 -0.369385 118.305 -0.41999 118.431 -0.482856C118.756 -0.449758 119.085 -0.42026 119.416 -0.394716C119.614 -0.38011 119.803 -0.376231 119.946 -0.383874C120.089 -0.391517 120.175 -0.410111 120.187 -0.435896C120.246 -0.508106 119.795 -0.54437 119.404 -0.575292C119.64 -0.590779 119.906 -0.59989 120.195 -0.602405C121.825 -0.618905 123.574 -0.59943 125.402 -0.544409C126.822 -0.47855 127.955 -0.532155 129.449 -0.439281C129.628 -0.423254 129.776 -0.446777 129.94 -0.452424C130.37 -0.482166 130.906 -0.488851 131.5 -0.471895C132.095 -0.454938 132.731 -0.414852 133.353 -0.355112C134.127 -0.518324 135.801 -0.331869 137.037 -0.315112C137.417 -0.232111 136.98 -0.246702 136.962 -0.223899C136.943 -0.201096 136.962 -0.223904 136.812 -0.237259C135.579 -0.119715 133.888 -0.0940842 131.979 -0.163969C131.625 -0.163679 131.289 -0.158324 130.972 -0.147957C130.493 -0.133282 129.952 -0.134746 129.374 -0.152288C128.742 -0.165171 128.162 -0.159052 127.661 -0.134227C127.373 -0.134632 127.129 -0.122196 126.952 -0.0980643C126.776 -0.0739321 126.672 -0.0388868 126.651 0.00381418C126.843 0.0367336 127.056 0.0668546 127.282 0.0929825C128.462 0.196146 129.639 0.238847 130.58 0.212686C132.219 0.167611 134.17 0.211597 135.912 0.196209C137.09 0.189975 138.344 0.207732 139.649 0.249149C139.649 0.249149 139.615 0.290954 139.612 0.294755C139.766 0.312856 139.929 0.327378 140.09 0.337492C140.09 0.337492 140.09 0.337492 140.105 0.31849C140.034 0.300241 139.937 0.283074 139.825 0.268975L139.437 0.234251C139.701 0.225214 139.947 0.198309 140.222 0.214749C140.801 0.245288 141.355 0.258181 141.85 0.252661C142.344 0.247141 142.77 0.223318 143.1 0.182624C143.686 0.130471 144.415 0.106753 145.24 0.113005C145.872 0.107311 146.481 0.0950732 147.064 0.076353C147.064 0.076353 147.101 0.0307495 147.378 0.0065114C147.116 -0.0233841 146.843 -0.0477953 146.572 -0.0656028C145.391 -0.110093 144.207 -0.150784 143.046 -0.181202C142.619 -0.184487 142.217 -0.179391 141.848 -0.166012C140.827 -0.150355 139.68 -0.172576 138.474 -0.23138C138.474 -0.23138 138.235 -0.252747 138.116 -0.263431C138.454 -0.36368 139.621 -0.263318 140.093 -0.331211C140.381 -0.329974 140.886 -0.321437 140.869 -0.33931C140.83 -0.363161 140.825 -0.385319 140.855 -0.404192C140.886 -0.423067 140.95 -0.438191 141.044 -0.448479C141.139 -0.458768 141.26 -0.463968 141.4 -0.463704C141.54 -0.463439 141.695 -0.457716 141.854 -0.446949C143.183 -0.388704 144.434 -0.372507 145.532 -0.399349C145.948 -0.398831 146.414 -0.381568 146.827 -0.377249C147.08 -0.372048 147.311 -0.37494 147.507 -0.385768C148.505 -0.465517 149.848 -0.47134 151.333 -0.402366C152.052 -0.377567 152.723 -0.374251 153.312 -0.392587C153.731 -0.395869 153.909 -0.33917 154.207 -0.312459L155.475 -0.256154L153.847 -0.185602C154.195 -0.0239192 154.472 0.0293932 155.04 0.0394661C155.869 0.054677 156.677 0.061549 157.458 0.0600402C158.036 0.0587111 158.513 0.0238904 159.295 0.0857366C159.433 0.0958233 159.567 0.099088 159.672 0.0949832C160.588 0.0400789 161.691 0.0274769 162.906 0.0580415C163.535 -0.0447727 164.607 0.0551896 165.598 0.135732C165.918 0.0582848 165.338 0.0227339 164.992 -0.0245199C165.822 -0.0196837 166.657 -0.0224447 167.513 -0.0111367C167.77 -0.015254 168.064 -0.00821126 168.372 0.00943668C168.68 0.0270829 168.993 0.0548521 169.287 0.0905713C169.431 0.113651 169.604 0.131022 169.77 0.139075C169.936 0.147129 170.084 0.145251 170.181 0.133828C170.625 0.100142 171.337 0.131169 171.704 0.0742665C171.834 0.0611794 172.021 0.0593525 172.23 0.0691048C172.439 0.0788568 172.657 0.0995565 172.846 0.127494C172.64 0.136211 172.456 0.149936 172.299 0.168369C171.738 0.228248 171.944 0.328299 172.658 0.473757C173.754 0.465758 174.873 0.468029 175.889 0.440615C176.455 0.416005 177.149 0.423698 177.892 0.46283C178.635 0.501961 179.399 0.570978 180.096 0.662122C180.349 0.697171 180.637 0.721443 180.903 0.730125C181.169 0.738806 181.393 0.731259 181.532 0.708975C181.618 0.683206 181.645 0.650592 181.61 0.613961L180.893 0.549859C180.893 0.549859 180.921 0.515654 180.928 0.508053L181.958 0.502307C182.502 0.502107 183.071 0.512183 183.586 0.509312C184.342 0.490223 185.206 0.500863 186.123 0.540572C186.97 0.58129 187.801 0.612067 188.611 0.632633C189.395 0.653802 189.962 0.586318 190.708 0.57554C191.272 0.567417 191.892 0.576098 192.545 0.601244C193.673 0.645844 194.709 0.645928 195.557 0.601485C196.546 0.840934 197.027 0.879865 197.945 0.815164L198.376 0.79668L198.494 0.848037L198.824 0.836744C199.441 0.826684 200.058 0.816629 200.702 0.813041C201.597 0.835263 202.563 0.895049 203.507 0.986559C203.686 1.00259 203.93 1.05704 204.087 1.09967C204.244 1.1423 204.587 1.2709 204.839 1.35462C204.565 1.41573 204.261 1.47417 204.043 1.54443C204.021 1.55643 204.023 1.57075 204.049 1.58622C204.075 1.60169 204.124 1.61789 204.192 1.63352C204.26 1.64914 204.346 1.66376 204.442 1.67619C204.537 1.68862 204.641 1.69852 204.744 1.70509C204.945 1.71926 205.143 1.72871 205.33 1.73304C206.252 1.74051 207.135 1.73496 207.971 1.71643C208.276 1.69029 208.693 1.68781 209.157 1.70938C209.621 1.73095 210.105 1.77534 210.532 1.83551C211.625 1.79939 212.895 1.81006 214.255 1.86678C215.693 1.83228 217.43 1.90205 218.774 1.82646C218.742 1.86447 218.881 1.9299 219.074 1.9676C219.38 2.02486 219.727 2.07793 220.099 2.12456L222.94 2.2156C223.046 2.26241 223.179 2.30981 223.336 2.35715C223.444 2.39456 223.632 2.43115 223.861 2.45919C224.089 2.48723 224.339 2.5045 224.559 2.50735C225.124 2.52122 225.598 2.4902 226.272 2.56684C225.234 2.63928 223.834 2.62965 222.322 2.53968C220.901 2.47125 219.534 2.43705 218.272 2.43835C217.856 2.43783 217.308 2.44183 217.178 2.48322C216.889 2.60021 216.136 2.58172 215.256 2.56014C214.565 2.53652 213.934 2.53917 213.415 2.56787C212.896 2.59658 212.503 2.65053 212.269 2.72527C212.21 2.79748 212.352 2.85912 212.958 2.90114L215.479 3.06963C215.851 3.04797 216.203 3.02232 216.535 2.99281C217.095 2.9536 217.786 2.94284 218.554 2.96136C219.322 2.97988 220.147 3.02718 220.965 3.09958C221.383 3.13698 221.801 3.17437 222.104 3.1566C222.37 3.13619 222.615 3.11176 222.837 3.08347C222.882 3.06452 222.9 3.0427 222.89 3.01886C223.051 3.02995 223.212 3.04436 223.367 3.0616C224.612 3.26274 225.576 3.25926 226.452 3.20709C226.689 3.19158 226.869 3.16693 227.109 3.14762C227.35 3.12831 227.434 3.10325 227.652 3.11054C229.393 3.17651 229.894 2.95618 231.36 2.96503C231.432 2.95643 231.476 2.94356 231.489 2.92762C231.502 2.91168 231.484 2.89318 231.435 2.87382C231.331 2.85634 231.212 2.84131 231.086 2.83011C230.961 2.8189 230.835 2.81189 230.719 2.80972C230.044 2.78144 229.448 2.79011 229.032 2.83424C228.738 2.85228 228.427 2.86664 228.1 2.87727L226.632 2.55821C228.054 2.58745 229.4 2.58726 230.637 2.55764C230.907 2.541 231.364 2.56966 231.744 2.57511L234.539 2.60493C235.114 2.60741 235.603 2.55739 236.405 2.67398C236.405 2.67398 236.934 2.69278 237.075 2.67687C237.216 2.66094 237.842 2.56193 238.216 2.49743C238.649 2.51582 239.249 2.56544 239.519 2.54881C239.991 2.50794 240.399 2.45555 240.737 2.39258L242.425 2.48248C242.423 2.56233 242.361 2.63746 242.241 2.70671C242.109 2.7735 242.114 2.85367 242.254 2.94067C242.394 3.02766 242.666 3.11902 243.048 3.20727L244.715 3.67466C244.987 3.70596 245.277 3.72703 245.546 3.73501C245.814 3.74299 246.048 3.73748 246.216 3.71925C246.934 3.66513 247.737 3.62282 248.454 3.56869C249.38 3.65149 249.142 3.78523 249.815 3.90255L251.993 4.09753C252.326 4.27821 252.664 4.4513 251.654 4.51179C251.453 4.52236 251.588 4.5916 251.405 4.62005C252.191 4.75565 253.054 4.79624 253.851 4.87976C254.165 4.93982 254.428 5.0034 254.626 5.06743C254.844 5.16383 255.286 5.26231 255.856 5.34159C256.427 5.42088 257.08 5.4746 257.675 5.49118C258.672 5.54193 259.694 5.61817 260.694 5.71647C261.035 5.75065 261.386 5.77556 261.723 5.78951C262.06 5.80346 262.374 5.80612 262.646 5.79734C263.613 5.78186 264.432 5.72863 265.049 5.64112C265.659 5.56686 266.481 5.53107 267.441 5.53699C269.083 5.6839 269.414 5.90527 270.407 6.10024L268.691 6.1221C268.629 6.19811 268.742 6.29395 268.039 6.29219C267.336 6.29044 267.692 6.36317 267.921 6.43661C268.001 6.47356 268.158 6.51156 268.365 6.54419C268.571 6.57682 268.815 6.60207 269.055 6.61566L270.516 6.70967C271.034 6.74545 271.535 6.76072 271.965 6.75382C272.395 6.74692 272.736 6.71812 272.951 6.67056C273.198 6.62541 273.54 6.59486 273.954 6.5808C274.482 6.54396 274.916 6.48917 275.24 6.41851L277.303 6.52146C277.39 6.45045 277.674 6.40067 278.105 6.38052C278.536 6.36036 279.088 6.37108 279.668 6.41086L281.058 6.47405C282.603 6.54299 282.942 6.52029 283.395 6.3201L281.542 5.96251C281.811 5.86832 282.071 5.78553 282.331 5.70274C281.87 5.58494 281.254 5.47351 280.546 5.37978C279.885 5.27907 279.206 5.18153 278.511 5.08752C277.757 4.99147 276.96 4.90795 276.024 4.79968C275.86 4.76465 275.623 4.7026 275.319 4.64282C275.016 4.58472 274.699 4.52777 274.37 4.47219C274.432 4.39618 274.488 4.32777 274.368 4.23953C274.945 4.26769 275.541 4.31693 276.102 4.38282C276.663 4.44871 277.172 4.52917 277.583 4.61696C277.652 4.63253 277.737 4.64715 277.831 4.65984C277.926 4.67253 278.028 4.68299 278.132 4.69051C279.145 4.74445 279.629 4.85714 280.124 4.9953C280.458 5.06592 280.888 5.12865 281.355 5.17476C282.25 5.25489 283.127 5.35783 283.983 5.44669C284.245 5.4763 284.518 5.50067 284.789 5.5188C285.684 5.57645 286.585 5.65706 287.446 5.75653C287.727 5.78181 287.996 5.81526 288.232 5.8541C288.467 5.89293 288.662 5.93601 288.8 5.97975C288.587 6.02766 288.472 6.08815 288.462 6.15755C288.425 6.20315 289.053 6.29613 289.351 6.36351C289.648 6.4309 289.065 6.39915 288.867 6.40593C288.056 6.41896 287.905 6.44628 288.391 6.59585C288.553 6.64288 288.661 6.68994 288.708 6.73409C288.754 6.77825 288.738 6.81857 288.661 6.85255C288.546 6.99317 288.195 7.10862 287.954 7.24616C288.328 7.33676 288.953 7.43353 289.022 7.5457C289.054 7.57058 289.124 7.59695 289.224 7.62288C289.325 7.64882 289.454 7.67368 289.604 7.69567C289.996 7.74314 290.354 7.79992 290.648 7.86159C290.941 7.92325 291.164 7.98817 291.298 8.05131C291.342 8.07742 291.448 8.10512 291.595 8.12886C291.742 8.1526 291.919 8.17062 292.09 8.17931C292.295 8.18997 292.479 8.18857 292.603 8.17538C292.727 8.16219 292.782 8.13821 292.757 8.10843C292.762 8.05247 292.735 7.99413 292.676 7.93392C292.71 7.89211 292.745 7.85031 292.609 7.78107C293.221 7.80633 293.863 7.85697 294.466 7.92748C295.069 7.99799 295.61 8.08567 296.03 8.18099C296.494 8.2796 296.921 8.38315 297.435 8.49851C297.329 8.62773 297.329 8.62773 298.424 8.85619L304.227 8.9676L305.417 9.11892C306.526 9.25082 306.79 9.24179 307.487 9.17359L307.956 9.10949C308.941 9.19764 310.075 9.29914 310.691 9.13397C310.891 9.24163 311.022 9.27778 310.976 9.29412C310.682 9.45298 310.171 9.58777 309.463 9.69316C309.283 9.71781 309.156 9.7554 308.946 9.77738C308.268 9.90144 308.111 10.0931 308.506 10.3133C308.702 10.4107 308.988 10.5104 309.353 10.6093C308.818 10.7465 308.111 10.8602 307.249 10.9473C306.518 11.0147 305.915 11.105 305.459 11.2155C305.05 11.327 304.437 11.4107 303.655 11.462C303.259 11.4838 302.969 11.5269 302.816 11.5868C302.77 11.7491 302.875 11.9229 303.128 12.1043C303.176 12.1595 303.311 12.2191 303.524 12.2785C303.736 12.3379 304.02 12.3954 304.353 12.4465C304.353 12.4465 304.514 12.4853 304.591 12.5085C304.655 12.7051 304.415 12.8783 303.886 13.0166C303.799 13.0558 303.622 13.0841 303.373 13.0985C303.124 13.1129 302.813 13.1128 302.473 13.0982C301.756 13.0748 301.085 13.0719 300.391 13.0587C299.643 13.0401 298.984 13.0548 298.484 13.1012C297.983 13.1476 297.66 13.224 297.548 13.3224C297.54 13.3503 297.518 13.3769 297.482 13.4022C297.461 13.4152 297.449 13.4292 297.448 13.444L299.042 13.7661L297.238 13.8944C297.132 14.0236 297.998 14.1011 298.432 14.197L298.164 14.2506C297.819 14.2809 297.354 14.2229 296.933 14.1893L296.515 14.1519L296.465 14.2127C296.205 14.2955 295.256 14.2025 294.886 14.2632C294.515 14.3239 294.78 14.3924 295.334 14.4583C295.72 14.5074 296.134 14.5464 296.545 14.5727C296.957 14.5989 297.355 14.6115 297.709 14.6097C297.921 14.6032 298.097 14.5883 298.225 14.5661C298.974 14.4714 299.801 14.39 300.7 14.3225C301.389 14.2618 302.253 14.2361 303.229 14.2469C303.516 14.2423 303.861 14.2567 304.205 14.2875C304.549 14.3183 304.869 14.3635 305.109 14.4152L305.615 14.4237C305.615 14.4237 305.892 14.477 305.853 14.4858C305.66 14.6437 305.884 14.8368 306.49 15.0365L305.963 15.0545C305.209 15.036 305.687 15.1563 305.574 15.2156C305.039 15.2044 304.343 15.1544 304.089 15.2295L303.709 15.2241L303.858 15.2374L304.039 15.2128L304.748 15.3252C304.412 15.3441 304.168 15.3672 303.872 15.3773C303.708 15.3862 303.577 15.4018 303.488 15.4233C303.399 15.4447 303.353 15.4716 303.353 15.5022C303.354 15.5494 303.265 15.5891 303.096 15.6175C302.927 15.6459 302.683 15.6622 302.386 15.6646C302.033 15.6657 301.831 15.7169 301.624 15.7351L302.524 16.0441C302.524 16.0441 302.076 16.004 302.32 16.0585L302.351 16.0205L302.896 16.0978C303.289 16.1656 303.564 16.182 303.796 16.1335C304.028 16.0849 303.975 16.1495 304.087 16.1309C304.046 16.1803 303.794 16.2148 303.577 16.2444C303.327 16.2676 303.044 16.2847 302.734 16.2954C303.293 16.5127 303.32 16.5192 302.503 16.5767C301.687 16.6342 301.969 16.7206 301.286 16.7329C300.603 16.7452 301.38 16.8922 301.837 16.9209C302.176 16.9397 302.521 16.9691 302.849 17.0069C303.178 17.0448 303.482 17.0902 303.739 17.1401L303.602 17.3073C303.401 17.2935 303.2 17.2755 303.005 17.2539C302.344 17.1621 301.742 17.0756 301.153 17.129L301.434 17.256L299.379 17.1824C299.433 17.2776 299.746 17.3861 300.253 17.4849C300.176 17.5392 300.129 17.5963 300.112 17.6559C300.078 17.6977 299.875 17.6714 299.744 17.6759C299.273 17.6829 298.887 17.7113 298.619 17.7584C298.352 17.8056 298.21 17.8702 298.208 17.9465C298.155 18.0111 298.878 18.1452 299.33 18.1407C300.459 18.1536 301.68 18.2033 302.927 18.2872C303.687 18.2981 303.794 18.1282 305.045 18.2441C305.069 18.3226 304.909 18.3861 304.588 18.4251C304.267 18.4641 303.803 18.4764 303.265 18.4602C303.571 18.6345 305.264 18.6799 305.339 18.862C304.917 18.8491 304.466 18.8189 304.031 18.7742C303.596 18.7295 303.191 18.6719 302.856 18.6072C302.784 18.5913 302.694 18.5766 302.593 18.5645C302.492 18.5524 302.385 18.5433 302.28 18.538C302.176 18.5327 302.078 18.5315 301.996 18.5343C301.914 18.5372 301.85 18.5441 301.81 18.5544C302.045 18.6203 302.303 18.6964 302.597 18.7676C302.891 18.8388 302.962 18.8696 303.174 18.8845C304.756 19.026 305.508 19.281 306.876 19.4483C307.234 19.4804 307.279 19.5823 306.968 19.5708C306.672 19.5592 306.404 19.5608 306.195 19.5751C305.985 19.5895 305.841 19.6161 305.78 19.6521C305.55 19.6941 305.265 19.7275 304.93 19.7514C306.333 20.0131 308.007 20.2443 309.793 20.4233C310.131 20.4586 310.484 20.4802 310.8 20.4848C311.797 20.4851 312.855 20.5058 313.953 20.5467C314.342 20.5578 314.702 20.5568 315.013 20.5436C316.032 20.5124 316.841 20.5807 317.58 20.7733L318.803 21.0786C318.763 21.128 318.557 21.1831 318.399 21.2587L319.355 21.4217L326.647 21.0462L328.111 21.4098L330.21 21.3896C330.371 21.4001 330.533 21.4145 330.688 21.4323C331.112 21.5396 331.444 21.6428 331.905 21.7452C332.366 21.8476 333.188 21.86 333.762 21.9807C334.336 22.1015 334.911 22.1039 335.621 22.1756C335.688 22.269 335.619 22.3532 335.418 22.4227C335.353 22.5025 334.992 22.5518 334.93 22.6278C334.936 22.7046 334.802 22.7698 334.539 22.8175C334.277 22.8653 333.893 22.8939 333.424 22.901C332.11 23.0646 330.526 23.181 328.719 23.2469C328.56 23.2517 328.428 23.2627 328.332 23.2794C328.236 23.296 328.177 23.3179 328.159 23.3437C328.161 23.4182 328.041 23.4827 327.806 23.5322C327.572 23.5818 327.229 23.6153 326.802 23.6302C326.689 23.6332 326.603 23.6426 326.556 23.6571C326.395 23.6665 326.277 23.6845 326.214 23.7093C326.152 23.7341 326.147 23.765 326.2 23.7988C326.252 23.8326 326.361 23.8684 326.516 23.9025C326.67 23.9367 326.865 23.9681 327.081 23.9938C327.395 24.0351 327.715 24.0747 328.041 24.1123C328.022 24.1351 327.699 24.1388 327.746 24.1594C327.874 24.2249 327.903 24.2864 327.833 24.3388C327.762 24.3912 327.592 24.4332 327.338 24.4614L329.081 24.9927C330.139 25.0663 331.177 25.1911 331.997 25.3434C331.998 25.3684 331.951 25.3893 331.86 25.4041C331.769 25.4189 331.638 25.427 331.48 25.4277C331.054 25.4385 330.652 25.4597 330.194 25.4717C329.914 25.4807 329.681 25.5004 329.508 25.5298C329.335 25.5592 329.227 25.5976 329.189 25.6428L330.212 25.8405C329.884 25.8886 329.641 25.9117 329.424 25.9413C329.547 26.0034 329.758 26.0677 330.041 26.1291C330.324 26.1905 330.671 26.2474 331.056 26.2954C331.159 26.3053 331.265 26.3126 331.366 26.3167C331.467 26.3208 331.562 26.3218 331.645 26.3196C332.438 26.2518 333.365 26.3715 334.265 26.4847C335.165 26.5979 335.654 26.6661 336.319 26.7541L337.591 26.7659C337.913 26.8076 338.2 26.8566 338.429 26.9091C338.659 26.9615 338.825 27.0159 338.913 27.0678C338.844 27.1515 338.241 27.1056 337.882 27.1143C337.029 27.1663 335.907 27.1552 334.704 27.0828C334.405 27.0561 334.099 27.0777 333.809 27.0802C333.182 27.0906 332.58 27.1076 332.005 27.1309C331.626 27.1527 331.272 27.1796 330.946 27.2116C330.858 27.318 332.233 27.4002 331.453 27.4528C331.721 27.4768 331.822 27.5103 331.96 27.4982C332.845 27.5673 333.717 27.6014 334.474 27.5967C335.928 27.582 337.579 27.6305 339.292 27.7382C341.141 27.8498 342.915 27.8966 344.467 27.8749C345.058 27.8736 345.718 27.8964 346.398 27.9417C347.201 28.0043 347.998 28.0437 348.738 28.0572C348.983 28.0577 349.256 28.0684 349.535 28.0884C349.814 28.1083 350.09 28.1371 350.342 28.1722C350.32 28.1988 350.08 28.2181 350.134 28.2311C350.9 28.4301 351.21 28.6374 352.389 28.8408C353.195 28.9129 354.12 28.9957 354.647 28.9001C355.174 28.8045 354.985 28.7223 353.936 28.4775C354.164 28.474 354.438 28.4854 354.711 28.5098C354.984 28.5343 355.238 28.5701 355.429 28.6111L356.336 28.7942L357.153 28.9694C357.082 29.0568 357.025 29.1252 356.966 29.1974C356.873 29.2741 356.975 29.3675 357.26 29.4644C357.432 29.5173 357.581 29.5702 357.707 29.6227C358.218 29.8325 358.366 30.0308 358.134 30.1953C357.69 30.4319 357.072 30.6496 356.287 30.8459C355.457 31.0369 355.004 31.2778 354.32 31.4859C353.972 31.5806 353.548 31.6655 353.055 31.7398C352.118 31.9048 351.092 32.0619 350.153 32.2307C349.213 32.3996 348.153 32.5209 347.109 32.66C345.556 32.8252 343.877 32.9679 342.081 33.0872C340.97 33.1918 339.83 33.2936 338.802 33.4138C337.588 33.5493 336.162 33.6466 334.56 33.7032C333.144 33.7711 331.88 33.8714 330.79 34.0023C330.676 34.0165 330.585 34.0345 330.522 34.0558C330.326 34.1893 329.776 34.2834 328.956 34.3237C329.006 34.3628 329.07 34.4025 329.147 34.4427C329.261 34.4907 329.285 34.5355 329.215 34.5715C329.146 34.6075 328.986 34.6329 328.757 34.6445C328.102 34.6775 327.557 34.7337 327.147 34.8105C326.997 34.8297 326.904 34.8578 326.875 34.8922C326.847 34.9266 326.885 34.9664 326.985 35.0081C327.074 35.051 327.081 35.0905 327.004 35.1215C326.927 35.1524 326.771 35.1734 326.555 35.1817C326 35.2223 325.406 35.255 324.776 35.2795C323.437 35.3337 321.879 35.333 320.196 35.2776C320.017 35.2616 319.837 35.2863 319.628 35.2676C318.438 35.2055 317.333 35.1959 316.447 35.2399C315.407 35.257 314.321 35.2536 313.225 35.2616C311.642 35.2563 310.181 35.2889 308.884 35.3587C307.401 35.2913 306.568 35.4085 305.317 35.4107C304.162 35.4227 303.067 35.4516 302.042 35.497C300.391 35.5573 298.746 35.61 297.118 35.6806C295.591 35.7142 294.185 35.7785 292.924 35.8723C292.44 35.9147 291.566 35.8486 291.236 35.9375C290.907 36.0263 290.243 36.0159 289.706 36.0453L288.012 36.1181C287.721 36.1355 287.401 36.1464 287.056 36.1509C285.482 36.1568 284.391 36.2755 282.93 36.2997L282.78 36.2863C280.185 36.4627 277.215 36.5595 273.958 36.5738C272.055 36.628 269.975 36.6254 267.956 36.665C267.474 36.7443 266.337 36.6466 265.733 36.719C265.129 36.7914 264.143 36.7439 263.364 36.7558C262.585 36.7678 261.824 36.7975 260.992 36.7965C260.269 36.7968 259.659 36.8292 259.217 36.8906C258.207 36.9921 256.976 37.0517 255.58 37.0669C253.732 37.0933 251.985 37.1531 250.105 37.14C250.132 37.2139 250.017 37.2769 249.771 37.3223C249.526 37.3677 249.158 37.394 248.708 37.3984C246.698 37.4266 244.876 37.5001 242.839 37.5219L242.295 37.5221L236.204 37.5646C234.564 37.5728 232.983 37.5863 231.309 37.5956C230.682 37.5395 230.667 37.6361 230.233 37.6177C230.112 37.5701 229.969 37.5492 229.756 37.575L229.709 37.632L222.759 37.7076C220.037 37.7629 217.175 37.7795 214.196 37.7572C213.489 37.7628 212.829 37.7817 212.227 37.8136C211.669 37.8252 211.087 37.8304 210.484 37.829C209.67 37.8146 208.873 37.8074 208.099 37.8073C206.063 37.829 203.926 37.8173 201.696 37.8014C199.467 37.7854 197.777 37.8137 195.793 37.8116C194.449 37.8096 193.111 37.8 191.72 37.7775C191.055 37.767 190.237 37.7101 189.549 37.6894C188.861 37.6686 188.637 37.6689 188.546 37.7016C188.247 37.7931 187.494 37.7339 186.893 37.725C185.72 37.7098 185.553 37.6785 185.235 37.442L186.674 37.3668C187.027 37.3425 187.47 37.3383 187.962 37.3544C188.454 37.3705 188.977 37.4066 189.482 37.459C189.681 37.4814 189.888 37.4992 190.093 37.5112C190.297 37.5232 190.495 37.5292 190.674 37.5289C192.126 37.5161 193.558 37.4892 194.954 37.4672L195.158 37.4529L195.171 37.2419C194.986 37.2212 194.795 37.204 194.604 37.1911L187.603 37.0542C185.997 37.0206 184.329 36.9448 182.752 36.9139C181.176 36.8829 180.326 36.864 179.103 36.832C178.587 36.8138 178.06 36.7899 177.528 36.7604C177.558 36.7401 177.576 36.7185 177.581 36.6958C177.609 36.6616 177.646 36.616 177.42 36.5794C177.173 36.5278 176.843 36.4837 176.496 36.456C176.17 36.4376 175.854 36.4273 175.56 36.4252C174.14 36.4076 172.518 36.2961 171.041 36.1147L170.525 36.2358C168.306 36.1677 166.054 36.1008 163.736 36.0362C163.272 36.0186 162.785 35.9848 162.311 35.9373C161.804 35.8919 161.337 35.7971 160.803 35.7452C160.275 35.7078 159.751 35.6787 159.24 35.6584C159.378 35.6272 159.561 35.6023 159.781 35.5844C159.999 35.5782 160.157 35.5587 160.233 35.5288C160.309 35.499 160.3 35.4603 160.206 35.4184C160.041 35.3465 159.968 35.2788 160.328 35.2702C160.66 35.2538 160.897 35.2183 161.012 35.1679C161.128 35.1175 161.115 35.0543 160.977 34.9857C160.917 34.9456 160.874 34.9063 160.85 34.8682L160.7 34.8548C160.208 34.7129 159.225 34.6616 158.519 34.5454C158.186 34.5117 157.841 34.4923 157.539 34.4903C156.759 34.4654 155.999 34.4545 155.191 34.423C154.806 34.4086 154.403 34.3822 154.005 34.3455C153.438 34.2947 153.379 34.2894 153.049 34.1049C153.561 34.1081 153.966 34.0805 154.197 34.0269C154.428 33.9732 154.47 33.8967 154.316 33.8103C153.894 33.6216 153.449 33.4226 151.54 33.2886C152.163 33.282 152.762 33.2688 153.335 33.2492C153.501 33.245 153.626 33.2312 153.692 33.2095C153.759 33.1879 153.763 33.1595 153.705 33.1281C153.647 33.0967 153.53 33.0639 153.368 33.034C153.207 33.0042 153.01 32.9786 152.802 32.9609C151.795 32.8542 150.744 32.7827 149.768 32.7546C148.945 32.7422 148.202 32.7491 147.241 32.7488L146.107 32.6473C146.126 32.6245 145.959 32.5933 146.001 32.5808C146.29 32.4638 146.608 32.3494 146.935 32.2237C146.412 32.1558 145.959 32.0739 145.628 31.9872C145.297 31.9006 145.1 31.8128 145.062 31.7338C145.034 31.71 145.041 31.6883 145.084 31.6703C145.126 31.6522 145.203 31.6383 145.308 31.6294C145.607 31.6141 145.837 31.5849 145.982 31.5441C146.126 31.5033 146.181 31.4519 146.142 31.394L145.26 31.1804C142.604 31.028 139.996 30.9192 137.484 30.8558L135.217 30.8079C134.943 30.7508 135.028 30.7257 135.285 30.7243C135.543 30.7229 136.267 30.7387 136.772 30.7472C137.209 30.7584 137.597 30.7511 137.898 30.7259C138.199 30.7007 138.404 30.6585 138.492 30.6033L137.731 30.3598C137.768 30.3142 137.821 30.2496 138.234 30.2539C138.516 30.2486 138.724 30.2257 138.824 30.1887C138.924 30.1518 138.911 30.103 138.786 30.0503C138.767 30.0122 138.795 29.9775 138.87 29.9477C139.481 29.9452 140.088 29.9466 140.642 29.935C140.901 29.9311 141.118 29.917 141.281 29.8936C141.444 29.8701 141.549 29.838 141.587 29.7992C141.607 29.7614 141.558 29.7183 141.445 29.6734C141.331 29.6285 141.156 29.5831 140.934 29.5408C140.065 29.4886 139.271 29.4879 138.724 29.539C138.53 29.579 138.217 29.6009 137.827 29.6017C137.438 29.6025 136.99 29.5823 136.542 29.5436C136.03 29.499 135.518 29.4794 135.1 29.4883C134.681 29.4972 134.383 29.5341 134.259 29.5922C133.733 29.5696 133.267 29.5524 132.807 29.5275C132.264 29.4961 131.751 29.4869 131.323 29.5008C130.638 29.5106 129.9 29.5049 129.126 29.4837C126.895 29.4309 124.66 29.3819 122.499 29.3599C121.928 29.3536 121.433 29.3705 120.868 29.3567C120.303 29.3428 119.856 29.3803 119.149 29.3048C119.014 29.293 118.878 29.2855 118.753 29.2827C118.627 29.28 118.515 29.2821 118.425 29.2889C117.183 29.3486 115.727 29.3571 114.143 29.3138C111.973 29.3031 109.723 29.2731 107.55 29.2663C106.913 29.2722 106.31 29.2879 105.749 29.3132C105.322 29.3286 104.875 29.339 104.41 29.3444C104.054 29.3492 103.713 29.335 103.773 29.4179C103.833 29.5008 103.299 29.4489 102.991 29.4336C101.934 29.3934 100.853 29.339 99.7606 29.271C98.6845 29.197 97.6301 29.154 96.6605 29.1445C95.9602 29.1389 95.2381 29.16 94.3377 29.0468C94.372 29.005 94.4062 28.9632 94.6022 28.9195C93.868 28.7994 93.0303 28.696 92.1583 28.618C91.2863 28.54 90.4052 28.4895 89.5878 28.4708L88.4606 28.2434C88.1831 28.2167 87.8998 28.1973 87.6279 28.1863C87.356 28.1753 87.1013 28.173 86.8791 28.1794C86.7075 28.1827 86.4982 28.1743 86.2899 28.1556C86.0815 28.137 85.888 28.1094 85.7449 28.0779C85.5308 28.0379 85.2694 28.0034 84.9934 27.9787C84.7173 27.954 84.4388 27.9402 84.1928 27.939C83.4184 27.9143 82.5917 27.8572 81.7974 27.7736C81.5912 27.7246 81.4621 27.674 81.4258 27.628C81.3896 27.582 81.4478 27.5426 81.5934 27.5147C81.828 27.4654 81.9597 27.4027 81.9806 27.3302C82.0015 27.2577 81.9111 27.1771 81.7148 27.0931C81.6144 27.0416 81.5808 26.9928 81.6161 26.9497C81.6515 26.9066 81.7551 26.87 81.9206 26.8423C82.5385 26.714 82.3732 26.6421 81.3623 26.4292C81.1981 26.3938 81.0001 26.3606 80.781 26.3319C80.5619 26.3031 80.3265 26.2794 80.0895 26.2623C79.5336 26.2276 78.9852 26.2018 78.4546 26.1854C78.1561 26.1587 77.85 26.1802 77.5061 26.1698C75.7865 26.1179 75.5348 26.0342 74.9779 25.8538L74.572 25.7237C73.8193 25.6183 72.9961 25.5307 72.1616 25.4673C71.3272 25.4039 70.5023 25.3663 69.7465 25.3571C69.4461 25.3565 69.1007 25.3384 68.7633 25.3059C67.6652 25.2063 66.5532 25.1374 65.5009 25.1037C64.8452 25.0847 64.1383 25.0357 63.4652 24.9624C62.7922 24.8892 62.1815 24.7948 61.7066 24.6907C61.28 24.5969 60.7219 24.5128 60.1099 24.4499C59.3936 24.3858 59.3272 24.3105 59.7273 24.2525C60.1273 24.1945 60.7973 24.1198 61.392 24.0588C61.5989 24.0381 61.7271 24.0043 61.7624 23.9614C61.7976 23.9184 61.7385 23.868 61.5915 23.8156C61.4972 23.7259 61.4808 23.6408 61.5428 23.5623C61.576 23.5297 61.5531 23.4924 61.4757 23.4527C61.3983 23.4131 61.2682 23.3721 61.0942 23.3326C60.9201 23.293 60.7063 23.2558 60.4669 23.2235C60.2275 23.1912 59.9682 23.1644 59.7065 23.1451C58.6021 23.0463 57.5275 22.9501 56.4013 22.8779C55.9294 22.8438 55.4579 22.8016 54.9985 22.7523C54.058 22.6304 53.0519 22.5293 52.0386 22.4548C51.5576 22.4216 51.0875 22.3634 50.7298 22.2928C49.6016 22.1029 48.562 21.9031 47.6299 21.6972C47.4052 21.6334 47.1112 21.5711 46.7664 21.5142C46.4216 21.4574 46.0333 21.4073 45.626 21.367C45.2977 21.3376 45.0304 21.2729 44.7774 21.2298C44.5935 21.1302 44.5738 21.0379 44.7203 20.9619C44.8667 20.8858 45.1745 20.8283 45.6147 20.7948C46.0322 20.7547 46.4228 20.708 46.7836 20.6587C47.2186 20.6189 47.7357 20.5949 48.3157 20.5878C49.0026 20.5664 49.5105 20.5052 49.7733 20.4122C47.8928 20.244 46.1046 20.0024 44.4563 20.0588L43.204 19.906C43.2538 19.8452 43.2975 19.792 43.338 19.7425C43.6359 19.6526 43.7289 19.5392 43.6092 19.4119C43.5105 19.3503 43.5195 19.2943 43.635 19.2495C43.7505 19.2046 43.9686 19.1726 44.2672 19.1567C46.0357 18.9926 48.0809 18.8819 49.7394 18.6958C50.2594 18.6609 50.8681 18.645 51.54 18.6489C52.1899 18.6377 52.1628 18.5537 51.4148 18.45C50.9949 18.3959 50.567 18.344 50.1326 18.2945C48.217 18.2863 47.4367 18.5346 45.2507 18.4655L44.2375 18.1382C43.9635 18.1331 43.6975 18.1311 43.4414 18.1322L39.776 18.2652C39.4707 18.2719 39.233 18.2946 39.0901 18.3309C38.9471 18.3671 38.9044 18.4154 38.967 18.4702C38.9919 18.5373 38.9414 18.5989 38.8174 18.6526C38.7375 18.6903 38.7886 18.7403 38.9596 18.7918C39.345 18.9079 38.8505 18.9249 38.5382 18.954C38.4584 18.9569 38.3664 18.9566 38.2674 18.9531C38.1685 18.9497 38.0647 18.9432 37.9619 18.934C37.8592 18.9248 37.7596 18.9131 37.669 18.8996C37.5783 18.8861 37.4984 18.871 37.4339 18.8552C36.8837 18.7448 36.4025 18.6283 35.8616 18.5065C36.2456 18.3899 35.7938 18.1985 36.3929 18.093C36.46 18.0719 36.4868 18.0463 36.4718 18.0176C36.4567 17.9889 36.4002 17.9577 36.3056 17.9261C36.0616 17.8444 35.9454 17.7648 35.9687 17.6953C35.992 17.6257 36.1539 17.5687 36.4382 17.53L36.4725 17.4882C35.7227 17.3477 35.9214 17.2227 35.6269 17.0739L34.9056 16.9767C33.1112 16.7427 33.108 16.7465 31.5631 16.7551C31.2517 16.6661 31.6473 16.6525 31.944 16.6424L34.4289 16.5425C36.0536 16.4757 37.7255 16.4295 39.5404 16.4043C41.3553 16.379 43.3786 16.2949 45.2545 16.2343C45.3494 16.2296 45.4219 16.2203 45.4661 16.2073C45.5103 16.1942 45.5248 16.1777 45.5084 16.1591C45.4339 16.1391 45.3362 16.1197 45.2228 16.1025C45.1094 16.0853 44.983 16.0707 44.8531 16.0597C44.2561 16.0063 43.6436 15.9719 43.0074 15.9272L41.8215 15.8496L41.4567 15.7476C41.2192 15.6855 41.057 15.6098 40.7411 15.5653C40.4808 15.532 40.1983 15.5068 39.9228 15.4922C39.6474 15.4776 39.3893 15.4741 39.1753 15.4822C38.5819 15.5026 38.0451 15.532 37.4784 15.5588C36.9118 15.5857 36.5995 15.6148 36.1081 15.628C35.1098 15.6339 34.145 15.6497 33.2179 15.6753C32.437 15.7357 31.7147 15.8074 31.0555 15.8897C30.6444 15.9223 30.2599 15.9613 29.5578 15.9189C29.2247 15.8804 28.9374 15.8299 28.7468 15.7762C28.5562 15.7226 28.4747 15.6693 28.5166 15.6258C28.5543 15.5918 28.6609 15.5648 28.8265 15.5475C28.992 15.5302 29.211 15.5231 29.4628 15.5269C30.1675 15.5206 30.8192 15.4996 31.4047 15.4641C32.2196 15.3998 33.2117 15.3721 34.323 15.3826C34.6999 15.3918 34.9525 15.3573 35.2821 15.346C35.6118 15.3347 35.8911 15.3067 36.2586 15.3273C37.4004 15.3805 37.9479 15.299 38.6321 15.246C38.8637 15.2225 39.0073 15.1845 39.0469 15.1362C39.0865 15.0879 39.0206 15.0312 38.8566 14.9723C38.5408 14.855 38.1544 14.7371 37.7036 14.6203C37.4716 14.5629 37.1743 14.5084 36.8352 14.4611C36.496 14.4137 36.1241 14.3748 35.7487 14.3475C35.524 14.2756 35.4042 14.205 35.4 14.1419C35.3958 14.0789 35.5074 14.0254 35.7246 13.9863C36.2783 13.8972 36.7692 13.8065 38.0099 13.8563C38.5932 13.8753 39.1422 13.879 39.635 13.8671C40.728 13.8508 41.9889 13.8864 43.2987 13.9706C43.6376 13.9921 43.9707 14.0068 44.2882 14.0142C46.5526 14.0659 48.71 14.0917 50.8737 14.1099C52.02 14.1187 53.1756 14.116 54.3721 14.1415C57.1783 14.1968 59.7327 14.1684 62.4412 14.1864C63.8598 14.1957 65.1295 14.1584 66.1837 14.0766C66.3891 14.0492 66.5654 14.0172 66.7107 13.981C66.012 13.886 65.2446 13.8108 64.482 13.7625C63.7193 13.7143 62.987 13.6946 62.3551 13.7055C62.0078 13.7321 61.5588 13.7369 61.0582 13.7195C60.5577 13.7021 60.0254 13.6631 59.5205 13.6068L60.9884 13.575C61.9618 13.5601 62.9587 13.5555 63.9054 13.5342C65.4093 13.4974 66.8032 13.4385 68.3606 13.4147C69.618 13.3928 70.7432 13.3369 71.7008 13.2486C72.3926 13.1842 73.1828 13.1385 74.0552 13.1125C74.6753 13.0986 74.6753 13.0986 75.0717 12.9669C74.7572 12.8816 74.3505 12.8697 73.9674 12.868C71.6705 12.8144 69.4846 12.805 67.4544 12.84C66.43 12.8431 65.5212 12.8793 64.7717 12.9467C64.5881 12.9752 64.1186 12.9617 63.7417 12.9524C62.5602 12.9384 61.431 12.9425 60.3676 12.9646C58.8974 13.0016 57.26 12.9928 55.5189 12.9387C55.1888 12.8724 55.5688 12.8779 55.5875 12.8551C56.936 12.8126 58.2578 12.7636 59.633 12.7276C60.0089 12.7147 60.4107 12.7084 60.834 12.7086C62.414 12.7309 63.7307 12.669 64.5996 12.5315C64.6433 12.4783 65.2148 12.4846 65.4674 12.4501C65.5917 12.4202 65.6744 12.385 65.7132 12.3456C65.3452 12.2474 64.9292 12.2469 64.6089 12.2468C63.6794 12.2577 62.7853 12.2785 61.9307 12.309C61.1363 12.338 60.257 12.3458 59.3165 12.3321C58.6225 12.3189 58.0291 12.3393 57.3288 12.3337C56.9489 12.322 56.5557 12.3033 56.1571 12.2778C56.6009 12.2094 57.2041 12.1673 57.9244 12.1545C58.4705 12.1136 59.1535 12.1013 59.2407 11.9949C58.9828 11.9187 58.6954 11.9175 58.4647 11.9254C57.9843 11.9251 57.5204 11.9299 57.0752 11.9398C56.1313 11.9614 55.1093 11.9617 54.0308 11.9407C53.4628 11.9328 52.9239 11.9352 52.423 11.9477C51.2879 11.9645 50.2 12.0017 49.1607 12.0189C47.0318 12.0364 45.09 12.0993 43.0443 12.1324C42.5891 12.1406 42.1809 12.1694 41.5809 12.1198C40.9808 12.0702 40.9541 12.0637 40.8832 12.0329C40.7153 11.9815 40.6644 11.9316 40.7411 11.8937C40.8601 11.8583 41.092 11.8385 41.3954 11.838C43.2241 11.7816 44.9586 11.7025 46.588 11.601C47.3051 11.5807 47.9334 11.5392 48.451 11.4781C48.8615 11.4359 49.3484 11.4081 49.8965 11.3953C50.6937 11.3648 51.5248 11.3425 52.3864 11.3284C52.7873 11.3209 53.1281 11.2983 53.3889 11.2621C53.6497 11.2259 53.8252 11.1767 53.9049 11.1176L52.8487 10.9211C52.6827 10.9119 52.5181 10.904 52.3555 10.8973L43.5888 11.0389L42.7206 11.0428C41.7691 11.0311 41.5365 11.0021 40.6339 10.7745C42.6938 10.7209 44.3132 10.5648 45.3306 10.3217C45.0861 10.2956 44.8354 10.2731 44.5843 10.255C42.9381 10.1975 41.382 10.1822 39.9758 10.2097C39.1405 10.2125 38.2816 10.205 37.4196 10.2013C37.6717 10.0892 38.6375 10.1226 39.267 10.0973C40.771 10.0578 42.101 9.97613 43.2144 9.85495C43.5983 9.8077 44.0785 9.77749 44.6332 9.7657C45.1883 9.76164 45.6519 9.73304 45.9838 9.6824C46.3157 9.63175 46.5058 9.56059 46.5375 9.47512C46.5898 9.39773 46.7025 9.32582 46.8739 9.26045C46.5707 9.1677 46.0892 9.07888 45.5199 9.01066C44.9506 8.94244 44.3325 8.8995 43.7817 8.88991C42.6057 8.85172 41.386 8.78921 40.1536 8.70395C39.5397 8.66095 38.9377 8.63627 38.3868 8.63151C37.9009 8.62785 37.3487 8.5968 36.8142 8.54308C36.2798 8.48937 35.7926 8.41594 35.4269 8.33401C34.9333 8.23272 34.4726 8.1303 34.0119 8.02788C33.5513 7.92547 33.0167 7.79604 32.479 7.67041C32.0049 7.65076 31.5432 7.63813 31.1002 7.6327C30.7555 7.6373 30.3534 7.6236 29.9412 7.59322C29.529 7.56284 29.1239 7.51704 28.7738 7.46123C28.9791 7.40617 29.2112 7.35759 29.4558 7.29381C29.1201 7.20958 28.8767 7.12368 28.7405 7.04135C28.6042 6.95902 28.5779 6.88198 28.6632 6.81492C28.7131 6.75412 28.3481 6.65211 28.2221 6.57147C28.0597 6.50196 28.0293 6.43709 28.1346 6.38536C28.2399 6.33363 28.4761 6.29747 28.8123 6.28161C29.2292 6.25234 29.5686 6.20825 29.8164 6.15117C29.8983 6.13635 29.9401 6.11605 29.9377 6.09214C29.9354 6.06823 29.8891 6.04146 29.803 6.01428C29.717 5.9871 29.5939 5.96037 29.4451 5.93655C29.2963 5.91273 29.1265 5.89258 28.9512 5.87793C28.4143 5.83639 27.8811 5.80947 27.3821 5.79871C26.5226 5.77891 25.6998 5.76648 24.9137 5.7614C24.0443 5.75376 23.0771 5.70662 22.1102 5.62475C21.2446 5.54729 20.4686 5.47784 20.0453 5.32982C19.6221 5.1818 18.9454 5.18652 18.425 5.07876C18.7173 4.98162 19.2369 4.91413 19.9312 4.8831C20.3855 4.87202 20.7648 4.84294 21.0447 4.79773C21.3245 4.75252 21.4988 4.69218 21.5563 4.62057L19.9765 4.3201C18.7148 4.17864 18.0168 4.28751 16.6536 4.2308L18.0582 4.11988C18.0864 4.10891 18.097 4.09604 18.0894 4.08187C17.953 3.85753 17.736 3.80956 16.3002 3.68515L15.4943 3.61304L14.2188 3.52745C14.0146 3.48148 13.8733 3.43353 13.8091 3.38841C13.7449 3.34329 13.76 3.30258 13.853 3.27035C14.0399 3.21614 14.0967 3.14687 14.0183 3.06892C13.8946 3.01728 13.8844 2.96967 13.9894 2.93436C14.0944 2.89905 14.3081 2.87826 14.5934 2.87561C14.821 2.8715 14.8379 2.81182 14.9617 2.77803C15.0848 2.73145 15.2954 2.69571 15.5792 2.67324C15.863 2.65077 16.2133 2.64208 16.6064 2.64779C17.7653 2.65246 18.8539 2.63497 19.853 2.59565L19.674 2.57962C20.7154 2.61414 21.6889 2.61833 22.5473 2.59198C23.4075 2.55881 24.5115 2.58009 25.4252 2.55986C26.169 2.5645 26.7353 2.5186 27.0039 2.43189C27.2641 2.34911 28.2094 2.36843 28.9333 2.38425C29.3621 2.39449 29.7766 2.39883 30.1722 2.39721C30.7033 2.37848 31.3673 2.39614 32.0535 2.44726C32.2594 2.46297 32.4623 2.47129 32.6425 2.47141C34.387 2.49289 36.1284 2.51818 37.8493 2.52939C38.2465 2.52293 38.7123 2.53772 39.192 2.57203C39.3936 2.58693 39.5898 2.5931 39.7542 2.58971C42.4735 2.55564 45.5419 2.64257 48.2077 2.59556C48.5308 2.58445 48.8885 2.58215 49.2707 2.58869C50.1294 2.61631 50.8752 2.59854 51.3947 2.53807C51.675 2.50591 52.0344 2.48819 52.4498 2.48604C52.8653 2.48388 53.3278 2.49735 53.8079 2.52557C54.6067 2.56293 55.345 2.56699 55.9448 2.5373C57.1144 2.50987 58.3444 2.49859 59.625 2.50355C60.0174 2.50835 60.3623 2.49769 60.6331 2.4724C60.9039 2.44711 61.0932 2.40786 61.1863 2.3577C60.8718 2.27244 60.5279 2.26206 60.2014 2.26956C58.9358 2.25013 57.6732 2.2269 56.4312 2.21775C55.3196 2.1916 54.2529 2.1836 53.2469 2.19388C52.7474 2.20548 52.1241 2.17903 51.5131 2.12032C50.7642 2.04595 49.9929 2.009 49.3551 2.01695C48.8822 2.01893 48.3831 2.01252 47.8649 1.99783C47.5333 1.98011 47.1933 1.94969 46.88 1.90969C46.7556 1.89232 46.6203 1.8777 46.4826 1.8668C46.3449 1.85589 46.208 1.84893 46.0805 1.84635C45.953 1.84376 45.8376 1.84562 45.7419 1.8518C45.6463 1.85798 45.5724 1.86836 45.5248 1.88225C45.0451 1.99842 43.9723 1.93914 43.0537 1.92629C41.6771 1.72967 40.6526 1.84604 39.366 1.73499C39.2643 1.72763 39.164 1.72317 39.0714 1.72189C38.9788 1.72062 38.8958 1.72256 38.8274 1.72758C36.3376 1.79443 33.4357 1.73872 30.8216 1.7618C30.5333 1.76518 30.1987 1.75361 29.8558 1.72841C27.6148 1.56163 25.4602 1.51428 23.8132 1.59563C23.6128 1.60295 23.3848 1.60326 23.1396 1.59655C22.0136 1.53026 20.9367 1.50384 19.9989 1.51947C18.5293 1.51442 17.1162 1.51852 15.623 1.5032C14.5936 1.48139 13.6906 1.50469 13.0044 1.57075C12.9825 1.59735 12.5254 1.56869 12.1753 1.56591C11.9739 1.49893 11.7993 1.43844 11.5917 1.37906C11.4061 1.30561 11.1281 1.23128 10.7766 1.16111C10.4251 1.09094 10.0084 1.02658 9.55444 0.97238C8.77839 0.902933 8.70078 0.802158 9.24382 0.765082C10.6435 0.642418 12.4035 0.592214 14.3945 0.618152C16.0588 0.620224 17.753 0.624974 19.441 0.63732C20.4255 0.647911 21.4634 0.671435 22.4212 0.675555C22.7444 0.684605 23.0764 0.697943 23.4138 0.715424C23.8277 0.740771 24.2296 0.75458 24.5979 0.756113C25.7803 0.734768 27.0999 0.753365 28.4937 0.811012C29.0043 0.823584 29.4944 0.82782 29.9571 0.82366C31.0516 0.808012 32.2381 0.819527 33.4853 0.857903C34.2605 0.879543 35.0121 0.890858 35.7324 0.891728C35.9868 0.894093 36.1939 0.875915 36.4389 0.889681C38.5956 1.03372 40.1227 0.92968 42.0636 0.985066C43.007 1.00051 43.9083 1.00055 44.7548 0.985199C46.4068 0.985941 48.1049 1.00173 49.8423 1.03251C52.1396 1.08307 54.2686 1.06553 56.4621 1.0864C56.8952 1.09079 57.3134 1.09004 57.7135 1.08416C59.6602 1.04531 61.7746 1.05355 64.0051 1.10868C64.5116 1.11664 64.9665 1.1069 65.3413 1.08008C65.7162 1.05325 66.0029 1.00991 66.1835 0.952771C66.2599 0.913556 66.2104 0.86262 66.0445 0.809789C65.7692 0.74232 65.4583 0.676215 65.1169 0.61256L52.7007 0.398966C52.1792 0.387813 51.6707 0.381809 51.1777 0.380978C49.7276 0.379121 48.2328 0.362504 46.701 0.331211C45.1872 0.301817 43.7411 0.307035 42.2746 0.298185C41.8426 0.29522 41.3992 0.288225 40.9462 0.27722C37.8841 0.190121 34.8983 0.136921 32.0097 0.118004C30.7944 0.11532 29.4815 0.0753469 28.2426 0.0623906C27.0038 0.0494345 25.3096 0.0446896 23.8399 0.0396401L19.2898 0.0404156C18.3948 0.0378376 17.5234 0.0455293 16.6552 0.0494226C15.6015 -0.228443 15.2384 -0.293572 13.8325 -0.41531C13.3515 -0.460216 12.8622 -0.487014 12.4221 -0.492567C11.0264 -0.470601 9.27513 -0.562039 7.9516 -0.549933C7.15297 -0.555904 6.47529 -0.525037 5.98794 -0.460488C5.56489 -0.40983 5.08113 -0.369746 4.54412 -0.340841C3.07307 -0.578549 2.94343 -0.732933 4.05 -0.79301C4.3498 -0.806977 4.76276 -0.802657 4.97926 -0.832238C5.10348 -0.850253 5.27318 -0.860556 5.47484 -0.862337C5.67649 -0.864118 5.90451 -0.857329 6.14104 -0.8425C6.88751 -0.803601 7.58718 -0.794451 8.16983 -0.815975C8.71816 -0.844458 9.3903 -0.843321 10.1214 -0.812669C10.6587 -0.764591 11.1309 -0.832479 11.5956 -0.852092C12.0602 -0.871706 12.4415 -0.90694 13.1672 -0.854236C13.3001 -0.843742 13.432 -0.837443 13.5529 -0.83582C13.6738 -0.834199 13.7803 -0.837298 13.8644 -0.844879C14.6438 -0.878823 15.574 -0.875256 16.5792 -0.834473C18.121 -0.794341 19.5676 -0.792836 20.8688 -0.830009C21.6477 -0.862536 22.3118 -0.920218 22.8351 -1.00081C22.9778 -1.02776 23.1896 -1.04392 23.4503 -1.04774C24.7595 -1.03093 26.181 -0.967647 27.6232 -0.861979C28.1665 -0.81964 28.7091 -0.78615 29.2395 -0.762222C30.3294 -0.709068 31.3836 -0.679281 32.3708 -0.673747C33.8053 -0.672869 35.2988 -0.652418 36.8381 -0.612578C37.7881 -0.590394 38.7035 -0.582207 39.5734 -0.588105C40.4675 -0.590884 41.4221 -0.573963 42.4156 -0.537734C43.4037 -0.50821 44.2744 -0.525222 44.9228 -0.586706C45.1363 -0.619839 45.3083 -0.659181 45.4355 -0.704004C43.9889 -0.849851 42.4927 -0.923972 41.2483 -0.911443C40.7756 -0.921104 40.3832 -0.911351 39.8851 -0.968161L39.8695 -0.949157C39.7704 -0.936827 39.6209 -0.933918 39.4494 -0.940986C39.278 -0.948053 39.0966 -0.964601 38.9398 -0.987478C38.999 -1.05969 39.0552 -1.1281 39.0957 -1.17751C40.0438 -1.16879 40.9644 -1.1695 41.8528 -1.17963C42.6017 -1.19421 43.6183 -1.06652 44.2665 -1.11458C45.5308 -1.05448 46.3357 -1.13747 47.4695 -1.11352C48.6033 -1.08957 49.852 -1.01047 50.9857 -0.986519C51.9751 -0.973378 52.9357 -0.970522 53.8622 -0.977964C54.182 -0.988408 54.5507 -0.985958 54.9456 -0.970763C55.5008 -0.942171 56.0172 -0.937381 56.4355 -0.956941C56.8539 -0.976502 57.1573 -1.01963 57.3111 -1.08137C57.1663 -1.1392 56.9712 -1.21377 56.7462 -1.29102C57.1601 -1.35449 57.7887 -1.38121 58.5388 -1.36722L59.5986 -1.37028C59.8795 -1.36861 60.0942 -1.38577 60.1983 -1.41821C60.3024 -1.45066 60.2881 -1.4959 60.1581 -1.54459C58.1485 -1.7897 58.0745 -1.81672 56.5995 -1.65906L54.6411 -1.73232L54.6741 -1.73345ZM81.1628 -1.06014L81.0136 -1.07349L81.1628 -1.06014ZM325.216 25.018L325.181 25.0599L325.219 25.0142L325.547 25.0436L325.569 25.017L325.216 25.018ZM277.545 6.69414C277.081 6.64852 276.613 6.60659 276.143 6.5686C276.019 6.56271 275.904 6.56137 275.807 6.56472C275.709 6.56806 275.632 6.57597 275.582 6.58779C275.545 6.6334 275.807 6.66505 276.046 6.68641C276.347 6.71517 276.655 6.73345 276.937 6.73936C277.219 6.74526 277.466 6.73859 277.652 6.72002L277.922 6.70338L277.545 6.69414ZM38.5156 17.8097C38.8211 17.8174 39.1109 17.8187 39.3777 17.8134C40.5613 17.7766 41.6945 17.723 42.908 17.6888C44.4391 17.602 46.1985 17.5666 48.1202 17.5841C48.8709 17.5926 49.5052 17.5644 49.9489 17.5029C50.2146 17.4699 50.5574 17.4507 50.9566 17.4463L56.0368 17.3461C56.3509 17.3253 56.6224 17.2961 56.845 17.2593C56.3972 17.2192 56.0988 17.1925 55.9197 17.1765C55.5481 17.172 55.2287 17.1842 54.9935 17.2119C54.7409 17.2589 54.3139 17.2775 53.7974 17.264C53.2759 17.2528 52.7673 17.2468 52.2743 17.246C51.3432 17.2483 50.4059 17.2583 49.4717 17.2644C49.1082 17.3951 48.0355 17.3358 47.1169 17.3229L46.4072 17.3288C44.0875 17.3965 41.8717 17.4897 39.7705 17.6079C39.3644 17.6279 39.0145 17.6598 38.7317 17.7026C38.6251 17.736 38.591 17.7776 38.6319 17.8242L38.4827 17.8109L38.5156 17.8097ZM142.103 30.3023C142.666 30.3112 143.252 30.3295 143.853 30.3569C144.315 30.3848 144.767 30.4018 145.189 30.4071C147.555 30.4364 150.021 30.5041 152.553 30.6091C152.884 30.6251 153.202 30.6329 153.495 30.6323L155.567 30.6056C156.22 30.5906 156.233 30.5754 155.757 30.3738C155.363 30.3346 154.964 30.2989 154.563 30.2669C154.325 30.2455 153.937 30.2108 153.846 30.2435C153.292 30.3326 152.282 30.2749 151.433 30.256C148.974 30.2073 146.437 30.1353 143.955 30.0764C143.43 30.0619 142.921 30.0546 142.435 30.0546C142.133 30.0515 141.857 30.0572 141.62 30.0714C141.55 30.0728 141.492 30.0771 141.45 30.0838C141.407 30.0905 141.38 30.0995 141.371 30.1103C141.362 30.1211 141.371 30.1334 141.398 30.1463C141.425 30.1593 141.469 30.1726 141.526 30.1854C141.73 30.2303 141.964 30.2733 142.223 30.313L142.103 30.3023ZM160.117 1.03641L162.54 1.0125C162.83 1.00994 163.077 0.983029 163.388 0.994537C165.046 1.03101 166.582 1.02085 167.93 0.964492C168.389 0.941494 168.926 0.936894 169.511 0.950949C171.303 0.992596 172.994 0.99431 174.537 0.956041C175.534 0.94836 176.468 0.922564 177.323 0.879034C177.389 0.86893 177.43 0.855211 177.444 0.838814C177.457 0.822417 177.443 0.803728 177.401 0.78402C177.39 0.771571 177.361 0.758175 177.315 0.744763C177.27 0.73135 177.208 0.718232 177.136 0.70632C177.063 0.694409 176.981 0.683986 176.896 0.675764C176.81 0.667541 176.722 0.661713 176.639 0.658688C175.558 0.599768 174.532 0.579242 173.644 0.598776C172.822 0.622148 171.936 0.628987 171 0.619185C170.106 0.616608 169.498 0.692817 168.393 0.634666C167.925 0.615518 167.512 0.621821 167.225 0.652523C166.645 0.70341 165.837 0.706241 164.943 0.660511C164.409 0.637368 163.897 0.627442 163.429 0.631114C162.294 0.647845 161.21 0.681318 160.158 0.713663C159.826 0.721145 159.471 0.722177 159.098 0.716736L153.832 0.653402C152.566 0.633974 151.303 0.610746 150.061 0.60159C149.046 0.581709 148.1 0.587935 147.259 0.620048C146.362 0.653802 145.383 0.667505 144.342 0.660899C142.725 0.67937 141.117 0.686436 139.357 0.683951C138.234 0.685479 137.085 0.680539 135.912 0.665323C135.318 0.645741 134.815 0.661689 134.498 0.710096C134.305 0.749948 133.851 0.717481 133.474 0.708232C131.464 0.619089 129.578 0.597968 127.95 0.646337C127.742 0.65422 127.514 0.657072 127.27 0.654848C125.701 0.653188 124.076 0.642384 122.571 0.642264C122.174 0.646022 121.801 0.656334 121.456 0.67307C121.493 0.700373 121.598 0.729966 121.75 0.75571C121.902 0.781454 122.089 0.801376 122.272 0.81134C123.696 0.887619 125.071 0.927914 126.339 0.930535C128.45 0.920819 130.661 0.942665 132.95 0.99584C134.725 1.04945 136.344 1.03816 137.686 0.962818C138.735 0.9066 140.1 0.927752 141.546 1.02264C142.165 1.06796 142.765 1.08608 143.266 1.07453C143.747 1.05938 144.3 1.06305 144.891 1.08534C146.137 1.12772 147.336 1.14738 148.463 1.14393C149.565 1.12833 150.593 1.08571 151.725 1.07278C152.857 1.05985 154.581 1.06726 155.977 1.04529C157.373 1.02333 158.753 1.02037 160.117 1.03641ZM59.7363 -1.18662C59.8642 -1.06911 60.3169 -0.995966 60.8038 -0.964632C62.4825 -0.825496 64.1422 -0.766289 65.5041 -0.796948C66.2398 -0.839711 67.2205 -0.82325 68.2536 -0.750798C69.4566 -0.675483 70.5809 -0.662993 71.4286 -0.715529C71.6362 -0.724708 71.7953 -0.744114 71.8914 -0.772018C71.9101 -0.794822 71.9444 -0.836626 71.9507 -0.844227C71.8616 -0.863505 71.7524 -0.881366 71.6314 -0.896434C71.5105 -0.911503 71.381 -0.923374 71.253 -0.931134L65.6925 -1.06565L64.7235 -1.09525C62.9536 -1.1728 61.2671 -1.2037 59.7363 -1.18662ZM70.6739 0.67333C71.5418 0.865218 71.5448 0.861409 71.9894 0.905275C74.1343 1.08748 76.2778 1.18584 78.1648 1.18864C78.5841 1.18809 78.9401 1.16956 79.2024 1.13463C79.3374 1.1299 79.4233 1.11485 79.4414 1.09278C79.4595 1.07071 79.4083 1.0434 79.299 1.01681L78.6089 0.88163C77.3556 0.823104 76.1203 0.776601 74.9105 0.742401C73.5018 0.702018 72.2535 0.70046 70.7932 0.684008L70.6739 0.67333ZM141.999 29.4526C142.808 29.7167 142.811 29.7129 144.165 29.781C145.108 29.8293 146.023 29.8576 146.883 29.8652C147.934 29.8735 149.011 29.8883 150.058 29.9005C150.314 29.9089 150.531 29.9019 150.666 29.8809C150.802 29.8598 150.847 29.8263 150.792 29.7867C150.655 29.7437 150.44 29.7021 150.182 29.6687C149.925 29.6353 149.64 29.612 149.373 29.6026L148.802 29.5963C148.108 29.5831 147.387 29.5635 146.716 29.5606C146.281 29.5716 145.777 29.5631 145.244 29.5359C144.71 29.5087 144.162 29.4634 143.641 29.4037L141.999 29.4526ZM74.992 -0.841314C75.2079 -0.795577 75.4521 -0.751772 75.7181 -0.711064C76.7481 -0.598232 77.8381 -0.534148 78.7746 -0.531375C79.2175 -0.524385 79.6224 -0.549341 80.0733 -0.513077C80.8819 -0.464616 81.6655 -0.438802 82.3818 -0.437033C82.3818 -0.437033 82.5827 -0.447614 82.6486 -0.449873L82.7858 -0.617097C82.4467 -0.655837 82.093 -0.687485 81.7411 -0.710585C80.5601 -0.755075 79.3996 -0.785491 78.2423 -0.81971C77.0849 -0.853928 76.6813 -0.869647 75.9244 -0.884344C75.5868 -0.876265 75.2745 -0.861852 74.992 -0.841314ZM49.4172 19.948L50.9627 20.2902C51.4628 20.32 51.93 20.3254 52.2932 20.3056C52.6565 20.2858 52.8958 20.2419 52.9748 20.1806C53.1021 20.152 53.1149 20.1095 53.0104 20.0621C52.9059 20.0147 52.6923 19.9661 52.4144 19.9265C52.1469 19.8795 51.8416 19.8374 51.5173 19.8028C51.193 19.7682 50.8566 19.7417 50.5291 19.7252L49.4172 19.948ZM62.285 18.2438C61.2741 18.1857 60.3073 18.162 59.4584 18.1744C58.9235 18.2084 58.1988 18.1975 57.4328 18.1441C56.0398 18.0376 54.6969 18.0081 53.6876 18.0619C53.6876 18.0619 53.6501 18.1075 53.4791 18.1207C53.308 18.134 53.9865 18.1661 54.1357 18.1795C55.2303 18.2122 56.3311 18.2372 57.2826 18.249C57.8734 18.2485 58.4983 18.2592 59.1465 18.2811C60.0385 18.3149 60.8843 18.3258 61.6511 18.3135C61.6511 18.3135 61.9478 18.3034 62.2819 18.2476L62.285 18.2438ZM170.238 0.416304C169.755 0.351844 169.231 0.299455 168.706 0.263069C168.181 0.226682 167.668 0.207246 167.206 0.206212C166.852 0.202848 166.566 0.219867 166.392 0.254578C166.219 0.28929 166.168 0.339714 166.248 0.397874C166.606 0.429926 167.084 0.472662 167.352 0.4967C168.283 0.494348 169.078 0.46344 170.238 0.416304ZM260.618 5.84836C260.23 5.79647 259.804 5.7568 259.386 5.73387C258.969 5.71094 258.577 5.70569 258.257 5.71871C258.092 5.72436 258.204 5.78332 258.176 5.81753C258.158 5.82528 258.158 5.83492 258.177 5.84545C258.195 5.85598 258.232 5.867 258.282 5.87735C258.333 5.88771 258.395 5.89702 258.464 5.90432C258.532 5.91161 258.603 5.91662 258.67 5.91881C259.09 5.94116 259.487 5.94782 259.824 5.93818C260.162 5.92854 260.43 5.90291 260.605 5.86357L260.618 5.84836ZM266.673 6.59016C266.613 6.55954 266.486 6.52763 266.314 6.50027C266.142 6.47291 265.938 6.45194 265.738 6.44121C265.385 6.43977 265.065 6.44826 264.788 6.46636C264.489 6.48033 264.704 6.56898 265.11 6.62158C265.281 6.64269 265.465 6.65916 265.645 6.66967C265.826 6.68019 265.999 6.68446 266.15 6.68215C266.301 6.67983 266.427 6.671 266.516 6.65635C266.606 6.6417 266.658 6.62164 266.667 6.59776L266.673 6.59016ZM90.7123 -0.515626C89.8089 -0.625031 89.1135 -0.597508 88.3486 -0.64148C87.5837 -0.685453 87.3952 -0.690079 87.4977 -0.619715C87.6002 -0.549352 88.1245 -0.563622 88.4529 -0.53424C88.8965 -0.495254 89.3427 -0.472867 89.7418 -0.469579C90.1408 -0.466292 90.4769 -0.482235 90.7123 -0.515626ZM278.976 17.996C278.497 17.9714 278.029 17.9541 277.577 17.9442C277.517 17.9544 277.48 17.9677 277.467 17.9834C277.454 17.999 277.466 18.0167 277.502 18.0354C277.502 18.0354 277.808 18.0914 277.988 18.1074C278.647 18.1624 278.68 18.0837 278.976 17.996ZM346.612 28.1892C346.936 28.2631 347.087 28.3133 347.346 28.3487C347.465 28.361 347.588 28.37 347.706 28.3749C347.824 28.3798 347.934 28.3806 348.027 28.3771C348.141 28.3558 348.168 28.3233 348.102 28.2859C348.102 28.2859 347.772 28.2196 347.647 28.2166C347.288 28.2009 346.941 28.1917 346.612 28.1892ZM75.3341 -1.14115C74.6476 -1.20258 73.9909 -1.26135 73.5156 -1.18966C74.6057 -1.1125 74.6057 -1.1125 75.3341 -1.14115ZM86.4531 -0.439867C85.7599 -0.571252 85.3531 -0.583175 85.0203 -0.568079C84.9496 -0.564276 84.9028 -0.555802 84.887 -0.543942C84.8712 -0.532082 84.8873 -0.51748 84.9328 -0.502345C84.9783 -0.487209 85.0507 -0.472366 85.1392 -0.460057C85.2277 -0.447749 85.3274 -0.438645 85.4231 -0.434127C85.7846 -0.430345 86.1294 -0.432266 86.4531 -0.439867ZM122.131 -0.38431C122.147 -0.403313 122.165 -0.426116 121.986 -0.442142C121.939 -0.450277 121.884 -0.457273 121.827 -0.46243C121.769 -0.467588 121.711 -0.470722 121.658 -0.471519C121.658 -0.471519 121.639 -0.448715 121.627 -0.433512L122.131 -0.38431ZM146.907 31.1646L146.508 31.1819L146.687 31.198L147.16 31.2076L146.907 31.1646ZM287.293 6.29364C287.144 6.28029 286.995 6.26693 286.973 6.29353C286.942 6.29765 286.922 6.3036 286.916 6.31087C286.91 6.31815 286.918 6.32653 286.939 6.33534C286.939 6.33534 287.148 6.35404 287.237 6.36205L287.293 6.29364ZM264.051 6.50642C263.952 6.50489 263.864 6.50667 263.79 6.51166L263.771 6.53446L264.07 6.56117L264.051 6.50642ZM61.4967 11.9397C61.3814 11.9259 61.2592 11.9149 61.1385 11.9077L60.9892 11.8943C60.9892 11.8943 61.1496 11.9331 61.2391 11.9412C61.3287 11.9492 61.4009 11.9393 61.4967 11.9397Z" fill="#0884A2"/>
</g>
</svg>
