<svg width="73" height="72" viewBox="0 0 73 72" fill="none" xmlns="http://www.w3.org/2000/svg">
<path d="M0.666016 36C0.666016 16.1178 16.7838 0 36.666 0C56.5483 0 72.666 16.1178 72.666 36C72.666 55.8823 56.5483 72 36.666 72C16.7838 72 0.666016 55.8823 0.666016 36Z" fill="#0884A2"/>
<g clip-path="url(#clip0_5990_14025)">
<path d="M41.825 29.9542C41.5382 29.1415 41.0063 28.4378 40.3027 27.9401C39.599 27.4424 38.7583 27.1753 37.8965 27.1757H34.6715C33.7514 27.1709 32.8622 27.5074 32.1759 28.1201C31.4896 28.7329 31.0548 29.5784 30.9557 30.4932C30.8567 31.4079 31.1003 32.3269 31.6395 33.0724C32.1788 33.8179 32.9753 34.337 33.875 34.5292L38.7857 35.6007C39.7899 35.8205 40.6773 36.4036 41.2776 37.238C41.8779 38.0724 42.1487 39.0992 42.038 40.1211C41.9273 41.143 41.4428 42.088 40.6777 42.7744C39.9126 43.4608 38.9208 43.8403 37.8929 43.84H35.1179C33.3036 43.84 31.7607 42.6828 31.1893 41.065M36.5072 27.1757V23.0078M36.5072 48.0078V43.8435M19.1357 59.2078V50.2792H28.0643" stroke="white" stroke-width="2" stroke-linecap="round" stroke-linejoin="round"/>
<path d="M59.8147 31.7288C60.7628 36.7832 60.0058 42.0093 57.6626 46.5868C55.3193 51.1644 51.5224 54.8344 46.8678 57.0207C42.2132 59.207 36.9644 59.7859 31.9452 58.6665C26.9261 57.5472 22.4206 54.7929 19.1361 50.836M14.1861 40.2717C13.238 35.2174 13.9949 29.9913 16.3382 25.4137C18.6814 20.8361 22.4783 17.1661 27.1329 14.9798C31.7875 12.7935 37.0363 12.2146 42.0555 13.334C47.0747 14.4534 51.5801 17.2077 54.8647 21.1645" stroke="white" stroke-width="2" stroke-linecap="round" stroke-linejoin="round"/>
<path d="M54.8651 12.793V21.7215H45.9365" stroke="white" stroke-width="2" stroke-linecap="round" stroke-linejoin="round"/>
</g>
<defs>
<clipPath id="clip0_5990_14025">
<rect width="50" height="50" fill="white" transform="translate(12 11)"/>
</clipPath>
</defs>
</svg>
