<svg width="158" height="149" viewBox="0 0 158 149" fill="none" xmlns="http://www.w3.org/2000/svg">
<path d="M19.75 18.625H39.5V37.25H19.75V18.625Z" fill="black"/>
<path d="M59.25 0V55.875H0V0H59.25ZM49.375 9.3125H9.875V46.5625H49.375V9.3125ZM39.5 111.75H19.75V130.375H39.5V111.75Z" fill="black"/>
<path d="M59.25 93.125V149H0V93.125H59.25ZM9.875 102.438V139.688H49.375V102.438H9.875ZM118.5 18.625H138.25V37.25H118.5V18.625Z" fill="black"/>
<path d="M98.75 0V55.875H158V0H98.75ZM148.125 9.3125V46.5625H108.625V9.3125H148.125ZM79 9.3125V0H88.875V18.625H79V37.25H69.125V9.3125H79ZM79 55.875V37.25H88.875V55.875H79ZM59.25 74.5V65.1875H69.125V55.875H79V74.5H88.875V65.1875H138.25V74.5H98.75V83.8125H69.125V74.5H59.25ZM59.25 74.5V83.8125H19.75V74.5H9.875V83.8125H0V65.1875H29.625V74.5H59.25ZM158 83.8125H148.125V65.1875H158V83.8125ZM148.125 83.8125H138.25V102.438H158V93.125H148.125V83.8125ZM108.625 83.8125H128.375V93.125H118.5V102.438H108.625V83.8125ZM128.375 111.75V102.438H118.5V111.75H108.625V121.062H88.875V130.375H118.5V111.75H128.375ZM128.375 111.75H158V121.062H138.25V130.375H128.375V111.75ZM88.875 102.438V111.75H98.75V93.125H69.125V102.438H88.875Z" fill="black"/>
<path d="M69.125 111.75H79V139.688H118.5V149H69.125V111.75ZM158 130.375V149H128.375V139.688H148.125V130.375H158Z" fill="black"/>
</svg>
