<svg width="36" height="38" viewBox="0 0 36 38" fill="none" xmlns="http://www.w3.org/2000/svg">
<path d="M7.50391 29.1995V26.6604C7.50391 26.0242 7.68391 25.4291 8.04391 24.8751C8.40491 24.3201 8.88991 23.8895 9.49891 23.5832C10.9149 22.8854 12.3319 22.3622 13.7499 22.0138C15.1669 21.6644 16.5849 21.4896 18.0039 21.4896C18.6789 21.4896 19.3559 21.5328 20.0349 21.6191C20.7139 21.7055 21.3974 21.8278 22.0854 21.9861L20.8419 23.2718C20.3569 23.204 19.8839 23.1469 19.4229 23.1007C18.9629 23.0555 18.4899 23.0329 18.0039 23.0329C16.6689 23.0329 15.3459 23.1963 14.0349 23.5231C12.7239 23.8499 11.4509 24.3207 10.2159 24.9353C9.83591 25.1429 9.53941 25.3967 9.32641 25.6968C9.11141 25.998 9.00391 26.3197 9.00391 26.6619V27.6594H17.7729V29.2011L7.50391 29.1995ZM21.3489 31.3332V27.9261L29.3499 19.7445C29.4979 19.5924 29.6504 19.4896 29.8074 19.4361C29.9654 19.3827 30.1229 19.356 30.2799 19.356C30.4519 19.356 30.6209 19.3889 30.7869 19.4546C30.9529 19.5214 31.1034 19.6211 31.2384 19.7537L32.6259 21.2091C32.7489 21.3612 32.8429 21.5194 32.9079 21.6839C32.9719 21.8473 33.0039 22.0112 33.0039 22.1757C33.0039 22.3401 32.9734 22.5056 32.9124 22.6721C32.8514 22.8386 32.7559 22.9979 32.6259 23.15L24.6639 31.3332H21.3489ZM22.6779 29.9703H24.1029L29.3034 24.6146L28.5984 23.8823L27.9159 23.13L22.6779 28.5058V29.9703ZM28.5984 23.8823L27.9159 23.13L29.3034 24.6146L28.5984 23.8823ZM18.0039 18.0517C16.7669 18.0517 15.7074 17.5985 14.8254 16.692C13.9434 15.7855 13.5029 14.6971 13.5039 13.4267C13.5049 12.1564 13.9454 11.0669 14.8254 10.1584C15.7054 9.24984 16.7649 8.79813 18.0039 8.80327C19.2429 8.8084 20.3024 9.26063 21.1824 10.1599C22.0624 11.0592 22.5029 12.1487 22.5039 13.4283C22.5049 14.7078 22.0644 15.7963 21.1824 16.6935C20.3004 17.5908 19.2409 18.0425 18.0039 18.0517ZM18.0039 16.5116C18.8289 16.5116 19.5354 16.2094 20.1234 15.6051C20.7114 15.0008 21.0049 14.2746 21.0039 13.4267C21.0029 12.5788 20.7094 11.8527 20.1234 11.2483C19.5374 10.644 18.8309 10.3424 18.0039 10.3434C17.1769 10.3444 16.4709 10.6461 15.8859 11.2483C15.3009 11.8506 15.0069 12.5768 15.0039 13.4267C15.0009 14.2767 15.2949 15.0023 15.8859 15.6036C16.4769 16.2048 17.1829 16.5085 18.0039 16.5116Z" fill="#999999"/>
</svg>
