<svg width="28" height="28" viewBox="0 0 28 28" fill="none" xmlns="http://www.w3.org/2000/svg">
<path d="M14.9323 3.34869C14.5431 2.61294 13.3326 2.61294 12.9433 3.34869L2.81831 22.4737C2.72751 22.6451 2.68259 22.8372 2.68793 23.0311C2.69326 23.2251 2.74866 23.4143 2.84875 23.5805C2.94884 23.7467 3.09021 23.8842 3.25913 23.9797C3.42805 24.0751 3.61879 24.1252 3.81281 24.1252H24.0628C24.2568 24.1256 24.4476 24.0757 24.6166 23.9804C24.7856 23.8851 24.927 23.7477 25.0271 23.5814C25.1271 23.4152 25.1824 23.2259 25.1875 23.032C25.1926 22.838 25.1474 22.6461 25.0562 22.4748L14.9323 3.34869ZM15.0628 20.7502H12.8128V18.5002H15.0628V20.7502ZM12.8128 16.2502V10.6252H15.0628L15.0639 16.2502H12.8128Z" fill="#DC080C"/>
</svg>
