<svg width="30" height="32" viewBox="0 0 30 32" fill="none" xmlns="http://www.w3.org/2000/svg">
<g clip-path="url(#clip0_3661_12843)">
<path fill-rule="evenodd" clip-rule="evenodd" d="M15.0034 18.9219L21.6322 25.7716C21.9839 26.1351 22.461 26.3393 22.9584 26.3393C23.4559 26.3393 23.9329 26.1351 24.2847 25.7716C24.6364 25.4081 24.834 24.9152 24.834 24.4012C24.834 23.8871 24.6364 23.3942 24.2847 23.0307L17.6534 16.181L24.2834 9.33128C24.4575 9.15131 24.5956 8.93767 24.6898 8.70256C24.7839 8.46745 24.8324 8.21547 24.8323 7.96101C24.8323 7.70655 24.7837 7.4546 24.6894 7.21953C24.5951 6.98447 24.457 6.7709 24.2828 6.59101C24.1086 6.41112 23.9019 6.26845 23.6743 6.17113C23.4468 6.0738 23.203 6.02374 22.9567 6.0238C22.7105 6.02386 22.4666 6.07404 22.2392 6.17148C22.0117 6.26891 21.805 6.41169 21.6309 6.59166L15.0034 13.4414L8.37466 6.59166C8.20178 6.40652 7.99495 6.25882 7.76624 6.15717C7.53753 6.05552 7.29152 6.00195 7.04256 5.99959C6.7936 5.99724 6.54668 6.04614 6.31621 6.14345C6.08573 6.24075 5.87632 6.38452 5.70019 6.56635C5.52406 6.74818 5.38474 6.96443 5.29035 7.2025C5.19597 7.44056 5.14841 7.69567 5.15045 7.95293C5.1525 8.21019 5.20411 8.46445 5.30226 8.70088C5.40042 8.93731 5.54316 9.15117 5.72216 9.32999L12.3534 16.181L5.72341 23.032C5.54441 23.2108 5.40167 23.4247 5.30351 23.6611C5.20536 23.8975 5.15375 24.1518 5.1517 24.409C5.14966 24.6663 5.19722 24.9214 5.2916 25.1595C5.38599 25.3975 5.52531 25.6138 5.70144 25.7956C5.87757 25.9775 6.08698 26.1212 6.31746 26.2185C6.54793 26.3158 6.79485 26.3647 7.04381 26.3624C7.29277 26.36 7.53878 26.3065 7.76749 26.2048C7.9962 26.1032 8.20303 25.9555 8.37591 25.7703L15.0034 18.9219Z" fill="black"/>
</g>
<defs>
<clipPath id="clip0_3661_12843">
<rect width="30" height="31" fill="white" transform="translate(0.00390625 0.681152)"/>
</clipPath>
</defs>
</svg>
