<svg width="20" height="21" viewBox="0 0 20 21" fill="none" xmlns="http://www.w3.org/2000/svg">
<path fill-rule="evenodd" clip-rule="evenodd" d="M9.99999 13.2408L16.6287 20.0905C16.9805 20.4539 17.4576 20.6581 17.955 20.6581C18.4524 20.6581 18.9295 20.4539 19.2812 20.0905C19.633 19.727 19.8306 19.234 19.8306 18.72C19.8306 18.206 19.633 17.713 19.2812 17.3495L12.65 10.4998L19.28 3.65013C19.4541 3.47016 19.5921 3.25652 19.6863 3.02141C19.7805 2.78629 19.829 2.53432 19.8289 2.27986C19.8288 2.0254 19.7803 1.77345 19.686 1.53838C19.5917 1.30332 19.4535 1.08974 19.2794 0.909858C19.1052 0.729972 18.8985 0.587295 18.6709 0.489973C18.4434 0.392652 18.1996 0.342592 17.9533 0.342652C17.7071 0.342712 17.4632 0.392891 17.2357 0.490323C17.0083 0.587755 16.8016 0.730533 16.6275 0.910504L9.99999 7.76021L3.37124 0.910504C3.19836 0.725371 2.99154 0.577669 2.76283 0.476016C2.53411 0.374364 2.2881 0.320797 2.03914 0.318441C1.79018 0.316085 1.54326 0.364987 1.31279 0.462294C1.08232 0.559601 0.872904 0.703364 0.696773 0.885194C0.520641 1.06702 0.381319 1.28328 0.286933 1.52135C0.192548 1.75941 0.144991 2.01452 0.147036 2.27178C0.149081 2.52904 0.200688 2.7833 0.298845 3.01973C0.397003 3.25616 0.539745 3.47002 0.718743 3.64884L7.34999 10.4998L0.719994 17.3508C0.540996 17.5297 0.398253 17.7435 0.300096 17.9799C0.201938 18.2164 0.150331 18.4706 0.148286 18.7279C0.146241 18.9852 0.193798 19.2403 0.288183 19.4783C0.382569 19.7164 0.521891 19.9326 0.698022 20.1145C0.874153 20.2963 1.08357 20.4401 1.31404 20.5374C1.54451 20.6347 1.79143 20.6836 2.04039 20.6812C2.28935 20.6789 2.53536 20.6253 2.76407 20.5237C2.99279 20.422 3.19961 20.2743 3.37249 20.0892L9.99999 13.2408Z" fill="#CCCCCC"/>
</svg>
