<svg width="23" height="16" viewBox="0 0 23 16" fill="none" xmlns="http://www.w3.org/2000/svg">
<path d="M11.1309 5C11.9265 5 12.6896 5.31607 13.2522 5.87868C13.8148 6.44129 14.1309 7.20435 14.1309 8C14.1309 8.79565 13.8148 9.55871 13.2522 10.1213C12.6896 10.6839 11.9265 11 11.1309 11C10.3352 11 9.57215 10.6839 9.00954 10.1213C8.44693 9.55871 8.13086 8.79565 8.13086 8C8.13086 7.20435 8.44693 6.44129 9.00954 5.87868C9.57215 5.31607 10.3352 5 11.1309 5ZM11.1309 0.5C16.1309 0.5 20.4009 3.61 22.1309 8C20.4009 12.39 16.1309 15.5 11.1309 15.5C6.13086 15.5 1.86086 12.39 0.130859 8C1.86086 3.61 6.13086 0.5 11.1309 0.5ZM2.31086 8C3.11911 9.65031 4.37417 11.0407 5.93334 12.0133C7.49251 12.9858 9.29325 13.5013 11.1309 13.5013C12.9685 13.5013 14.7692 12.9858 16.3284 12.0133C17.8876 11.0407 19.1426 9.65031 19.9509 8C19.1426 6.34969 17.8876 4.95925 16.3284 3.98675C14.7692 3.01424 12.9685 2.49868 11.1309 2.49868C9.29325 2.49868 7.49251 3.01424 5.93334 3.98675C4.37417 4.95925 3.11911 6.34969 2.31086 8Z" fill="white"/>
</svg>
