<svg width="80" height="80" viewBox="0 0 80 80" fill="none" xmlns="http://www.w3.org/2000/svg">
<path d="M46.2397 6.43978L46.239 6.43837C44.3934 2.72777 42.0836 1.125 39.9863 1.125C37.888 1.125 35.5684 2.72903 33.7029 6.43978H46.2397ZM46.2397 6.43978L53.2762 20.5127C53.2767 20.5138 53.2773 20.5149 53.2778 20.5159C53.8253 21.632 54.7984 22.6775 55.8942 23.486C56.9915 24.2957 58.2796 24.9178 59.5058 25.1221L59.5062 25.1222M46.2397 6.43978L59.5062 25.1222M59.5062 25.1222L72.2644 27.2419C72.2645 27.2419 72.2647 27.242 72.2648 27.242C76.2148 27.9004 78.3967 29.6161 79.0379 31.6111C79.6786 33.6044 78.9046 36.262 76.0587 39.0885L76.0569 39.0903M59.5062 25.1222L76.0569 39.0903M76.0569 39.0903L66.138 49.0092C65.1857 49.9615 64.4827 51.315 64.0825 52.7128C63.6823 54.1109 63.5628 55.6314 63.8567 56.9428L63.8579 56.9478M76.0569 39.0903L63.8579 56.9478M63.8579 56.9478L66.6974 69.2258L63.8579 56.9478ZM65.2916 78.2003C66.9878 76.9638 67.8027 74.0223 66.6976 69.2264L65.2916 78.2003ZM65.2916 78.2003C63.5942 79.4377 60.5353 79.3177 56.2916 76.8111L65.2916 78.2003ZM26.6664 20.5127L33.7022 6.44118L56.291 76.8107L44.3332 69.732C44.3331 69.732 44.333 69.7319 44.3329 69.7319C43.1091 69.0068 41.5385 68.6674 40.0063 68.6674C38.4733 68.6674 36.8954 69.0071 35.6546 69.729L35.6497 69.7319L23.691 76.8111L23.6903 76.8115C19.4699 79.3161 16.4099 79.4286 14.7062 78.1855C13.0031 76.9428 12.1807 73.9987 13.285 69.2265L13.2851 69.2264L16.1248 56.9478L16.1259 56.9428C16.4198 55.6314 16.3003 54.1109 15.9001 52.7128C15.5 51.315 14.7969 49.9615 13.8446 49.0092L3.92568 39.0903C1.09901 36.2637 0.323061 33.6048 0.96016 31.6097C1.59701 29.6154 3.76861 27.9003 7.71781 27.242C7.71794 27.242 7.71806 27.2419 7.71819 27.2419L20.4764 25.1222L20.479 25.1218C21.686 24.9168 22.9639 24.2939 24.0548 23.485C25.1448 22.6768 26.1177 21.6315 26.665 20.5155C26.6655 20.5146 26.6659 20.5136 26.6664 20.5127Z" fill="#FABF35" stroke="#FABF35" stroke-width="1.5" stroke-linecap="round" stroke-linejoin="round"/>
<path d="M30.5475 38.1361C32.0477 38.1361 33.2639 36.9199 33.2639 35.4196C33.2639 33.9193 32.0477 32.7031 30.5475 32.7031C29.0472 32.7031 27.8311 33.9193 27.8311 35.4196C27.8311 36.9199 29.0472 38.1361 30.5475 38.1361Z" fill="#BB8300"/>
<path d="M49.5641 38.1361C51.0643 38.1361 52.2805 36.9199 52.2805 35.4196C52.2805 33.9193 51.0643 32.7031 49.5641 32.7031C48.0639 32.7031 46.8477 33.9193 46.8477 35.4196C46.8477 36.9199 48.0639 38.1361 49.5641 38.1361Z" fill="#BB8300"/>
<path d="M29.134 54.9166C29.1457 54.866 29.1487 54.8468 29.1533 54.8215L29.1664 54.7517L29.1902 54.6248C29.2064 54.5424 29.2241 54.466 29.2407 54.3882C29.2766 54.2365 29.3196 54.0883 29.3631 53.9422C29.4533 53.6549 29.5597 53.373 29.6817 53.0977C29.9272 52.5489 30.2288 52.027 30.5818 51.5403C31.302 50.5587 32.2014 49.7221 33.2325 49.0746C33.7438 48.7553 34.2799 48.4774 34.8354 48.2433C35.382 48.0165 35.9447 47.8305 36.5188 47.6871C37.6292 47.4117 38.7688 47.2718 39.9128 47.2704C41.0418 47.2581 42.1684 47.3758 43.2704 47.6213L43.6922 47.7225C43.8322 47.7558 43.9723 47.8019 44.1124 47.8413C44.392 47.9182 44.6686 48.0198 44.9457 48.1189C45.5028 48.3272 46.0423 48.5794 46.5593 48.8734C47.0831 49.1705 47.5801 49.5125 48.0449 49.8953C48.5101 50.2819 48.9375 50.7118 49.3213 51.1792C49.7038 51.6461 50.0356 52.1524 50.3108 52.6896C50.4499 52.9599 50.5723 53.2383 50.6774 53.5235C50.728 53.6681 50.7786 53.8152 50.8231 53.968C50.8448 54.0463 50.8661 54.1197 50.8868 54.2051L50.9166 54.3331L50.9328 54.4038C50.9394 54.4311 50.9424 54.4478 50.9576 54.5014C51.0306 54.6923 51.0645 54.8958 51.0574 55.1C51.0503 55.3042 51.0023 55.5049 50.9162 55.6902C50.8302 55.8755 50.7078 56.0417 50.5563 56.1788C50.4049 56.316 50.2275 56.4214 50.0346 56.4887C49.8417 56.5561 49.6372 56.584 49.4333 56.5709C49.2294 56.5578 49.0302 56.5039 48.8475 56.4125C48.6648 56.321 48.5023 56.1938 48.3697 56.0384C48.237 55.883 48.1369 55.7025 48.0753 55.5077C48.0798 55.533 48.0723 55.5219 48.0677 55.5214C48.0632 55.5209 48.0566 55.5138 48.05 55.5087C48.0434 55.5037 48.0247 55.486 48.0095 55.4708L47.9221 55.3818C47.8599 55.3186 47.7977 55.2534 47.7314 55.1891C47.603 55.0592 47.4624 54.9323 47.3234 54.8089C47.0448 54.5647 46.7498 54.3398 46.4405 54.1358C46.1369 53.9344 45.8205 53.753 45.4933 53.5928C45.166 53.4351 44.8302 53.2955 44.4876 53.1746L44.2287 53.0861L43.9637 53.0077C43.8777 52.9784 43.7862 52.9571 43.6962 52.9339C43.6062 52.9106 43.5192 52.8833 43.4267 52.8656C43.2431 52.8267 43.0631 52.7817 42.8745 52.7513C42.781 52.7346 42.6899 52.7144 42.5949 52.7008L42.3102 52.6588C41.5241 52.5506 40.7311 52.4999 39.9376 52.5071C38.325 52.5147 36.8273 52.7336 35.5019 53.2656C34.8333 53.5344 34.2024 53.8888 33.6249 54.3199C33.3272 54.5443 33.0444 54.7879 32.7784 55.0491C32.6464 55.1821 32.5129 55.3181 32.389 55.4577L32.296 55.5618L32.207 55.6629L32.1225 55.76C32.1079 55.7762 32.0952 55.7889 32.0831 55.8015C32.0781 55.8073 32.0723 55.8125 32.0659 55.8167C32.0608 55.8167 32.0538 55.8288 32.0568 55.8071C31.9388 56.1946 31.6718 56.5194 31.3144 56.71C30.9569 56.9006 30.5385 56.9414 30.1509 56.8235C29.7634 56.7055 29.4386 56.4384 29.248 56.081C29.0574 55.7236 29.0166 55.3051 29.1345 54.9176L29.134 54.9166Z" fill="#BB8300"/>
</svg>
