<svg width="80" height="80" viewBox="0 0 80 80" fill="none" xmlns="http://www.w3.org/2000/svg">
<path d="M46.2397 6.09603L46.239 6.09462C44.3934 2.38402 42.0836 0.78125 39.9863 0.78125C37.888 0.78125 35.5684 2.38528 33.7029 6.09603H46.2397ZM46.2397 6.09603L53.2762 20.169C53.2767 20.17 53.2773 20.1711 53.2778 20.1722C53.8253 21.2882 54.7984 22.3337 55.8942 23.1423C56.9915 23.9519 58.2796 24.574 59.5058 24.7784L59.5062 24.7785M46.2397 6.09603L59.5062 24.7785M59.5062 24.7785L72.2644 26.8982C72.2645 26.8982 72.2647 26.8982 72.2648 26.8982C76.2148 27.5566 78.3967 29.2724 79.0379 31.2673C79.6786 33.2607 78.9046 35.9183 76.0587 38.7448L76.0569 38.7466M59.5062 24.7785L76.0569 38.7466M76.0569 38.7466L66.138 48.6655C65.1857 49.6178 64.4827 50.9713 64.0825 52.369C63.6823 53.7672 63.5628 55.2876 63.8567 56.5991L63.8579 56.604M76.0569 38.7466L63.8579 56.604M63.8579 56.604L66.6974 68.8821L63.8579 56.604ZM65.2916 77.8565C66.9878 76.62 67.8027 73.6785 66.6976 68.8827L65.2916 77.8565ZM65.2916 77.8565C63.5942 79.094 60.5353 78.9739 56.2916 76.4673L65.2916 77.8565ZM26.6664 20.169L33.7022 6.09743L56.291 76.467L44.3332 69.3883C44.3331 69.3882 44.333 69.3882 44.3329 69.3881C43.1091 68.663 41.5385 68.3236 40.0063 68.3236C38.4733 68.3236 36.8954 68.6633 35.6546 69.3852L35.6497 69.3881L23.691 76.4673L23.6903 76.4678C19.4699 78.9724 16.4099 79.0848 14.7062 77.8417C13.0031 76.599 12.1807 73.6549 13.285 68.8828L13.2851 68.8827L16.1248 56.604L16.1259 56.5991C16.4198 55.2876 16.3003 53.7672 15.9001 52.369C15.5 50.9713 14.7969 49.6178 13.8446 48.6655L3.92568 38.7466C1.09901 35.9199 0.323061 33.2611 0.960161 31.266C1.59701 29.2716 3.76861 27.5565 7.71781 26.8982C7.71794 26.8982 7.71807 26.8982 7.71819 26.8982L20.4764 24.7785L20.479 24.778C21.686 24.5731 22.9639 23.9501 24.0548 23.1412C25.1448 22.3331 26.1177 21.2878 26.665 20.1718C26.6655 20.1708 26.6659 20.1699 26.6664 20.169Z" fill="#FABF35" stroke="#FABF35" stroke-width="1.5" stroke-linecap="round" stroke-linejoin="round"/>
<path d="M29.5895 37.7924C31.0898 37.7924 32.306 36.5762 32.306 35.0759C32.306 33.5756 31.0898 32.3594 29.5895 32.3594C28.0893 32.3594 26.873 33.5756 26.873 35.0759C26.873 36.5762 28.0893 37.7924 29.5895 37.7924Z" fill="#BB8300"/>
<path d="M50.237 37.7924C51.7373 37.7924 52.9535 36.5762 52.9535 35.0759C52.9535 33.5756 51.7373 32.3594 50.237 32.3594C48.7367 32.3594 47.5205 33.5756 47.5205 35.0759C47.5205 36.5762 48.7367 37.7924 50.237 37.7924Z" fill="#BB8300"/>
<path d="M28.5283 52.6329C29.0103 52.5088 29.4918 52.4133 29.9739 52.321C30.4559 52.2288 30.9374 52.1536 31.4194 52.0811C32.3829 51.9384 33.3465 51.8319 34.31 51.7407C36.2376 51.5656 38.1646 51.4843 40.0922 51.4706C42.0198 51.4569 43.9468 51.5184 45.8739 51.671C46.3559 51.7089 46.8374 51.7523 47.3194 51.8055C47.8015 51.8588 48.283 51.9153 48.765 51.9796C49.247 52.0438 49.7285 52.119 50.2106 52.2052C50.6926 52.2914 51.1741 52.3836 51.6561 52.5039C51.9923 52.5879 52.2907 52.7819 52.5039 53.055C52.7172 53.3281 52.833 53.6647 52.833 54.0112C52.833 54.3577 52.7172 54.6942 52.5039 54.9674C52.2907 55.2405 51.9923 55.4345 51.6561 55.5185C51.1741 55.6387 50.6921 55.7326 50.2106 55.8172C49.7291 55.9017 49.247 55.9747 48.765 56.0428C48.283 56.1109 47.8015 56.1669 47.3194 56.2169C46.8374 56.2668 46.3559 56.3135 45.8739 56.3519C43.9468 56.504 42.0193 56.5638 40.0922 56.5518C38.1652 56.5397 36.2376 56.4573 34.31 56.2822C33.3465 56.1911 32.3829 56.084 31.4194 55.9418C30.9374 55.8688 30.4553 55.7925 29.9739 55.7013C29.4924 55.6102 29.0103 55.5141 28.5283 55.3895C28.2228 55.3105 27.9522 55.1323 27.759 54.8828C27.5658 54.6333 27.4609 54.3267 27.4609 54.0112C27.4609 53.6956 27.5658 53.389 27.759 53.1396C27.9522 52.8901 28.2228 52.7118 28.5283 52.6329Z" fill="#BB8300"/>
</svg>
