<svg width="80" height="81" viewBox="0 0 80 81" fill="none" xmlns="http://www.w3.org/2000/svg">
<path d="M46.2397 6.78743L46.239 6.78603C44.3934 3.07543 42.0836 1.47266 39.9863 1.47266C37.888 1.47266 35.5684 3.07669 33.7029 6.78743H46.2397ZM46.2397 6.78743L53.2762 20.8604C53.2767 20.8614 53.2773 20.8625 53.2778 20.8636C53.8253 21.9796 54.7984 23.0251 55.8942 23.8337C56.9915 24.6433 58.2796 25.2654 59.5058 25.4698L59.5062 25.4699M46.2397 6.78743L59.5062 25.4699M59.5062 25.4699L72.2644 27.5896C72.2645 27.5896 72.2647 27.5896 72.2648 27.5896C76.2148 28.248 78.3967 29.9638 79.0379 31.9587C79.6786 33.9521 78.9046 36.6097 76.0587 39.4362L76.0569 39.438M59.5062 25.4699L76.0569 39.438M76.0569 39.438L66.138 49.3569C65.1857 50.3092 64.4827 51.6627 64.0825 53.0604C63.6823 54.4586 63.5628 55.979 63.8567 57.2905L63.8579 57.2954M76.0569 39.438L63.8579 57.2954M63.8579 57.2954L66.6974 69.5735L63.8579 57.2954ZM65.2916 78.548C66.9878 77.3114 67.8027 74.3699 66.6976 69.5741L65.2916 78.548ZM65.2916 78.548C63.5942 79.7854 60.5353 79.6654 56.2916 77.1588L65.2916 78.548ZM26.6664 20.8604L33.7022 6.78884L56.291 77.1584L44.3332 70.0797C44.3331 70.0796 44.333 70.0796 44.3329 70.0795C43.1091 69.3544 41.5385 69.015 40.0063 69.015C38.4733 69.015 36.8954 69.3547 35.6546 70.0766L35.6497 70.0795L23.691 77.1588L23.6903 77.1592C19.4699 79.6638 16.4099 79.7763 14.7062 78.5331C13.0031 77.2904 12.1807 74.3463 13.285 69.5742L13.2851 69.5741L16.1248 57.2954L16.1259 57.2905C16.4198 55.979 16.3003 54.4586 15.9001 53.0604C15.5 51.6627 14.7969 50.3092 13.8446 49.3569L3.92568 39.438C1.09901 36.6113 0.323061 33.9525 0.960161 31.9574C1.59701 29.963 3.76861 28.2479 7.71781 27.5896C7.71794 27.5896 7.71807 27.5896 7.71819 27.5896L20.4764 25.4699L20.479 25.4694C21.686 25.2645 22.9639 24.6415 24.0548 23.8326C25.1448 23.0245 26.1177 21.9792 26.665 20.8632C26.6655 20.8622 26.6659 20.8613 26.6664 20.8604Z" fill="#FABF35" stroke="#FABF35" stroke-width="1.5" stroke-linecap="round" stroke-linejoin="round"/>
<path d="M31.2585 37.9846C32.6207 37.9846 33.725 36.8802 33.725 35.5177C33.725 34.1553 32.6207 33.0508 31.2585 33.0508C29.8963 33.0508 28.792 34.1553 28.792 35.5177C28.792 36.8802 29.8963 37.9846 31.2585 37.9846Z" fill="#BB8300"/>
<path d="M48.5271 37.9846C49.8893 37.9846 50.9936 36.8802 50.9936 35.5177C50.9936 34.1553 49.8893 33.0508 48.5271 33.0508C47.1648 33.0508 46.0605 34.1553 46.0605 35.5177C46.0605 36.8802 47.1648 37.9846 48.5271 37.9846Z" fill="#BB8300"/>
<path d="M30.1652 57.2422C29.4443 57.2229 29.0215 56.5301 29.0215 54.6638C29.0215 48.4656 38.1121 48.2728 39.8788 48.2939C41.5711 48.2705 50.7655 48.4316 50.7655 54.6633C50.7655 56.4722 50.3684 57.1788 49.6875 57.2381" fill="#BB8300"/>
</svg>
