<svg width="20" height="21" viewBox="0 0 20 21" fill="none" xmlns="http://www.w3.org/2000/svg">
<path d="M3.34062 4.87722C3.27339 4.9355 3.21937 5.00747 3.18218 5.08831C3.145 5.16915 3.1255 5.25699 3.125 5.34597V18.471C3.125 18.6367 3.19085 18.7957 3.30806 18.9129C3.42527 19.0301 3.58424 19.096 3.75 19.096C3.91576 19.096 4.07473 19.0301 4.19194 18.9129C4.30915 18.7957 4.375 18.6367 4.375 18.471V15.0155C6.46797 13.3624 8.27109 14.2538 10.3477 15.2819C11.6289 15.9155 13.0086 16.5983 14.4883 16.5983C15.5766 16.5983 16.718 16.2272 17.9117 15.1921C17.979 15.1338 18.033 15.0618 18.0702 14.981C18.1073 14.9001 18.1268 14.8123 18.1273 14.7233V5.34597C18.1271 5.22601 18.0923 5.10866 18.0271 5.00794C17.9619 4.90722 17.8692 4.82738 17.7598 4.77795C17.6505 4.72853 17.5293 4.71161 17.4106 4.72921C17.292 4.74681 17.1809 4.7982 17.0906 4.87722C14.9031 6.77019 13.05 5.853 10.9023 4.78972C8.67734 3.6866 6.15469 2.43894 3.34062 4.87722ZM16.875 14.428C14.782 16.0811 12.9789 15.1889 10.9023 14.1616C8.94922 13.1968 6.77656 12.1202 4.375 13.5053V5.64207C6.46797 3.98894 8.27109 4.88035 10.3477 5.90769C12.3008 6.87253 14.4742 7.9491 16.875 6.56394V14.428Z" fill="#878787"/>
</svg>
