<svg width="20" height="21" viewBox="0 0 20 21" fill="none" xmlns="http://www.w3.org/2000/svg">
<path d="M3.34062 4.40554C3.27339 4.46382 3.21937 4.53579 3.18218 4.61663C3.145 4.69747 3.1255 4.78531 3.125 4.87429V17.9993C3.125 18.1651 3.19085 18.324 3.30806 18.4412C3.42527 18.5584 3.58424 18.6243 3.75 18.6243C3.91576 18.6243 4.07473 18.5584 4.19194 18.4412C4.30915 18.324 4.375 18.1651 4.375 17.9993V14.5438C6.46797 12.8907 8.27109 13.7821 10.3477 14.8102C11.6289 15.4438 13.0086 16.1266 14.4883 16.1266C15.5766 16.1266 16.718 15.7555 17.9117 14.7204C17.979 14.6621 18.033 14.5901 18.0702 14.5093C18.1073 14.4285 18.1268 14.3406 18.1273 14.2516V4.87429C18.1271 4.75433 18.0923 4.63698 18.0271 4.53626C17.9619 4.43554 17.8692 4.3557 17.7598 4.30627C17.6505 4.25685 17.5293 4.23993 17.4106 4.25753C17.292 4.27513 17.1809 4.32652 17.0906 4.40554C14.9031 6.29851 13.05 5.38132 10.9023 4.31804C8.67734 3.21492 6.15469 1.96726 3.34062 4.40554ZM16.875 13.9563C14.782 15.6094 12.9789 14.7173 10.9023 13.6899C8.94922 12.7251 6.77656 11.6485 4.375 13.0337V5.17039C6.46797 3.51726 8.27109 4.40867 10.3477 5.43601C12.3008 6.40085 14.4742 7.47742 16.875 6.09226V13.9563Z" fill="white"/>
</svg>
