<svg width="120" height="110" viewBox="0 0 120 110" fill="none" xmlns="http://www.w3.org/2000/svg">
<g opacity="0.5">
<path d="M5.54183 50.8244C6.0833 53.5557 6.79803 56.2471 7.52089 58.9262C8.31143 61.8631 9.0776 64.8093 9.86814 67.7493C11.146 72.5163 12.4094 77.2884 13.6584 82.0656C13.9111 83.0088 14.1656 83.9499 14.4219 84.889C14.435 84.9426 14.4574 84.9927 14.4876 85.0365C14.5179 85.0803 14.5554 85.117 14.5982 85.1443C14.6409 85.1717 14.688 85.1892 14.7367 85.196C14.7854 85.2027 14.8348 85.1985 14.8821 85.1836C14.9294 85.1687 14.9736 85.1433 15.0123 85.109C15.0509 85.0748 15.0833 85.0322 15.1074 84.9837C15.1315 84.9353 15.147 84.8819 15.1529 84.8267C15.1589 84.7715 15.1552 84.7155 15.142 84.6619C14.4363 81.9551 13.7225 79.2504 13.0005 76.5477C11.4989 70.9317 9.96922 65.3238 8.4116 59.7241C7.56691 56.7136 6.71411 53.6907 5.60952 50.7845C5.59327 50.7415 5.53371 50.7845 5.54183 50.8182V50.8244Z" fill="#0884A2"/>
<path d="M15.253 85.1958C15.6217 85.2241 15.992 85.1983 16.3549 85.1191C16.7908 85.0516 17.224 84.978 17.6571 84.9043C18.4693 84.7662 19.2572 84.6189 20.0531 84.4501C21.645 84.1125 23.2297 83.7351 24.8072 83.3177C26.3693 82.9065 27.9341 82.4707 29.4746 81.9582C30.8418 81.5009 32.2144 80.9209 33.365 79.9481C34.475 79.009 35.5309 77.6126 35.7475 76.0107C35.8125 75.5227 35.206 75.2987 35.0788 75.7989C34.7517 77.1778 34.0311 78.395 33.0293 79.2606C31.922 80.2365 30.5738 80.7951 29.2391 81.2585C26.3016 82.262 23.283 83.0507 20.2832 83.7289C19.4259 83.9212 18.5677 84.1095 17.7086 84.2936C17.2808 84.3857 16.8503 84.4747 16.4199 84.5606C15.9968 84.6166 15.5813 84.731 15.1826 84.9012C15.0391 84.9718 15.1339 85.1774 15.2503 85.2081L15.253 85.1958Z" fill="#0884A2"/>
<path d="M5.61493 50.9625C6.32425 50.8152 7.0092 50.3487 7.66709 50.0418C8.38453 49.6981 9.10468 49.3697 9.83295 49.0322C11.2769 48.3611 12.7298 47.7197 14.1917 47.108C15.5996 46.5187 17.0173 45.9582 18.445 45.4262C19.9042 44.8861 21.3987 44.3429 22.9472 44.2877C24.4643 44.1878 25.9565 44.7575 27.1111 45.8773C27.1764 45.9492 27.2641 45.9891 27.3551 45.9883C27.4461 45.9876 27.5332 45.9463 27.5976 45.8733C27.662 45.8003 27.6984 45.7016 27.6991 45.5984C27.6997 45.4952 27.6646 45.3959 27.6011 45.3219C26.6861 44.1833 25.2431 43.6647 23.9246 43.5327C22.3516 43.3762 20.776 43.8089 19.2842 44.3398C16.2277 45.4324 13.2198 46.7336 10.2607 48.1238C9.42865 48.5166 8.60292 48.9258 7.7835 49.3513C7.02816 49.7441 6.12932 50.0848 5.48769 50.6955C5.37127 50.806 5.50122 50.984 5.62305 50.9594L5.61493 50.9625Z" fill="#0884A2"/>
<path d="M47.9927 36.3055C48.434 39.0675 49.0757 41.7804 49.7633 44.4779C50.5051 47.4302 51.2442 50.3886 52.0185 53.3317C53.2711 58.1068 54.54 62.8779 55.825 67.6449C56.0777 68.586 56.3313 69.5292 56.5858 70.4744C56.7266 70.9931 57.4521 70.7813 57.3087 70.2473C56.5777 67.5508 55.8503 64.8512 55.1266 62.1485C53.6321 56.5632 52.1449 50.9768 50.6649 45.3894C49.8527 42.3205 49.0648 39.2516 48.0631 36.284C48.0619 36.2788 48.0597 36.2739 48.0568 36.2696C48.0539 36.2653 48.0503 36.2617 48.0461 36.259C48.042 36.2562 48.0374 36.2545 48.0326 36.2538C48.0279 36.2531 48.0231 36.2535 48.0185 36.2549C48.0138 36.2563 48.0095 36.2587 48.0057 36.262C48.0019 36.2653 47.9987 36.2694 47.9963 36.2741C47.994 36.2788 47.9924 36.284 47.9918 36.2894C47.9912 36.2948 47.9915 36.3003 47.9927 36.3055Z" fill="#0884A2"/>
<path d="M56.6291 70.7261C55.9035 70.8703 55.1996 71.3399 54.5255 71.6713C53.8514 72.0027 53.1312 72.3342 52.4355 72.6625C51.0367 73.3254 49.6262 73.9545 48.2039 74.5499C46.7817 75.1453 45.3513 75.7069 43.9128 76.2347C42.5131 76.7442 41.0728 77.2198 39.5811 77.226C38.1407 77.2651 36.7388 76.6964 35.6473 75.6301C35.582 75.5583 35.4944 75.5184 35.4034 75.5191C35.3123 75.5199 35.2252 75.5612 35.1609 75.6342C35.0965 75.7071 35.06 75.8059 35.0594 75.9091C35.0587 76.0123 35.0939 76.1116 35.1573 76.1856C36.0236 77.2659 37.3746 77.7845 38.6227 77.9502C40.0955 78.1466 41.5818 77.806 42.9896 77.3364C46.0442 76.2746 49.0449 75.0226 51.9779 73.5863C52.801 73.1955 53.6132 72.7863 54.4145 72.3587C54.808 72.1541 55.1996 71.9495 55.5895 71.7449C56.0009 71.5543 56.3886 71.3036 56.7428 70.9992C56.8592 70.8887 56.7428 70.7107 56.6102 70.7353L56.6291 70.7261Z" fill="#0884A2"/>
<path d="M48.0252 36.1367C47.2645 36.0385 46.4252 36.2932 45.6753 36.4252C44.9253 36.5571 44.1104 36.7075 43.3307 36.8763C41.6955 37.2303 40.0666 37.622 38.444 38.0517C36.8927 38.4599 35.3414 38.8987 33.8063 39.3836C32.3308 39.8501 30.8283 40.4086 29.564 41.4213C28.3781 42.3696 27.2438 43.8181 27.0137 45.4999C26.9487 45.9878 27.5551 46.2088 27.6824 45.7086C28.0309 44.2461 28.8202 42.9682 29.9132 42.0965C31.1098 41.1206 32.5204 40.5774 33.9228 40.1171C36.9306 39.1319 39.9845 38.3125 43.0519 37.6067C43.9101 37.4103 44.771 37.217 45.6292 37.0298C46.4414 36.8548 47.3403 36.7965 48.0956 36.416C48.2391 36.3485 48.1444 36.1398 48.0252 36.1091V36.1367Z" fill="#0884A2"/>
<path d="M27.1923 45.4722C27.3174 46.4499 27.5148 47.4138 27.7825 48.3539C28.0181 49.3482 28.2807 50.3364 28.5325 51.3246C29.036 53.3224 29.5369 55.3141 30.0513 57.312C31.0936 61.3384 32.1224 65.3647 33.1837 69.3819C33.772 71.6038 34.3622 73.8267 34.9542 76.0506C35.1302 76.7135 36.0534 76.4311 35.872 75.7652C33.7305 67.8045 31.6242 59.8285 29.4151 51.8893C29.1091 50.7906 28.8059 49.6889 28.4973 48.5872C28.1886 47.4854 27.9206 46.3806 27.4522 45.3925C27.39 45.2605 27.1815 45.3127 27.1815 45.4722H27.1923Z" fill="#0884A2"/>
<path d="M34.2206 78.6192C34.4546 78.9721 34.7788 79.2346 35.1492 79.3711C35.5606 79.477 35.9901 79.4461 36.3864 79.2821C36.7539 79.135 37.0821 78.8835 37.3394 78.5517C37.4651 78.3877 37.5732 78.2074 37.6616 78.0147C37.7808 77.8271 37.8374 77.5976 37.8213 77.3671C37.8127 77.3327 37.7973 77.3009 37.7763 77.2743C37.7553 77.2476 37.7292 77.2266 37.7 77.213C37.6708 77.1994 37.6392 77.1935 37.6077 77.1958C37.5762 77.198 37.5456 77.2083 37.5181 77.226C37.4024 77.3534 37.3104 77.5057 37.2474 77.674C37.1689 77.8092 37.0782 77.9347 36.9766 78.0484C36.7648 78.2882 36.5125 78.4771 36.2348 78.6039C35.9259 78.7318 35.5961 78.7821 35.2683 78.7512L34.7945 78.7174C34.7044 78.7248 34.6139 78.7248 34.5238 78.7174C34.4228 78.6911 34.3247 78.6519 34.2314 78.6008L34.2206 78.6192Z" fill="#0884A2"/>
<path d="M8.30872 49.56C8.44453 50.3979 8.64845 51.2198 8.91787 52.0151C9.17958 52.9378 9.4458 53.8585 9.71653 54.7771C10.3013 56.7535 10.8843 58.7298 11.4655 60.7062L14.4219 70.7291C14.5654 71.2202 14.7116 71.7112 14.855 72.1991C14.8962 72.3529 14.9459 72.5036 15.0039 72.6503C15.0175 72.681 15.0283 72.7178 15.0446 72.7485C15.1312 72.9541 15.0067 72.6319 15.0283 72.7055C15.1474 73.1075 15.7106 72.9326 15.5914 72.5306C15.5644 72.4446 15.5914 72.8037 15.5914 72.6319C15.5891 72.5629 15.5828 72.4942 15.5725 72.4262C15.5526 72.3223 15.5273 72.2198 15.4967 72.1193C15.3803 71.7296 15.2638 71.3368 15.1501 70.947C14.7458 69.5844 14.3434 68.2219 13.9427 66.8593L10.526 55.3142C10.2156 54.2605 9.89973 53.2089 9.57846 52.1593C9.30773 51.2602 9.08843 50.2781 8.6715 49.4495C8.58216 49.2746 8.28165 49.336 8.30872 49.56Z" fill="#0884A2"/>
<path d="M15.5941 72.7086C15.6437 72.5689 15.6809 72.4239 15.7051 72.2759C15.743 71.9321 15.7674 71.5823 15.7864 71.2355C15.827 70.4806 15.8622 69.7011 15.9542 68.9523L15.5725 69.0658L16.3847 70.1307C16.6175 70.4376 16.8476 70.7445 17.0805 71.0514C17.275 71.3184 17.482 71.5734 17.7004 71.8155L17.9414 72.061L18.0118 72.1316C18.0416 72.1592 18.093 72.2237 18.0389 72.1562C18.2067 72.3679 18.4802 72.058 18.3096 71.8493C18.3664 71.9229 18.3096 71.8247 18.2771 71.794L18.1201 71.5424C17.9374 71.2644 17.7404 70.999 17.5299 70.7476C17.0913 70.189 16.6419 69.6458 16.1952 69.0934L15.8892 68.716C15.743 68.5349 15.521 68.6945 15.4994 68.9001C15.4236 69.6704 15.4073 70.4529 15.383 71.2294C15.383 71.5762 15.383 71.9291 15.383 72.2789C15.3983 72.4302 15.4273 72.5794 15.4696 72.7239C15.4741 72.7373 15.4821 72.7488 15.4925 72.757C15.5029 72.7651 15.5152 72.7694 15.5278 72.7694C15.5404 72.7694 15.5528 72.7651 15.5632 72.757C15.5736 72.7488 15.5815 72.7373 15.586 72.7239L15.5941 72.7086Z" fill="#0884A2"/>
<path d="M11.9853 47.4486C12.228 49.0598 12.558 50.6525 12.9734 52.2177C13.3759 53.8135 13.7784 55.4113 14.1809 57.0112C14.9931 60.2428 15.8568 63.4559 16.7014 66.6813C17.1671 68.4551 17.5976 70.2412 18.0551 72.0211C18.0702 72.0545 18.095 72.0809 18.1253 72.0958C18.1556 72.1108 18.1896 72.1135 18.2214 72.1034C18.2532 72.0933 18.281 72.071 18.3 72.0404C18.3191 72.0097 18.3282 71.9726 18.3258 71.9352C16.715 65.509 15.1908 59.0459 13.5826 52.632C13.1723 50.8592 12.666 49.1169 12.0665 47.4148C12.0448 47.3627 11.9826 47.4149 11.9907 47.4517L11.9853 47.4486Z" fill="#0884A2"/>
<path d="M32.0195 45.9356C32.783 44.9014 34.1285 44.7326 35.2223 44.4595C36.27 44.1956 37.3123 43.8887 38.3465 43.5665C39.3807 43.2442 40.4745 42.9865 41.4464 42.4801C41.6441 42.3788 41.4925 42.0842 41.3111 42.1149C40.7441 42.2404 40.1852 42.4086 39.6379 42.6182C39.0965 42.8023 38.5279 42.9834 37.9702 43.1552C36.9523 43.4621 35.9262 43.7874 34.892 44.036C34.2555 44.1611 33.6322 44.3606 33.032 44.6314C32.5718 44.8646 31.9329 45.2452 31.9491 45.9111C31.9491 45.9387 31.987 45.9633 32.006 45.9356H32.0195Z" fill="#0884A2"/>
<path d="M33.0185 50.6065C33.56 52.9327 34.1691 55.2282 34.8189 57.5176C35.1402 58.649 35.4614 59.7814 35.7827 60.9149L36.2754 62.6488C36.4108 63.1245 36.492 63.7505 36.7654 64.1495C36.844 64.263 36.9983 64.1495 37.0037 64.039C36.9881 63.7701 36.9313 63.5063 36.8358 63.2595L36.5868 62.3941L36.113 60.7338C35.7881 59.6024 35.4641 58.471 35.1411 57.3396C34.4913 55.0686 33.8118 52.8191 33.0537 50.5881C33.0537 50.5604 33.0104 50.5697 33.0185 50.5881V50.6065Z" fill="#0884A2"/>
<path d="M33.0402 50.3947C34.3153 50.1124 35.558 49.517 36.7925 49.0659C37.9323 48.6547 39.0775 48.2649 40.2335 47.9181C42.3102 47.278 44.4301 46.8335 46.5714 46.5893C46.899 46.5556 46.9017 45.9755 46.5714 46.0032C44.3987 46.2447 42.2478 46.6933 40.1415 47.3443C38.9692 47.7003 37.8078 48.0992 36.6544 48.5227C35.4091 48.98 34.0771 49.3881 32.9183 50.0878C32.764 50.1799 32.875 50.4285 33.032 50.3947H33.0402Z" fill="#0884A2"/>
<path d="M36.8927 64.0911C38.0758 64.1832 39.2806 63.864 40.4285 63.5848C41.5764 63.3055 42.7216 62.971 43.8532 62.6119C44.9849 62.2529 46.103 61.8386 47.213 61.3844C47.7545 61.1604 48.3149 60.9241 48.8618 60.6816C49.443 60.4604 50.0079 60.1874 50.5512 59.8653C50.5982 59.8238 50.6318 59.766 50.6469 59.7006C50.6619 59.6353 50.6575 59.5661 50.6344 59.5039C50.6113 59.4417 50.5707 59.3898 50.5189 59.3564C50.4672 59.323 50.4071 59.3099 50.3481 59.319C49.7957 59.5394 49.2536 59.7914 48.7237 60.074C48.1823 60.3236 47.6327 60.563 47.075 60.7921C45.9704 61.2504 44.8531 61.6657 43.7233 62.0381C42.5934 62.4104 41.4536 62.7419 40.3039 63.0324C39.1669 63.3209 37.9783 63.5019 36.89 63.9807C36.8778 63.9807 36.8661 63.9862 36.8574 63.9959C36.8488 64.0057 36.844 64.019 36.844 64.0328C36.844 64.0467 36.8488 64.0599 36.8574 64.0697C36.8661 64.0795 36.8778 64.085 36.89 64.085L36.8927 64.0911Z" fill="#0884A2"/>
<path d="M46.4956 46.2211C46.7063 47.3475 46.9711 48.4601 47.2888 49.5539L48.185 52.9726C48.7788 55.2231 49.3681 57.4736 49.9529 59.7241C50.0476 60.0863 50.5485 59.9328 50.451 59.5707C49.85 57.3059 49.248 55.042 48.6452 52.7793L47.7355 49.3636C47.4697 48.2596 47.1516 47.1727 46.7826 46.1075C46.7095 45.9111 46.4658 46.0615 46.4956 46.2456V46.2211Z" fill="#0884A2"/>
<path d="M38.2464 67.3963C39.2372 67.5406 40.3202 67.3165 41.2975 67.1324C42.3269 66.9415 43.345 66.6792 44.346 66.3468C45.3288 66.0144 46.2942 65.6189 47.2374 65.1622C47.7211 64.9399 48.1938 64.6879 48.6533 64.4072C49.0976 64.1659 49.5103 63.8561 49.8797 63.4866C49.896 63.4669 49.9062 63.4419 49.909 63.4151C49.9117 63.3884 49.9068 63.3614 49.895 63.338C49.8832 63.3147 49.8651 63.2962 49.8433 63.2854C49.8216 63.2746 49.7973 63.2719 49.7742 63.2779C49.3019 63.4499 48.8436 63.6676 48.4043 63.9285C47.963 64.1495 47.5298 64.3888 47.0885 64.6067C46.1323 65.0746 45.1523 65.4773 44.1537 65.8128C43.1907 66.1358 42.2128 66.3991 41.2244 66.6015C40.7317 66.7028 40.2362 66.7795 39.7408 66.8654C39.2454 66.9513 38.7066 66.9912 38.2112 67.1355C38.0785 67.1754 38.1245 67.3656 38.2382 67.3841L38.2464 67.3963Z" fill="#0884A2"/>
<path d="M38.5956 69.4985C40.3093 69.7747 42.0826 69.4464 43.7395 68.9737C44.6083 68.7237 45.4635 68.4162 46.3007 68.0531C47.1121 67.75 47.8787 67.3103 48.5748 66.7488C48.7183 66.6199 48.5613 66.3621 48.4043 66.4143C47.5921 66.6844 46.8286 67.1385 46.0353 67.4853C45.2385 67.8317 44.425 68.1268 43.5987 68.3692C41.9473 68.8541 40.2579 69.0505 38.5902 69.4126C38.5809 69.4126 38.5719 69.4168 38.5653 69.4243C38.5587 69.4318 38.555 69.4419 38.555 69.4525C38.555 69.4631 38.5587 69.4732 38.5653 69.4807C38.5719 69.4882 38.5809 69.4924 38.5902 69.4924L38.5956 69.4985Z" fill="#0884A2"/>
<path d="M45.1798 71.5178C45.7673 71.6437 46.4117 71.4473 46.9883 71.303C47.6502 71.1254 48.2999 70.8936 48.9322 70.6095C49.544 70.3424 50.1416 70.035 50.7217 69.6888C51.2442 69.3819 51.8967 68.9676 52.1837 68.3538C52.1935 68.3339 52.1986 68.3113 52.1985 68.2885C52.1984 68.2656 52.193 68.2431 52.1829 68.2233C52.1728 68.2035 52.1583 68.187 52.1409 68.1755C52.1235 68.1639 52.1037 68.1577 52.0835 68.1574C51.5123 68.185 50.9329 68.5686 50.432 68.8602C49.8581 69.1947 49.2706 69.5108 48.675 69.7809C48.0794 70.0509 47.4756 70.2995 46.8719 70.545C46.2682 70.7905 45.659 70.9163 45.1555 71.2877C45.0878 71.3368 45.0878 71.478 45.1798 71.4964V71.5178Z" fill="#0884A2"/>
<path d="M13.1494 52.0857C13.323 52.0845 13.4948 52.0459 13.6557 51.9721C13.8344 51.9169 14.0104 51.8463 14.1836 51.7788L15.2368 51.3798C15.586 51.2479 15.9326 51.1006 16.2791 50.9533C16.6143 50.8486 16.9312 50.6794 17.2158 50.453C17.3106 50.361 17.2158 50.1922 17.1157 50.1861C16.7591 50.2139 16.4094 50.3104 16.0815 50.4715C15.7295 50.6003 15.3776 50.7323 15.031 50.8735L13.986 51.3031C13.8181 51.3737 13.653 51.4412 13.4878 51.521C13.3251 51.5763 13.1734 51.667 13.0411 51.788C13.0184 51.8125 13.0027 51.8442 12.996 51.879C12.9893 51.9137 12.992 51.95 13.0036 51.983C13.0153 52.016 13.0354 52.0443 13.0614 52.0643C13.0874 52.0842 13.118 52.0949 13.1494 52.0949V52.0857Z" fill="#0884A2"/>
<path d="M14.1836 56.1581C14.6024 56.1582 15.0179 56.073 15.41 55.9064C15.8459 55.7683 16.2764 55.621 16.7096 55.4768C17.5542 55.2006 18.3962 54.9091 19.2382 54.6175L21.7614 53.7429L23.0555 53.2795C23.4129 53.1567 23.8677 53.0923 24.1385 52.7762C24.1569 52.7526 24.1699 52.7242 24.1762 52.6935C24.1826 52.6628 24.1821 52.6308 24.1749 52.6004C24.1676 52.57 24.1538 52.5421 24.1347 52.5192C24.1156 52.4963 24.0918 52.4792 24.0654 52.4693C23.6836 52.3772 23.2802 52.6074 22.9175 52.7302L19.0243 54.0682C18.1796 54.3567 17.3404 54.6482 16.5011 54.952C16.0706 55.1085 15.6375 55.2589 15.2124 55.4216C14.816 55.5285 14.4406 55.7179 14.1051 55.9801C14.0374 56.0445 14.1051 56.1489 14.1728 56.1581H14.1836Z" fill="#0884A2"/>
<path d="M14.7278 58.4966C15.2476 58.5856 15.8595 58.3401 16.3522 58.1897C16.9397 58.027 17.5191 57.8337 18.1011 57.6588C19.2436 57.312 20.4646 57.045 21.5259 56.4312C21.5499 56.4146 21.5686 56.3897 21.579 56.3601C21.5895 56.3305 21.5912 56.2978 21.5838 56.267C21.5765 56.2362 21.5606 56.209 21.5384 56.1893C21.5162 56.1697 21.4891 56.1587 21.4609 56.1581C20.2724 56.2502 19.1055 56.732 17.9658 57.0972C17.3864 57.2844 16.8016 57.4593 16.225 57.6618C15.7322 57.8337 15.096 57.9687 14.6926 58.3585C14.6846 58.3675 14.6788 58.3787 14.6758 58.3909C14.6728 58.4032 14.6726 58.4162 14.6754 58.4286C14.6781 58.441 14.6836 58.4523 14.6914 58.4615C14.6992 58.4708 14.7089 58.4776 14.7197 58.4812L14.7278 58.4966Z" fill="#0884A2"/>
<path d="M16.4226 62.0902C17.1942 61.9429 17.9603 61.7834 18.7211 61.5839C19.4819 61.3844 20.221 61.1174 20.9628 60.8596C21.7046 60.6018 22.4058 60.344 23.1286 60.0893C23.5104 59.9512 23.8867 59.7824 24.263 59.6413C24.5554 59.5216 24.9317 59.4295 25.0752 59.095C25.098 59.051 25.1046 58.9986 25.0934 58.9491C25.0822 58.8997 25.0543 58.8573 25.0156 58.8311C24.7151 58.6531 24.3821 58.8065 24.0762 58.8986C23.7107 59.0091 23.3452 59.1165 22.9933 59.2454C22.2298 59.5185 21.4636 59.7824 20.7029 60.0648C19.9421 60.3471 19.2193 60.611 18.4964 60.9333C17.7735 61.2555 17.0886 61.6207 16.3901 61.9951C16.3414 62.0227 16.3901 62.0994 16.4253 62.0902H16.4226Z" fill="#0884A2"/>
<path d="M25.4055 58.9784C25.3865 59.1935 25.3811 59.4099 25.3893 59.6259C25.4199 59.8776 25.4578 60.1292 25.503 60.3809C25.6004 60.9026 25.7114 61.4212 25.8116 61.9429C26.0119 62.9587 26.2691 63.9653 26.4993 64.9719C26.7294 65.9785 26.9487 66.9391 27.1761 67.9242C27.4035 68.9093 27.593 70.0172 27.8935 71.0207C27.9183 71.1228 27.9779 71.2096 28.0591 71.262C28.1403 71.3144 28.2366 71.328 28.3267 71.3C28.4168 71.2719 28.4934 71.2044 28.5396 71.1123C28.5858 71.0202 28.5978 70.9111 28.5731 70.8089C28.3971 69.7931 28.0966 68.7865 27.8583 67.7892C27.6201 66.7918 27.3764 65.779 27.1328 64.7724C26.8891 63.7659 26.6834 62.8053 26.4235 61.8325C26.2854 61.32 26.1527 60.8105 26.0065 60.298C25.9397 60.0546 25.8639 59.8152 25.7791 59.5799C25.6858 59.3662 25.5781 59.161 25.4569 58.9661C25.4552 58.96 25.4517 58.9546 25.4471 58.9508C25.4425 58.9471 25.4369 58.945 25.4312 58.945C25.4255 58.945 25.42 58.9471 25.4153 58.9508C25.4107 58.9546 25.4073 58.96 25.4055 58.9661V58.9784Z" fill="#0884A2"/>
<path d="M15.4561 73.7458C15.4542 73.9047 15.4605 74.0635 15.475 74.2215C15.4967 74.3842 15.5238 74.5468 15.5508 74.7064C15.5837 75.0313 15.6473 75.3513 15.7403 75.6608C15.7574 75.7204 15.7902 75.7726 15.8342 75.8105C15.8783 75.8484 15.9315 75.87 15.9867 75.8726C16.0326 75.8751 16.0781 75.8611 16.1167 75.8327C16.1631 75.7985 16.1991 75.7489 16.2199 75.6908C16.2408 75.6326 16.2453 75.5686 16.2331 75.5074C16.1591 75.1823 16.0537 74.8673 15.919 74.5683C15.8649 74.4241 15.8107 74.2614 15.7512 74.1295C15.6868 73.9893 15.6144 73.8539 15.5346 73.7244C15.5296 73.7162 15.5226 73.71 15.5144 73.7065C15.5062 73.703 15.4973 73.7023 15.4888 73.7046C15.4803 73.707 15.4727 73.7121 15.4668 73.7195C15.461 73.7268 15.4572 73.736 15.4561 73.7458Z" fill="#0884A2"/>
<path d="M16.0625 75.6516C16.5827 75.7584 17.1096 75.8179 17.6382 75.8296C18.1993 75.8204 18.7596 75.7774 19.3167 75.7007C20.4053 75.5489 21.4835 75.313 22.5439 74.9949C23.6051 74.6911 24.6427 74.2898 25.6465 73.795C26.1581 73.531 26.6563 73.2426 27.1544 72.951C27.64 72.6965 28.0949 72.3727 28.5081 71.9874C28.5282 71.9625 28.5408 71.931 28.5441 71.8974C28.5474 71.8639 28.5413 71.83 28.5265 71.8007C28.5118 71.7713 28.4892 71.7481 28.4621 71.7342C28.4349 71.7203 28.4046 71.7166 28.3754 71.7235C27.8683 71.929 27.3736 72.172 26.8945 72.4508C26.4045 72.7055 25.9009 72.9203 25.3947 73.1259C24.3903 73.5341 23.3967 73.9484 22.3625 74.2614C21.334 74.5738 20.291 74.8207 19.2382 75.001C18.6967 75.0931 18.1742 75.1852 17.6436 75.2588C17.113 75.3325 16.5931 75.4767 16.0679 75.5657C16.0612 75.568 16.0553 75.5726 16.0512 75.579C16.047 75.5853 16.0447 75.5931 16.0447 75.601C16.0447 75.6089 16.047 75.6166 16.0512 75.623C16.0553 75.6294 16.0612 75.634 16.0679 75.6363L16.0625 75.6516Z" fill="#0884A2"/>
<path d="M16.9478 79.2698C18.4287 79.4908 20.0044 79.0121 21.4393 78.6284C22.1675 78.4351 22.8904 78.2203 23.6051 77.9564C23.9733 77.8213 24.3172 77.6126 24.6881 77.4531C25.0425 77.3112 25.3865 77.1378 25.7168 76.9344C25.8224 76.8669 25.7466 76.7043 25.6383 76.7227C25.281 76.7933 24.9344 76.9191 24.5852 77.0296C24.2359 77.14 23.8298 77.2014 23.4589 77.315C22.7388 77.539 22.0186 77.7692 21.2931 77.9748C19.8609 78.3768 18.315 78.5394 16.9613 79.1716C16.9514 79.1744 16.9425 79.181 16.9362 79.1901C16.9298 79.1993 16.9264 79.2106 16.9264 79.2223C16.9264 79.2339 16.9298 79.2452 16.9362 79.2544C16.9425 79.2636 16.9514 79.2701 16.9613 79.2729L16.9478 79.2698Z" fill="#0884A2"/>
<path d="M18.2934 71.0207C19.6118 70.7506 20.3753 69.0198 21.6775 68.6546C22.064 68.5539 22.4678 68.5804 22.8414 68.731C23.215 68.8816 23.5429 69.15 23.7865 69.5047C23.9257 69.0411 24.1584 68.6208 24.4661 68.2771C24.6212 68.1067 24.8088 67.979 25.0144 67.904C25.2201 67.8289 25.4382 67.8086 25.6519 67.8444C25.8637 67.8889 26.0562 68.0131 26.1981 68.1968C26.3401 68.3806 26.4233 68.6132 26.4343 68.8571" fill="#0884A2"/>
<path d="M21.1604 65.8435C21.2292 66.1582 21.3894 66.4374 21.6154 66.6362C21.8413 66.835 22.1198 66.9417 22.4058 66.9391C22.6925 66.9172 22.9635 66.7826 23.172 66.5585C23.3806 66.3344 23.5136 66.0349 23.5483 65.7115C23.5611 65.3922 23.4738 65.0781 23.3018 64.8248C23.1299 64.5714 22.8844 64.3952 22.6088 64.3274C22.3259 64.2816 22.0381 64.3568 21.8014 64.5383C21.5646 64.7199 21.396 64.9948 21.3283 65.3095" fill="#0884A2"/>
<path d="M20.8464 63.8242L20.332 62.9587L20.8464 63.8242Z" fill="#0884A2"/>
<path d="M20.1993 65.6471L19.7986 65.466L20.1993 65.6471Z" fill="#0884A2"/>
<path d="M22.8281 63.3055L23.153 62.3849L22.8281 63.3055Z" fill="#0884A2"/>
<path d="M24.4146 65.0088L25.1916 64.7418L24.4146 65.0088Z" fill="#0884A2"/>
<path d="M36.5462 60.6755C37.491 59.7548 37.981 58.3861 38.6958 57.2291C39.4105 56.0722 40.5909 55.041 41.8065 55.3878C42.5618 55.5965 43.2305 56.3085 44.0021 56.1888C44.5436 56.1028 44.947 55.6241 45.2556 55.1269C45.5643 54.6298 45.8215 54.0743 46.2357 53.6876C46.6499 53.301 47.2943 53.1322 47.7166 53.5066" fill="#0884A2"/>
<path d="M33.9146 51.745C34.3234 51.7307 34.7306 51.8091 35.1123 51.9757C35.494 52.1422 35.8425 52.3935 36.1374 52.7148C36.5083 53.1168 36.8494 53.6631 37.3611 53.703C37.9296 53.746 38.3465 53.1445 38.7932 52.7424C39.1578 52.4159 39.5922 52.2046 40.0522 52.1301C40.5122 52.0556 40.9814 52.1204 41.4121 52.3181C41.8428 52.5158 42.2196 52.8392 42.5043 53.2554C42.789 53.6717 42.9714 54.166 43.0329 54.6881" fill="#0884A2"/>
<path d="M48.4665 56.91C47.9451 56.8489 47.4187 56.9476 46.9425 57.196C46.4662 57.4443 46.0576 57.8331 45.7592 58.3217C45.5856 58.6773 45.3864 59.016 45.1636 59.3344C44.7169 59.8684 44.0292 60.0249 43.3822 60.0863C42.7351 60.1476 42.061 60.1476 41.487 60.4699C40.9131 60.7921 40.4447 61.5624 40.6748 62.2529" fill="#0884A2"/>
<path d="M23.394 37.8307C22.7384 34.6163 21.7582 31.4982 20.4727 28.5382C19.2223 25.5417 17.7553 22.6676 16.0869 19.9453C15.1634 18.4275 14.1475 16.9847 13.0465 15.6274C12.8435 15.3788 12.4401 15.7133 12.6269 15.9956C14.3515 18.6011 16.0625 21.2342 17.5597 24.0269C19.0236 26.7909 20.3137 29.6684 21.4203 32.6382C22.0701 34.366 22.6684 36.1214 23.2694 37.8553C23.2754 37.8717 23.2865 37.8851 23.3005 37.893C23.3146 37.9009 23.3307 37.9028 23.3458 37.8983C23.361 37.8938 23.3742 37.8833 23.3831 37.8686C23.3919 37.8539 23.3958 37.8361 23.394 37.8185V37.8307Z" fill="#0884A2"/>
<path d="M27.8204 37.3765C26.7565 34.633 25.6925 31.8986 24.8045 29.0906C23.9165 26.2825 23.1801 23.453 22.5032 20.599C22.4881 20.552 22.458 20.5131 22.4188 20.4902C22.3797 20.4672 22.3343 20.4617 22.2917 20.4748C22.2492 20.4879 22.2125 20.5187 22.189 20.561C22.1655 20.6033 22.1569 20.6541 22.1648 20.7033C22.7098 23.6448 23.4575 26.5333 24.4011 29.3422C25.2913 32.1502 26.3843 34.8703 27.6688 37.4747C27.6745 37.486 27.6821 37.4959 27.6912 37.5039C27.7002 37.5118 27.7106 37.5177 27.7217 37.5211C27.7327 37.5245 27.7443 37.5255 27.7556 37.5238C27.767 37.5222 27.778 37.518 27.788 37.5116C27.7979 37.5051 27.8066 37.4965 27.8137 37.4862C27.8207 37.476 27.8258 37.4642 27.8289 37.4517C27.8319 37.4391 27.8327 37.4261 27.8312 37.4132C27.8298 37.4003 27.8261 37.3878 27.8204 37.3765Z" fill="#0884A2"/>
<path d="M29.6154 35.6856C28.9073 32.8354 28.5153 29.8963 28.4485 26.9362C28.3893 23.9814 28.7298 21.0338 29.4584 18.196C29.6587 17.4227 29.8861 16.6616 30.1352 15.9036C30.3843 15.1456 30.7335 14.3477 30.9691 13.5467C31.0746 13.1938 30.6306 13.025 30.4628 13.3042C30.1101 13.9419 29.8153 14.6185 29.5829 15.3236C29.3122 16.0294 29.0929 16.7444 28.8952 17.4718C28.4984 18.9311 28.206 20.4244 28.0208 21.937C27.6215 24.9189 27.6783 27.9565 28.1886 30.9165C28.4735 32.5723 28.9193 34.1872 29.5179 35.7316C29.5423 35.7961 29.6343 35.75 29.6181 35.6825L29.6154 35.6856Z" fill="#0884A2"/>
<path d="M31.6567 33.5435C31.6151 32.103 31.7713 30.6639 32.1197 29.2778C32.4937 27.9077 33.0321 26.6025 33.7197 25.3987C33.8578 25.147 33.5139 24.8309 33.3488 25.0765C31.7406 27.4334 31.1532 30.6434 31.5755 33.5558C31.5755 33.611 31.6567 33.5987 31.6567 33.5558V33.5435Z" fill="#0884A2"/>
<path d="M20.0369 37.6681C19.4463 35.8906 18.5562 34.2603 17.4162 32.8684C16.8598 32.1797 16.25 31.5491 15.5941 30.9841C14.9313 30.3683 14.1913 29.8677 13.3985 29.4987C13.2279 29.4251 13.1467 29.7105 13.2821 29.8056C13.9508 30.315 14.6547 30.757 15.3018 31.3094C15.9609 31.87 16.5768 32.4931 17.1427 33.1722C18.2598 34.5229 19.1874 36.0599 19.8934 37.7295C19.9313 37.8185 20.0694 37.754 20.0369 37.6589V37.6681Z" fill="#0884A2"/>
<path d="M11.4763 28.0379L10.3934 27.5623C10.045 27.381 9.68247 27.2371 9.31043 27.1326C9.28599 27.1257 9.26017 27.1288 9.23762 27.1416C9.21507 27.1543 9.19728 27.1758 9.18748 27.2021C9.17767 27.2284 9.17649 27.2578 9.18414 27.2851C9.19179 27.3123 9.20778 27.3355 9.22921 27.3505C9.57498 27.5552 9.93771 27.7207 10.3121 27.8446L11.4194 28.3019C11.5656 28.3602 11.6252 28.1024 11.4817 28.0379H11.4763Z" fill="#0884A2"/>
<path d="M22.0674 17.7204C21.7726 16.2988 21.6191 14.8443 21.6098 13.384C21.5773 11.914 21.8075 10.5146 21.9889 9.06918C21.9879 9.00288 21.968 8.93872 21.9322 8.8863C21.8963 8.83388 21.8465 8.79603 21.7901 8.77841C21.7337 8.76079 21.6738 8.76434 21.6193 8.78854C21.5649 8.81275 21.5188 8.85629 21.488 8.91266C21.0305 10.3151 20.9628 11.914 21.0169 13.384C21.0981 14.8905 21.4048 16.3704 21.9239 17.7602C21.9591 17.8554 22.0917 17.8216 22.0674 17.7142V17.7204Z" fill="#0884A2"/>
<path d="M24.6339 0.71875L24.7476 2.55701L26.2746 3.18306L24.7666 3.87356L24.7124 5.71489L23.6674 4.3032L22.1053 4.81264L22.9662 3.25058L22.0565 1.72534L23.6349 2.17033L24.6339 0.71875Z" fill="#0884A2"/>
<path d="M6.88467 9.31469L7.88909 10.7601L9.46475 10.3059L8.5605 11.8373L9.42956 13.3932L7.86743 12.893L6.82781 14.3108L6.76554 12.4726L5.25486 11.7913L6.77908 11.1529L6.88467 9.31469Z" fill="#0884A2"/>
<path d="M7.66979 33.8535L8.47658 35.0104L9.73549 34.6452L9.01263 35.8728L9.70841 37.1187L8.45762 36.7167L7.62648 37.8522L7.57504 36.3792L6.36757 35.836L7.58587 35.3265L7.66979 33.8535Z" fill="#0884A2"/>
<path d="M39.2264 17.6958L39.1127 19.1627L40.2498 19.8778L38.9827 20.2092L38.7337 21.6547L38.065 20.3903L36.7763 20.5713L37.6291 19.4604L37.0795 18.1254L38.2761 18.7024L39.2264 17.6958Z" fill="#0884A2"/>
<path d="M32.9725 10.8338H32.7911C32.684 10.8469 32.5857 10.9075 32.5178 11.0024C32.4498 11.0972 32.4177 11.2186 32.4283 11.3401C32.4406 11.4609 32.4937 11.5716 32.5765 11.6489C32.6594 11.7261 32.7654 11.764 32.8723 11.7544H33.0537C33.1603 11.7413 33.2581 11.6811 33.326 11.587C33.3938 11.4928 33.4263 11.3722 33.4165 11.2512C33.4042 11.1301 33.3512 11.0192 33.2684 10.9414C33.1857 10.8636 33.0797 10.8251 32.9725 10.8338Z" fill="#0884A2"/>
<path d="M34.7891 9.39448C34.4426 9.39448 34.4994 10.0083 34.8432 10.0083C35.1871 10.0083 35.1356 9.39448 34.7891 9.39448Z" fill="#0884A2"/>
<path d="M33.0754 19.6353C33.0039 19.6431 32.9381 19.6827 32.8925 19.7454C32.8468 19.8081 32.8249 19.8889 32.8317 19.9698V20.1755C32.8354 20.2156 32.8461 20.2544 32.863 20.2899C32.88 20.3253 32.903 20.3566 32.9307 20.382C32.9583 20.4074 32.9901 20.4263 33.0242 20.4377C33.0584 20.4491 33.0941 20.4528 33.1295 20.4486C33.2009 20.4408 33.2667 20.4012 33.3124 20.3385C33.3581 20.2758 33.38 20.1951 33.3732 20.1141V19.9085C33.3695 19.8684 33.3588 19.8295 33.3418 19.794C33.3248 19.7586 33.3019 19.7273 33.2742 19.7019C33.2465 19.6766 33.2147 19.6576 33.1806 19.6462C33.1465 19.6348 33.1107 19.6311 33.0754 19.6353Z" fill="#0884A2"/>
<path d="M38.9421 25.9664C38.5929 25.9664 38.6497 26.5802 38.9963 26.5802C39.3428 26.5802 39.286 25.9664 38.9421 25.9664Z" fill="#0884A2"/>
<path d="M5.58244 24.3921C5.47617 24.4068 5.37894 24.4672 5.3109 24.5609C5.24285 24.6546 5.20922 24.7744 5.21695 24.8954V25.101C5.22856 25.2225 5.28201 25.3338 5.36566 25.4108C5.44932 25.4878 5.55642 25.5243 5.66366 25.5122C5.76994 25.4976 5.86717 25.4372 5.93521 25.3435C6.00325 25.2498 6.03689 25.13 6.02915 25.0089V24.8033C6.01754 24.6819 5.9641 24.5705 5.88044 24.4935C5.79679 24.4165 5.68969 24.3801 5.58244 24.3921Z" fill="#0884A2"/>
<path d="M3.19187 31.5518C2.66665 31.5518 2.75328 32.4725 3.27309 32.4725C3.7929 32.4725 3.70897 31.5518 3.19187 31.5518Z" fill="#0884A2"/>
<path d="M0.858155 29.8639C0.786725 29.8717 0.720938 29.9113 0.675249 29.974C0.629561 30.0367 0.607709 30.1175 0.614495 30.1984V30.404C0.617878 30.4444 0.628287 30.4836 0.645123 30.5194C0.661958 30.5552 0.684885 30.5869 0.712578 30.6125C0.740271 30.6382 0.77218 30.6574 0.806462 30.6691C0.840743 30.6807 0.876716 30.6845 0.912302 30.6802C0.947922 30.6764 0.982519 30.6646 1.01409 30.6455C1.04567 30.6264 1.07359 30.6005 1.09625 30.5691C1.1189 30.5377 1.13585 30.5015 1.1461 30.4626C1.15635 30.4238 1.1597 30.383 1.15596 30.3427V30.1401C1.15258 30.0997 1.14217 30.0605 1.12533 30.0247C1.1085 29.9889 1.08557 29.9573 1.05788 29.9316C1.03019 29.9059 0.998276 29.8867 0.963995 29.8751C0.929713 29.8635 0.89374 29.8597 0.858155 29.8639Z" fill="#0884A2"/>
<path d="M3.74687 19.0216C3.39763 19.0216 3.45448 19.6353 3.80102 19.6353C4.14756 19.6353 4.09071 19.0216 3.74687 19.0216Z" fill="#0884A2"/>
<path d="M10.7859 22.2838C10.4367 22.2838 10.4935 22.8976 10.8401 22.8976C11.1866 22.8976 11.1298 22.2838 10.7859 22.2838Z" fill="#0884A2"/>
<path d="M15.8378 10.22H15.6591C15.6236 10.224 15.5891 10.236 15.5576 10.2551C15.5261 10.2743 15.4982 10.3002 15.4756 10.3316C15.453 10.3629 15.436 10.399 15.4257 10.4378C15.4154 10.4766 15.4119 10.5173 15.4155 10.5576C15.419 10.5979 15.4295 10.637 15.4464 10.6727C15.4633 10.7084 15.4862 10.74 15.5139 10.7656C15.5416 10.7912 15.5734 10.8105 15.6076 10.8222C15.6418 10.8339 15.6777 10.8378 15.7133 10.8338H15.8919C15.9634 10.826 16.0292 10.7864 16.0749 10.7237C16.1205 10.661 16.1424 10.5803 16.1356 10.4993C16.1326 10.4586 16.1224 10.4191 16.1057 10.3829C16.089 10.3468 16.0661 10.3148 16.0384 10.2888C16.0107 10.2628 15.9787 10.2433 15.9442 10.2315C15.9098 10.2197 15.8736 10.2158 15.8378 10.22Z" fill="#0884A2"/>
<path d="M16.2006 4.69909C15.8513 4.69909 15.9082 5.31287 16.2547 5.31287C16.6013 5.31287 16.5444 4.69909 16.2006 4.69909Z" fill="#0884A2"/>
<path d="M19.5387 8.38175C19.4673 8.38952 19.4015 8.42911 19.3558 8.49184C19.3101 8.55456 19.2883 8.63528 19.2951 8.71626V8.92187C19.2984 8.96225 19.3089 9.00146 19.3257 9.03725C19.3425 9.07304 19.3654 9.1047 19.3931 9.13038C19.4208 9.15606 19.4527 9.17527 19.487 9.18689C19.5213 9.19851 19.5573 9.20231 19.5929 9.19807C19.6285 9.19424 19.6631 9.18244 19.6947 9.16335C19.7262 9.14427 19.7542 9.11828 19.7768 9.08689C19.7995 9.0555 19.8164 9.01933 19.8267 8.98047C19.8369 8.94161 19.8403 8.90083 19.8365 8.86049V8.65795C19.8331 8.61757 19.8227 8.57835 19.8059 8.54256C19.7891 8.50677 19.7661 8.47512 19.7384 8.44944C19.7108 8.42375 19.6788 8.40455 19.6446 8.39293C19.6103 8.38131 19.5743 8.37751 19.5387 8.38175Z" fill="#0884A2"/>
<path d="M25.947 14.2096H25.7656C25.73 14.2136 25.6955 14.2255 25.664 14.2447C25.6325 14.2638 25.6047 14.2898 25.5821 14.3211C25.5594 14.3525 25.5425 14.3886 25.5322 14.4274C25.5218 14.4661 25.5184 14.5068 25.5219 14.5471C25.5255 14.5874 25.536 14.6265 25.5529 14.6622C25.5698 14.6979 25.5927 14.7295 25.6204 14.7551C25.648 14.7808 25.6798 14.8 25.7141 14.8117C25.7483 14.8234 25.7842 14.8274 25.8197 14.8233H26.0011C26.0721 14.8148 26.1372 14.7749 26.1823 14.7122C26.2274 14.6496 26.2489 14.5693 26.2421 14.4888C26.239 14.4485 26.2289 14.4092 26.2124 14.3733C26.1959 14.3373 26.1733 14.3055 26.1458 14.2795C26.1184 14.2535 26.0867 14.234 26.0526 14.222C26.0184 14.21 25.9825 14.2058 25.947 14.2096Z" fill="#0884A2"/>
<path d="M28.3078 8.65181C28.2799 8.62649 28.2479 8.60766 28.2136 8.59642C28.1793 8.58518 28.1434 8.58174 28.1079 8.58631C28.0724 8.59087 28.0381 8.60335 28.0068 8.62302C27.9756 8.64268 27.9482 8.66916 27.926 8.70091L27.7473 8.90346C27.7238 8.93472 27.706 8.97102 27.6951 9.01022C27.6842 9.04941 27.6803 9.0907 27.6837 9.13162C27.6871 9.17255 27.6977 9.21228 27.715 9.24846C27.7322 9.28464 27.7556 9.31653 27.7839 9.34223C27.8122 9.36794 27.8448 9.38693 27.8797 9.3981C27.9146 9.40926 27.9511 9.41236 27.9871 9.40722C28.0231 9.40207 28.0578 9.38878 28.0892 9.36814C28.1205 9.3475 28.1479 9.31993 28.1697 9.28707L28.3511 9.08452C28.3734 9.05294 28.39 9.01666 28.3999 8.97778C28.4099 8.93889 28.4129 8.89817 28.4089 8.85795C28.4048 8.81773 28.3938 8.77881 28.3765 8.74343C28.3591 8.70805 28.3358 8.67691 28.3078 8.65181Z" fill="#0884A2"/>
<path d="M14.9363 38.1468H14.7549C14.7195 38.151 14.6852 38.1631 14.6539 38.1824C14.6227 38.2016 14.5951 38.2277 14.5727 38.259C14.5503 38.2904 14.5336 38.3264 14.5235 38.3651C14.5134 38.4038 14.5102 38.4443 14.5139 38.4844C14.5208 38.5654 14.5557 38.6399 14.611 38.6917C14.6664 38.7435 14.7376 38.7683 14.809 38.7606H14.9904C15.0618 38.7528 15.1276 38.7132 15.1733 38.6505C15.219 38.5878 15.2409 38.5071 15.2341 38.4261C15.231 38.3854 15.2209 38.3459 15.2042 38.3098C15.1875 38.2736 15.1646 38.2416 15.1369 38.2156C15.1091 38.1896 15.0771 38.1701 15.0427 38.1583C15.0082 38.1465 14.9721 38.1426 14.9363 38.1468Z" fill="#0884A2"/>
<path d="M0.858155 38.8557C0.50891 38.8557 0.565764 39.4695 0.912302 39.4695C1.25884 39.4695 1.20469 38.8557 0.858155 38.8557Z" fill="#0884A2"/>
<path d="M42.9111 25.5675C42.5645 25.5675 42.6214 26.1813 42.9652 26.1813C43.3091 26.1813 43.2576 25.5675 42.9111 25.5675Z" fill="#0884A2"/>
<path d="M67.4097 53.9915C65.5146 57.8644 63.7115 61.7833 62.6123 66.0522C62.4363 66.7304 62.2739 67.4117 62.1169 68.093C62.0275 68.4827 61.9436 68.8725 61.8624 69.2622C61.7812 69.652 61.6106 70.1829 61.746 70.6003C61.7646 70.6708 61.7988 70.7347 61.8455 70.7859C61.8921 70.8371 61.9496 70.8738 62.0124 70.8926C62.0751 70.9114 62.1411 70.9116 62.204 70.8932C62.2668 70.8748 62.3245 70.8384 62.3714 70.7875C62.572 70.5087 62.6963 70.1694 62.7287 69.8115C62.8045 69.431 62.883 69.0535 62.9589 68.673C63.0834 68.0377 63.2133 67.4025 63.3514 66.7734C63.5788 65.7514 63.8279 64.7356 64.1176 63.7321C64.659 61.8662 65.3386 60.0494 66.029 58.2541C66.5704 56.867 67.0442 55.4553 67.5017 54.0344C67.5234 53.9731 67.4368 53.9332 67.4097 53.9915Z" fill="#0884A2"/>
<path d="M98.6712 63.1152C98.3463 65.5182 98.1704 67.9334 97.9213 70.3455C97.7227 72.2987 97.408 74.2345 96.9791 76.1396C96.8302 76.8025 96.6678 77.4653 96.4999 78.1221C96.4052 78.4965 96.3077 78.8709 96.2157 79.2453C96.1074 79.678 95.9233 80.1414 96.037 80.5925C96.0556 80.663 96.0898 80.727 96.1365 80.7782C96.1831 80.8294 96.2406 80.8661 96.3034 80.8849C96.3662 80.9037 96.4321 80.9039 96.495 80.8855C96.5579 80.8671 96.6155 80.8306 96.6624 80.7797C96.8792 80.5042 97.0203 80.1629 97.0685 79.7977C97.1632 79.4141 97.258 79.0335 97.3392 78.6469C97.4764 78.0331 97.6081 77.4244 97.7345 76.8209C97.9484 75.7836 98.1352 74.7402 98.276 73.6875C98.5232 71.7204 98.6705 69.7387 98.7172 67.7523C98.7714 66.2179 98.766 64.6834 98.7606 63.1306C98.7606 63.0662 98.6685 63.0477 98.6604 63.1306L98.6712 63.1152Z" fill="#0884A2"/>
<path d="M67.3041 54.1664C68.3464 54.2523 69.3915 54.418 70.4257 54.5868C71.6304 54.7832 72.8298 54.9981 74.0264 55.2497C76.6552 55.8021 79.2597 56.4773 81.8533 57.2046C86.3393 58.4782 90.7739 59.9666 95.1679 61.5992C95.8231 61.8417 96.5351 62.213 97.2282 62.2682H97.304C97.1416 62.2498 97.3419 62.2682 97.3744 62.2682C97.4245 62.2786 97.4752 62.2858 97.526 62.2897H97.5829C97.8807 62.3204 97.4962 62.2406 97.5585 62.2897C97.5948 62.3006 97.632 62.3068 97.6695 62.3081L97.8103 62.3327H97.8292C98.0025 62.3511 98.0242 62.2498 97.8482 62.3327C97.8482 62.3327 97.8482 62.3327 97.8617 62.3327C98.2272 62.4769 98.3842 61.8202 98.0215 61.6759C97.9457 61.6453 98.2705 61.8355 98.054 61.6759L97.9402 61.6023L97.8753 61.5624L97.8319 61.5348C97.5964 61.3997 97.8482 61.5839 97.859 61.5685C97.8699 61.5532 97.5883 61.3721 97.5639 61.3537C97.2336 61.1542 97.8347 61.5716 97.5206 61.3261L97.4556 61.277L97.3392 61.1941C97.1868 61.1085 97.0294 61.0346 96.8681 60.9732C96.5703 60.8473 96.2725 60.7369 95.972 60.6264C94.1328 59.939 92.2873 59.2812 90.4355 58.6531C85.3809 56.9345 80.2668 55.3663 75.0579 54.3567C72.4968 53.8656 69.8896 53.5342 67.3041 53.924C67.2819 53.924 67.2605 53.934 67.2448 53.9518C67.229 53.9697 67.2202 53.9939 67.2202 54.0191C67.2202 54.0443 67.229 54.0685 67.2448 54.0864C67.2605 54.1042 67.2819 54.1142 67.3041 54.1142V54.1664Z" fill="#0884A2"/>
<path d="M63.0103 71.5301C64.8919 72.8774 67.028 73.7827 69.1099 74.6573C71.1918 75.5319 73.2169 76.3114 75.3016 77.0326C79.3842 78.4344 83.5364 79.5616 87.7363 80.4084C88.8951 80.6478 90.0574 80.8657 91.2234 81.0621C92.4038 81.2646 93.6112 81.5377 94.8051 81.5316C94.9016 81.5279 94.9938 81.4856 95.0654 81.4122C95.1369 81.3388 95.1833 81.2391 95.1963 81.1307C95.2093 81.0223 95.188 80.9122 95.1362 80.8199C95.0844 80.7276 95.0055 80.659 94.9134 80.6263C93.8802 80.3792 92.8365 80.1917 91.7865 80.0647C90.7658 79.8928 89.7425 79.7056 88.7245 79.5061C86.6453 79.097 84.5778 78.6213 82.522 78.0791C78.3735 76.9878 74.2825 75.6323 70.2686 74.019C67.8997 73.0707 65.5687 71.8984 63.1348 71.1833C63.0965 71.1707 63.0554 71.1745 63.0194 71.194C62.9834 71.2135 62.955 71.2474 62.9396 71.2891C62.9242 71.3308 62.9229 71.3775 62.936 71.4203C62.949 71.463 62.9755 71.4989 63.0103 71.5209V71.5301Z" fill="#0884A2"/>
<path d="M63.0374 71.3092C62.7423 71.7297 62.5 72.1944 62.3172 72.6902C62.0817 73.2149 61.8678 73.7551 61.6539 74.2921C61.2641 75.2803 60.9013 76.2777 60.5547 77.2843C59.8833 79.2177 59.2742 81.1756 58.7544 83.1673C57.7938 86.7012 57.2085 90.3524 57.0109 94.0434C56.9675 95.0347 56.9594 96.029 56.9865 97.0202C57 97.5143 57.0244 98.0084 57.0569 98.5025C57.0579 99.0018 57.1198 99.4986 57.241 99.9787C57.2642 100.072 57.3162 100.152 57.3874 100.205C57.4586 100.258 57.5442 100.28 57.6286 100.267C57.7131 100.255 57.7907 100.208 57.8472 100.136C57.9038 100.064 57.9356 99.9708 57.9368 99.8743C57.9589 99.4553 57.9444 99.0349 57.8934 98.6191C57.861 98.1608 57.8366 97.7036 57.8203 97.2473C57.7906 96.3727 57.7906 95.495 57.8203 94.6173C57.8741 92.8687 58.0288 91.126 58.2833 89.4002C58.8811 85.5823 59.7873 81.8347 60.9906 78.2049C61.3453 77.094 61.727 75.9953 62.0979 74.8905C62.2983 74.2952 62.5121 73.706 62.7017 73.1075C62.9218 72.5508 63.08 71.9653 63.1727 71.3644C63.1718 71.3478 63.1668 71.3319 63.1583 71.3184C63.1498 71.3049 63.1381 71.2943 63.1246 71.2879C63.1111 71.2816 63.0962 71.2796 63.0818 71.2823C63.0673 71.2849 63.0538 71.2921 63.0428 71.303L63.0374 71.3092Z" fill="#0884A2"/>
<path d="M94.7321 81.059C94.5805 81.6973 94.6319 82.4308 94.6129 83.0937C94.594 83.7565 94.5859 84.4624 94.5452 85.1498C94.4695 86.5185 94.3747 87.8842 94.2041 89.2437C93.8865 91.7486 93.4142 94.2251 92.7909 96.655C91.8861 100.205 90.6972 103.653 89.2389 106.957C89.0385 107.411 88.831 107.86 88.6162 108.301C88.5424 108.445 88.4825 108.597 88.4375 108.756C88.4375 108.792 88.4186 108.826 88.4104 108.863C88.3536 109.127 88.4592 108.762 88.4348 108.808C88.3925 108.899 88.3829 109.006 88.4081 109.105C88.4332 109.205 88.4913 109.289 88.5701 109.342C88.6489 109.394 88.7424 109.41 88.8311 109.386C88.9199 109.362 88.9971 109.3 89.0467 109.213C89.0737 109.161 88.8084 109.483 89.0142 109.268C89.0331 109.25 89.0494 109.225 89.0656 109.207C89.1543 109.105 89.23 108.989 89.2903 108.863C89.4744 108.504 89.6396 108.133 89.8047 107.761C90.3976 106.445 90.9391 105.101 91.4426 103.738C93.0661 99.4338 94.1953 94.9112 94.8024 90.281C94.9893 88.7742 95.1192 87.2612 95.1733 85.7421C95.2031 84.9473 95.1896 84.1524 95.1733 83.3606C95.149 82.6241 95.1409 81.7372 94.8891 81.059C94.8847 81.0408 94.8751 81.0248 94.8619 81.0134C94.8487 81.002 94.8326 80.9958 94.816 80.9958C94.7994 80.9958 94.7832 81.002 94.77 81.0134C94.7568 81.0248 94.7473 81.0408 94.7429 81.059H94.7321Z" fill="#0884A2"/>
<path d="M57.306 100.006C58.1705 100.6 59.0645 101.137 59.9835 101.614C60.9392 102.09 61.9003 102.55 62.8749 102.974C64.9036 103.856 66.9585 104.652 69.0395 105.361C73.1962 106.792 77.4352 107.895 81.7261 108.664C84.0354 109.069 86.4043 109.449 88.7407 109.213C88.9303 109.195 89.0115 108.866 88.7895 108.814C86.786 108.317 84.7474 108.114 82.7223 107.752C80.616 107.372 78.5206 106.948 76.4386 106.426C72.2166 105.363 68.0573 104.002 63.9849 102.351C62.8713 101.903 61.7622 101.438 60.6576 100.958C60.1351 100.731 59.6153 100.507 59.0901 100.286C58.5649 100.065 57.9855 99.8805 57.4359 99.6718C57.2572 99.6043 57.1516 99.9081 57.3087 100.012L57.306 100.006Z" fill="#0884A2"/>
<path d="M68.9448 54.2155C69.0831 54.1066 69.1971 53.9626 69.2778 53.7951C69.3671 53.6385 69.4483 53.4882 69.5322 53.3194C69.7163 52.9787 69.8815 52.6289 70.0493 52.279L70.5556 51.2356C70.7587 50.905 70.9106 50.5376 71.005 50.1492C71.0124 50.0889 71.0038 50.0275 70.9802 49.9727C70.9567 49.918 70.9194 49.8724 70.8729 49.8418C70.8265 49.8112 70.773 49.797 70.7194 49.8009C70.6658 49.8048 70.6144 49.8267 70.5719 49.8638C70.3422 50.1643 70.1591 50.5067 70.0304 50.8765L69.5539 51.9415C69.3942 52.2974 69.229 52.6504 69.0855 53.0125C69.0179 53.1813 68.9448 53.3501 68.8825 53.5219C68.7981 53.6928 68.7525 53.8847 68.7498 54.0805C68.7506 54.1078 68.7575 54.1344 68.7699 54.1578C68.7823 54.1812 68.7998 54.2006 68.8207 54.2142C68.8416 54.2277 68.8652 54.2349 68.8893 54.2352C68.9134 54.2354 68.9372 54.2286 68.9583 54.2155H68.9448Z" fill="#0884A2"/>
<path d="M70.7343 50.1124C71.2435 50.1164 71.7524 50.0867 72.2585 50.0234C72.724 50.0065 73.19 50.028 73.6528 50.0878C74.1279 50.1519 74.5971 50.2627 75.0552 50.4193C75.2826 50.4929 75.5046 50.5819 75.7293 50.6709C75.9715 50.7948 76.2307 50.8706 76.4955 50.895C76.5336 50.8945 76.5707 50.8814 76.6023 50.8573C76.6338 50.8331 76.6585 50.7991 76.6732 50.7592C76.6878 50.7194 76.6919 50.6756 76.6849 50.6332C76.6779 50.5908 76.66 50.5516 76.6336 50.5206C76.2897 50.1247 75.6562 49.9804 75.196 49.8393C74.7063 49.6898 74.2064 49.5871 73.7015 49.5324C73.1884 49.4796 72.6716 49.493 72.161 49.5723C71.6556 49.6113 71.1631 49.7702 70.7153 50.0387C70.7094 50.044 70.7049 50.0511 70.7025 50.0592C70.7001 50.0674 70.7 50.0761 70.702 50.0844C70.704 50.0926 70.7082 50.1 70.7139 50.1055C70.7197 50.111 70.7268 50.1145 70.7343 50.1155V50.1124Z" fill="#0884A2"/>
<path d="M76.2166 50.9809C76.0336 51.2434 75.8892 51.5377 75.7889 51.8525C75.6589 52.2115 75.5182 52.5644 75.4126 52.9266L75.066 54.0099L74.9144 54.4794C74.8467 54.6881 74.7466 54.9121 74.8738 55.1239C74.9152 55.1982 74.9762 55.2559 75.048 55.289C75.1199 55.322 75.1991 55.3287 75.2745 55.308C75.6075 55.1853 75.667 54.6206 75.7645 54.283L76.0704 53.1936C76.1733 52.8253 76.2627 52.457 76.3412 52.0857C76.4319 51.7697 76.4767 51.439 76.4738 51.1067C76.4731 51.0715 76.4633 51.0374 76.4457 51.0084C76.4281 50.9794 76.4035 50.9569 76.3747 50.9435C76.346 50.9302 76.3145 50.9266 76.284 50.9332C76.2535 50.9399 76.2254 50.9564 76.2031 50.9809H76.2166Z" fill="#0884A2"/>
<path d="M76.6255 51.0208C77.064 51.6409 77.3648 52.3713 77.5026 53.1506C77.5777 53.5539 77.6041 53.9668 77.5811 54.3781C77.571 54.5622 77.5429 54.7444 77.4972 54.9213C77.4539 55.0932 77.3727 55.2282 77.3212 55.397C77.3041 55.4692 77.3084 55.5458 77.3334 55.615C77.3585 55.6841 77.4029 55.742 77.4599 55.7797C77.5169 55.8174 77.5832 55.8328 77.6486 55.8235C77.7141 55.8143 77.775 55.7809 77.8221 55.7285C78.0928 55.4216 78.1334 54.8446 78.1415 54.4303C78.1475 53.9441 78.0919 53.4593 77.9764 52.991C77.7977 52.233 77.4349 51.1159 76.6796 50.9042C76.6681 50.9018 76.6563 50.9035 76.6457 50.909C76.6351 50.9144 76.6263 50.9235 76.6203 50.9349C76.6144 50.9463 76.6118 50.9594 76.6127 50.9726C76.6136 50.9858 76.618 50.9983 76.6255 51.0085V51.0208Z" fill="#0884A2"/>
<path d="M97.1632 61.8079C97.2549 61.6653 97.3042 61.4933 97.304 61.3169C97.3257 61.1328 97.3338 60.9425 97.3501 60.7553C97.3744 60.4484 97.3798 60.1108 97.388 59.7886L97.4204 58.8311C97.4693 58.4476 97.4537 58.0571 97.3744 57.6803C97.354 57.624 97.3193 57.5758 97.2747 57.542C97.2301 57.5081 97.1777 57.49 97.124 57.49C97.0703 57.49 97.0178 57.5081 96.9732 57.542C96.9286 57.5758 96.894 57.624 96.8736 57.6803C96.7843 58.055 96.7586 58.4455 96.7978 58.8311V59.7886C96.7978 60.0955 96.7978 60.4361 96.7978 60.7553C96.7978 60.9425 96.7977 61.1328 96.8248 61.3169C96.8225 61.4918 96.8679 61.6633 96.9548 61.8079C96.981 61.8364 97.0159 61.8523 97.0522 61.8523C97.0886 61.8523 97.1235 61.8364 97.1497 61.8079H97.1632Z" fill="#0884A2"/>
<path d="M97.1551 57.7386C96.8735 57.2534 96.5044 56.8413 96.0722 56.5294C95.6641 56.1885 95.2237 55.9003 94.7591 55.6701C94.3089 55.4487 93.8435 55.2691 93.3676 55.1331C93.1001 55.0536 92.829 54.9911 92.5554 54.9459C92.2894 54.87 92.0119 54.8627 91.7432 54.9244C91.7073 54.937 91.6753 54.961 91.651 54.9935C91.6267 55.026 91.6111 55.0657 91.606 55.1078C91.6009 55.15 91.6065 55.193 91.6222 55.2317C91.6378 55.2704 91.6629 55.3033 91.6944 55.3264C91.9177 55.4447 92.158 55.5165 92.4038 55.5382C92.6474 55.5873 92.8911 55.6302 93.132 55.6916C93.6039 55.8067 94.0667 55.9658 94.5155 56.1673C94.9534 56.3684 95.377 56.6075 95.7825 56.8824C96.1985 57.2177 96.6315 57.5251 97.0793 57.803C97.1118 57.8214 97.1497 57.7846 97.128 57.7478L97.1551 57.7386Z" fill="#0884A2"/>
<path d="M91.6565 55.5228C91.5177 55.7929 91.4197 56.0876 91.3668 56.3944C91.291 56.7473 91.2152 57.1033 91.153 57.4593L90.9716 58.5027L90.8849 58.9876C90.8497 59.1932 90.7739 59.4326 90.8849 59.6198C90.9339 59.7106 91.0119 59.7766 91.1026 59.804C91.1933 59.8314 91.2899 59.8182 91.3723 59.7671C91.643 59.5615 91.624 59.0889 91.6701 58.7544L91.8217 57.6404C91.8731 57.266 91.911 56.8885 91.9489 56.511C91.9918 56.1974 91.9873 55.8777 91.9354 55.5658C91.9262 55.5329 91.909 55.5037 91.8857 55.4816C91.8625 55.4594 91.8341 55.4453 91.804 55.4408C91.7738 55.4362 91.7432 55.4416 91.7156 55.4561C91.6881 55.4706 91.6648 55.4938 91.6484 55.5228H91.6565Z" fill="#0884A2"/>
<path d="M91.5807 55.2558C91.2328 55.1724 90.8699 55.245 90.5682 55.4584C90.2089 55.6881 89.8822 55.9777 89.599 56.3177C89.3081 56.6522 89.0627 57.0338 88.8707 57.4501C88.7795 57.6454 88.7069 57.8512 88.6541 58.0639C88.5904 58.2792 88.5745 58.509 88.6081 58.7329C88.6812 59.0398 89.1333 59.0735 89.1874 58.7329C89.1989 58.6311 89.2053 58.5286 89.2064 58.426C89.2064 58.426 89.2064 58.3032 89.2064 58.3585C89.2064 58.3094 89.2199 58.2603 89.2281 58.2142C89.261 58.0482 89.3072 57.8859 89.3661 57.7294C89.5127 57.358 89.706 57.0127 89.9401 56.7044C90.3808 56.12 90.9375 55.6625 91.5645 55.3694C91.5764 55.3663 91.5871 55.3587 91.5948 55.3478C91.6024 55.337 91.6066 55.3235 91.6066 55.3096C91.6066 55.2956 91.6024 55.2821 91.5948 55.2713C91.5871 55.2604 91.5764 55.2528 91.5645 55.2497L91.5807 55.2558Z" fill="#0884A2"/>
<path d="M85.5813 68.7374C85.3526 69.7544 84.8629 70.6716 84.1742 71.3729C83.4854 72.0742 82.6286 72.5282 81.7121 72.6771C80.7957 72.8261 79.8608 72.6635 79.0259 72.2099C78.191 71.7563 77.4936 71.0321 77.022 70.129C76.5504 69.2259 76.3259 68.1844 76.3767 67.1365C76.4276 66.0886 76.7516 65.0814 77.3077 64.2424C77.8639 63.4033 78.6271 62.7702 79.5009 62.4232C80.3746 62.0761 81.3196 62.0307 82.2161 62.2928C83.4157 62.6426 84.4438 63.5177 85.0748 64.726C85.7057 65.9343 85.8879 67.377 85.5813 68.7374Z" fill="#0884A2"/>
<path d="M78.7236 68.8111C79.0209 68.5222 79.3038 68.2149 79.571 67.8904C80.1125 67.2766 80.6188 66.6168 81.1277 65.9693L81.4986 65.4998C81.6313 65.331 81.8398 65.1284 81.7694 64.886C81.6882 64.5515 81.3551 64.6313 81.19 64.8215C81.0682 64.9627 80.9599 65.1284 80.8435 65.2757C80.3399 65.9386 79.8309 66.6015 79.349 67.2859C79.032 67.7076 78.7372 68.1503 78.4664 68.6116C78.3663 68.7927 78.5856 68.9523 78.7155 68.8295L78.7236 68.8111Z" fill="#0884A2"/>
<path d="M81.3091 64.7786C81.3985 65.8097 81.5799 66.8347 81.7612 67.8475L81.9778 69.075C81.9961 69.1975 82.0214 69.3184 82.0536 69.4371C82.0703 69.4937 82.0921 69.5482 82.1186 69.5998V69.6243C82.2432 69.8392 82.097 69.566 82.0942 69.5538C82.1782 69.9926 82.7711 69.8054 82.6871 69.3696V69.5538C82.7211 69.3181 82.6986 69.0765 82.6222 68.854L82.3677 67.648C82.1766 66.6573 81.9417 65.6781 81.6638 64.7141C81.5988 64.5024 81.2766 64.5177 81.2983 64.7694L81.3091 64.7786Z" fill="#0884A2"/>
<path d="M65.6716 82.9801C67.0442 83.4589 68.4926 83.7167 69.8923 84.0726C71.292 84.4286 72.7079 84.8122 74.1103 85.2051C76.9151 85.9948 79.701 86.8612 82.4679 87.8044C83.2232 88.0622 83.9758 88.3231 84.7285 88.5931L85.8547 89.0013C86.263 89.179 86.683 89.3196 87.1109 89.4217C87.4223 89.4739 87.6713 88.9951 87.3438 88.8079C86.713 88.4274 85.9603 88.2433 85.2835 88.0008C84.6067 87.7584 83.9027 87.5129 83.2124 87.2735C81.8064 86.7906 80.3977 86.3293 78.9862 85.8894C76.1923 85.0179 73.3884 84.2251 70.5746 83.511C69.7624 83.3085 68.9502 83.109 68.138 82.9279C67.3461 82.7251 66.5455 82.5694 65.7393 82.4615C65.4685 82.4339 65.4361 82.8942 65.677 82.9801H65.6716Z" fill="#0884A2"/>
<path d="M64.475 90.0109C67.0361 91.4318 69.8165 92.3862 72.5563 93.2486C75.379 94.1436 78.2432 94.8608 81.1359 95.3968C82.7088 95.7037 84.2899 95.9185 85.8791 96.0689C86.2933 96.1088 86.2906 95.3753 85.8791 95.3354C80.1585 94.7922 74.5083 93.2762 69.0503 91.3305C67.5586 90.7996 66.0723 90.2135 64.5832 89.7102C64.4316 89.658 64.3288 89.9219 64.475 90.0017V90.0109Z" fill="#0884A2"/>
<path d="M65.5904 82.6609C64.4289 84.6833 63.9795 87.1446 63.9443 89.5322C63.9443 89.6445 63.9837 89.7522 64.0537 89.8316C64.1238 89.9111 64.2188 89.9557 64.3179 89.9557C64.417 89.9557 64.512 89.9111 64.5821 89.8316C64.6522 89.7522 64.6915 89.6445 64.6915 89.5322C64.7403 87.2152 65.2628 84.9964 65.8719 82.796C65.8761 82.7586 65.8695 82.7207 65.8531 82.6879C65.8367 82.6552 65.8114 82.6293 65.781 82.6141C65.7505 82.5989 65.7166 82.5953 65.6842 82.6037C65.6518 82.6122 65.6227 82.6322 65.6012 82.6609H65.5904Z" fill="#0884A2"/>
<path d="M87.0649 89.0227C86.9705 90.1564 86.8213 91.2833 86.6182 92.3985C86.5072 92.9325 86.3772 93.4573 86.2202 93.9759C86.1417 94.2337 86.0551 94.4884 85.963 94.7401C85.871 94.9917 85.6923 95.2955 85.7897 95.6055C85.8041 95.66 85.8291 95.7103 85.8628 95.7524C85.8965 95.7946 85.9382 95.8277 85.9847 95.8491C86.0312 95.8706 86.0814 95.88 86.1315 95.8766C86.1816 95.8732 86.2304 95.8571 86.2744 95.8295C86.5451 95.7068 86.6047 95.3661 86.7021 95.093C86.7996 94.8199 86.8998 94.5099 86.9729 94.2122C87.1356 93.6567 87.2623 93.0885 87.3519 92.5121C87.5625 91.3451 87.5772 90.1437 87.3952 88.9706C87.3519 88.7343 87.0757 88.8233 87.0541 89.0227H87.0649Z" fill="#0884A2"/>
<path d="M64.0391 89.7409C63.8317 90.1341 63.6723 90.5573 63.5653 90.9991C63.4218 91.4779 63.2946 91.9627 63.17 92.4476C62.9291 93.3959 62.7287 94.3534 62.5582 95.3201C62.2182 97.2437 61.9992 99.1922 61.903 101.151C61.8759 101.663 62.5825 101.663 62.6096 101.151C62.7026 99.2165 62.9143 97.2918 63.2431 95.3907C63.4029 94.47 63.5897 93.5493 63.7846 92.6471C63.8875 92.1806 64.0039 91.7264 64.1203 91.2538C64.2597 90.8022 64.3568 90.3352 64.41 89.8606C64.41 89.6151 64.1392 89.569 64.0282 89.7439L64.0391 89.7409Z" fill="#0884A2"/>
<path d="M85.6625 95.5564C85.4161 96.5415 85.3782 97.6095 85.2266 98.6253C85.075 99.6411 84.8828 100.669 84.6581 101.676C84.4334 102.682 84.1735 103.683 83.8757 104.668C83.7349 105.136 83.5851 105.603 83.4263 106.067C83.2557 106.568 83.0229 107.065 82.8848 107.58C82.8638 107.666 82.871 107.758 82.9053 107.839C82.9395 107.919 82.9984 107.983 83.0709 108.018C83.1434 108.052 83.2247 108.056 83.2995 108.028C83.3743 108 83.4377 107.943 83.4777 107.866C83.6951 107.397 83.8763 106.909 84.0192 106.405C84.1816 105.92 84.3386 105.429 84.4848 104.938C84.7826 103.927 85.0434 102.904 85.2672 101.869C85.4865 100.859 85.6625 99.8344 85.8087 98.8002C85.9549 97.766 86.1417 96.652 86.028 95.6116C86.0254 95.5613 86.0075 95.5135 85.9772 95.4764C85.947 95.4394 85.9064 95.4154 85.8623 95.4085C85.8182 95.4016 85.7734 95.4123 85.7355 95.4387C85.6976 95.4651 85.6689 95.5056 85.6544 95.5533L85.6625 95.5564Z" fill="#0884A2"/>
<path d="M67.5803 84.3519C67.0618 86.0295 66.7875 87.7916 66.7681 89.569L67.5803 84.3519Z" fill="#0884A2"/>
<path d="M68.8392 85.3217C68.3889 86.9738 68.0762 88.6701 67.9051 90.3884L68.8392 85.3217Z" fill="#0884A2"/>
<path d="M70.7505 85.5027C70.1065 87.1861 69.6895 88.9696 69.5133 90.7935L70.7505 85.5027Z" fill="#0884A2"/>
<path d="M72.3966 85.5027C71.9797 87.4157 71.5609 89.3255 71.1404 91.2323L72.3966 85.5027Z" fill="#0884A2"/>
<path d="M75.3368 86.8223L74.0616 92.0885L75.3368 86.8223Z" fill="#0884A2"/>
<path d="M78.4231 87.6295C78.2894 89.4834 77.9808 91.3157 77.5026 93.0951L78.4231 87.6295Z" fill="#0884A2"/>
<path d="M80.0313 88.1911C79.6901 90.0324 79.3499 91.8737 79.0106 93.7151L80.0313 88.1911Z" fill="#0884A2"/>
<path d="M85.519 89.4186C85.3358 91.0815 85.0297 92.724 84.6039 94.3288L85.519 89.4186Z" fill="#0884A2"/>
<path d="M68.0757 56.1458L67.6155 57.4654L68.0757 56.1458Z" fill="#0884A2"/>
<path d="M66.8141 59.8684L66.3132 61.3598L66.8141 59.8684Z" fill="#0884A2"/>
<path d="M65.2113 65.9509L64.8215 68.0101L65.2113 65.9509Z" fill="#0884A2"/>
<path d="M64.6509 69.4279C64.6184 69.6919 64.5833 69.9558 64.5508 70.2197L64.6509 69.4279Z" fill="#0884A2"/>
<path d="M97.4881 63.9899C97.4015 64.7223 97.3158 65.4558 97.2309 66.1903L97.4881 63.9899Z" fill="#0884A2"/>
<path d="M96.8005 69.2377L96.5649 70.99L96.8005 69.2377Z" fill="#0884A2"/>
<path d="M63.966 100.442L65.3196 101.194L63.966 100.442Z" fill="#0884A2"/>
<path d="M66.3538 70.8273L67.7996 71.524L66.3538 70.8273Z" fill="#0884A2"/>
<path d="M73.5851 73.9607L75.223 74.5253L73.5851 73.9607Z" fill="#0884A2"/>
<path d="M77.5405 75.6271L78.6235 75.845L77.5405 75.6271Z" fill="#0884A2"/>
<path d="M84.0489 77.3549L85.9684 78.0945L84.0489 77.3549Z" fill="#0884A2"/>
<path d="M88.1912 78.5364L89.2091 78.6499L88.1912 78.5364Z" fill="#0884A2"/>
<path d="M91.8785 79.2729L93.178 79.5583L91.8785 79.2729Z" fill="#0884A2"/>
<path d="M75.8214 53.4912L77.0613 54.0344L75.8214 53.4912Z" fill="#0884A2"/>
<path d="M76.528 52.4969L77.6407 52.9051L76.528 52.4969Z" fill="#0884A2"/>
<path d="M89.6125 57.4194C90.1653 57.5097 90.6893 57.7555 91.1367 58.1345L89.6125 57.4194Z" fill="#0884A2"/>
<path d="M90.3949 56.4558C90.8959 56.6043 91.3541 56.8984 91.7242 57.3089L90.3949 56.4558Z" fill="#0884A2"/>
<path d="M76.593 104.938L77.6624 105.168L76.593 104.938Z" fill="#0884A2"/>
<path d="M80.0204 105.757L81.0167 105.957L80.0204 105.757Z" fill="#0884A2"/>
<path d="M66.2807 91.0267C66.4838 92.3402 65.344 93.2578 65.1031 94.4516C65.0334 94.8626 65.0652 95.2874 65.1951 95.6791C65.3034 96.0259 65.4929 96.4648 65.8259 96.5845C65.8543 96.5938 65.8846 96.5921 65.912 96.5797C65.9394 96.5673 65.9624 96.5449 65.9773 96.516C65.9923 96.4871 65.9982 96.4534 65.9944 96.4202C65.9905 96.387 65.9769 96.3563 65.9559 96.3328C65.6897 96.0584 65.5012 95.7006 65.4144 95.3047C65.323 94.823 65.3956 94.3199 65.6174 93.8961C66.0398 92.9755 66.7599 92.0548 66.4865 90.95C66.4486 90.7873 66.2455 90.8579 66.2699 91.0175L66.2807 91.0267Z" fill="#0884A2"/>
<path d="M67.6913 91.3336C67.0198 92.1008 67.1931 93.2179 67.2012 94.1969C67.2458 94.7205 67.1089 95.2433 66.8195 95.6546C66.5558 95.9878 66.2095 96.2231 65.8259 96.3298C65.7068 96.3697 65.6905 96.5937 65.8259 96.6213C66.1941 96.7042 66.5785 96.3973 66.8412 96.1333C67.1507 95.84 67.3674 95.4403 67.4584 94.9948C67.6452 93.8777 67.1552 92.4814 67.851 91.5116C67.9403 91.3889 67.7968 91.2047 67.6913 91.3336Z" fill="#0884A2"/>
<path d="M66.5948 94.2398C66.5976 94.2095 66.5937 94.1788 66.5833 94.1507C66.5729 94.1226 66.5564 94.0979 66.5354 94.0789C66.5143 94.0599 66.4893 94.0473 66.4628 94.0421C66.4363 94.037 66.409 94.0396 66.3836 94.0496L66.3593 94.068C66.3262 94.0581 66.2912 94.0628 66.261 94.081C66.2309 94.0992 66.208 94.1296 66.1968 94.1662L66.1724 94.2429C66.1076 94.3318 66.065 94.4388 66.0493 94.5528C66.0336 94.6667 66.0453 94.7834 66.0831 94.8904C66.0831 94.9058 66.0831 94.9211 66.0831 94.9334C66.0831 95.1267 66.3105 95.1237 66.3782 94.9856C66.4945 94.7563 66.5682 94.5026 66.5948 94.2398Z" fill="#0884A2"/>
<path d="M69.026 74.5315C68.9587 74.5554 68.8961 74.5939 68.8419 74.645C68.8001 74.6996 68.7612 74.757 68.7255 74.8169L68.5684 75.0685C68.452 75.2465 68.3573 75.4399 68.2571 75.6271L67.9674 76.1733C67.832 76.4311 67.6263 76.7104 67.7129 77.0295C67.7458 77.1559 67.8205 77.2629 67.9215 77.3282C68.0224 77.3934 68.1417 77.4118 68.2544 77.3794C68.339 77.3486 68.4164 77.2964 68.4806 77.2267C68.5449 77.1571 68.5943 77.0718 68.6253 76.9774L68.7336 76.7042L68.9745 76.0905C69.0685 75.8788 69.1525 75.6616 69.2263 75.4399L69.3129 75.133C69.3311 75.0809 69.3465 75.0276 69.359 74.9734C69.3765 74.8928 69.3765 74.8085 69.359 74.7279C69.3388 74.6531 69.2943 74.5899 69.2344 74.5511C69.1745 74.5124 69.1038 74.5009 69.0368 74.5192L69.026 74.5315Z" fill="#0884A2"/>
<path d="M71.1377 75.5933C71.292 75.044 70.7668 74.7432 70.3986 74.9243C70.2816 74.8217 70.1377 74.7666 69.9898 74.7678C69.9436 74.6807 69.8806 74.6066 69.8054 74.5512C69.7302 74.4958 69.6449 74.4606 69.5559 74.4481C69.4669 74.4357 69.3766 74.4464 69.2918 74.4795C69.207 74.5125 69.13 74.5671 69.0666 74.6389C68.9971 74.7367 68.9329 74.8392 68.8744 74.9458C68.8738 74.8009 68.85 74.6574 68.804 74.5223C68.7892 74.4686 68.7584 74.4225 68.717 74.3917C68.6755 74.3609 68.6258 74.3474 68.5766 74.3535C68.5469 74.3085 68.5077 74.2726 68.4627 74.2491C68.4176 74.2255 68.3682 74.2151 68.3187 74.2188C68.2692 74.2225 68.2213 74.2401 68.1793 74.27C68.1374 74.3 68.1027 74.3413 68.0784 74.3903C67.8789 74.8814 67.7132 75.3893 67.583 75.9094C67.4422 76.3667 67.1769 76.7595 67.4151 77.2137C67.4508 77.2806 67.5065 77.3307 67.5721 77.3549C67.6174 77.417 67.6693 77.4727 67.7265 77.5206C68.3553 78.0278 69.1237 78.2629 69.8923 78.1834C70.0204 78.1792 70.1438 78.1282 70.2443 78.0381C70.3447 77.9479 70.4169 77.8235 70.45 77.6832L70.4744 77.5022C70.5822 77.4234 70.6618 77.3037 70.6991 77.1646L71.1377 75.5933Z" fill="#0884A2"/>
<path d="M86.2554 80.0002C86.3529 79.4325 86.9431 79.457 87.1867 79.8161C87.3329 79.79 87.4826 79.8202 87.6118 79.902C87.6895 79.8515 87.7762 79.8216 87.8655 79.8146C87.9549 79.8075 88.0444 79.8235 88.1275 79.8613C88.2106 79.8991 88.2851 79.9577 88.3454 80.0328C88.4056 80.1079 88.4501 80.1975 88.4754 80.2948C88.4975 80.4132 88.5119 80.5332 88.5187 80.6539C88.583 80.5287 88.6654 80.4167 88.7624 80.3225C88.798 80.2835 88.8445 80.2597 88.8939 80.2552C88.9433 80.2507 88.9925 80.2658 89.0331 80.2979C89.0786 80.2751 89.1283 80.2653 89.1779 80.2696C89.2275 80.2739 89.2753 80.2921 89.3172 80.3225C89.359 80.3529 89.3936 80.3946 89.4177 80.4439C89.4418 80.4932 89.4548 80.5484 89.4555 80.6048C89.4193 81.1451 89.3478 81.6815 89.2416 82.2098C89.1712 82.6855 89.2416 83.1734 88.8328 83.4374C88.7736 83.4752 88.7046 83.4882 88.6379 83.4742C88.571 83.504 88.5009 83.5236 88.4294 83.5325C87.6615 83.6308 86.888 83.413 86.25 82.9187C86.1409 82.8438 86.0558 82.7313 86.0071 82.5977C85.9584 82.4641 85.9487 82.3164 85.9793 82.1761L86.0361 82.0042C85.9751 81.8767 85.956 81.7288 85.982 81.5868C86.0686 81.0682 86.1661 80.5342 86.2554 80.0002Z" fill="#0884A2"/>
<path d="M53.2585 93.7672C53.0182 93.2848 52.7561 92.8167 52.4734 92.3647C52.1645 91.9083 51.8241 91.4804 51.4554 91.085C50.7099 90.2855 49.8676 89.6107 48.9538 89.081C46.9838 87.9266 44.7519 87.4741 42.551 87.7829C41.2724 87.9717 40.0311 88.4044 38.8799 89.0626C38.4169 89.3296 38.823 90.0754 39.2833 89.8421C41.223 88.8623 43.3642 88.5107 45.4695 88.8263C47.3705 89.138 49.1704 89.9923 50.7001 91.3091C51.1262 91.6709 51.5305 92.0646 51.9102 92.4875C52.331 92.9137 52.717 93.3821 53.0636 93.8869C53.1421 94.0127 53.3208 93.8869 53.2477 93.7672H53.2585Z" fill="#0884A2"/>
<path d="M49.2516 93.2639C47.6742 92.9753 46.0568 93.2032 44.5896 93.9207C43.1629 94.6234 41.6468 95.762 41.0024 97.4315C40.98 97.4645 40.9636 97.5022 40.954 97.5425C40.9445 97.5827 40.9421 97.6247 40.9468 97.666C40.9516 97.7074 40.9635 97.7472 40.9819 97.7833C41.0002 97.8194 41.0247 97.8511 41.0539 97.8765C41.083 97.9019 41.1163 97.9205 41.1518 97.9313C41.1873 97.9421 41.2243 97.9449 41.2608 97.9395C41.2972 97.9341 41.3324 97.9206 41.3643 97.8997C41.3961 97.8789 41.424 97.8512 41.4464 97.8182C42.551 96.6919 43.5527 95.5226 44.9118 94.7769C46.2471 94.0313 47.7171 93.6479 49.2056 93.6568C49.3978 93.6568 49.452 93.3008 49.2516 93.2639Z" fill="#0884A2"/>
<path d="M38.5171 100.104L38.5009 100.019C38.4953 99.9714 38.4824 99.9257 38.4629 99.8835C38.4386 99.8344 38.4088 99.7853 38.3817 99.7362C38.3556 99.6889 38.3152 99.654 38.268 99.638H38.2166C38.1919 99.6348 38.1671 99.6413 38.1462 99.6564C38.1293 99.6593 38.1139 99.6692 38.1029 99.684C38.0821 99.6978 38.0652 99.7181 38.0541 99.7423C38.0292 99.7927 38.0224 99.8521 38.0352 99.9081C38.0487 99.9633 38.0596 100.022 38.0758 100.077C38.0892 100.121 38.1093 100.163 38.1354 100.2L38.1787 100.27C38.2036 100.317 38.2432 100.352 38.2897 100.368H38.3384C38.3639 100.372 38.3897 100.365 38.4115 100.35C38.427 100.347 38.4412 100.338 38.4521 100.325C38.4716 100.309 38.4874 100.288 38.4981 100.264C38.5105 100.24 38.5185 100.214 38.5217 100.186C38.525 100.159 38.5234 100.131 38.5171 100.104Z" fill="#0884A2"/>
<path d="M35.4037 93.4818C35.4927 93.473 35.5756 93.4267 35.636 93.352C35.6964 93.2773 35.73 93.1796 35.73 93.0783C35.73 92.9769 35.6964 92.8793 35.636 92.8046C35.5756 92.7299 35.4927 92.6835 35.4037 92.6747C35.3146 92.6835 35.2317 92.7299 35.1713 92.8046C35.1109 92.8793 35.0774 92.9769 35.0774 93.0783C35.0774 93.1796 35.1109 93.2773 35.1713 93.352C35.2317 93.4267 35.3146 93.473 35.4037 93.4818Z" fill="#0884A2"/>
<path d="M52.7658 97.3302C51.8371 97.0509 50.8273 97.3977 50.0584 97.99C49.2016 98.5905 48.5776 99.537 48.3122 100.638C48.2873 100.748 48.2976 100.863 48.3412 100.965C48.3849 101.066 48.4591 101.146 48.5504 101.191C48.6419 101.236 48.7447 101.241 48.8394 101.206C48.9341 101.171 49.0143 101.098 49.0648 101.001C49.3914 100.129 49.9029 99.3628 50.5539 98.7695C51.2249 98.2308 51.9801 97.8413 52.7793 97.6218C52.8079 97.6135 52.8333 97.5947 52.8514 97.5683C52.8695 97.5419 52.8794 97.5094 52.8794 97.476C52.8794 97.4425 52.8695 97.41 52.8514 97.3836C52.8333 97.3572 52.8079 97.3384 52.7793 97.3302H52.7658Z" fill="#0884A2"/>
<path d="M46.233 106.429C46.9288 106.429 46.9315 105.202 46.233 105.202C45.5345 105.202 45.5345 106.429 46.233 106.429Z" fill="#0884A2"/>
<path d="M28.5704 92.4783L27.2871 92.242L26.5751 93.4788L26.3774 92.021L25.1212 91.6374L26.2827 90.9715L26.2177 89.4984L27.1328 90.5449L28.3484 90.0201L27.7555 91.3305L28.5704 92.4783Z" fill="#0884A2"/>
<path d="M34.0256 101.596L34.5861 102.925L35.8856 102.885L34.9434 103.901L35.3793 105.288L34.2368 104.585L33.208 105.487L33.4436 104.036L32.3687 103.204L33.6574 103.011L34.0256 101.596Z" fill="#0884A2"/>
<path d="M42.2667 104.99C42.2498 105.06 42.2434 105.133 42.2478 105.205C42.2503 105.259 42.2695 105.311 42.302 105.351C42.3344 105.391 42.3782 105.416 42.4257 105.424C42.4732 105.431 42.5215 105.419 42.5621 105.391C42.6028 105.362 42.6333 105.318 42.6485 105.266C42.6721 105.199 42.6849 105.127 42.6864 105.055C42.686 104.996 42.6671 104.94 42.6331 104.896C42.5991 104.852 42.5522 104.824 42.5012 104.816C42.4502 104.808 42.3984 104.822 42.3553 104.853C42.3122 104.885 42.2808 104.934 42.2667 104.99Z" fill="#0884A2"/>
<path d="M24.6935 101.366C24.6935 101.289 24.6667 101.216 24.6189 101.162C24.5712 101.108 24.5065 101.077 24.439 101.077C24.3715 101.077 24.3068 101.108 24.259 101.162C24.2113 101.216 24.1845 101.289 24.1845 101.366C24.1754 101.427 24.1784 101.489 24.1934 101.549C24.2084 101.608 24.235 101.663 24.2711 101.709C24.3158 101.76 24.3761 101.788 24.439 101.788C24.5019 101.788 24.5622 101.76 24.6068 101.709C24.6425 101.663 24.6688 101.608 24.6837 101.549C24.6987 101.489 24.702 101.427 24.6935 101.366Z" fill="#0884A2"/>
<path d="M29.2201 107.003C29.1508 106.787 29.043 106.59 28.9034 106.423C28.7599 106.248 28.454 106.423 28.5352 106.666C28.6046 106.881 28.7114 107.078 28.8492 107.246C28.9927 107.421 29.3122 107.24 29.2201 107.003Z" fill="#0884A2"/>
<path d="M29.0414 97.9133C29.0055 97.9137 28.9703 97.9248 28.9393 97.9455C28.9084 97.9661 28.8827 97.9956 28.8649 98.031C28.8471 98.0664 28.8378 98.1064 28.8379 98.1471C28.838 98.1879 28.8475 98.2279 28.8655 98.2631C28.8898 98.2938 28.898 98.3061 28.8844 98.2969C28.8844 98.3441 28.901 98.3894 28.9304 98.4228C28.9599 98.4561 28.9998 98.4749 29.0414 98.4749C29.0831 98.4749 29.123 98.4561 29.1525 98.4228C29.1819 98.3894 29.1985 98.3441 29.1985 98.2969C29.1985 98.2969 29.1985 98.2969 29.2174 98.2631C29.2354 98.2279 29.2449 98.1879 29.245 98.1471C29.2451 98.1064 29.2358 98.0664 29.218 98.031C29.2002 97.9956 29.1745 97.9661 29.1435 97.9455C29.1126 97.9248 29.0774 97.9137 29.0414 97.9133Z" fill="#0884A2"/>
<path d="M98.2164 99.4201C99.1939 99.5579 100.129 99.9566 100.944 100.583C101.759 101.21 102.431 102.047 102.905 103.026C103.217 103.674 103.377 104.382 103.647 105.048C103.761 105.328 104.108 105.162 104.121 104.904C104.164 104.085 103.829 103.293 103.452 102.612C103.078 101.931 102.609 101.324 102.063 100.813C100.98 99.7961 99.6228 99.2297 98.2164 99.2084C98.0946 99.2084 98.1 99.4078 98.2164 99.4201Z" fill="#0884A2"/>
<path d="M98.5196 95.6699C99.1179 95.495 99.6702 95.1482 100.263 94.9518C101.454 94.5299 102.712 94.4104 103.948 94.602C104.584 94.7032 105.196 94.9089 105.843 94.9979C106.176 95.0408 106.214 94.5283 105.997 94.3534C105.419 93.9323 104.755 93.6871 104.07 93.6414C102.726 93.4549 101.363 93.6544 100.106 94.2214C99.5078 94.5068 98.8282 94.869 98.4221 95.449C98.4046 95.4684 98.3933 95.4938 98.3898 95.5213C98.3864 95.5488 98.391 95.5767 98.4031 95.6009C98.4151 95.6251 98.4339 95.644 98.4564 95.6548C98.479 95.6657 98.504 95.6677 98.5277 95.6607L98.5196 95.6699Z" fill="#0884A2"/>
<path d="M97.7101 92.2144C97.8542 92.0523 97.9881 91.879 98.1108 91.6957C98.2435 91.5147 98.3815 91.3367 98.5169 91.1679C98.8031 90.8265 99.1078 90.5057 99.4293 90.2073C100.067 89.6241 100.784 89.1618 101.552 88.8386C101.632 88.8114 101.701 88.7499 101.742 88.6669C101.783 88.5839 101.795 88.4859 101.774 88.3936C101.75 88.3018 101.696 88.224 101.623 88.1769C101.549 88.1299 101.463 88.1173 101.381 88.142C100.534 88.5014 99.7532 89.0351 99.0773 89.7163C98.7524 90.0452 98.4585 90.4113 98.2001 90.8088C98.0756 91.0052 97.9511 91.2078 97.8428 91.4226C97.7213 91.6398 97.63 91.8768 97.5721 92.1254C97.568 92.1451 97.5696 92.1658 97.5767 92.1844C97.5837 92.2031 97.5958 92.2187 97.6112 92.2289C97.6266 92.2392 97.6445 92.2436 97.6623 92.2416C97.6801 92.2395 97.6969 92.231 97.7101 92.2174V92.2144Z" fill="#0884A2"/>
<path d="M105.117 87.7584C105.867 87.7584 105.867 86.4357 105.117 86.4357C104.367 86.4357 104.367 87.7584 105.117 87.7584Z" fill="#0884A2"/>
<path d="M108.231 95.9001C108.992 95.9001 108.994 94.559 108.231 94.559C107.467 94.559 107.467 95.9001 108.231 95.9001Z" fill="#0884A2"/>
<path d="M105.499 108.578V108.501C105.503 108.403 105.485 108.306 105.445 108.219C105.415 108.13 105.369 108.049 105.31 107.982C105.25 107.915 105.179 107.863 105.101 107.829C105.024 107.784 104.938 107.763 104.852 107.767L104.679 107.792C104.571 107.827 104.474 107.893 104.395 107.982L104.292 108.13C104.235 108.243 104.205 108.371 104.205 108.501V108.578C104.204 108.723 104.241 108.866 104.313 108.987C104.384 109.108 104.486 109.202 104.606 109.256C104.683 109.302 104.77 109.323 104.857 109.317L105.031 109.293C105.139 109.258 105.238 109.193 105.318 109.102L105.421 108.952C105.48 108.839 105.51 108.709 105.51 108.578H105.499Z" fill="#0884A2"/>
<path d="M114.49 102.397L114.376 103.864L115.514 104.579L114.246 104.91L113.997 106.356L113.329 105.091L112.04 105.272L112.893 104.162L112.343 102.827L113.54 103.404L114.49 102.397Z" fill="#0884A2"/>
<path d="M114.033 86.1779L112.958 87.0065L113.191 88.455L112.162 87.5527L111.017 88.2524L111.458 86.8653L110.518 85.8464L111.818 85.8925L112.381 84.5637L112.747 85.9784L114.033 86.1779Z" fill="#0884A2"/>
<path d="M113.239 97.3302H113.212C113.18 97.309 113.143 97.2979 113.105 97.298C113.068 97.298 113.031 97.3093 112.999 97.3306C112.966 97.3519 112.939 97.3825 112.92 97.4193C112.902 97.4561 112.892 97.4979 112.892 97.5404C112.892 97.5829 112.902 97.6247 112.92 97.6615C112.939 97.6984 112.966 97.729 112.999 97.7503C113.031 97.7716 113.068 97.7828 113.105 97.7829C113.143 97.7829 113.18 97.7718 113.212 97.7506H113.239C113.289 97.7506 113.336 97.7285 113.37 97.6891C113.405 97.6496 113.425 97.5962 113.425 97.5404C113.425 97.4847 113.405 97.4312 113.37 97.3918C113.336 97.3523 113.289 97.3302 113.239 97.3302Z" fill="#0884A2"/>
<path d="M115.676 92.6778C115.622 92.6846 115.571 92.7139 115.535 92.76C115.499 92.8062 115.478 92.866 115.478 92.9279C115.478 92.9898 115.499 93.0496 115.535 93.0957C115.571 93.1419 115.622 93.1712 115.676 93.178C115.73 93.1712 115.78 93.1419 115.817 93.0957C115.853 93.0496 115.873 92.9898 115.873 92.9279C115.873 92.866 115.853 92.8062 115.817 92.76C115.78 92.7139 115.73 92.6846 115.676 92.6778Z" fill="#0884A2"/>
<path d="M119.195 102.431C118.925 102.431 118.925 103.066 119.195 103.066C119.737 103.066 119.737 102.431 119.195 102.431Z" fill="#0884A2"/>
<path d="M96.0072 107.47C95.8624 107.642 95.7819 107.87 95.7825 108.108C95.7823 108.169 95.7998 108.228 95.832 108.276C95.8643 108.324 95.9097 108.359 95.9612 108.375C96.0122 108.386 96.0648 108.38 96.1128 108.357C96.1608 108.335 96.2022 108.297 96.2319 108.249C96.3478 108.08 96.4055 107.868 96.3943 107.654C96.3932 107.604 96.3794 107.555 96.3543 107.513C96.3293 107.472 96.2942 107.439 96.2533 107.42C96.2124 107.4 96.1674 107.395 96.1238 107.404C96.0801 107.412 96.0396 107.435 96.0072 107.47Z" fill="#0884A2"/>
</g>
</svg>
