<svg width="73" height="72" viewBox="0 0 73 72" fill="none" xmlns="http://www.w3.org/2000/svg">
<path d="M0.666016 36C0.666016 16.1178 16.7838 0 36.666 0C56.5483 0 72.666 16.1178 72.666 36C72.666 55.8823 56.5483 72 36.666 72C16.7838 72 0.666016 55.8823 0.666016 36Z" fill="#0884A2"/>
<path d="M31.792 22.4583C30.6462 22.4583 29.6656 22.0507 28.8503 21.2354C28.035 20.4202 27.6267 19.4389 27.6253 18.2917C27.6239 17.1445 28.0323 16.1639 28.8503 15.35C29.6684 14.5361 30.6489 14.1278 31.792 14.125C32.935 14.1222 33.9163 14.5306 34.7357 15.35C35.5552 16.1695 35.9628 17.15 35.9587 18.2917C35.9545 19.4333 35.5469 20.4146 34.7357 21.2354C33.9246 22.0563 32.9434 22.4639 31.792 22.4583ZM18.2503 58.9167L23.9795 29.5417L20.3337 31.1042V38.0833H16.167V28.2917L27.1045 23.8125C28.042 23.4306 28.9969 23.3875 29.9691 23.6833C30.9413 23.9792 31.6878 24.5778 32.2087 25.4792L34.1878 28.8125C35.1253 30.3403 36.3837 31.5729 37.9628 32.5104C39.542 33.4479 41.3045 33.9167 43.2503 33.9167V38.0833C40.9587 38.0833 38.8323 37.5972 36.8712 36.625C34.91 35.6528 33.2517 34.3333 31.8962 32.6667L30.6462 38.9167L34.917 43.1875V58.9167H30.7503V46.4167L26.2712 42.25L22.6253 58.9167H18.2503ZM46.8962 58.9167V29.75H39.0837V15.1667H57.8337V29.75H50.0212V58.9167H46.8962ZM49.5524 27.6146L54.7087 22.4583L49.5524 17.3021L47.3128 19.5417L48.667 20.8958H42.2087V24.0208H48.667L47.3128 25.375L49.5524 27.6146Z" fill="white"/>
</svg>
