<svg width="46" height="51" viewBox="0 0 46 51" fill="none" xmlns="http://www.w3.org/2000/svg">
<g clip-path="url(#clip0_2155_4778)">
<path d="M21.4821 24.3359L0.19043 46.2697C0.429534 47.1028 0.859211 47.8712 1.44662 48.5161C2.03402 49.1609 2.7636 49.6652 3.57959 49.9903C4.39557 50.3154 5.27636 50.4528 6.15462 50.392C7.03287 50.3311 7.88535 50.0736 8.64688 49.6391L32.6041 36.2232L21.4821 24.3359Z" fill="#EA4335"/>
<path d="M43.012 20.6081L32.6521 14.7734L20.9907 24.8353L32.6995 36.1922L42.9805 30.4201C43.8913 29.9512 44.6542 29.2461 45.1864 28.3813C45.7187 27.5164 46.0001 26.5248 46.0001 25.514C46.0001 24.5031 45.7187 23.5115 45.1864 22.6467C44.6542 21.7819 43.8913 21.0768 42.9805 20.6079L43.012 20.6081Z" fill="#FBBC04"/>
<path d="M0.190524 4.65039C0.0619028 5.11822 -0.00216068 5.60093 5.55889e-05 6.08555V44.8359C0.00132563 45.3204 0.06533 45.8027 0.190524 46.2712L22.2121 24.8992L0.190524 4.65039Z" fill="#4285F4"/>
<path d="M21.6408 25.4601L32.6517 14.774L8.7263 1.29559C7.82612 0.777256 6.80231 0.502743 5.75912 0.500011C3.17037 0.495064 0.894445 2.18446 0.19043 4.63411L21.6408 25.4601Z" fill="#34A853"/>
</g>
<defs>
<clipPath id="clip0_2155_4778">
<rect width="46" height="50" fill="white" transform="translate(0 0.5)"/>
</clipPath>
</defs>
</svg>
