<svg width="31" height="30" viewBox="0 0 31 30" fill="none" xmlns="http://www.w3.org/2000/svg">
<path d="M30.3775 4.95564L15.789 0.0473616C15.6016 -0.0157872 15.3989 -0.0157872 15.2115 0.0473616L0.62305 4.95564C0.44163 5.01678 0.28385 5.13394 0.172037 5.29057C0.0602232 5.4472 3.89333e-05 5.63535 0 5.8284V18.0991C0 18.3432 0.0960623 18.5773 0.267054 18.7499C0.438046 18.9224 0.669962 19.0194 0.911781 19.0194C1.1536 19.0194 1.38552 18.9224 1.55651 18.7499C1.7275 18.5773 1.82356 18.3432 1.82356 18.0991V7.10455L7.70151 9.0832C6.96027 10.1889 6.45798 11.4397 6.22733 12.7543C5.99668 14.0688 6.04283 15.4177 6.36277 16.713C6.68272 18.0084 7.2693 19.2213 8.08434 20.2727C8.89938 21.3241 9.92461 22.1906 11.0933 22.8157C8.16804 23.8172 5.62265 25.8204 3.79909 28.6442C3.69427 28.8469 3.66792 29.0816 3.72517 29.3028C3.78242 29.524 3.91918 29.7157 4.10882 29.8407C4.29845 29.9657 4.52738 30.015 4.75104 29.979C4.97469 29.9429 5.17705 29.8242 5.31872 29.6458C7.6696 26.0122 11.379 23.9277 15.5003 23.9277C19.6215 23.9277 23.331 26.0122 25.6818 29.6458C25.8226 29.828 26.0262 29.95 26.252 29.9877C26.4778 30.0254 26.7094 29.9759 26.9008 29.8492C27.0922 29.7225 27.2293 29.5277 27.285 29.3037C27.3408 29.0796 27.3109 28.8425 27.2015 28.6396C25.3779 25.8204 22.8356 23.8172 19.9072 22.8111C21.0753 22.1853 22.0998 21.3184 22.9141 20.2666C23.7284 19.2149 24.3142 18.0019 24.6334 16.7066C24.9526 15.4113 24.9981 14.0626 24.7669 12.7484C24.5357 11.4342 24.033 10.1838 23.2914 9.0786L30.3775 6.70115C30.5588 6.63992 30.7165 6.52271 30.8282 6.36609C30.9399 6.20948 31 6.02138 31 5.8284C31 5.63542 30.9399 5.44732 30.8282 5.2907C30.7165 5.13408 30.5588 5.01687 30.3775 4.95564ZM23.0985 14.4179C23.099 15.6399 22.8102 16.8444 22.2561 17.931C21.702 19.0176 20.8987 19.9548 19.9131 20.6645C18.9275 21.3742 17.7881 21.836 16.5898 22.0112C15.3916 22.1865 14.1692 22.0701 13.0246 21.672C11.8799 21.2738 10.8461 20.6053 10.0092 19.7221C9.1724 18.839 8.55677 17.7667 8.21363 16.5948C7.8705 15.4228 7.8098 14.1851 8.0366 12.9847C8.2634 11.7843 8.77112 10.6559 9.51747 9.69367L15.2115 11.6094C15.3989 11.6726 15.6016 11.6726 15.789 11.6094L21.4831 9.69367C22.5313 11.0409 23.1003 12.7048 23.0985 14.4179ZM15.5003 9.76729L3.79909 5.8284L15.5003 1.8895L27.2015 5.8284L15.5003 9.76729Z" fill="black"/>
</svg>
