<svg width="51" height="50" viewBox="0 0 51 50" fill="none" xmlns="http://www.w3.org/2000/svg">
<path d="M40.3775 14.9556L25.789 10.0474C25.6016 9.98421 25.3989 9.98421 25.2115 10.0474L10.6231 14.9556C10.4416 15.0168 10.2839 15.1339 10.172 15.2906C10.0602 15.4472 10 15.6353 10 15.8284V28.0991C10 28.3432 10.0961 28.5773 10.2671 28.7499C10.438 28.9224 10.67 29.0194 10.9118 29.0194C11.1536 29.0194 11.3855 28.9224 11.5565 28.7499C11.7275 28.5773 11.8236 28.3432 11.8236 28.0991V17.1045L17.7015 19.0832C16.9603 20.1889 16.458 21.4397 16.2273 22.7543C15.9967 24.0688 16.0428 25.4177 16.3628 26.713C16.6827 28.0084 17.2693 29.2213 18.0843 30.2727C18.8994 31.3241 19.9246 32.1906 21.0933 32.8157C18.168 33.8172 15.6226 35.8204 13.7991 38.6442C13.6943 38.8469 13.6679 39.0816 13.7252 39.3028C13.7824 39.524 13.9192 39.7157 14.1088 39.8407C14.2985 39.9657 14.5274 40.015 14.751 39.979C14.9747 39.9429 15.1771 39.8242 15.3187 39.6458C17.6696 36.0122 21.379 33.9277 25.5003 33.9277C29.6215 33.9277 33.331 36.0122 35.6818 39.6458C35.8226 39.828 36.0262 39.95 36.252 39.9877C36.4778 40.0254 36.7094 39.9759 36.9008 39.8492C37.0922 39.7225 37.2293 39.5277 37.285 39.3037C37.3408 39.0796 37.3109 38.8425 37.2015 38.6396C35.3779 35.8204 32.8356 33.8172 29.9072 32.8111C31.0753 32.1853 32.0998 31.3184 32.9141 30.2666C33.7284 29.2149 34.3142 28.0019 34.6334 26.7066C34.9526 25.4113 34.9981 24.0626 34.7669 22.7484C34.5357 21.4342 34.033 20.1838 33.2914 19.0786L40.3775 16.7012C40.5588 16.6399 40.7165 16.5227 40.8282 16.3661C40.9399 16.2095 41 16.0214 41 15.8284C41 15.6354 40.9399 15.4473 40.8282 15.2907C40.7165 15.1341 40.5588 15.0169 40.3775 14.9556ZM33.0985 24.4179C33.099 25.6399 32.8102 26.8444 32.2561 27.931C31.702 29.0176 30.8987 29.9548 29.9131 30.6645C28.9275 31.3742 27.7881 31.836 26.5898 32.0112C25.3916 32.1865 24.1692 32.0701 23.0246 31.672C21.8799 31.2738 20.8461 30.6053 20.0092 29.7221C19.1724 28.839 18.5568 27.7667 18.2136 26.5948C17.8705 25.4228 17.8098 24.1851 18.0366 22.9847C18.2634 21.7843 18.7711 20.6559 19.5175 19.6937L25.2115 21.6094C25.3989 21.6726 25.6016 21.6726 25.789 21.6094L31.4831 19.6937C32.5313 21.0409 33.1003 22.7048 33.0985 24.4179ZM25.5003 19.7673L13.7991 15.8284L25.5003 11.8895L37.2015 15.8284L25.5003 19.7673Z" fill="black"/>
</svg>
