<svg width="25" height="26" viewBox="0 0 25 26" fill="none" xmlns="http://www.w3.org/2000/svg">
<path d="M9.37565 14.7933C6.93815 14.7933 2.08398 16.012 2.08398 18.4391V20.262H16.6673V18.4391C16.6673 16.012 11.8132 14.7933 9.37565 14.7933ZM4.52148 18.1787C5.39648 17.5745 7.51107 16.8766 9.37565 16.8766C11.2402 16.8766 13.3548 17.5745 14.2298 18.1787H4.52148ZM9.37565 12.9704C11.3861 12.9704 13.0215 11.335 13.0215 9.32454C13.0215 7.31413 11.3861 5.67871 9.37565 5.67871C7.36523 5.67871 5.72982 7.31413 5.72982 9.32454C5.72982 11.335 7.36523 12.9704 9.37565 12.9704ZM9.37565 7.76204C10.2402 7.76204 10.9382 8.45996 10.9382 9.32454C10.9382 10.1891 10.2402 10.887 9.37565 10.887C8.51107 10.887 7.81315 10.1891 7.81315 9.32454C7.81315 8.45996 8.51107 7.76204 9.37565 7.76204ZM16.709 14.8558C17.9173 15.7308 18.7507 16.8975 18.7507 18.4391V20.262H22.9173V18.4391C22.9173 16.335 19.2715 15.137 16.709 14.8558ZM15.6257 12.9704C17.6361 12.9704 19.2715 11.335 19.2715 9.32454C19.2715 7.31413 17.6361 5.67871 15.6257 5.67871C15.0632 5.67871 14.5423 5.81413 14.0632 6.04329C14.7194 6.97038 15.1048 8.10579 15.1048 9.32454C15.1048 10.5433 14.7194 11.6787 14.0632 12.6058C14.5423 12.835 15.0632 12.9704 15.6257 12.9704Z" fill="#878787"/>
</svg>
