<svg width="35" height="34" viewBox="0 0 35 34" fill="none" xmlns="http://www.w3.org/2000/svg">
    <path d="M3.33398 31.166C3.33398 28.1602 4.52803 25.2775 6.65344 23.1521C8.77885 21.0267 11.6615 19.8327 14.6673 19.8327C17.6731 19.8327 20.5558 21.0267 22.6812 23.1521C24.8066 25.2775 26.0007 28.1602 26.0007 31.166H23.1673C23.1673 28.9117 22.2718 26.7497 20.6777 25.1556C19.0837 23.5615 16.9217 22.666 14.6673 22.666C12.413 22.666 10.251 23.5615 8.65691 25.1556C7.06285 26.7497 6.16732 28.9117 6.16732 31.166H3.33398ZM14.6673 18.416C9.97107 18.416 6.16732 14.6123 6.16732 9.91602C6.16732 5.21977 9.97107 1.41602 14.6673 1.41602C19.3636 1.41602 23.1673 5.21977 23.1673 9.91602C23.1673 14.6123 19.3636 18.416 14.6673 18.416ZM14.6673 15.5827C17.7982 15.5827 20.334 13.0468 20.334 9.91602C20.334 6.78518 17.7982 4.24935 14.6673 4.24935C11.5365 4.24935 9.00065 6.78518 9.00065 9.91602C9.00065 13.0468 11.5365 15.5827 14.6673 15.5827ZM26.403 20.8286C28.3941 21.725 30.0839 23.1774 31.2691 25.0113C32.4543 26.8452 33.0846 28.9825 33.084 31.166H30.2507C30.2512 29.5283 29.7785 27.9253 28.8896 26.5498C28.0007 25.1743 26.7333 24.0849 25.2399 23.4126L26.403 20.8286ZM25.4283 4.83443C26.8556 5.42277 28.076 6.42186 28.9346 7.70493C29.7932 8.98799 30.2512 10.4972 30.2507 12.041C30.2509 13.9851 29.5245 15.859 28.2139 17.2948C26.9033 18.7307 25.1033 19.6248 23.1673 19.8015V16.9498C24.217 16.7994 25.1908 16.3165 25.9458 15.572C26.7009 14.8275 27.1973 13.8605 27.3623 12.813C27.5273 11.7655 27.3521 10.6928 26.8625 9.75218C26.3729 8.8116 25.5947 8.05274 24.6421 7.58702L25.4283 4.83443Z"
          fill="black"/>
</svg>
