<svg width="45" height="49" viewBox="0 0 45 49" fill="none" xmlns="http://www.w3.org/2000/svg">
<path d="M12.5 36.2441C12.5 33.7688 13.5536 31.3948 15.4289 29.6445C17.3043 27.8941 19.8478 26.9108 22.5 26.9108C25.1522 26.9108 27.6957 27.8941 29.5711 29.6445C31.4464 31.3948 32.5 33.7688 32.5 36.2441H30C30 34.3876 29.2098 32.6071 27.8033 31.2944C26.3968 29.9816 24.4891 29.2441 22.5 29.2441C20.5109 29.2441 18.6032 29.9816 17.1967 31.2944C15.7902 32.6071 15 34.3876 15 36.2441H12.5ZM22.5 25.7441C18.3562 25.7441 15 22.6116 15 18.7441C15 14.8766 18.3562 11.7441 22.5 11.7441C26.6438 11.7441 30 14.8766 30 18.7441C30 22.6116 26.6438 25.7441 22.5 25.7441ZM22.5 23.4108C25.2625 23.4108 27.5 21.3225 27.5 18.7441C27.5 16.1658 25.2625 14.0775 22.5 14.0775C19.7375 14.0775 17.5 16.1658 17.5 18.7441C17.5 21.3225 19.7375 23.4108 22.5 23.4108ZM32.855 27.731C34.6119 28.4691 36.1028 29.6653 37.1486 31.1756C38.1944 32.6858 38.7505 34.4459 38.75 36.2441H36.25C36.2504 34.8954 35.8334 33.5753 35.0491 32.4425C34.2647 31.3098 33.1464 30.4126 31.8287 29.859L32.855 27.731ZM31.995 14.5593C33.2544 15.0438 34.3312 15.8666 35.0888 16.9232C35.8463 17.9799 36.2505 19.2228 36.25 20.4941C36.2502 22.0951 35.6092 23.6383 34.4529 24.8208C33.2965 26.0033 31.7082 26.7396 30 26.8851V24.5366C30.9262 24.4128 31.7854 24.0152 32.4516 23.402C33.1178 22.7889 33.5559 21.9925 33.7014 21.1299C33.847 20.2673 33.6925 19.3838 33.2605 18.6092C32.8285 17.8346 32.1418 17.2097 31.3013 16.8261L31.995 14.5593Z" fill="#CCCCCC"/>
</svg>
