<svg width="38" height="39" viewBox="0 0 38 39" fill="none" xmlns="http://www.w3.org/2000/svg">
<g opacity="0.2">
<path d="M21.7771 31.4867L21.8347 31.2304L21.9011 30.9217C21.9011 30.8484 21.9011 30.817 21.9454 30.7019L22.0029 30.3775C22.0472 30.1526 22.0959 29.8857 22.1535 29.6398C22.211 29.3939 22.2774 29.1428 22.3483 28.8655C22.4988 28.3161 22.6847 27.7092 22.9105 27.0709C23.1561 26.3902 23.4309 25.7248 23.734 25.0774C24.0705 24.3756 24.4416 23.6978 24.8453 23.0474C25.6913 21.6589 26.6837 20.4035 27.7984 19.3116C27.8648 19.2227 27.7984 19.2855 27.8382 19.2646H27.8603L27.909 19.2227L28.002 19.1442L28.1924 18.9768L28.6351 18.6001C28.9451 18.3228 29.2373 18.1187 29.5206 17.8938C30.0908 17.4823 30.6822 17.1135 31.2916 16.7898C32.3379 16.2342 33.434 15.82 34.559 15.555C35.046 15.4451 35.4843 15.3666 35.8872 15.3196C36.2901 15.2725 36.6265 15.1992 36.9099 15.1992C37.1932 15.1992 37.4058 15.1992 37.5519 15.1992H37.7777L37.5696 15.3091C37.4368 15.3876 37.2419 15.4818 37.0029 15.6387C36.7638 15.7957 36.476 15.9736 36.1572 16.1985C35.8385 16.4235 35.4931 16.7218 35.1301 17.0148C34.3303 17.7244 33.5998 18.5369 32.9518 19.4372C32.6008 19.9344 32.2784 20.4588 31.9867 21.0068C31.842 21.267 31.709 21.536 31.5882 21.8126L31.3978 22.2364L31.2871 22.4823L31.2296 22.6026L31.203 22.6654V22.6968L31.2296 22.6602C30.8047 23.7518 30.5068 24.9064 30.3441 26.0924C30.2089 27.0692 30.1703 28.0613 30.229 29.0486C30.2556 29.4724 30.2998 29.8439 30.3441 30.1735L30.4194 30.6234C30.4194 30.7542 30.4769 30.838 30.4991 30.9321L30.53 31.0577C30.53 31.0577 30.53 31.1833 30.561 31.2356C30.592 31.2879 30.6009 31.4606 30.6142 31.5495C30.6452 31.717 30.6584 31.8111 30.6584 31.8111C30.8933 33.2071 30.6493 34.6561 29.98 35.8395C29.3108 37.0228 28.2712 37.8435 27.09 38.121C25.9087 38.3986 24.6826 38.1102 23.6812 37.3193C22.6799 36.5285 21.9854 35.2999 21.7506 33.904C21.6059 33.1061 21.615 32.2799 21.7771 31.4867Z" fill="#0884A2"/>
<path d="M10.2646 0.712095L11.1501 0.87429L12.2747 1.08881L13.0096 1.2353L13.7711 1.43936C14.298 1.57016 14.8603 1.75328 15.4447 1.96257C16.0291 2.17185 16.6445 2.41253 17.2687 2.66367C17.893 2.91481 18.5217 3.2235 19.146 3.56882C19.7702 3.91414 20.39 4.26992 21.001 4.61524C21.612 4.96056 22.2053 5.40529 22.772 5.85002C23.3387 6.29474 23.87 6.72901 24.3791 7.16327C24.8883 7.59754 25.3576 8.05796 25.7826 8.51839C26.2076 8.97881 26.6016 9.39215 26.9426 9.81594L27.4384 10.4072L27.8546 10.9722C28.1202 11.3176 28.3416 11.6263 28.5098 11.8931L29.0544 12.7145L28.2796 12.2227C27.9921 12.0309 27.6965 11.8563 27.3941 11.6995L26.8407 11.396L26.2032 11.1187C25.7604 10.9042 25.3177 10.7159 24.7953 10.5275C24.2728 10.3392 23.7548 10.177 23.2103 10.0043C22.6657 9.83164 22.0902 9.7113 21.5013 9.61713C20.9125 9.52295 20.3281 9.44447 19.7304 9.37122C19.1327 9.29797 18.5615 9.2875 17.986 9.29797C17.4104 9.30843 16.8526 9.33459 16.3213 9.36075C15.79 9.38691 15.272 9.46016 14.7894 9.55434C14.3068 9.64852 13.8552 9.7113 13.4612 9.81594L12.8768 9.96768L12.3986 10.1194L11.5486 10.3862L10.6985 10.6478C9.59535 10.9934 8.42121 10.8069 7.43441 10.1293C6.44761 9.4518 5.72897 8.33877 5.43659 7.03509C5.14421 5.7314 5.30204 4.34385 5.87536 3.17768C6.44868 2.01152 7.39052 1.16226 8.49369 0.816737C9.0717 0.638756 9.6745 0.603138 10.2646 0.712095Z" fill="#0884A2"/>
<path d="M1.94647 25.973L2.59287 25.1411C2.85851 24.7958 3.22156 24.3144 3.61559 23.8592C4.00963 23.404 4.43908 22.9593 4.94381 22.5041C5.19174 22.2687 5.45295 22.0385 5.73631 21.8135C6.01966 21.5885 6.29858 21.3531 6.62178 21.1385C7.2408 20.6835 7.88245 20.2729 8.54326 19.909C8.88417 19.7154 9.2295 19.5323 9.58369 19.3858C9.93788 19.2393 10.2965 19.0562 10.6551 18.9097C11.3768 18.6114 12.1206 18.3865 12.8688 18.151C13.617 17.9156 14.3431 17.7743 15.0825 17.6278C15.8219 17.4813 16.517 17.4081 17.1988 17.34C18.4269 17.2222 19.6595 17.1838 20.8912 17.2249C22.0775 17.2628 23.2606 17.3904 24.4331 17.6069C23.2872 17.8539 22.1558 18.1876 21.0462 18.6062C19.9279 19.0174 18.8297 19.5012 17.7566 20.0555C17.1766 20.3642 16.5878 20.6886 16.0078 21.0601C15.4278 21.4315 14.8611 21.8187 14.3121 22.2268C13.7631 22.6349 13.2186 23.0849 12.7316 23.5715C12.488 23.8017 12.2534 24.0267 12.032 24.2673C11.8107 24.508 11.5893 24.7382 11.3901 24.9789C11.0059 25.4218 10.6466 25.8937 10.3142 26.3916C10.1567 26.6109 10.0089 26.8396 9.87147 27.077C9.73682 27.2851 9.61406 27.5036 9.504 27.731C9.27378 28.1443 9.10554 28.5472 8.95058 28.8925C8.79562 29.2378 8.76463 29.4524 8.67165 29.693L8.29975 30.7394C8.08473 31.3443 7.76063 31.8864 7.35007 32.328C6.9395 32.7696 6.45235 33.1001 5.9226 33.2963C5.39285 33.4925 4.83326 33.5497 4.28285 33.4641C3.73245 33.3784 3.20449 33.1518 2.7358 32.8002C2.26711 32.4486 1.86898 31.9804 1.56918 31.4282C1.26938 30.876 1.07513 30.2532 0.999974 29.6032C0.924822 28.9531 0.970578 28.2916 1.13405 27.6646C1.29753 27.0376 1.57478 26.4603 1.94647 25.973Z" fill="#0884A2"/>
</g>
</svg>
