<svg width="60" height="70" viewBox="0 0 60 70" fill="none" xmlns="http://www.w3.org/2000/svg">
<path d="M45.0001 37.9171L35.0001 40.8338M55.0001 61.2505H38.7501L35.0551 41.1357C35.0184 40.9348 35 40.73 35.0001 40.5246V21.8755L25.7126 13.178C25.2327 12.7283 24.9153 12.0845 24.8234 11.3744C24.7315 10.6643 24.8718 9.93986 25.2165 9.34489C25.5612 8.74993 26.0851 8.32794 26.6841 8.16271C27.2831 7.99748 27.9135 8.10109 28.4501 8.45296L40.0001 16.0421L44.9339 37.6298C44.9776 37.8209 45.0389 38.0061 45.1139 38.184L55.0001 61.2505Z" stroke="#F54547" stroke-width="2" stroke-linecap="round" stroke-linejoin="round"/>
<path d="M12.5 36.4583L20 40.8333M24.2237 37.2167L24.3038 37.2954C24.5811 37.5661 24.9054 37.7633 25.2544 37.8736C25.6034 37.9838 25.9687 38.0044 26.3252 37.934C26.6817 37.8636 27.0208 37.7038 27.3192 37.4656C27.6177 37.2275 27.8683 36.9167 28.0538 36.5546L30 32.7585V25.9146L25.4 21.875L17.45 23.1087L12.2687 34.9154C12.2062 35.0554 12.1537 35.2027 12.1125 35.3529L5 61.25H19.95V42.2917L21.25 35.1269L21.875 32.0833H23.75L23.37 34.4415C23.2879 34.951 23.3237 35.4769 23.4738 35.965C23.6239 36.4531 23.8827 36.8842 24.2237 37.2167Z" stroke="#F54547" stroke-width="2" stroke-linecap="round" stroke-linejoin="round"/>
</svg>
