<svg width="30" height="31" viewBox="0 0 30 31" fill="none" xmlns="http://www.w3.org/2000/svg">
<path fill-rule="evenodd" clip-rule="evenodd" d="M27.5 15.9824C27.5 22.8862 21.9037 28.4824 15 28.4824C8.09625 28.4824 2.5 22.8862 2.5 15.9824C2.5 9.07867 8.09625 3.48242 15 3.48242C21.9037 3.48242 27.5 9.07867 27.5 15.9824ZM10.1388 20.8437C10.0216 20.7265 9.95576 20.5675 9.95576 20.4018C9.95576 20.2361 10.0216 20.0771 10.1388 19.9599L14.1163 15.9824L10.1388 12.0049C10.0249 11.887 9.96191 11.7292 9.96333 11.5653C9.96475 11.4014 10.0305 11.2447 10.1464 11.1288C10.2622 11.0129 10.419 10.9472 10.5829 10.9458C10.7467 10.9443 10.9046 11.0073 11.0225 11.1212L15 15.0987L18.9775 11.1212C19.0954 11.0073 19.2533 10.9443 19.4171 10.9458C19.581 10.9472 19.7378 11.0129 19.8536 11.1288C19.9695 11.2447 20.0352 11.4014 20.0367 11.5653C20.0381 11.7292 19.9751 11.887 19.8612 12.0049L15.8837 15.9824L19.8612 19.9599C19.9751 20.0778 20.0381 20.2357 20.0367 20.3995C20.0352 20.5634 19.9695 20.7202 19.8536 20.8361C19.7378 20.9519 19.581 21.0177 19.4171 21.0191C19.2533 21.0205 19.0954 20.9575 18.9775 20.8437L15 16.8662L11.0225 20.8437C10.9053 20.9608 10.7464 21.0267 10.5806 21.0267C10.4149 21.0267 10.256 20.9608 10.1388 20.8437Z" fill="#F54547"/>
</svg>
