<svg width="42" height="40" viewBox="0 0 42 40" fill="none" xmlns="http://www.w3.org/2000/svg">
<rect width="42" height="40" rx="20" fill="#0884A2"/>
<path d="M21 16.4062C22.9688 16.4062 24.5938 18.0312 24.5938 20C24.5938 22 22.9688 23.5938 21 23.5938C19 23.5938 17.4062 22 17.4062 20C17.4062 18.0312 19 16.4062 21 16.4062ZM21 22.3438C22.2812 22.3438 23.3125 21.3125 23.3125 20C23.3125 18.7188 22.2812 17.6875 21 17.6875C19.6875 17.6875 18.6562 18.7188 18.6562 20C18.6562 21.3125 19.7188 22.3438 21 22.3438ZM25.5625 16.2812C25.5625 16.75 25.1875 17.125 24.7188 17.125C24.25 17.125 23.875 16.75 23.875 16.2812C23.875 15.8125 24.25 15.4375 24.7188 15.4375C25.1875 15.4375 25.5625 15.8125 25.5625 16.2812ZM27.9375 17.125C28 18.2812 28 21.75 27.9375 22.9062C27.875 24.0312 27.625 25 26.8125 25.8438C26 26.6562 25 26.9062 23.875 26.9688C22.7188 27.0312 19.25 27.0312 18.0938 26.9688C16.9688 26.9062 16 26.6562 15.1562 25.8438C14.3438 25 14.0938 24.0312 14.0312 22.9062C13.9688 21.75 13.9688 18.2812 14.0312 17.125C14.0938 16 14.3438 15 15.1562 14.1875C16 13.375 16.9688 13.125 18.0938 13.0625C19.25 13 22.7188 13 23.875 13.0625C25 13.125 26 13.375 26.8125 14.1875C27.625 15 27.875 16 27.9375 17.125ZM26.4375 24.125C26.8125 23.2188 26.7188 21.0312 26.7188 20C26.7188 19 26.8125 16.8125 26.4375 15.875C26.1875 15.2812 25.7188 14.7812 25.125 14.5625C24.1875 14.1875 22 14.2812 21 14.2812C19.9688 14.2812 17.7812 14.1875 16.875 14.5625C16.25 14.8125 15.7812 15.2812 15.5312 15.875C15.1562 16.8125 15.25 19 15.25 20C15.25 21.0312 15.1562 23.2188 15.5312 24.125C15.7812 24.75 16.25 25.2188 16.875 25.4688C17.7812 25.8438 19.9688 25.75 21 25.75C22 25.75 24.1875 25.8438 25.125 25.4688C25.7188 25.2188 26.2188 24.75 26.4375 24.125Z" fill="white"/>
</svg>
