<svg width="39" height="29" viewBox="0 0 39 29" fill="none" xmlns="http://www.w3.org/2000/svg">
<path fill-rule="evenodd" clip-rule="evenodd" d="M38.5 14.5C38.5 15.0493 38.2498 15.5761 37.8045 15.9645C37.3591 16.3529 36.7551 16.5711 36.1253 16.5711H8.61159L18.8087 25.46C19.2546 25.8489 19.5051 26.3764 19.5051 26.9263C19.5051 27.4763 19.2546 28.0037 18.8087 28.3926C18.3628 28.7815 17.758 29 17.1274 29C16.4968 29 15.892 28.7815 15.4461 28.3926L1.19767 15.9663C0.976517 15.7739 0.801056 15.5454 0.681339 15.2938C0.561623 15.0422 0.5 14.7724 0.5 14.5C0.5 14.2276 0.561623 13.9578 0.681339 13.7062C0.801056 13.4546 0.976517 13.2261 1.19767 13.0337L15.4461 0.607363C15.892 0.218473 16.4968 0 17.1274 0C17.758 0 18.3628 0.218473 18.8087 0.607363C19.2546 0.99625 19.5051 1.5237 19.5051 2.07367C19.5051 2.62364 19.2546 3.15109 18.8087 3.53998L8.61159 12.4289H36.1253C36.7551 12.4289 37.3591 12.6471 37.8045 13.0355C38.2498 13.4239 38.5 13.9507 38.5 14.5Z" fill="white"/>
</svg>
