<svg width="42" height="40" viewBox="0 0 42 40" fill="none" xmlns="http://www.w3.org/2000/svg">
<rect width="42" height="40" rx="20" fill="#0884A2"/>
<path d="M27 13C27.5312 13 28 13.4688 28 14.0312V26C28 26.5625 27.5312 27 27 27H14.9688C14.4375 27 14 26.5625 14 26V14.0312C14 13.4688 14.4375 13 14.9688 13H27ZM18.2188 25V18.3438H16.1562V25H18.2188ZM17.1875 17.4062C17.8438 17.4062 18.375 16.875 18.375 16.2188C18.375 15.5625 17.8438 15 17.1875 15C16.5 15 15.9688 15.5625 15.9688 16.2188C15.9688 16.875 16.5 17.4062 17.1875 17.4062ZM26 25V21.3438C26 19.5625 25.5938 18.1562 23.5 18.1562C22.5 18.1562 21.8125 18.7188 21.5312 19.25H21.5V18.3438H19.5312V25H21.5938V21.7188C21.5938 20.8438 21.75 20 22.8438 20C23.9062 20 23.9062 21 23.9062 21.75V25H26Z" fill="white"/>
</svg>
