<svg width="25" height="25" viewBox="0 0 25 25" fill="none" xmlns="http://www.w3.org/2000/svg">
<path d="M5.84935 20.8327C5.36949 20.8327 4.96914 20.6723 4.64831 20.3514C4.32747 20.0306 4.16671 19.6299 4.16602 19.1493V5.84935C4.16602 5.36949 4.32678 4.96914 4.64831 4.64831C4.96983 4.32747 5.37018 4.16671 5.84935 4.16602H12.5191V5.20768H5.84935C5.68893 5.20768 5.54171 5.27435 5.40768 5.40768C5.27365 5.54102 5.20699 5.68824 5.20768 5.84935V19.1504C5.20768 19.3101 5.27435 19.457 5.40768 19.591C5.54102 19.725 5.68789 19.7917 5.84831 19.791H12.5191V20.8327H5.84935ZM17.1473 16.1858L16.416 15.4358L18.8316 13.0202H9.57435V11.9785H18.8316L16.415 9.56185L17.1462 8.81393L20.8327 12.4993L17.1473 16.1858Z" fill="#424242"/>
</svg>
