<svg width="43" height="50" viewBox="0 0 43 50" fill="none" xmlns="http://www.w3.org/2000/svg">
<path d="M1.18359 48.0975C1.19682 46.8538 1.53146 45.6336 2.15624 44.5511C2.81483 43.4255 3.76271 42.4886 4.90549 41.8338C6.04827 41.179 7.34607 40.8291 8.66967 40.819C9.99265 40.8297 11.2897 41.1799 12.4318 41.8347C13.5739 42.4895 14.5212 43.426 15.1795 44.5511C15.806 45.6333 16.1375 46.8547 16.1521 48.0975M26.8475 48.0975C26.8607 46.8538 27.1954 45.6336 27.8202 44.5511C28.4785 43.426 29.4258 42.4895 30.5678 41.8347C31.7099 41.1799 33.007 40.8297 34.33 40.819C36.3026 40.8235 38.1941 41.5895 39.5951 42.951C40.9962 44.3125 41.794 46.1601 41.816 48.094M14.236 23.9511C14.2469 22.7475 14.5711 21.5654 15.1758 20.5154C15.8127 19.4223 16.7316 18.5126 17.8403 17.8776C18.949 17.2426 20.2085 16.9046 21.4925 16.8975C24.079 16.9011 26.5306 18.3047 27.8056 20.5154C28.4103 21.5654 28.7345 22.7475 28.7491 23.9511M8.66967 37.5761C9.77252 37.5761 10.8302 37.1466 11.61 36.3821C12.3899 35.6175 12.828 34.5806 12.828 33.4993C12.828 32.4181 12.3899 31.3812 11.61 30.6166C10.8302 29.8521 9.77252 29.4225 8.66967 29.4225C7.56681 29.4225 6.50912 29.8521 5.72929 30.6166C4.94945 31.3812 4.51134 32.4181 4.51134 33.4993C4.51134 34.5806 4.94945 35.6175 5.72929 36.3821C6.50912 37.1466 7.56681 37.5761 8.66967 37.5761ZM34.3336 37.5761C35.4364 37.5761 36.4941 37.1466 37.274 36.3821C38.0538 35.6175 38.4919 34.5806 38.4919 33.4993C38.4919 32.4181 38.0538 31.3812 37.274 30.6166C36.4941 29.8521 35.4364 29.4225 34.3336 29.4225C33.2307 29.4225 32.1731 29.8521 31.3932 30.6166C30.6134 31.3812 30.1753 32.4181 30.1753 33.4993C30.1753 34.5806 30.6134 35.6175 31.3932 36.3821C32.1731 37.1466 33.2307 37.5761 34.3336 37.5761ZM21.4889 14.4118C22.5178 14.4118 23.5046 14.0111 24.2322 13.2978C24.9598 12.5845 25.3685 11.617 25.3685 10.6083C25.3685 9.59949 24.9598 8.63204 24.2322 7.91873C23.5046 7.20542 22.5178 6.80469 21.4889 6.80469C20.4599 6.80469 19.4731 7.20542 18.7456 7.91873C18.018 8.63204 17.6092 9.59949 17.6092 10.6083C17.6092 11.617 18.018 12.5845 18.7456 13.2978C19.4731 14.0111 20.4599 14.4118 21.4889 14.4118Z" stroke="black" stroke-width="2" stroke-linecap="round" stroke-linejoin="round"/>
<path d="M38.9129 1.9043H4.0726C3.3795 1.90618 2.71534 2.17695 2.22524 2.65744C1.73514 3.13793 1.45895 3.78907 1.45703 4.46858V21.3864C1.45703 22.8043 2.63003 23.9507 4.0726 23.9507H38.9129C39.606 23.9488 40.2702 23.6781 40.7603 23.1976C41.2504 22.7171 41.5265 22.066 41.5285 21.3864V4.46858C41.5265 3.78907 41.2504 3.13793 40.7603 2.65744C40.2702 2.17695 39.606 1.90618 38.9129 1.9043Z" stroke="black" stroke-width="2" stroke-linecap="round" stroke-linejoin="round"/>
</svg>
