<svg width="25" height="25" viewBox="0 0 25 25" fill="none" xmlns="http://www.w3.org/2000/svg">
<path d="M20.5566 11.084C20.5566 10.9766 20.4688 10.8887 20.3613 10.8887H18.8965C18.7891 10.8887 18.7012 10.9766 18.7012 11.084C18.7012 14.5093 15.9253 17.2852 12.5 17.2852C9.07471 17.2852 6.29883 14.5093 6.29883 11.084C6.29883 10.9766 6.21094 10.8887 6.10352 10.8887H4.63867C4.53125 10.8887 4.44336 10.9766 4.44336 11.084C4.44336 15.2026 7.53418 18.6011 11.5234 19.082V21.582H7.97607C7.6416 21.582 7.37305 21.9312 7.37305 22.3633V23.2422C7.37305 23.3496 7.44141 23.4375 7.52441 23.4375H17.4756C17.5586 23.4375 17.627 23.3496 17.627 23.2422V22.3633C17.627 21.9312 17.3584 21.582 17.0239 21.582H13.3789V19.0942C17.4146 18.6548 20.5566 15.2368 20.5566 11.084ZM12.5 15.2344C14.7925 15.2344 16.6504 13.3984 16.6504 11.1328V5.66406C16.6504 3.39844 14.7925 1.5625 12.5 1.5625C10.2075 1.5625 8.34961 3.39844 8.34961 5.66406V11.1328C8.34961 13.3984 10.2075 15.2344 12.5 15.2344ZM10.2051 5.66406C10.2051 4.42871 11.228 3.41797 12.5 3.41797C13.772 3.41797 14.7949 4.42871 14.7949 5.66406V11.1328C14.7949 12.3682 13.772 13.3789 12.5 13.3789C11.228 13.3789 10.2051 12.3682 10.2051 11.1328V5.66406Z" fill="#424242"/>
</svg>
