<svg width="24" height="25" viewBox="0 0 24 25" fill="none" xmlns="http://www.w3.org/2000/svg">
<g clip-path="url(#clip0_3402_13095)">
<path d="M16.5 8C16.5 9.19347 16.0259 10.3381 15.182 11.182C14.3381 12.0259 13.1935 12.5 12 12.5C10.8065 12.5 9.66193 12.0259 8.81802 11.182C7.97411 10.3381 7.5 9.19347 7.5 8C7.5 6.80653 7.97411 5.66193 8.81802 4.81802C9.66193 3.97411 10.8065 3.5 12 3.5C13.1935 3.5 14.3381 3.97411 15.182 4.81802C16.0259 5.66193 16.5 6.80653 16.5 8ZM12 11C12.7956 11 13.5587 10.6839 14.1213 10.1213C14.6839 9.55871 15 8.79565 15 8C15 7.20435 14.6839 6.44129 14.1213 5.87868C13.5587 5.31607 12.7956 5 12 5C11.2044 5 10.4413 5.31607 9.87868 5.87868C9.31607 6.44129 9 7.20435 9 8C9 8.79565 9.31607 9.55871 9.87868 10.1213C10.4413 10.6839 11.2044 11 12 11ZM12.384 21.5C12.2122 21.0128 12.097 20.5075 12.0405 19.994H4.5C4.5015 19.625 4.731 18.515 5.748 17.498C6.726 16.52 8.5665 15.5 12 15.5C12.39 15.5 12.76 15.5125 13.11 15.5375C13.449 15.026 13.854 14.5625 14.316 14.1605C13.616 14.0555 12.844 14.002 12 14C4.5 14 3 18.5 3 20C3 21.5 4.5 21.5 4.5 21.5H12.384Z" fill="white"/>
<path d="M18.75 24.5C20.1424 24.5 21.4777 23.9469 22.4623 22.9623C23.4469 21.9777 24 20.6424 24 19.25C24 17.8576 23.4469 16.5223 22.4623 15.5377C21.4777 14.5531 20.1424 14 18.75 14C17.3576 14 16.0223 14.5531 15.0377 15.5377C14.0531 16.5223 13.5 17.8576 13.5 19.25C13.5 20.6424 14.0531 21.9777 15.0377 22.9623C16.0223 23.9469 17.3576 24.5 18.75 24.5ZM17.781 17.219L18.75 18.1895L19.719 17.219C19.8598 17.0782 20.0508 16.9991 20.25 16.9991C20.4492 16.9991 20.6402 17.0782 20.781 17.219C20.9218 17.3598 21.0009 17.5508 21.0009 17.75C21.0009 17.9492 20.9218 18.1402 20.781 18.281L19.8105 19.25L20.781 20.219C20.9218 20.3598 21.0009 20.5508 21.0009 20.75C21.0009 20.9492 20.9218 21.1402 20.781 21.281C20.6402 21.4218 20.4492 21.5009 20.25 21.5009C20.0508 21.5009 19.8598 21.4218 19.719 21.281L18.75 20.3105L17.781 21.281C17.6402 21.4218 17.4492 21.5009 17.25 21.5009C17.0508 21.5009 16.8598 21.4218 16.719 21.281C16.5782 21.1402 16.4991 20.9492 16.4991 20.75C16.4991 20.5508 16.5782 20.3598 16.719 20.219L17.6895 19.25L16.719 18.281C16.5782 18.1402 16.4991 17.9492 16.4991 17.75C16.4991 17.5508 16.5782 17.3598 16.719 17.219C16.8598 17.0782 17.0508 16.9991 17.25 16.9991C17.4492 16.9991 17.6402 17.0782 17.781 17.219Z" fill="white"/>
</g>
<defs>
<clipPath id="clip0_3402_13095">
<rect width="24" height="24" fill="white" transform="translate(0 0.5)"/>
</clipPath>
</defs>
</svg>
