<svg width="36" height="38" viewBox="0 0 36 38" fill="none" xmlns="http://www.w3.org/2000/svg">
<path fill-rule="evenodd" clip-rule="evenodd" d="M9.69967 16.1166C9.69967 13.9746 10.5746 11.9203 12.1319 10.4056C13.6893 8.89096 15.8015 8.04004 18.0039 8.04004C20.2063 8.04004 22.3185 8.89096 23.8759 10.4056C25.4332 11.9203 26.3081 13.9746 26.3081 16.1166V20.4595L28.4696 24.6639C28.5691 24.8574 28.6161 25.0724 28.6061 25.2886C28.5961 25.5047 28.5295 25.7148 28.4125 25.8988C28.2955 26.0829 28.1321 26.2348 27.9378 26.3401C27.7435 26.4455 27.5247 26.5007 27.3023 26.5007H22.5997C22.3358 27.4909 21.7413 28.3679 20.9095 28.994C20.0777 29.62 19.0557 29.9597 18.0039 29.9597C16.9521 29.9597 15.9301 29.62 15.0983 28.994C14.2665 28.3679 13.672 27.4909 13.4081 26.5007H8.70554C8.48307 26.5007 8.2643 26.4455 8.06998 26.3401C7.87567 26.2348 7.71227 26.0829 7.59531 25.8988C7.47835 25.7148 7.41171 25.5047 7.40171 25.2886C7.39171 25.0724 7.4387 24.8574 7.5382 24.6639L9.69967 20.4595V16.1166ZM15.9492 26.5007C16.1575 26.8515 16.457 27.1428 16.8176 27.3453C17.1783 27.5478 17.5874 27.6544 18.0039 27.6544C18.4204 27.6544 18.8295 27.5478 19.1902 27.3453C19.5508 27.1428 19.8504 26.8515 20.0586 26.5007H15.9492ZM18.0039 10.3476C16.4307 10.3476 14.922 10.9554 13.8096 12.0373C12.6972 13.1192 12.0723 14.5866 12.0723 16.1166V20.4595C12.0723 20.8175 11.9866 21.1707 11.822 21.4909L10.434 24.1931H25.575L24.187 21.4909C24.022 21.1708 23.9359 20.8176 23.9355 20.4595V16.1166C23.9355 14.5866 23.3106 13.1192 22.1982 12.0373C21.0858 10.9554 19.5771 10.3476 18.0039 10.3476Z" fill="#999999"/>
</svg>
