<svg width="105" height="105" viewBox="0 0 105 105" fill="none" xmlns="http://www.w3.org/2000/svg">
<g filter="url(#filter0_d_1169_37271)">
<circle cx="52.5" cy="42.5" r="37.5" fill="#0884A2"/>
</g>
<path fill-rule="evenodd" clip-rule="evenodd" d="M49.7656 52.8087C50.4563 53.578 51.343 54.0007 52.263 54.0007H52.2643C53.1883 54.0007 54.079 53.578 54.771 52.8073C55.1416 52.398 55.7736 52.3647 56.183 52.734C56.5936 53.1033 56.627 53.7367 56.2576 54.146C55.1803 55.342 53.763 56.0007 52.2643 56.0007H52.2616C50.767 55.9993 49.3523 55.3407 48.279 54.1447C47.9096 53.7353 47.943 53.102 48.3536 52.734C48.7643 52.3633 49.3963 52.3967 49.7656 52.8087ZM52.3294 27.334C58.256 27.334 62.2374 31.95 62.2374 36.2607C62.2374 38.478 62.8014 39.418 63.4 40.4153C63.992 41.3993 64.6627 42.5167 64.6627 44.6287C64.1974 50.0247 58.564 50.4647 52.3294 50.4647C46.0947 50.4647 40.46 50.0247 40 44.714C39.996 42.5167 40.6667 41.3993 41.2587 40.4153L41.4677 40.0635C41.9823 39.1791 42.4214 38.2171 42.4214 36.2607C42.4214 31.95 46.4027 27.334 52.3294 27.334ZM52.3294 29.334C47.6694 29.334 44.4214 32.9847 44.4214 36.2607C44.4214 39.0327 43.652 40.314 42.972 41.4447C42.4267 42.3527 41.996 43.07 41.996 44.6287C42.2187 47.1433 43.8787 48.4647 52.3294 48.4647C60.7334 48.4647 62.4454 47.0847 62.6667 44.542C62.6627 43.07 62.232 42.3527 61.6867 41.4447C61.0067 40.314 60.2374 39.0327 60.2374 36.2607C60.2374 32.9847 56.9894 29.334 52.3294 29.334Z" fill="white"/>
<ellipse cx="62.6673" cy="46.7057" rx="5.33333" ry="5.64706" fill="#F54547"/>
<defs>
<filter id="filter0_d_1169_37271" x="0" y="0" width="105" height="105" filterUnits="userSpaceOnUse" color-interpolation-filters="sRGB">
<feFlood flood-opacity="0" result="BackgroundImageFix"/>
<feColorMatrix in="SourceAlpha" type="matrix" values="0 0 0 0 0 0 0 0 0 0 0 0 0 0 0 0 0 0 127 0" result="hardAlpha"/>
<feOffset dy="10"/>
<feGaussianBlur stdDeviation="7.5"/>
<feColorMatrix type="matrix" values="0 0 0 0 0.592 0 0 0 0 0.592 0 0 0 0 0.592 0 0 0 0.08 0"/>
<feBlend mode="normal" in2="BackgroundImageFix" result="effect1_dropShadow_1169_37271"/>
<feBlend mode="normal" in="SourceGraphic" in2="effect1_dropShadow_1169_37271" result="shape"/>
</filter>
</defs>
</svg>
