<svg width="31" height="31" viewBox="0 0 31 31" fill="none" xmlns="http://www.w3.org/2000/svg">
<path fill-rule="evenodd" clip-rule="evenodd" d="M15.5 30.5C24.0606 30.5 31 24.0084 31 16C31 7.99165 24.0606 1.5 15.5 1.5C6.93935 1.5 0 7.99165 0 16C0 24.0084 6.93935 30.5 15.5 30.5ZM23.8251 11.4108C23.8976 11.3409 23.9543 11.258 23.9918 11.1672C24.0294 11.0764 24.047 10.9794 24.0435 10.882C24.0401 10.7847 24.0158 10.689 23.972 10.6007C23.9282 10.5123 23.8658 10.4331 23.7885 10.3678C23.7113 10.3025 23.6208 10.2525 23.5224 10.2206C23.424 10.1888 23.3198 10.1758 23.2159 10.1825C23.1121 10.1891 23.0107 10.2153 22.9179 10.2594C22.8251 10.3035 22.7427 10.3647 22.6757 10.4392L13.392 20.0361L8.28475 15.4751C8.13614 15.3422 7.9372 15.27 7.73169 15.2744C7.52618 15.2787 7.33093 15.3593 7.1889 15.4983C7.04687 15.6373 6.96969 15.8234 6.97434 16.0157C6.97899 16.2079 7.06509 16.3906 7.2137 16.5235L12.8975 21.5985L13.4734 22.1132L14.0073 21.5608L23.8251 11.4108Z" fill="#C6C6C6"/>
</svg>
