<svg width="23" height="26" viewBox="0 0 23 26" fill="none" xmlns="http://www.w3.org/2000/svg">
<path d="M11.5 2.02427L12.1858 0.623047C11.9691 0.54186 11.7358 0.5 11.5 0.5C11.2642 0.5 11.0309 0.54186 10.8142 0.623047L11.5 2.02427ZM11.5 23.9756L10.6358 25.2988C11.171 25.5671 11.829 25.5671 12.3642 25.2988L11.5 23.9756ZM10.8142 0.623047L1.90133 3.96453L3.27297 6.76698L12.1858 3.4255L10.8142 0.623047ZM1.92034e-07 6.48771V14.8536H3.48485V6.48771H1.92034e-07ZM5.09206 22.528L10.6358 25.3L12.3642 22.6536L6.82054 19.8817L5.09206 22.528ZM12.3642 25.3L17.9079 22.5293L16.1795 19.8829L10.6358 22.6536L12.3642 25.3ZM23 14.8524V6.48771H19.5152V14.8536L23 14.8524ZM21.0987 3.96575L12.1858 0.624266L10.8142 3.42672L19.7256 6.7682L21.0987 3.96575ZM23 6.48771C23 5.39014 22.2528 4.39868 21.0987 3.96575L19.7256 6.7682C19.663 6.74458 19.6097 6.70542 19.5723 6.65557C19.5349 6.60571 19.515 6.54735 19.5152 6.48771H23ZM17.9079 22.5293C19.4549 21.7559 20.7406 20.6385 21.6349 19.2903C22.5291 17.9422 23.0001 16.4111 23 14.8524H19.5152C19.5152 15.8735 19.2066 16.8765 18.6208 17.7597C18.035 18.6429 17.1928 19.3762 16.1795 19.8829L17.9079 22.5293ZM1.92034e-07 14.8512C-5.70781e-05 16.4099 0.470903 17.9409 1.36515 19.2891C2.25939 20.6373 3.54514 21.7547 5.09206 22.528L6.82054 19.8817C5.80699 19.3749 4.96461 18.6426 4.37881 17.7592C3.793 16.8758 3.48459 15.8725 3.48485 14.8512H1.92034e-07ZM1.90133 3.96453C1.33688 4.17608 0.85582 4.52794 0.517829 4.97647C0.179839 5.42501 -0.000214647 5.95048 1.92034e-07 6.48771H3.48485C3.48485 6.60966 3.40121 6.7182 3.27297 6.76698L1.90133 3.96453Z" fill="black"/>
<path d="M8.71094 10.5605L14.2867 15.4386M8.71094 15.4386L14.2867 10.5605" stroke="black" stroke-width="2.5" stroke-linecap="round" stroke-linejoin="round"/>
</svg>
