<svg width="44" height="46" viewBox="0 0 44 46" fill="none" xmlns="http://www.w3.org/2000/svg">
<path d="M41.3906 22.8906C41.3906 33.0352 32.9276 41.3711 22.3477 41.3711C11.7678 41.3711 3.30469 33.0352 3.30469 22.8906C3.30469 12.7461 11.7678 4.41016 22.3477 4.41016C32.9276 4.41016 41.3906 12.7461 41.3906 22.8906Z" stroke="#F54547" stroke-width="5"/>
<path d="M28.6459 16.3157C28.5534 16.2188 28.4435 16.1419 28.3225 16.0895C28.2016 16.037 28.0719 16.01 27.9409 16.01C27.81 16.01 27.6803 16.037 27.5593 16.0895C27.4383 16.1419 27.3284 16.2188 27.2359 16.3157L22.3459 21.4165L17.4559 16.3052C17.3633 16.2085 17.2534 16.1317 17.1325 16.0793C17.0115 16.027 16.8819 16 16.7509 16C16.62 16 16.4903 16.027 16.3694 16.0793C16.2484 16.1317 16.1385 16.2085 16.0459 16.3052C15.9533 16.402 15.8799 16.5169 15.8298 16.6433C15.7797 16.7698 15.7539 16.9053 15.7539 17.0421C15.7539 17.179 15.7797 17.3145 15.8298 17.441C15.8799 17.5674 15.9533 17.6823 16.0459 17.7791L20.9359 22.8904L16.0459 28.0017C15.9533 28.0984 15.8799 28.2133 15.8298 28.3398C15.7797 28.4662 15.7539 28.6017 15.7539 28.7386C15.7539 28.8754 15.7797 29.0109 15.8298 29.1374C15.8799 29.2638 15.9533 29.3787 16.0459 29.4755C16.1385 29.5723 16.2484 29.649 16.3694 29.7014C16.4903 29.7538 16.62 29.7807 16.7509 29.7807C16.8819 29.7807 17.0115 29.7538 17.1325 29.7014C17.2534 29.649 17.3633 29.5723 17.4559 29.4755L22.3459 24.3642L27.2359 29.4755C27.3285 29.5723 27.4384 29.649 27.5594 29.7014C27.6803 29.7538 27.81 29.7807 27.9409 29.7807C28.0719 29.7807 28.2015 29.7538 28.3225 29.7014C28.4434 29.649 28.5533 29.5723 28.6459 29.4755C28.7385 29.3787 28.8119 29.2638 28.8621 29.1374C28.9122 29.0109 28.9379 28.8754 28.9379 28.7386C28.9379 28.6017 28.9122 28.4662 28.8621 28.3398C28.8119 28.2133 28.7385 28.0984 28.6459 28.0017L23.7559 22.8904L28.6459 17.7791C29.0259 17.3819 29.0259 16.7129 28.6459 16.3157Z" fill="#F54547"/>
</svg>
