<svg width="73" height="72" viewBox="0 0 73 72" fill="none" xmlns="http://www.w3.org/2000/svg">
<path d="M0.666016 36C0.666016 16.1178 16.7838 0 36.666 0C56.5483 0 72.666 16.1178 72.666 36C72.666 55.8823 56.5483 72 36.666 72C16.7838 72 0.666016 55.8823 0.666016 36Z" fill="#0884A2"/>
<path d="M54.7087 46.2681V31.8327C54.7087 23.9764 54.7087 20.0473 52.267 17.6077C49.8253 15.1681 45.8982 15.166 38.042 15.166H35.9587C28.1024 15.166 24.1732 15.166 21.7337 17.6077C19.2941 20.0493 19.292 23.9764 19.292 31.8327V51.6243" stroke="white" stroke-width="1.5" stroke-linecap="round" stroke-linejoin="round"/>
<path d="M54.7087 46.416H24.5003C23.119 46.416 21.7942 46.9647 20.8175 47.9415C19.8407 48.9183 19.292 50.243 19.292 51.6243C19.292 53.0057 19.8407 54.3304 20.8175 55.3072C21.7942 56.2839 23.119 56.8327 24.5003 56.8327H54.7087" stroke="white" stroke-width="1.5" stroke-linecap="round" stroke-linejoin="round"/>
<path d="M54.7087 46.4167C53.3273 46.4167 52.0026 46.9654 51.0258 47.9422C50.0491 48.9189 49.5003 50.2437 49.5003 51.625C49.5003 53.0063 50.0491 54.3311 51.0258 55.3078C52.0026 56.2846 53.3273 56.8333 54.7087 56.8333M28.667 26.3625C31.0607 24.55 33.917 23.5 36.9899 23.5C40.0691 23.5 42.9357 24.5583 45.3337 26.3792M41.5295 31.2458C40.153 30.4359 38.585 30.0086 36.9878 30.0083C35.3649 30.0083 33.8295 30.4479 32.467 31.2333M37.0003 36H37.0128" stroke="white" stroke-width="1.5" stroke-linecap="round" stroke-linejoin="round"/>
</svg>
