
<svg width="25" height="26" viewBox="0 0 25 26" fill="none" xmlns="http://www.w3.org/2000/svg">
<path d="M19.5399 4.37987C19.2607 4.40161 18.9939 4.50418 18.772 4.67505C18.5501 4.84591 18.3827 5.07769 18.2903 5.34208C18.198 5.60647 18.1845 5.89203 18.2517 6.16392C18.319 6.4358 18.4639 6.68223 18.6688 6.87314C19.4707 7.67345 20.1065 8.62436 20.5396 9.67121C20.9728 10.7181 21.1948 11.8402 21.1928 12.9731C21.1942 14.106 20.9719 15.2279 20.5388 16.2747C20.1056 17.3215 19.4702 18.2724 18.6688 19.0731C18.5295 19.2061 18.4182 19.3656 18.3415 19.5423C18.2647 19.7189 18.224 19.9091 18.2218 20.1017C18.2196 20.2942 18.2559 20.4853 18.3286 20.6636C18.4012 20.842 18.5088 21.004 18.645 21.1402C18.7812 21.2764 18.9432 21.384 19.1215 21.4566C19.2999 21.5293 19.491 21.5656 19.6835 21.5634C19.8761 21.5612 20.0663 21.5205 20.2429 21.4437C20.4195 21.367 20.579 21.2557 20.712 21.1164C22.8675 18.9544 24.0779 16.026 24.0779 12.9731C24.0779 9.92022 22.8675 6.99184 20.712 4.82987C20.5802 4.6905 20.4219 4.57884 20.2464 4.5014C20.0709 4.42397 19.8817 4.38232 19.6899 4.3789C19.64 4.3763 19.5899 4.3763 19.5399 4.3789V4.37987ZM5.20724 4.40871C4.8876 4.45111 4.59138 4.59938 4.36589 4.82987C2.2104 6.99184 1 9.92022 1 12.9731C1 16.026 2.2104 18.9544 4.36589 21.1164C4.4989 21.2557 4.6584 21.367 4.83503 21.4437C5.01166 21.5205 5.20184 21.5612 5.39441 21.5634C5.58699 21.5656 5.77806 21.5293 5.9564 21.4566C6.13475 21.384 6.29677 21.2764 6.43295 21.1402C6.56913 21.004 6.67671 20.842 6.74939 20.6636C6.82206 20.4853 6.85836 20.2942 6.85614 20.1017C6.85393 19.9091 6.81324 19.7189 6.73648 19.5423C6.65972 19.3656 6.54844 19.2061 6.40916 19.0731C5.60727 18.2728 4.97146 17.3219 4.5383 16.2751C4.10514 15.2282 3.88316 14.1061 3.88512 12.9731C3.88379 11.8403 4.10606 10.7183 4.53918 9.67158C4.97231 8.62481 5.60778 7.67383 6.40916 6.87314C6.62719 6.6614 6.77276 6.38619 6.8251 6.08681C6.87743 5.78742 6.83385 5.47916 6.70058 5.20601C6.56732 4.93286 6.35117 4.70879 6.08299 4.56579C5.81481 4.42278 5.50831 4.36718 5.20724 4.40871ZM8.87358 7.59429C8.55734 7.6283 8.26122 7.76588 8.03128 7.98564C7.33349 8.61604 6.77524 9.38541 6.3924 10.2443C6.00955 11.1033 5.81056 12.0328 5.8082 12.9731C5.8082 14.9424 6.64474 16.7327 8.00147 17.9616C8.14163 18.0898 8.30567 18.1892 8.48424 18.254C8.6628 18.3189 8.85238 18.3479 9.04216 18.3394C9.23194 18.331 9.4182 18.2853 9.59031 18.2048C9.76241 18.1244 9.91699 18.0109 10.0452 17.8707C10.1734 17.7306 10.2728 17.5665 10.3376 17.388C10.4025 17.2094 10.4315 17.0198 10.4231 16.83C10.4146 16.6403 10.3689 16.454 10.2885 16.2819C10.208 16.1098 10.0945 15.9552 9.95435 15.827C9.55518 15.4668 9.23648 15.0264 9.0191 14.5347C8.80172 14.0429 8.69054 13.5108 8.69281 12.9731C8.69082 12.4353 8.80223 11.9031 9.01976 11.4112C9.2373 10.9193 9.55608 10.4787 9.95531 10.1183C10.1857 9.91786 10.3466 9.64942 10.4147 9.35168C10.4828 9.05394 10.4546 8.74228 10.3342 8.46159C10.2138 8.1809 10.0074 7.94567 9.7447 7.78981C9.48204 7.63394 9.17765 7.56548 8.87358 7.59429ZM15.9947 7.59429C15.7087 7.61006 15.4338 7.71065 15.2052 7.88325C14.9765 8.05584 14.8045 8.29261 14.7109 8.56338C14.6174 8.83415 14.6065 9.12665 14.6799 9.40358C14.7532 9.68051 14.9073 9.92934 15.1226 10.1183C15.5221 10.4785 15.841 10.919 16.0586 11.411C16.2761 11.9029 16.3874 12.4352 16.3851 12.9731C16.3871 13.511 16.2757 14.0432 16.0582 14.5351C15.8406 15.027 15.5219 15.4675 15.1226 15.8279C14.9619 15.948 14.828 16.1002 14.7295 16.2749C14.6309 16.4496 14.5699 16.6429 14.5503 16.8426C14.5307 17.0422 14.5529 17.2437 14.6156 17.4343C14.6783 17.6248 14.78 17.8002 14.9143 17.9492C15.0486 18.0982 15.2125 18.2175 15.3955 18.2996C15.5786 18.3816 15.7767 18.4246 15.9773 18.4258C16.1778 18.427 16.3765 18.3863 16.5604 18.3064C16.7444 18.2264 16.9097 18.109 17.0457 17.9616C17.7438 17.3312 18.3023 16.5617 18.6853 15.7026C19.0683 14.8435 19.2674 13.9138 19.2697 12.9731C19.2733 12.0345 19.08 11.1055 18.7022 10.2463C18.3244 9.38703 17.7706 8.61657 17.0765 7.98467C16.9326 7.84889 16.7623 7.74416 16.5762 7.67701C16.3901 7.60985 16.1922 7.58169 15.9947 7.59429ZM12.539 11.2308C12.1944 11.231 11.8577 11.3334 11.5713 11.5249C11.2849 11.7165 11.0617 11.9887 10.93 12.307C10.7982 12.6254 10.7639 12.9757 10.8312 13.3136C10.8986 13.6515 11.0646 13.9619 11.3083 14.2055C11.552 14.449 11.8624 14.6149 12.2004 14.682C12.5383 14.7492 12.8886 14.7146 13.2069 14.5827C13.5252 14.4508 13.7973 14.2275 13.9887 13.941C14.1801 13.6545 14.2822 13.3177 14.2822 12.9731C14.2826 12.7441 14.2378 12.5172 14.1503 12.3056C14.0628 12.0939 13.9344 11.9016 13.7725 11.7396C13.6105 11.5777 13.4182 11.4493 13.2065 11.3618C12.9949 11.2743 12.768 11.2304 12.539 11.2308Z" fill="#424242"/>
</svg>
