<svg width="51" height="51" viewBox="0 0 51 51" fill="none" xmlns="http://www.w3.org/2000/svg">
<path d="M44.543 25.6738C44.543 35.8184 36.0799 44.1543 25.5 44.1543C14.9201 44.1543 6.45703 35.8184 6.45703 25.6738C6.45703 15.5293 14.9201 7.19336 25.5 7.19336C36.0799 7.19336 44.543 15.5293 44.543 25.6738Z" stroke="#47D166" stroke-width="5"/>
<path d="M22.1336 30.8762L33.8097 16.9349C34.0852 16.6059 34.4067 16.4414 34.7741 16.4414C35.1415 16.4414 35.463 16.6059 35.7385 16.9349C36.014 17.2639 36.1518 17.6549 36.1518 18.1078C36.1518 18.5607 36.014 18.9511 35.7385 19.279L23.098 34.4129C22.8225 34.7419 22.501 34.9064 22.1336 34.9064C21.7662 34.9064 21.4448 34.7419 21.1692 34.4129L15.2451 27.3395C14.9695 27.0105 14.8373 26.6201 14.8483 26.1682C14.8593 25.7164 15.0031 25.3255 15.2795 24.9954C15.556 24.6653 15.8834 24.5008 16.2618 24.5019C16.6402 24.503 16.9672 24.6675 17.2428 24.9954L22.1336 30.8762Z" fill="#47D166"/>
</svg>
