<svg width="36" height="38" viewBox="0 0 36 38" fill="none" xmlns="http://www.w3.org/2000/svg">
<path d="M7.48318 20.2498V22.6486C7.48318 22.852 7.56735 23.0391 7.7357 23.2098C7.90405 23.3805 8.08949 23.4654 8.29204 23.4645H27.7177C27.9194 23.4645 28.1048 23.3796 28.2741 23.2098C28.4433 23.04 28.5275 22.8525 28.5266 22.6473V20.2498H7.48318ZM8.29204 7.54346H27.7177C28.3052 7.54346 28.8063 7.7522 29.221 8.16969C29.6349 8.58717 29.8418 9.09311 29.8418 9.6875V22.6486C29.8418 23.2412 29.6349 23.7467 29.221 24.1651C28.8072 24.5825 28.3061 24.7913 27.7177 24.7913H21.8493V30.4565L18.0049 28.5155L14.1605 30.4539V24.7913H8.29335C7.70414 24.7913 7.2026 24.5825 6.78875 24.1651C6.3749 23.7476 6.16797 23.2421 6.16797 22.6486V9.68617C6.16797 9.09355 6.3749 8.58806 6.78875 8.16969C7.2026 7.7522 7.70414 7.54346 8.29335 7.54346M7.48318 17.392H28.5266V9.6875C28.5266 9.48318 28.4424 9.29566 28.2741 9.12495C28.1057 8.95424 27.9203 8.86933 27.7177 8.87021H8.29204C8.09037 8.87021 7.90493 8.95513 7.7357 9.12495C7.56648 9.29478 7.4823 9.48185 7.48318 9.68617V17.392ZM7.48318 22.6486V8.87021H8.29335C8.09081 8.87021 7.90493 8.95513 7.7357 9.12495C7.56648 9.29478 7.4823 9.48185 7.48318 9.68617V22.6486ZM7.48318 22.6486C7.48318 22.852 7.56735 23.0391 7.7357 23.2098C7.90405 23.3805 8.08949 23.4654 8.29204 23.4645H7.48318V22.6486Z" fill="#999999"/>
</svg>
