<svg width="73" height="72" viewBox="0 0 73 72" fill="none" xmlns="http://www.w3.org/2000/svg">
<path d="M0.666504 36C0.666504 16.1178 16.7843 0 36.6665 0C56.5488 0 72.6665 16.1178 72.6665 36C72.6665 55.8823 56.5488 72 36.6665 72C16.7843 72 0.666504 55.8823 0.666504 36Z" fill="#0884A2"/>
<path d="M47.417 56.8327C46.8267 56.8327 46.3323 56.6327 45.9337 56.2327C45.535 55.8327 45.3351 55.3383 45.3337 54.7494V52.1452C43.9795 51.6938 42.7642 51.0084 41.6878 50.0889C40.6114 49.1695 39.7607 48.0667 39.1357 46.7806C38.858 46.2598 38.858 45.7389 39.1357 45.2181C39.4135 44.6973 39.8302 44.3153 40.3857 44.0723C40.8719 43.8639 41.358 43.8813 41.8441 44.1244C42.3302 44.3674 42.7121 44.732 42.9899 45.2181C43.5455 46.2251 44.3094 47.0237 45.2816 47.6139C46.2538 48.2042 47.3128 48.4994 48.4587 48.4994H54.7087C55.5767 48.4994 56.3149 48.8035 56.9232 49.4119C57.5316 50.0202 57.8351 50.7577 57.8337 51.6244V54.7494C57.8337 55.3396 57.6337 55.8348 57.2337 56.2348C56.8337 56.6348 56.3392 56.8341 55.7503 56.8327H47.417ZM51.5837 46.416C50.4378 46.416 49.4573 46.0084 48.642 45.1931C47.8267 44.3778 47.4184 43.3966 47.417 42.2494C47.4156 41.1021 47.8239 40.1216 48.642 39.3077C49.46 38.4938 50.4406 38.0855 51.5837 38.0827C52.7267 38.0799 53.708 38.4883 54.5274 39.3077C55.3469 40.1271 55.7545 41.1077 55.7503 42.2494C55.7462 43.391 55.3385 44.3723 54.5274 45.1931C53.7163 46.0139 52.7351 46.4216 51.5837 46.416ZM18.2503 33.916C17.66 33.916 17.1656 33.716 16.767 33.316C16.3684 32.916 16.1684 32.4216 16.167 31.8327V28.7077C16.167 27.8396 16.4712 27.1021 17.0795 26.4952C17.6878 25.8883 18.4253 25.5841 19.292 25.5827H25.542C26.6878 25.5827 27.7469 25.2876 28.7191 24.6973C29.6913 24.107 30.4552 23.3084 31.0107 22.3014C31.2885 21.8153 31.6705 21.4251 32.1566 21.1306C32.6427 20.8362 33.1462 20.7751 33.667 20.9473C34.2573 21.1209 34.6913 21.4508 34.9691 21.9369C35.2469 22.423 35.2816 22.9091 35.0732 23.3952C34.483 24.7841 33.6323 25.982 32.5212 26.9889C31.41 27.9959 30.1253 28.7424 28.667 29.2285V31.8327C28.667 32.423 28.4677 32.9174 28.0691 33.316C27.6705 33.7146 27.1753 33.9146 26.5837 33.916H18.2503ZM22.417 23.4994C21.2712 23.4994 20.2906 23.0917 19.4753 22.2764C18.66 21.4612 18.2517 20.4799 18.2503 19.3327C18.2489 18.1855 18.6573 17.2049 19.4753 16.391C20.2934 15.5771 21.2739 15.1688 22.417 15.166C23.56 15.1633 24.5413 15.5716 25.3607 16.391C26.1802 17.2105 26.5878 18.191 26.5837 19.3327C26.5795 20.4744 26.1719 21.4556 25.3607 22.2764C24.5496 23.0973 23.5684 23.5049 22.417 23.4994ZM32.8337 40.166C32.2434 40.166 31.7489 39.966 31.3503 39.566C30.9517 39.166 30.7517 38.6716 30.7503 38.0827C30.7503 33.4299 32.3649 29.4889 35.5941 26.2598C38.8232 23.0306 42.7642 21.416 47.417 21.416C48.0073 21.416 48.5024 21.6153 48.9024 22.0139C49.3024 22.4126 49.5017 22.9077 49.5003 23.4994C49.4989 24.091 49.2989 24.5862 48.9003 24.9848C48.5017 25.3834 48.0073 25.5827 47.417 25.5827C43.9448 25.5827 40.9934 26.798 38.5628 29.2285C36.1323 31.6591 34.917 34.6105 34.917 38.0827C34.917 38.673 34.717 39.1681 34.317 39.5681C33.917 39.9681 33.4225 40.1674 32.8337 40.166ZM41.167 40.166C40.5767 40.166 40.0823 39.966 39.6837 39.566C39.285 39.166 39.085 38.6716 39.0837 38.0827C39.0837 35.791 39.8996 33.8292 41.5316 32.1973C43.1635 30.5653 45.1253 29.7494 47.417 29.7494C48.0073 29.7494 48.5024 29.9494 48.9024 30.3494C49.3024 30.7494 49.5017 31.2438 49.5003 31.8327C49.4989 32.4216 49.2989 32.9167 48.9003 33.3181C48.5017 33.7195 48.0073 33.9188 47.417 33.916C46.2712 33.916 45.2906 34.3244 44.4753 35.141C43.6601 35.9577 43.2517 36.9383 43.2503 38.0827C43.2503 38.673 43.0503 39.1681 42.6503 39.5681C42.2503 39.9681 41.7559 40.1674 41.167 40.166Z" fill="white"/>
</svg>
