<svg width="36" height="30" viewBox="0 0 36 30" fill="none" xmlns="http://www.w3.org/2000/svg">
<path d="M33.8292 17.4065C33.6337 17.5478 32.8955 18.1518 32.2079 18.6487C28.1763 21.7736 17.6592 26.8884 12.1546 28.4497C11.3186 28.7006 9.20508 29.2315 8.07584 29.2656C6.99379 29.2656 5.96231 29.0903 4.97802 28.7347C3.75102 28.2378 2.76673 27.4559 2.22739 26.5328C1.8802 25.8923 1.34086 23.9754 1.34086 23.9413C0.801519 21.8442 0.504883 18.4368 0.504883 14.6713C0.504883 11.0836 0.801519 7.81499 1.2431 5.68624C1.29366 5.65214 1.833 3.27009 2.4229 2.45415C3.50495 0.963541 5.61848 0.038002 7.88033 0.038002H8.07584C9.54891 0.0745354 12.6467 1.00008 12.6467 1.03418C17.8547 2.59785 28.1291 7.46182 32.2584 10.6939C32.2584 10.6939 33.4214 11.5245 33.927 12.0432C34.7158 12.7886 35.1068 13.7117 35.1068 14.6348C35.1068 15.665 34.6652 16.6247 33.8292 17.4065Z" fill="white"/>
</svg>
