<svg width="40" height="41" viewBox="0 0 40 41" fill="none" xmlns="http://www.w3.org/2000/svg">
<path d="M20 40.5352C8.97143 40.5352 0 31.5637 0 20.5352C0 9.50659 8.97143 0.535156 20 0.535156C31.0286 0.535156 40 9.50659 40 20.5352C40 31.5637 31.0286 40.5352 20 40.5352ZM20 3.3923C10.5429 3.3923 2.85714 11.078 2.85714 20.5352C2.85714 29.9923 10.5429 37.678 20 37.678C29.4571 37.678 37.1429 29.9923 37.1429 20.5352C37.1429 11.078 29.4571 3.3923 20 3.3923Z" fill="white"/>
<path d="M20.0008 30.5352C19.2008 30.5352 18.5723 29.9066 18.5723 29.1066V11.9637C18.5723 11.1637 19.2008 10.5352 20.0008 10.5352C20.8008 10.5352 21.4294 11.1637 21.4294 11.9637V29.1066C21.4294 29.9066 20.8008 30.5352 20.0008 30.5352Z" fill="white"/>
<path d="M28.5714 21.9626H11.4286C10.6286 21.9626 10 21.334 10 20.534C10 19.734 10.6286 19.1055 11.4286 19.1055H28.5714C29.3714 19.1055 30 19.734 30 20.534C30 21.334 29.3714 21.9626 28.5714 21.9626Z" fill="white"/>
</svg>
