<svg width="27" height="26" viewBox="0 0 27 26" fill="none" xmlns="http://www.w3.org/2000/svg">
<g clip-path="url(#clip0_3447_16170)">
<path d="M19.4361 7.77925H7.56387V4H19.4361V7.77925ZM20.1675 12.7754C20.5038 12.7754 20.7856 12.663 21.0128 12.4384C21.2399 12.2137 21.3539 11.936 21.3547 11.6053C21.3555 11.2746 21.2415 10.9965 21.0128 10.7711C20.784 10.5456 20.5023 10.4333 20.1675 10.4341C19.8327 10.4349 19.5505 10.5472 19.321 10.7711C19.0914 10.9949 18.9779 11.273 18.9802 11.6053C18.9826 11.9376 19.0962 12.2153 19.321 12.4384C19.5457 12.6615 19.8279 12.7738 20.1675 12.7754ZM18.2489 20.83V15.5203H8.7511V20.83H18.2489ZM19.4361 22H7.56387V17.3198H3.5V11.0203C3.5 10.3573 3.72834 9.80148 4.18503 9.35296C4.64172 8.90445 5.20486 8.6798 5.87445 8.67902H21.1255C21.7983 8.67902 22.3622 8.90367 22.8173 9.35296C23.2724 9.80226 23.5 10.3576 23.5 11.0191V17.3198H19.4361V22Z" fill="#424242"/>
</g>
<defs>
<clipPath id="clip0_3447_16170">
<rect width="26" height="26" fill="white" transform="translate(0.5)"/>
</clipPath>
</defs>
</svg>
