<svg width="25" height="26" viewBox="0 0 25 26" fill="none" xmlns="http://www.w3.org/2000/svg">
<g clip-path="url(#clip0_1791_5685)">
<path d="M12.1998 0.470712C10.1758 0.465858 6.49161 2.41386 6.37482 4.14571C6.25803 5.87757 6.61076 5.9843 6.77482 6.07905H8.67482C9.10896 5.09875 9.63774 4.52569 11.0248 4.53738C12.4119 4.54907 13.9334 6.28417 13.2915 7.82071C12.6496 9.35725 12.0564 9.89244 11.2665 11.554C10.4766 13.2156 10.2128 15.7255 11.2498 17.8124L13.5915 17.854C13.0119 14.8751 16.0798 12.2211 17.2998 10.3874C18.5198 8.55365 18.6358 7.85473 18.6498 6.33738C18.639 4.8975 18.1177 3.45861 16.9832 2.28738C15.8487 1.11615 14.2238 0.475587 12.1998 0.470712ZM12.3165 19.7957C10.7503 19.7957 9.48313 21.0629 9.48313 22.629C9.48313 24.1952 10.7503 25.4707 12.3165 25.4707C13.8826 25.4707 15.1498 24.1952 15.1498 22.629C15.1498 21.0629 13.8826 19.7957 12.3165 19.7957Z" fill="#878787"/>
</g>
<defs>
<clipPath id="clip0_1791_5685">
<rect width="25" height="25" fill="white" transform="translate(0 0.470703)"/>
</clipPath>
</defs>
</svg>
