<svg width="13" height="25" viewBox="0 0 13 25" fill="none" xmlns="http://www.w3.org/2000/svg">
<path d="M6.19982 9.05359e-06C4.17582 -0.00484511 0.491611 1.94315 0.37482 3.67501C0.258028 5.40686 0.610757 5.51359 0.774819 5.60834H2.67482C3.10896 4.62805 3.63774 4.05499 5.02482 4.06668C6.4119 4.07836 7.9334 5.81347 7.29149 7.35001C6.64957 8.88655 6.05638 9.42174 5.26649 11.0833C4.47661 12.7449 4.21276 15.2548 5.24982 17.3417L7.59149 17.3833C7.0119 14.4044 10.0798 11.7504 11.2998 9.91667C12.5198 8.08295 12.6358 7.38403 12.6498 5.86668C12.639 4.4268 12.1177 2.9879 10.9832 1.81668C9.84865 0.645446 8.22382 0.00488405 6.19982 9.05359e-06ZM6.31646 19.325C4.75034 19.325 3.48313 20.5922 3.48313 22.1583C3.48313 23.7245 4.75034 25 6.31646 25C7.88261 25 9.1498 23.7245 9.1498 22.1583C9.1498 20.5922 7.88261 19.325 6.31646 19.325Z" fill="white"/>
</svg>
