<svg width="25" height="28" viewBox="0 0 25 28" fill="none" xmlns="http://www.w3.org/2000/svg">
<path d="M10.9997 0.675781C11.1775 0.675781 11.3388 0.686892 11.4837 0.709114C11.6286 0.731337 11.7783 0.775781 11.933 0.842448L19.933 3.84245C20.4441 4.04245 20.861 4.36467 21.1837 4.80911C21.5063 5.25356 21.6672 5.75356 21.6663 6.30911V10.4758C21.6663 10.8536 21.5388 11.1704 21.2837 11.4264C21.0286 11.6824 20.7117 11.81 20.333 11.8091C19.9543 11.8082 19.6379 11.6802 19.3837 11.4251C19.1295 11.17 19.0015 10.8536 18.9997 10.4758V6.34245L10.9997 3.34245L2.99967 6.34245V12.6091C2.99967 13.7202 3.16101 14.8313 3.48367 15.9424C3.80634 17.0536 4.25079 18.1091 4.81701 19.1091C5.38323 20.1091 6.07212 21.0091 6.88367 21.8091C7.69523 22.6091 8.57834 23.2647 9.53301 23.7758C9.86634 23.9536 10.1055 24.2091 10.2503 24.5424C10.3952 24.8758 10.4006 25.2091 10.2663 25.5424C10.1108 25.898 9.86101 26.1424 9.51701 26.2758C9.17301 26.4091 8.8339 26.3869 8.49967 26.2091C5.98856 24.9647 3.99967 23.0869 2.53301 20.5758C1.06634 18.0647 0.333008 15.4091 0.333008 12.6091V6.30911C0.333008 5.75356 0.494341 5.25356 0.817008 4.80911C1.13967 4.36467 1.55612 4.04245 2.06634 3.84245L10.0663 0.842448C10.2219 0.775781 10.3775 0.731337 10.533 0.709114C10.6886 0.686892 10.8441 0.675781 10.9997 0.675781ZM17.6663 27.1424C15.8219 27.1424 14.2499 26.4922 12.9503 25.1918C11.6508 23.8913 11.0006 22.3193 10.9997 20.4758C10.9988 18.6322 11.649 17.0602 12.9503 15.7598C14.2517 14.4593 15.8237 13.8091 17.6663 13.8091C19.509 13.8091 21.0815 14.4593 22.3837 15.7598C23.6859 17.0602 24.3357 18.6322 24.333 20.4758C24.3303 22.3193 23.6801 23.8918 22.3823 25.1931C21.0846 26.4944 19.5126 27.1442 17.6663 27.1424ZM17.6663 20.4758C18.2219 20.4758 18.6943 20.2816 19.0837 19.8931C19.473 19.5047 19.6672 19.0322 19.6663 18.4758C19.6655 17.9193 19.4712 17.4473 19.0837 17.0598C18.6961 16.6722 18.2237 16.4776 17.6663 16.4758C17.109 16.474 16.637 16.6687 16.2503 17.0598C15.8637 17.4509 15.669 17.9229 15.6663 18.4758C15.6637 19.0287 15.8583 19.5011 16.2503 19.8931C16.6423 20.2851 17.1143 20.4793 17.6663 20.4758ZM17.6663 24.4758C18.2219 24.4758 18.7441 24.37 19.233 24.1584C19.7219 23.9469 20.1552 23.6416 20.533 23.2424C20.6441 23.1091 20.6886 22.9593 20.6663 22.7931C20.6441 22.6269 20.5441 22.4989 20.3663 22.4091C19.9441 22.2091 19.5055 22.0593 19.0503 21.9598C18.5952 21.8602 18.1339 21.81 17.6663 21.8091C17.1988 21.8082 16.7379 21.8584 16.2837 21.9598C15.8295 22.0611 15.3903 22.2109 14.9663 22.4091C14.7886 22.498 14.6886 22.626 14.6663 22.7931C14.6441 22.9602 14.6886 23.11 14.7997 23.2424C15.1775 23.6424 15.6108 23.9482 16.0997 24.1598C16.5886 24.3713 17.1108 24.4767 17.6663 24.4758Z" fill="black"/>
</svg>
