<svg width="19" height="20" viewBox="0 0 19 20" fill="none" xmlns="http://www.w3.org/2000/svg">
<path d="M1.87305 5.15385H17.873M6.53971 5.15385V4.46154C6.53971 3.54348 6.8909 2.66303 7.51602 2.01386C8.14115 1.3647 8.98899 1 9.87305 1C10.7571 1 11.6049 1.3647 12.2301 2.01386C12.8552 2.66303 13.2064 3.54348 13.2064 4.46154V5.15385M7.87305 9.30908V14.8503M11.873 9.30908V14.8503M3.87305 5.15385H15.873V17.6154C15.873 17.9826 15.7326 18.3348 15.4825 18.5945C15.2325 18.8541 14.8933 19 14.5397 19H5.20638C4.85276 19 4.51362 18.8541 4.26357 18.5945C4.01352 18.3348 3.87305 17.9826 3.87305 17.6154V5.15385Z" stroke="white" stroke-width="2" stroke-linecap="round" stroke-linejoin="round"/>
</svg>
