<svg width="137" height="86" viewBox="0 0 137 86" fill="none" xmlns="http://www.w3.org/2000/svg">
<path fill-rule="evenodd" clip-rule="evenodd" d="M1.39962 68.2899C2.2523 67.326 3.79528 67.1691 4.87389 67.9224C17.7574 76.6123 30.5821 80.3403 42.9699 79.1021C55.032 77.8949 66.5595 71.8549 77.2276 61.2311C79.604 58.907 83.1285 54.2249 86.0549 48.8332C82.4923 45.2528 79.8414 40.8397 78.235 36.4834C75.8646 30.0493 76.106 23.8662 78.1174 20.5951C79.2321 18.7836 80.8232 17.5734 82.7883 16.9252C85.3041 16.0988 88.8888 16.1927 93.348 18.826C99.503 22.4791 101.69 28.4237 100.942 35.3144C100.544 38.9372 99.2745 42.833 97.5492 46.6327C100.358 48.186 103.686 48.8966 107.508 48.0868C115.604 46.4225 120.925 39.6923 124.325 32.0893C127.276 25.511 130.602 15.9069 128.407 8.80958C127.662 6.39753 126.178 4.41769 128.16 2.16048C131.19 -1.32785 134.795 1.53904 135.823 4.85138C138.027 11.9675 136.345 21.0182 134.421 28.0195C130.895 40.9022 122.635 53.0505 109.648 56.0329C103.556 57.4055 98.1053 56.5063 93.4782 54.2283C90.1302 59.7077 86.3466 64.353 83.7763 66.7585C71.0298 78.4533 57.4521 84.7362 43.5942 85.5379C29.751 86.3451 15.5903 81.7501 1.80852 71.4127C0.736118 70.6463 0.546948 69.2538 1.39962 68.2899ZM90.3594 38.4376C90.9381 36.2974 91.2434 34.2238 91.1524 32.294C91.0323 29.8406 90.2029 27.6447 87.877 26.2758C87.4835 26.048 86.9977 25.7228 86.6041 25.495C86.4508 26.3685 86.213 28.0796 86.3938 29.4533C86.8129 32.5178 88.0861 36.0791 90.1058 39.3039C90.2133 39.0032 90.2937 38.7232 90.3594 38.4376Z" fill="#F54547"/>
</svg>
