<svg width="46" height="46" viewBox="0 0 46 46" fill="none" xmlns="http://www.w3.org/2000/svg">
<circle cx="22.5" cy="22.5" r="22.5" transform="matrix(-1 0 0 1 45.6406 0.568359)" fill="#F54547"/>
<path d="M23.8406 26.0597C19.0681 26.0597 15.0406 26.8352 15.0406 29.8272C15.0406 32.8204 19.0945 33.5684 23.8406 33.5684C28.612 33.5684 32.6406 32.7929 32.6406 29.8008C32.6406 26.8077 28.5867 26.0597 23.8406 26.0597ZM23.8406 11.5684C20.6076 11.5684 18.0172 14.1578 18.0172 17.3885C18.0172 20.6193 20.6076 23.2098 23.8406 23.2098C27.0725 23.2098 29.664 20.6193 29.664 17.3885C29.664 14.1578 27.0725 11.5684 23.8406 11.5684Z" fill="white"/>
</svg>
