<svg width="19" height="19" viewBox="0 0 19 19" fill="none" xmlns="http://www.w3.org/2000/svg">
<path d="M8.375 13.4082H12.875V14.5332H8.375V13.4082ZM6.125 13.4082H7.25V14.5332H6.125V13.4082ZM8.375 10.5957H12.875V11.7207H8.375V10.5957ZM6.125 10.5957H7.25V11.7207H6.125V10.5957ZM8.375 7.7832H12.875V8.9082H8.375V7.7832ZM6.125 7.7832H7.25V8.9082H6.125V7.7832Z" fill="#424242"/>
<path d="M14.5625 3.2832H12.875V2.7207C12.875 2.42233 12.7565 2.13619 12.5455 1.92521C12.3345 1.71423 12.0484 1.5957 11.75 1.5957H7.25C6.95163 1.5957 6.66548 1.71423 6.4545 1.92521C6.24353 2.13619 6.125 2.42233 6.125 2.7207V3.2832H4.4375C4.13913 3.2832 3.85298 3.40173 3.642 3.61271C3.43103 3.82369 3.3125 4.10983 3.3125 4.4082V16.2207C3.3125 16.5191 3.43103 16.8052 3.642 17.0162C3.85298 17.2272 4.13913 17.3457 4.4375 17.3457H14.5625C14.8609 17.3457 15.147 17.2272 15.358 17.0162C15.569 16.8052 15.6875 16.5191 15.6875 16.2207V4.4082C15.6875 4.10983 15.569 3.82369 15.358 3.61271C15.147 3.40173 14.8609 3.2832 14.5625 3.2832ZM7.25 2.7207H11.75V4.9707H7.25V2.7207ZM14.5625 16.2207H4.4375V4.4082H6.125V6.0957H12.875V4.4082H14.5625V16.2207Z" fill="#424242"/>
</svg>
