<svg width="24" height="25" viewBox="0 0 24 25" fill="none" xmlns="http://www.w3.org/2000/svg">
<path d="M20.9961 21.0352L14.9961 15.0352M2.99609 10.0352C2.99609 10.9544 3.17715 11.8647 3.52894 12.7139C3.88072 13.5632 4.39634 14.3349 5.04635 14.9849C5.69636 15.6349 6.46803 16.1505 7.31731 16.5023C8.16659 16.8541 9.07684 17.0352 9.99609 17.0352C10.9153 17.0352 11.8256 16.8541 12.6749 16.5023C13.5242 16.1505 14.2958 15.6349 14.9458 14.9849C15.5959 14.3349 16.1115 13.5632 16.4633 12.7139C16.815 11.8647 16.9961 10.9544 16.9961 10.0352C16.9961 9.1159 16.815 8.20565 16.4633 7.35637C16.1115 6.50709 15.5959 5.73542 14.9458 5.08541C14.2958 4.4354 13.5242 3.91978 12.6749 3.568C11.8256 3.21622 10.9153 3.03516 9.99609 3.03516C9.07684 3.03516 8.16659 3.21622 7.31731 3.568C6.46803 3.91978 5.69636 4.4354 5.04635 5.08541C4.39634 5.73542 3.88072 6.50709 3.52894 7.35637C3.17715 8.20565 2.99609 9.1159 2.99609 10.0352Z" stroke="#CCCCCC" stroke-width="2" stroke-linecap="round" stroke-linejoin="round"/>
</svg>
