<svg width="46" height="46" viewBox="0 0 46 46" fill="none" xmlns="http://www.w3.org/2000/svg">
<g clip-path="url(#clip0_2376_4684)">
<path d="M45.348 2.62977C45.2742 2.79031 45.1726 2.93656 45.048 3.06177L16.686 31.4178L24.696 44.7708C24.8379 45.0082 25.0427 45.2019 25.2878 45.3302C25.5328 45.4585 25.8086 45.5166 26.0846 45.498C26.3607 45.4793 26.6261 45.3847 26.8517 45.2246C27.0773 45.0645 27.2543 44.8452 27.363 44.5908L45.348 2.62977ZM14.568 29.2998L1.21498 21.2838C0.977504 21.1419 0.783892 20.9371 0.655554 20.692C0.527216 20.4469 0.469152 20.1711 0.48778 19.8951C0.506409 19.6191 0.601005 19.3536 0.76111 19.128C0.921214 18.9024 1.14059 18.7255 1.39498 18.6168L43.365 0.634766C43.2021 0.70883 43.0537 0.811447 42.927 0.937766L14.568 29.2998Z" fill="white"/>
</g>
<defs>
<clipPath id="clip0_2376_4684">
<rect width="45" height="45" fill="white" transform="translate(0.486328 0.5)"/>
</clipPath>
</defs>
</svg>
