<svg width="30" height="29" viewBox="0 0 30 29" fill="none" xmlns="http://www.w3.org/2000/svg">
<path d="M15 20.4707C19.4184 20.4707 23 15.4707 23 15.4707C23 15.4707 19.4184 10.4707 15 10.4707C10.5816 10.4707 7 15.4707 7 15.4707C7 15.4707 10.5816 20.4707 15 20.4707Z" stroke="#424242" stroke-width="2" stroke-linejoin="round"/>
<path d="M15 17.5534C15.5304 17.5534 16.0391 17.3339 16.4142 16.9432C16.7893 16.5525 17 16.0226 17 15.4701C17 14.9175 16.7893 14.3876 16.4142 13.9969C16.0391 13.6062 15.5304 13.3867 15 13.3867C14.4696 13.3867 13.9609 13.6062 13.5858 13.9969C13.2107 14.3876 13 14.9175 13 15.4701C13 16.0226 13.2107 16.5525 13.5858 16.9432C13.9609 17.3339 14.4696 17.5534 15 17.5534Z" stroke="#424242" stroke-width="2" stroke-linejoin="round"/>
</svg>
