<svg width="12" height="25" viewBox="0 0 12 25" fill="none" xmlns="http://www.w3.org/2000/svg">
<path d="M6.31404 0.488091C5.88453 -0.162697 5.18701 -0.162697 4.7575 0.488091L0.359336 7.15215C0.043218 7.63113 -0.0495559 8.3444 0.122247 8.96915C0.294051 9.59391 0.692635 10 1.13932 10H9.93565C10.3789 10 10.7809 9.59391 10.9527 8.96915C11.1245 8.3444 11.0283 7.63113 10.7156 7.15215L6.31748 0.488091H6.31404Z" fill="#CCCCCC"/>
<path d="M4.76018 24.5119C5.18969 25.1627 5.88721 25.1627 6.31672 24.5119L10.7149 17.8478C11.031 17.3689 11.1238 16.6556 10.952 16.0308C10.7802 15.4061 10.3816 15 9.9349 15L1.13856 15C0.695311 15 0.293291 15.4061 0.121488 16.0308C-0.0503159 16.6556 0.0458937 17.3689 0.358576 17.8478L4.75674 24.5119H4.76018Z" fill="#CCCCCC"/>
</svg>
