<svg width="25" height="24" viewBox="0 0 25 24" fill="none" xmlns="http://www.w3.org/2000/svg">
<path fill-rule="evenodd" clip-rule="evenodd" d="M23.275 8C23.4245 8.65616 23.5 9.32702 23.5 10H14.5V1C16.5394 0.999992 18.5183 1.6926 20.1125 2.96437C21.7068 4.23613 22.8218 6.01163 23.275 8ZM21.208 8C20.8759 6.88605 20.2715 5.87236 19.4496 5.05041C18.6276 4.22846 17.6139 3.62414 16.5 3.292V8H21.208Z" fill="#424242"/>
<path fill-rule="evenodd" clip-rule="evenodd" d="M1.5 14C1.49999 12.6482 1.80452 11.3137 2.39097 10.0957C2.97742 8.87767 3.83072 7.80741 4.8875 6.96439C5.94428 6.12136 7.1774 5.52723 8.49529 5.22611C9.81317 4.92499 11.182 4.92463 12.5 5.22504V12H19.275C19.5565 13.2352 19.5741 14.5158 19.3266 15.7582C19.0791 17.0006 18.5721 18.1767 17.8388 19.2097C17.1055 20.2426 16.1624 21.1092 15.0712 21.7526C13.9799 22.396 12.7652 22.8018 11.5063 22.9434C10.2475 23.0851 8.97289 22.9594 7.76596 22.5746C6.55903 22.1897 5.44694 21.5544 4.50242 20.7102C3.55791 19.8661 2.80224 18.832 2.28486 17.6757C1.76747 16.5193 1.50002 15.2668 1.5 14ZM17.304 14H10.5V7.19604C9.1543 7.19604 7.83881 7.59508 6.7199 8.34272C5.60099 9.09035 4.7289 10.153 4.21392 11.3963C3.69895 12.6395 3.5642 14.0076 3.82674 15.3274C4.08927 16.6473 4.73729 17.8596 5.68885 18.8112C6.6404 19.7627 7.85276 20.4108 9.17261 20.6733C10.4925 20.9358 11.8605 20.8011 13.1038 20.2861C14.347 19.7711 15.4097 18.899 16.1573 17.7801C16.905 16.6612 17.304 15.3457 17.304 14Z" fill="#424242"/>
</svg>
