<svg width="245" height="90" viewBox="0 0 245 90" fill="none" xmlns="http://www.w3.org/2000/svg">
<g filter="url(#filter0_d_2155_4788)">
<rect x="3" width="239" height="83" rx="7" fill="#F4F4F4" shape-rendering="crispEdges"/>
<rect x="3.5" y="0.5" width="238" height="82" rx="6.5" stroke="#CCCCCC" shape-rendering="crispEdges"/>
<g clip-path="url(#clip0_2155_4788)">
<path d="M33.95 16.5H62.05C68.0977 16.5 73 21.4023 73 27.45V55.55C73 61.5977 68.0977 66.5 62.05 66.5H33.95C27.9023 66.5 23 61.5977 23 55.55V27.45C23 21.4023 27.9023 16.5 33.95 16.5Z" fill="url(#paint0_linear_2155_4788)"/>
<path d="M39.0239 52.7906L39.0286 52.7922L37.319 55.7531C36.695 56.834 35.313 57.2043 34.2321 56.5802C33.1513 55.9562 32.781 54.5742 33.405 53.4933L34.6644 51.3121L34.7853 51.1027C35.0011 50.7926 35.5337 50.257 36.5991 50.3578C36.5991 50.3578 39.1063 50.6299 39.2878 51.933C39.2878 51.933 39.3124 52.3617 39.0239 52.7906ZM63.2706 45.2281H57.9397C57.5767 45.2037 57.4183 45.074 57.3558 44.9986L57.3519 44.9918L51.6454 35.1078L51.638 35.1127L51.2958 34.622C50.7349 33.7642 49.8442 35.958 49.8442 35.958C48.7808 38.4025 49.9952 41.1816 50.4185 42.0217L58.3446 55.7502C58.9685 56.8308 60.3505 57.2013 61.4315 56.5771C62.5122 55.9531 62.8827 54.5711 62.2585 53.4902L60.2767 50.0574C60.2382 49.9742 60.1714 49.7484 60.5778 49.7474H63.2706C64.5187 49.7474 65.5304 48.7357 65.5304 47.4877C65.5304 46.2396 64.5187 45.2281 63.2706 45.2281ZM52.9163 48.2998C52.9163 48.2998 53.2009 49.7472 52.0999 49.7472H32.3931C31.145 49.7472 30.1333 48.7355 30.1333 47.4875C30.1333 46.2394 31.145 45.2277 32.3931 45.2277H37.4595C38.2774 45.1804 38.4712 44.7082 38.4712 44.7082L38.4759 44.7105L45.0892 33.2558L45.0872 33.2554C45.2077 33.0342 45.1073 32.825 45.0899 32.792L42.9058 29.009C42.2817 27.9283 42.6521 26.5461 43.7329 25.9222C44.8138 25.2984 46.1958 25.6683 46.8198 26.7492L47.8327 28.5037L48.8438 26.7523C49.4679 25.6717 50.8499 25.3011 51.9308 25.9254C53.0116 26.5496 53.3819 27.9312 52.7579 29.0121L43.5552 44.9515C43.5149 45.0486 43.5026 45.2009 43.802 45.2277H49.3028L49.304 45.2814C49.304 45.2814 52.4833 45.3308 52.9163 48.2998Z" fill="white"/>
</g>
<path d="M135.641 33V31.26H137.231V33H135.641ZM127.961 36.99C127.141 36.99 126.401 36.835 125.741 36.525C125.081 36.225 124.561 35.805 124.181 35.265C123.801 34.735 123.611 34.13 123.611 33.45C123.611 33.24 123.626 32.965 123.656 32.625C123.696 32.285 123.741 31.91 123.791 31.5C123.851 31.09 123.911 30.665 123.971 30.225C124.041 29.785 124.106 29.37 124.166 28.98L126.146 29.265C126.046 29.925 125.956 30.53 125.876 31.08C125.796 31.63 125.731 32.1 125.681 32.49C125.641 32.88 125.621 33.18 125.621 33.39C125.621 33.79 125.711 34.125 125.891 34.395C126.081 34.675 126.351 34.885 126.701 35.025C127.051 35.175 127.471 35.25 127.961 35.25H131.471C132.201 35.25 132.746 35.1 133.106 34.8C133.466 34.51 133.646 34.09 133.646 33.54V26.775L134.141 27.21H132.251C131.811 27.21 131.466 27.265 131.216 27.375C130.966 27.485 130.791 27.69 130.691 27.99C130.591 28.28 130.541 28.695 130.541 29.235C130.541 29.825 130.591 30.265 130.691 30.555C130.791 30.835 130.966 31.025 131.216 31.125C131.466 31.215 131.811 31.26 132.251 31.26H133.646V33H132.251C131.401 33 130.701 32.87 130.151 32.61C129.601 32.34 129.191 31.925 128.921 31.365C128.661 30.805 128.531 30.095 128.531 29.235C128.531 28.415 128.661 27.725 128.921 27.165C129.191 26.605 129.601 26.185 130.151 25.905C130.701 25.615 131.401 25.47 132.251 25.47H135.641V33.54C135.641 34.25 135.456 34.86 135.086 35.37C134.726 35.89 134.231 36.29 133.601 36.57C132.981 36.85 132.271 36.99 131.471 36.99H127.961ZM137.231 33V31.26C137.351 31.26 137.431 31.34 137.471 31.5C137.511 31.65 137.531 31.86 137.531 32.13C137.531 32.39 137.511 32.6 137.471 32.76C137.431 32.92 137.351 33 137.231 33ZM130.331 24.57V22.86H132.341V24.57H130.331ZM132.386 24.57V22.86H134.396V24.57H132.386ZM141.614 33V31.26H143.489V33H141.614ZM143.489 33V31.26C143.609 31.26 143.689 31.34 143.729 31.5C143.769 31.65 143.789 31.86 143.789 32.13C143.789 32.39 143.769 32.6 143.729 32.76C143.689 32.92 143.609 33 143.489 33ZM137.234 33V31.26H140.789L139.619 32.235V25.47H141.614V33H137.234ZM137.234 33C137.114 33 137.034 32.92 136.994 32.76C136.954 32.6 136.934 32.39 136.934 32.13C136.934 31.86 136.954 31.65 136.994 31.5C137.034 31.34 137.114 31.26 137.234 31.26V33ZM137.834 36.12V34.41H139.844V36.12H137.834ZM139.889 36.12V34.41H141.899V36.12H139.889ZM147.074 33V31.26H148.649V33H147.074ZM143.489 33V31.26H146.234L145.064 32.235V25.47H147.074V33H143.489ZM143.489 33C143.369 33 143.289 32.92 143.249 32.76C143.209 32.6 143.189 32.39 143.189 32.13C143.189 31.86 143.209 31.65 143.249 31.5C143.289 31.34 143.369 31.26 143.489 31.26V33ZM148.649 33V31.26C148.769 31.26 148.849 31.34 148.889 31.5C148.929 31.65 148.949 31.86 148.949 32.13C148.949 32.39 148.929 32.6 148.889 32.76C148.849 32.92 148.769 33 148.649 33ZM145.064 36.195V34.485H147.074V36.195H145.064ZM159.101 33V31.26H160.676V33H159.101ZM148.646 33V31.26H159.116L157.421 32.73V29.58C157.421 29.01 157.346 28.555 157.196 28.215C157.046 27.865 156.826 27.61 156.536 27.45C156.256 27.29 155.916 27.21 155.516 27.21C155.086 27.21 154.681 27.295 154.301 27.465C153.921 27.635 153.561 27.855 153.221 28.125C152.891 28.395 152.586 28.685 152.306 28.995C152.026 29.305 151.776 29.605 151.556 29.895C151.336 30.175 151.146 30.415 150.986 30.615L150.536 29.16C150.946 28.64 151.326 28.155 151.676 27.705C152.036 27.255 152.411 26.865 152.801 26.535C153.191 26.195 153.621 25.935 154.091 25.755C154.561 25.565 155.106 25.47 155.726 25.47C156.396 25.47 156.961 25.585 157.421 25.815C157.891 26.035 158.276 26.34 158.576 26.73C158.876 27.12 159.091 27.56 159.221 28.05C159.351 28.54 159.416 29.05 159.416 29.58V33H148.646ZM149.681 31.26V22.395H151.676V31.26H149.681ZM148.646 33C148.526 33 148.446 32.92 148.406 32.76C148.366 32.6 148.346 32.39 148.346 32.13C148.346 31.86 148.366 31.65 148.406 31.5C148.446 31.34 148.526 31.26 148.646 31.26V33ZM160.676 33V31.26C160.796 31.26 160.876 31.34 160.916 31.5C160.956 31.65 160.976 31.86 160.976 32.13C160.976 32.39 160.956 32.6 160.916 32.76C160.876 32.92 160.796 33 160.676 33ZM160.672 33V31.26H164.227L163.057 32.235V25.47H165.052V33H160.672ZM160.672 33C160.552 33 160.472 32.92 160.432 32.76C160.392 32.6 160.372 32.39 160.372 32.13C160.372 31.86 160.392 31.65 160.432 31.5C160.472 31.34 160.552 31.26 160.672 31.26V33ZM161.272 24.57V22.86H163.282V24.57H161.272ZM163.327 24.57V22.86H165.337V24.57H163.327ZM178.867 33V31.26H180.442V33H178.867ZM174.547 36.72C173.677 36.72 172.897 36.56 172.207 36.24C171.527 35.93 170.992 35.495 170.602 34.935C170.212 34.375 170.017 33.74 170.017 33.03C170.017 32.83 170.032 32.565 170.062 32.235C170.092 31.905 170.132 31.535 170.182 31.125C170.242 30.715 170.302 30.3 170.362 29.88C170.432 29.45 170.497 29.035 170.557 28.635L172.537 28.905C172.427 29.575 172.332 30.19 172.252 30.75C172.182 31.3 172.127 31.77 172.087 32.16C172.047 32.55 172.027 32.835 172.027 33.015C172.027 33.415 172.127 33.76 172.327 34.05C172.527 34.34 172.812 34.565 173.182 34.725C173.562 34.895 174.017 34.98 174.547 34.98C175.097 34.98 175.542 34.9 175.882 34.74C176.222 34.58 176.467 34.36 176.617 34.08C176.777 33.8 176.857 33.485 176.857 33.135V22.395H178.867V33.135C178.867 33.855 178.677 34.485 178.297 35.025C177.927 35.565 177.417 35.98 176.767 36.27C176.117 36.57 175.377 36.72 174.547 36.72ZM180.442 33V31.26C180.562 31.26 180.642 31.34 180.682 31.5C180.722 31.65 180.742 31.86 180.742 32.13C180.742 32.39 180.722 32.6 180.682 32.76C180.642 32.92 180.562 33 180.442 33ZM184.827 33V31.26H186.702V33H184.827ZM186.702 33V31.26C186.822 31.26 186.902 31.34 186.942 31.5C186.982 31.65 187.002 31.86 187.002 32.13C187.002 32.39 186.982 32.6 186.942 32.76C186.902 32.92 186.822 33 186.702 33ZM180.447 33V31.26H184.002L182.832 32.235V25.47H184.827V33H180.447ZM180.447 33C180.327 33 180.247 32.92 180.207 32.76C180.167 32.6 180.147 32.39 180.147 32.13C180.147 31.86 180.167 31.65 180.207 31.5C180.247 31.34 180.327 31.26 180.447 31.26V33ZM181.047 36.12V34.41H183.057V36.12H181.047ZM183.102 36.12V34.41H185.112V36.12H183.102ZM195.567 33V31.26H197.157V33H195.567ZM186.702 33V31.26H194.487L193.572 32.04V29.28C193.572 28.74 193.512 28.32 193.392 28.02C193.272 27.71 193.062 27.495 192.762 27.375C192.472 27.245 192.067 27.18 191.547 27.18C191.137 27.18 190.732 27.21 190.332 27.27C189.942 27.32 189.637 27.39 189.417 27.48L190.662 26.31C190.602 26.54 190.542 26.83 190.482 27.18C190.432 27.53 190.387 27.905 190.347 28.305C190.307 28.695 190.287 29.08 190.287 29.46C190.287 29.81 190.302 30.175 190.332 30.555C190.372 30.935 190.412 31.27 190.452 31.56C190.502 31.85 190.542 32.05 190.572 32.16L188.667 32.685C188.627 32.545 188.577 32.315 188.517 31.995C188.457 31.675 188.402 31.295 188.352 30.855C188.312 30.415 188.292 29.95 188.292 29.46C188.292 28.96 188.317 28.48 188.367 28.02C188.417 27.55 188.472 27.13 188.532 26.76C188.602 26.38 188.667 26.075 188.727 25.845C188.967 25.755 189.342 25.665 189.852 25.575C190.362 25.485 190.927 25.44 191.547 25.44C192.447 25.44 193.192 25.565 193.782 25.815C194.382 26.065 194.827 26.47 195.117 27.03C195.417 27.59 195.567 28.345 195.567 29.295V33H186.702ZM186.702 33C186.582 33 186.502 32.92 186.462 32.76C186.422 32.6 186.402 32.39 186.402 32.13C186.402 31.86 186.422 31.65 186.462 31.5C186.502 31.34 186.582 31.26 186.702 31.26V33ZM197.157 33V31.26C197.277 31.26 197.357 31.34 197.397 31.5C197.437 31.65 197.457 31.86 197.457 32.13C197.457 32.39 197.437 32.6 197.397 32.76C197.357 32.92 197.277 33 197.157 33ZM204.931 33V31.26H206.521V33H204.931ZM197.161 33V31.26H203.611L202.936 31.815V29.04C202.936 28.44 202.746 27.985 202.366 27.675C201.996 27.365 201.406 27.21 200.596 27.21C200.366 27.21 200.051 27.23 199.651 27.27C199.251 27.3 198.816 27.35 198.346 27.42L198.151 25.83C198.581 25.73 199.016 25.645 199.456 25.575C199.906 25.505 200.346 25.47 200.776 25.47C201.596 25.47 202.316 25.615 202.936 25.905C203.556 26.185 204.041 26.59 204.391 27.12C204.751 27.65 204.931 28.29 204.931 29.04V33H197.161ZM197.161 33C197.041 33 196.961 32.92 196.921 32.76C196.881 32.6 196.861 32.39 196.861 32.13C196.861 31.86 196.881 31.65 196.921 31.5C196.961 31.34 197.041 31.26 197.161 31.26V33ZM206.521 33V31.26C206.631 31.26 206.706 31.34 206.746 31.5C206.796 31.65 206.821 31.86 206.821 32.13C206.821 32.39 206.796 32.6 206.746 32.76C206.706 32.92 206.631 33 206.521 33ZM206.521 33V31.26H210.076L208.906 32.235V25.47H210.901V33H206.521ZM206.521 33C206.401 33 206.321 32.92 206.281 32.76C206.241 32.6 206.221 32.39 206.221 32.13C206.221 31.86 206.241 31.65 206.281 31.5C206.321 31.34 206.401 31.26 206.521 31.26V33ZM207.121 24.57V22.86H209.131V24.57H207.121ZM209.176 24.57V22.86H211.186V24.57H209.176Z" fill="black"/>
<path d="M156.418 60V58.26H158.353V60H156.418ZM153.508 63.72C153.378 63.72 153.238 63.715 153.088 63.705C152.938 63.695 152.782 63.68 152.622 63.66L152.697 61.95C152.857 61.96 153.008 61.97 153.148 61.98C153.298 61.99 153.408 61.995 153.478 61.995C153.868 61.995 154.178 61.84 154.408 61.53C154.648 61.22 154.768 60.785 154.768 60.225V52.47H156.778V60.225C156.778 60.905 156.638 61.51 156.358 62.04C156.088 62.57 155.708 62.98 155.218 63.27C154.728 63.57 154.158 63.72 153.508 63.72ZM158.353 60V58.26C158.473 58.26 158.553 58.34 158.593 58.5C158.633 58.65 158.653 58.86 158.653 59.13C158.653 59.39 158.633 59.6 158.593 59.76C158.553 59.92 158.473 60 158.353 60ZM158.357 60V58.26H166.142L165.227 59.04V56.28C165.227 55.74 165.167 55.32 165.047 55.02C164.927 54.71 164.717 54.495 164.417 54.375C164.127 54.245 163.722 54.18 163.202 54.18C162.792 54.18 162.387 54.21 161.987 54.27C161.597 54.32 161.292 54.39 161.072 54.48L162.317 53.31C162.257 53.54 162.197 53.83 162.137 54.18C162.087 54.53 162.042 54.905 162.002 55.305C161.962 55.695 161.942 56.08 161.942 56.46C161.942 56.81 161.957 57.175 161.987 57.555C162.027 57.935 162.067 58.27 162.107 58.56C162.157 58.85 162.197 59.05 162.227 59.16L160.322 59.685C160.282 59.545 160.232 59.315 160.172 58.995C160.112 58.675 160.057 58.295 160.007 57.855C159.967 57.415 159.947 56.95 159.947 56.46C159.947 55.96 159.972 55.48 160.022 55.02C160.072 54.55 160.127 54.13 160.187 53.76C160.257 53.38 160.322 53.075 160.382 52.845C160.622 52.755 160.997 52.665 161.507 52.575C162.017 52.485 162.582 52.44 163.202 52.44C164.102 52.44 164.847 52.565 165.437 52.815C166.037 53.065 166.482 53.47 166.772 54.03C167.072 54.59 167.222 55.345 167.222 56.295V60H158.357ZM158.357 60C158.237 60 158.157 59.92 158.117 59.76C158.077 59.6 158.057 59.39 158.057 59.13C158.057 58.86 158.077 58.65 158.117 58.5C158.157 58.34 158.237 58.26 158.357 58.26V60ZM168.874 60V58.26H176.494L175.534 59.25V49.395H177.544V60H168.874ZM170.959 58.26V51.495H172.954V58.26H170.959ZM171.064 50.25C170.874 50.02 170.729 49.8 170.629 49.59C170.529 49.38 170.479 49.155 170.479 48.915C170.479 48.575 170.569 48.27 170.749 48C170.929 47.72 171.164 47.505 171.454 47.355C171.744 47.195 172.064 47.115 172.414 47.115C172.604 47.115 172.799 47.14 172.999 47.19C173.199 47.24 173.369 47.315 173.509 47.415L172.999 48.33C172.909 48.28 172.819 48.25 172.729 48.24C172.649 48.22 172.564 48.21 172.474 48.21C172.234 48.21 172.049 48.275 171.919 48.405C171.789 48.525 171.724 48.69 171.724 48.9C171.724 49.02 171.749 49.135 171.799 49.245C171.849 49.355 171.924 49.475 172.024 49.605L171.064 50.25ZM170.149 50.37V49.275H173.779V50.37H170.149ZM179.996 60V49.395H181.991V60H179.996ZM199.484 60V49.395H201.494V60H199.484ZM197.789 60V58.26H199.484V60H197.789ZM197.789 60C197.669 60 197.589 59.92 197.549 59.76C197.509 59.6 197.489 59.39 197.489 59.13C197.489 58.86 197.509 58.65 197.549 58.5C197.589 58.34 197.669 58.26 197.789 58.26V60ZM191.789 63.72C191.139 63.72 190.534 63.625 189.974 63.435C189.424 63.255 188.944 63 188.534 62.67C188.124 62.35 187.799 61.965 187.559 61.515C187.329 61.075 187.214 60.595 187.214 60.075C187.214 59.885 187.229 59.64 187.259 59.34C187.289 59.04 187.329 58.695 187.379 58.305C187.439 57.915 187.504 57.5 187.574 57.06L189.554 57.33C189.454 57.96 189.374 58.52 189.314 59.01C189.254 59.5 189.224 59.845 189.224 60.045C189.224 60.425 189.329 60.76 189.539 61.05C189.749 61.34 190.044 61.565 190.424 61.725C190.814 61.895 191.269 61.98 191.789 61.98H196.034C196.684 61.98 197.169 61.815 197.489 61.485C197.809 61.155 197.969 60.675 197.969 60.045V59.475H199.964V60.045C199.964 60.765 199.804 61.4 199.484 61.95C199.164 62.5 198.709 62.93 198.119 63.24C197.539 63.56 196.844 63.72 196.034 63.72H191.789ZM197.309 60C196.849 60 196.404 59.95 195.974 59.85C195.554 59.75 195.154 59.57 194.774 59.31L195.914 57.87C196.074 57.98 196.214 58.065 196.334 58.125C196.464 58.175 196.604 58.21 196.754 58.23C196.914 58.25 197.099 58.26 197.309 58.26H200.624V60H197.309ZM200.624 60V58.26C200.734 58.26 200.809 58.34 200.849 58.5C200.899 58.65 200.924 58.86 200.924 59.13C200.924 59.39 200.899 59.6 200.849 59.76C200.809 59.92 200.734 60 200.624 60ZM191.534 66.87V65.16H193.544V66.87H191.534ZM193.589 66.87V65.16H195.599V66.87H193.589ZM206.915 63.72C206.545 63.72 206.155 63.69 205.745 63.63C205.345 63.58 204.915 63.51 204.455 63.42L204.755 61.815C205.255 61.875 205.68 61.92 206.03 61.95C206.38 61.98 206.675 61.995 206.915 61.995C207.635 61.995 208.155 61.865 208.475 61.605C208.795 61.345 208.955 60.955 208.955 60.435V53.85L209.45 54.21H207.575C207.165 54.21 206.835 54.26 206.585 54.36C206.335 54.45 206.15 54.645 206.03 54.945C205.92 55.235 205.865 55.68 205.865 56.28C205.865 56.85 205.915 57.28 206.015 57.57C206.125 57.85 206.305 58.035 206.555 58.125C206.805 58.215 207.145 58.26 207.575 58.26H208.955V60H207.575C206.725 60 206.025 59.865 205.475 59.595C204.925 59.325 204.515 58.915 204.245 58.365C203.985 57.815 203.855 57.12 203.855 56.28C203.855 55.44 203.985 54.74 204.245 54.18C204.515 53.61 204.925 53.185 205.475 52.905C206.025 52.615 206.725 52.47 207.575 52.47H210.965V60.435C210.965 61.115 210.795 61.7 210.455 62.19C210.125 62.69 209.655 63.07 209.045 63.33C208.445 63.59 207.735 63.72 206.915 63.72Z" fill="black"/>
</g>
<defs>
<filter id="filter0_d_2155_4788" x="0" y="0" width="245" height="90" filterUnits="userSpaceOnUse" color-interpolation-filters="sRGB">
<feFlood flood-opacity="0" result="BackgroundImageFix"/>
<feColorMatrix in="SourceAlpha" type="matrix" values="0 0 0 0 0 0 0 0 0 0 0 0 0 0 0 0 0 0 127 0" result="hardAlpha"/>
<feOffset dy="4"/>
<feGaussianBlur stdDeviation="1.5"/>
<feComposite in2="hardAlpha" operator="out"/>
<feColorMatrix type="matrix" values="0 0 0 0 0 0 0 0 0 0 0 0 0 0 0 0 0 0 0.2 0"/>
<feBlend mode="normal" in2="BackgroundImageFix" result="effect1_dropShadow_2155_4788"/>
<feBlend mode="normal" in="SourceGraphic" in2="effect1_dropShadow_2155_4788" result="shape"/>
</filter>
<linearGradient id="paint0_linear_2155_4788" x1="2523" y1="16.5" x2="2523" y2="5016.5" gradientUnits="userSpaceOnUse">
<stop stop-color="#17C9FB"/>
<stop offset="1" stop-color="#1A74E8"/>
</linearGradient>
<clipPath id="clip0_2155_4788">
<rect width="50" height="50" fill="white" transform="translate(23 16.5)"/>
</clipPath>
</defs>
</svg>
