<svg width="241" height="90" viewBox="0 0 241 90" fill="none" xmlns="http://www.w3.org/2000/svg">
<g filter="url(#filter0_d_2155_4776)">
<rect x="3" width="235" height="83" rx="7" fill="#F4F4F4" shape-rendering="crispEdges"/>
<rect x="3.5" y="0.5" width="234" height="82" rx="6.5" stroke="#CCCCCC" shape-rendering="crispEdges"/>
<g clip-path="url(#clip0_2155_4776)">
<path d="M44.4821 40.3359L23.1904 62.2697C23.4295 63.1028 23.8592 63.8712 24.4466 64.5161C25.034 65.1609 25.7636 65.6652 26.5796 65.9903C27.3956 66.3154 28.2764 66.4528 29.1546 66.392C30.0329 66.3311 30.8854 66.0736 31.6469 65.6391L55.6041 52.2232L44.4821 40.3359Z" fill="#EA4335"/>
<path d="M66.012 36.6081L55.6521 30.7734L43.9907 40.8353L55.6995 52.1922L65.9805 46.4201C66.8913 45.9512 67.6542 45.2461 68.1864 44.3813C68.7187 43.5164 69.0001 42.5248 69.0001 41.514C69.0001 40.5031 68.7187 39.5115 68.1864 38.6467C67.6542 37.7819 66.8913 37.0768 65.9805 36.6079L66.012 36.6081Z" fill="#FBBC04"/>
<path d="M23.1905 20.6504C23.0619 21.1182 22.9978 21.6009 23.0001 22.0855V60.8359C23.0013 61.3204 23.0653 61.8027 23.1905 62.2712L45.2121 40.8992L23.1905 20.6504Z" fill="#4285F4"/>
<path d="M44.6408 41.4601L55.6517 30.774L31.7263 17.2956C30.8261 16.7773 29.8023 16.5027 28.7591 16.5C26.1704 16.4951 23.8944 18.1845 23.1904 20.6341L44.6408 41.4601Z" fill="#34A853"/>
</g>
<path d="M131.641 33V31.26H133.231V33H131.641ZM123.961 36.99C123.141 36.99 122.401 36.835 121.741 36.525C121.081 36.225 120.561 35.805 120.181 35.265C119.801 34.735 119.611 34.13 119.611 33.45C119.611 33.24 119.626 32.965 119.656 32.625C119.696 32.285 119.741 31.91 119.791 31.5C119.851 31.09 119.911 30.665 119.971 30.225C120.041 29.785 120.106 29.37 120.166 28.98L122.146 29.265C122.046 29.925 121.956 30.53 121.876 31.08C121.796 31.63 121.731 32.1 121.681 32.49C121.641 32.88 121.621 33.18 121.621 33.39C121.621 33.79 121.711 34.125 121.891 34.395C122.081 34.675 122.351 34.885 122.701 35.025C123.051 35.175 123.471 35.25 123.961 35.25H127.471C128.201 35.25 128.746 35.1 129.106 34.8C129.466 34.51 129.646 34.09 129.646 33.54V26.775L130.141 27.21H128.251C127.811 27.21 127.466 27.265 127.216 27.375C126.966 27.485 126.791 27.69 126.691 27.99C126.591 28.28 126.541 28.695 126.541 29.235C126.541 29.825 126.591 30.265 126.691 30.555C126.791 30.835 126.966 31.025 127.216 31.125C127.466 31.215 127.811 31.26 128.251 31.26H129.646V33H128.251C127.401 33 126.701 32.87 126.151 32.61C125.601 32.34 125.191 31.925 124.921 31.365C124.661 30.805 124.531 30.095 124.531 29.235C124.531 28.415 124.661 27.725 124.921 27.165C125.191 26.605 125.601 26.185 126.151 25.905C126.701 25.615 127.401 25.47 128.251 25.47H131.641V33.54C131.641 34.25 131.456 34.86 131.086 35.37C130.726 35.89 130.231 36.29 129.601 36.57C128.981 36.85 128.271 36.99 127.471 36.99H123.961ZM133.231 33V31.26C133.351 31.26 133.431 31.34 133.471 31.5C133.511 31.65 133.531 31.86 133.531 32.13C133.531 32.39 133.511 32.6 133.471 32.76C133.431 32.92 133.351 33 133.231 33ZM126.331 24.57V22.86H128.341V24.57H126.331ZM128.386 24.57V22.86H130.396V24.57H128.386ZM137.614 33V31.26H139.489V33H137.614ZM139.489 33V31.26C139.609 31.26 139.689 31.34 139.729 31.5C139.769 31.65 139.789 31.86 139.789 32.13C139.789 32.39 139.769 32.6 139.729 32.76C139.689 32.92 139.609 33 139.489 33ZM133.234 33V31.26H136.789L135.619 32.235V25.47H137.614V33H133.234ZM133.234 33C133.114 33 133.034 32.92 132.994 32.76C132.954 32.6 132.934 32.39 132.934 32.13C132.934 31.86 132.954 31.65 132.994 31.5C133.034 31.34 133.114 31.26 133.234 31.26V33ZM133.834 36.12V34.41H135.844V36.12H133.834ZM135.889 36.12V34.41H137.899V36.12H135.889ZM143.074 33V31.26H144.649V33H143.074ZM139.489 33V31.26H142.234L141.064 32.235V25.47H143.074V33H139.489ZM139.489 33C139.369 33 139.289 32.92 139.249 32.76C139.209 32.6 139.189 32.39 139.189 32.13C139.189 31.86 139.209 31.65 139.249 31.5C139.289 31.34 139.369 31.26 139.489 31.26V33ZM144.649 33V31.26C144.769 31.26 144.849 31.34 144.889 31.5C144.929 31.65 144.949 31.86 144.949 32.13C144.949 32.39 144.929 32.6 144.889 32.76C144.849 32.92 144.769 33 144.649 33ZM141.064 36.195V34.485H143.074V36.195H141.064ZM155.101 33V31.26H156.676V33H155.101ZM144.646 33V31.26H155.116L153.421 32.73V29.58C153.421 29.01 153.346 28.555 153.196 28.215C153.046 27.865 152.826 27.61 152.536 27.45C152.256 27.29 151.916 27.21 151.516 27.21C151.086 27.21 150.681 27.295 150.301 27.465C149.921 27.635 149.561 27.855 149.221 28.125C148.891 28.395 148.586 28.685 148.306 28.995C148.026 29.305 147.776 29.605 147.556 29.895C147.336 30.175 147.146 30.415 146.986 30.615L146.536 29.16C146.946 28.64 147.326 28.155 147.676 27.705C148.036 27.255 148.411 26.865 148.801 26.535C149.191 26.195 149.621 25.935 150.091 25.755C150.561 25.565 151.106 25.47 151.726 25.47C152.396 25.47 152.961 25.585 153.421 25.815C153.891 26.035 154.276 26.34 154.576 26.73C154.876 27.12 155.091 27.56 155.221 28.05C155.351 28.54 155.416 29.05 155.416 29.58V33H144.646ZM145.681 31.26V22.395H147.676V31.26H145.681ZM144.646 33C144.526 33 144.446 32.92 144.406 32.76C144.366 32.6 144.346 32.39 144.346 32.13C144.346 31.86 144.366 31.65 144.406 31.5C144.446 31.34 144.526 31.26 144.646 31.26V33ZM156.676 33V31.26C156.796 31.26 156.876 31.34 156.916 31.5C156.956 31.65 156.976 31.86 156.976 32.13C156.976 32.39 156.956 32.6 156.916 32.76C156.876 32.92 156.796 33 156.676 33ZM156.672 33V31.26H160.227L159.057 32.235V25.47H161.052V33H156.672ZM156.672 33C156.552 33 156.472 32.92 156.432 32.76C156.392 32.6 156.372 32.39 156.372 32.13C156.372 31.86 156.392 31.65 156.432 31.5C156.472 31.34 156.552 31.26 156.672 31.26V33ZM157.272 24.57V22.86H159.282V24.57H157.272ZM159.327 24.57V22.86H161.337V24.57H159.327ZM174.867 33V31.26H176.442V33H174.867ZM170.547 36.72C169.677 36.72 168.897 36.56 168.207 36.24C167.527 35.93 166.992 35.495 166.602 34.935C166.212 34.375 166.017 33.74 166.017 33.03C166.017 32.83 166.032 32.565 166.062 32.235C166.092 31.905 166.132 31.535 166.182 31.125C166.242 30.715 166.302 30.3 166.362 29.88C166.432 29.45 166.497 29.035 166.557 28.635L168.537 28.905C168.427 29.575 168.332 30.19 168.252 30.75C168.182 31.3 168.127 31.77 168.087 32.16C168.047 32.55 168.027 32.835 168.027 33.015C168.027 33.415 168.127 33.76 168.327 34.05C168.527 34.34 168.812 34.565 169.182 34.725C169.562 34.895 170.017 34.98 170.547 34.98C171.097 34.98 171.542 34.9 171.882 34.74C172.222 34.58 172.467 34.36 172.617 34.08C172.777 33.8 172.857 33.485 172.857 33.135V22.395H174.867V33.135C174.867 33.855 174.677 34.485 174.297 35.025C173.927 35.565 173.417 35.98 172.767 36.27C172.117 36.57 171.377 36.72 170.547 36.72ZM176.442 33V31.26C176.562 31.26 176.642 31.34 176.682 31.5C176.722 31.65 176.742 31.86 176.742 32.13C176.742 32.39 176.722 32.6 176.682 32.76C176.642 32.92 176.562 33 176.442 33ZM180.827 33V31.26H182.702V33H180.827ZM182.702 33V31.26C182.822 31.26 182.902 31.34 182.942 31.5C182.982 31.65 183.002 31.86 183.002 32.13C183.002 32.39 182.982 32.6 182.942 32.76C182.902 32.92 182.822 33 182.702 33ZM176.447 33V31.26H180.002L178.832 32.235V25.47H180.827V33H176.447ZM176.447 33C176.327 33 176.247 32.92 176.207 32.76C176.167 32.6 176.147 32.39 176.147 32.13C176.147 31.86 176.167 31.65 176.207 31.5C176.247 31.34 176.327 31.26 176.447 31.26V33ZM177.047 36.12V34.41H179.057V36.12H177.047ZM179.102 36.12V34.41H181.112V36.12H179.102ZM191.567 33V31.26H193.157V33H191.567ZM182.702 33V31.26H190.487L189.572 32.04V29.28C189.572 28.74 189.512 28.32 189.392 28.02C189.272 27.71 189.062 27.495 188.762 27.375C188.472 27.245 188.067 27.18 187.547 27.18C187.137 27.18 186.732 27.21 186.332 27.27C185.942 27.32 185.637 27.39 185.417 27.48L186.662 26.31C186.602 26.54 186.542 26.83 186.482 27.18C186.432 27.53 186.387 27.905 186.347 28.305C186.307 28.695 186.287 29.08 186.287 29.46C186.287 29.81 186.302 30.175 186.332 30.555C186.372 30.935 186.412 31.27 186.452 31.56C186.502 31.85 186.542 32.05 186.572 32.16L184.667 32.685C184.627 32.545 184.577 32.315 184.517 31.995C184.457 31.675 184.402 31.295 184.352 30.855C184.312 30.415 184.292 29.95 184.292 29.46C184.292 28.96 184.317 28.48 184.367 28.02C184.417 27.55 184.472 27.13 184.532 26.76C184.602 26.38 184.667 26.075 184.727 25.845C184.967 25.755 185.342 25.665 185.852 25.575C186.362 25.485 186.927 25.44 187.547 25.44C188.447 25.44 189.192 25.565 189.782 25.815C190.382 26.065 190.827 26.47 191.117 27.03C191.417 27.59 191.567 28.345 191.567 29.295V33H182.702ZM182.702 33C182.582 33 182.502 32.92 182.462 32.76C182.422 32.6 182.402 32.39 182.402 32.13C182.402 31.86 182.422 31.65 182.462 31.5C182.502 31.34 182.582 31.26 182.702 31.26V33ZM193.157 33V31.26C193.277 31.26 193.357 31.34 193.397 31.5C193.437 31.65 193.457 31.86 193.457 32.13C193.457 32.39 193.437 32.6 193.397 32.76C193.357 32.92 193.277 33 193.157 33ZM200.931 33V31.26H202.521V33H200.931ZM193.161 33V31.26H199.611L198.936 31.815V29.04C198.936 28.44 198.746 27.985 198.366 27.675C197.996 27.365 197.406 27.21 196.596 27.21C196.366 27.21 196.051 27.23 195.651 27.27C195.251 27.3 194.816 27.35 194.346 27.42L194.151 25.83C194.581 25.73 195.016 25.645 195.456 25.575C195.906 25.505 196.346 25.47 196.776 25.47C197.596 25.47 198.316 25.615 198.936 25.905C199.556 26.185 200.041 26.59 200.391 27.12C200.751 27.65 200.931 28.29 200.931 29.04V33H193.161ZM193.161 33C193.041 33 192.961 32.92 192.921 32.76C192.881 32.6 192.861 32.39 192.861 32.13C192.861 31.86 192.881 31.65 192.921 31.5C192.961 31.34 193.041 31.26 193.161 31.26V33ZM202.521 33V31.26C202.631 31.26 202.706 31.34 202.746 31.5C202.796 31.65 202.821 31.86 202.821 32.13C202.821 32.39 202.796 32.6 202.746 32.76C202.706 32.92 202.631 33 202.521 33ZM202.521 33V31.26H206.076L204.906 32.235V25.47H206.901V33H202.521ZM202.521 33C202.401 33 202.321 32.92 202.281 32.76C202.241 32.6 202.221 32.39 202.221 32.13C202.221 31.86 202.241 31.65 202.281 31.5C202.321 31.34 202.401 31.26 202.521 31.26V33ZM203.121 24.57V22.86H205.131V24.57H203.121ZM205.176 24.57V22.86H207.186V24.57H205.176Z" fill="black"/>
<path d="M152.418 60V58.26H154.353V60H152.418ZM149.508 63.72C149.378 63.72 149.238 63.715 149.088 63.705C148.938 63.695 148.782 63.68 148.622 63.66L148.697 61.95C148.857 61.96 149.008 61.97 149.148 61.98C149.298 61.99 149.408 61.995 149.478 61.995C149.868 61.995 150.178 61.84 150.408 61.53C150.648 61.22 150.768 60.785 150.768 60.225V52.47H152.778V60.225C152.778 60.905 152.638 61.51 152.358 62.04C152.088 62.57 151.708 62.98 151.218 63.27C150.728 63.57 150.158 63.72 149.508 63.72ZM154.353 60V58.26C154.473 58.26 154.553 58.34 154.593 58.5C154.633 58.65 154.653 58.86 154.653 59.13C154.653 59.39 154.633 59.6 154.593 59.76C154.553 59.92 154.473 60 154.353 60ZM154.357 60V58.26H162.142L161.227 59.04V56.28C161.227 55.74 161.167 55.32 161.047 55.02C160.927 54.71 160.717 54.495 160.417 54.375C160.127 54.245 159.722 54.18 159.202 54.18C158.792 54.18 158.387 54.21 157.987 54.27C157.597 54.32 157.292 54.39 157.072 54.48L158.317 53.31C158.257 53.54 158.197 53.83 158.137 54.18C158.087 54.53 158.042 54.905 158.002 55.305C157.962 55.695 157.942 56.08 157.942 56.46C157.942 56.81 157.957 57.175 157.987 57.555C158.027 57.935 158.067 58.27 158.107 58.56C158.157 58.85 158.197 59.05 158.227 59.16L156.322 59.685C156.282 59.545 156.232 59.315 156.172 58.995C156.112 58.675 156.057 58.295 156.007 57.855C155.967 57.415 155.947 56.95 155.947 56.46C155.947 55.96 155.972 55.48 156.022 55.02C156.072 54.55 156.127 54.13 156.187 53.76C156.257 53.38 156.322 53.075 156.382 52.845C156.622 52.755 156.997 52.665 157.507 52.575C158.017 52.485 158.582 52.44 159.202 52.44C160.102 52.44 160.847 52.565 161.437 52.815C162.037 53.065 162.482 53.47 162.772 54.03C163.072 54.59 163.222 55.345 163.222 56.295V60H154.357ZM154.357 60C154.237 60 154.157 59.92 154.117 59.76C154.077 59.6 154.057 59.39 154.057 59.13C154.057 58.86 154.077 58.65 154.117 58.5C154.157 58.34 154.237 58.26 154.357 58.26V60ZM164.874 60V58.26H172.494L171.534 59.25V49.395H173.544V60H164.874ZM166.959 58.26V51.495H168.954V58.26H166.959ZM167.064 50.25C166.874 50.02 166.729 49.8 166.629 49.59C166.529 49.38 166.479 49.155 166.479 48.915C166.479 48.575 166.569 48.27 166.749 48C166.929 47.72 167.164 47.505 167.454 47.355C167.744 47.195 168.064 47.115 168.414 47.115C168.604 47.115 168.799 47.14 168.999 47.19C169.199 47.24 169.369 47.315 169.509 47.415L168.999 48.33C168.909 48.28 168.819 48.25 168.729 48.24C168.649 48.22 168.564 48.21 168.474 48.21C168.234 48.21 168.049 48.275 167.919 48.405C167.789 48.525 167.724 48.69 167.724 48.9C167.724 49.02 167.749 49.135 167.799 49.245C167.849 49.355 167.924 49.475 168.024 49.605L167.064 50.25ZM166.149 50.37V49.275H169.779V50.37H166.149ZM175.996 60V49.395H177.991V60H175.996ZM195.484 60V49.395H197.494V60H195.484ZM193.789 60V58.26H195.484V60H193.789ZM193.789 60C193.669 60 193.589 59.92 193.549 59.76C193.509 59.6 193.489 59.39 193.489 59.13C193.489 58.86 193.509 58.65 193.549 58.5C193.589 58.34 193.669 58.26 193.789 58.26V60ZM187.789 63.72C187.139 63.72 186.534 63.625 185.974 63.435C185.424 63.255 184.944 63 184.534 62.67C184.124 62.35 183.799 61.965 183.559 61.515C183.329 61.075 183.214 60.595 183.214 60.075C183.214 59.885 183.229 59.64 183.259 59.34C183.289 59.04 183.329 58.695 183.379 58.305C183.439 57.915 183.504 57.5 183.574 57.06L185.554 57.33C185.454 57.96 185.374 58.52 185.314 59.01C185.254 59.5 185.224 59.845 185.224 60.045C185.224 60.425 185.329 60.76 185.539 61.05C185.749 61.34 186.044 61.565 186.424 61.725C186.814 61.895 187.269 61.98 187.789 61.98H192.034C192.684 61.98 193.169 61.815 193.489 61.485C193.809 61.155 193.969 60.675 193.969 60.045V59.475H195.964V60.045C195.964 60.765 195.804 61.4 195.484 61.95C195.164 62.5 194.709 62.93 194.119 63.24C193.539 63.56 192.844 63.72 192.034 63.72H187.789ZM193.309 60C192.849 60 192.404 59.95 191.974 59.85C191.554 59.75 191.154 59.57 190.774 59.31L191.914 57.87C192.074 57.98 192.214 58.065 192.334 58.125C192.464 58.175 192.604 58.21 192.754 58.23C192.914 58.25 193.099 58.26 193.309 58.26H196.624V60H193.309ZM196.624 60V58.26C196.734 58.26 196.809 58.34 196.849 58.5C196.899 58.65 196.924 58.86 196.924 59.13C196.924 59.39 196.899 59.6 196.849 59.76C196.809 59.92 196.734 60 196.624 60ZM187.534 66.87V65.16H189.544V66.87H187.534ZM189.589 66.87V65.16H191.599V66.87H189.589ZM202.915 63.72C202.545 63.72 202.155 63.69 201.745 63.63C201.345 63.58 200.915 63.51 200.455 63.42L200.755 61.815C201.255 61.875 201.68 61.92 202.03 61.95C202.38 61.98 202.675 61.995 202.915 61.995C203.635 61.995 204.155 61.865 204.475 61.605C204.795 61.345 204.955 60.955 204.955 60.435V53.85L205.45 54.21H203.575C203.165 54.21 202.835 54.26 202.585 54.36C202.335 54.45 202.15 54.645 202.03 54.945C201.92 55.235 201.865 55.68 201.865 56.28C201.865 56.85 201.915 57.28 202.015 57.57C202.125 57.85 202.305 58.035 202.555 58.125C202.805 58.215 203.145 58.26 203.575 58.26H204.955V60H203.575C202.725 60 202.025 59.865 201.475 59.595C200.925 59.325 200.515 58.915 200.245 58.365C199.985 57.815 199.855 57.12 199.855 56.28C199.855 55.44 199.985 54.74 200.245 54.18C200.515 53.61 200.925 53.185 201.475 52.905C202.025 52.615 202.725 52.47 203.575 52.47H206.965V60.435C206.965 61.115 206.795 61.7 206.455 62.19C206.125 62.69 205.655 63.07 205.045 63.33C204.445 63.59 203.735 63.72 202.915 63.72Z" fill="black"/>
</g>
<defs>
<filter id="filter0_d_2155_4776" x="0" y="0" width="241" height="90" filterUnits="userSpaceOnUse" color-interpolation-filters="sRGB">
<feFlood flood-opacity="0" result="BackgroundImageFix"/>
<feColorMatrix in="SourceAlpha" type="matrix" values="0 0 0 0 0 0 0 0 0 0 0 0 0 0 0 0 0 0 127 0" result="hardAlpha"/>
<feOffset dy="4"/>
<feGaussianBlur stdDeviation="1.5"/>
<feComposite in2="hardAlpha" operator="out"/>
<feColorMatrix type="matrix" values="0 0 0 0 0 0 0 0 0 0 0 0 0 0 0 0 0 0 0.2 0"/>
<feBlend mode="normal" in2="BackgroundImageFix" result="effect1_dropShadow_2155_4776"/>
<feBlend mode="normal" in="SourceGraphic" in2="effect1_dropShadow_2155_4776" result="shape"/>
</filter>
<clipPath id="clip0_2155_4776">
<rect width="46" height="50" fill="white" transform="translate(23 16.5)"/>
</clipPath>
</defs>
</svg>
