<svg width="40" height="26" viewBox="0 0 40 26" fill="none" xmlns="http://www.w3.org/2000/svg">
<path opacity="0.2" d="M25.1516 13.0009C25.1516 14.0756 24.8495 15.1262 24.2836 16.0199C23.7177 16.9135 22.9134 17.61 21.9724 18.0213C21.0313 18.4325 19.9958 18.5402 18.9968 18.3305C17.9978 18.1208 17.0802 17.6033 16.36 16.8433C15.6397 16.0833 15.1492 15.1151 14.9505 14.061C14.7518 13.0069 14.8538 11.9143 15.2436 10.9214C15.6334 9.92842 16.2935 9.07974 17.1404 8.48264C17.9873 7.88554 18.983 7.56684 20.0016 7.56684C21.3674 7.56684 22.6773 8.13935 23.6432 9.15843C24.609 10.1775 25.1516 11.5597 25.1516 13.0009ZM31.5891 2.13281C31.8616 3.82979 32.6277 5.39527 33.7812 6.61233C34.9346 7.82938 36.4183 8.63773 38.0266 8.92535V2.13281H31.5891ZM31.5891 23.8689H38.0266V17.0764C36.4183 17.364 34.9346 18.1724 33.7812 19.3894C32.6277 20.6065 31.8616 22.172 31.5891 23.8689ZM1.97656 17.0764V23.8689H8.41406C8.14148 22.172 7.37538 20.6065 6.22194 19.3894C5.0685 18.1724 3.58484 17.364 1.97656 17.0764ZM1.97656 8.92535C3.58484 8.63773 5.0685 7.82938 6.22194 6.61233C7.37538 5.39527 8.14148 3.82979 8.41406 2.13281H1.97656V8.92535Z" fill="black"/>
<path d="M20 6.20747C18.7268 6.20747 17.4822 6.60584 16.4235 7.35221C15.3649 8.09859 14.5398 9.15944 14.0525 10.4006C13.5653 11.6418 13.4378 13.0075 13.6862 14.3252C13.9346 15.6428 14.5477 16.8531 15.448 17.803C16.3483 18.753 17.4954 19.3999 18.7441 19.662C19.9929 19.9241 21.2872 19.7896 22.4635 19.2755C23.6398 18.7614 24.6452 17.8908 25.3526 16.7737C26.0599 15.6567 26.4375 14.3434 26.4375 13C26.4375 11.1985 25.7593 9.4708 24.552 8.19695C23.3447 6.92311 21.7073 6.20747 20 6.20747ZM20 17.0755C19.2361 17.0755 18.4893 16.8365 17.8541 16.3887C17.2189 15.9408 16.7239 15.3043 16.4315 14.5596C16.1392 13.8149 16.0627 12.9955 16.2117 12.2049C16.3608 11.4143 16.7286 10.6881 17.2688 10.1182C17.809 9.5482 18.4972 9.16004 19.2465 9.00279C19.9957 8.84553 20.7723 8.92624 21.4781 9.23471C22.1839 9.54318 22.7871 10.0655 23.2116 10.7358C23.636 11.406 23.8625 12.1939 23.8625 13C23.8625 14.0809 23.4556 15.1175 22.7312 15.8818C22.0068 16.6461 21.0244 17.0755 20 17.0755ZM38.025 0.773438H1.975C1.63353 0.773438 1.30605 0.916566 1.0646 1.17134C0.823147 1.4261 0.6875 1.77165 0.6875 2.13194V23.8681C0.6875 24.2284 0.823147 24.5739 1.0646 24.8287C1.30605 25.0834 1.63353 25.2266 1.975 25.2266H38.025C38.3665 25.2266 38.6939 25.0834 38.9354 24.8287C39.1769 24.5739 39.3125 24.2284 39.3125 23.8681V2.13194C39.3125 1.77165 39.1769 1.4261 38.9354 1.17134C38.6939 0.916566 38.3665 0.773438 38.025 0.773438ZM3.2625 3.49045H6.70173C6.03783 5.12002 4.80689 6.41885 3.2625 7.11936V3.49045ZM3.2625 22.5095V18.8806C4.80689 19.5812 6.03783 20.88 6.70173 22.5095H3.2625ZM36.7375 22.5095H33.2983C33.9622 20.88 35.1931 19.5812 36.7375 18.8806V22.5095ZM36.7375 15.9972C35.2756 16.4533 33.945 17.2881 32.867 18.4256C31.789 19.563 30.9978 20.967 30.5655 22.5095H9.43445C9.00218 20.967 8.21102 19.563 7.13302 18.4256C6.05502 17.2881 4.72445 16.4533 3.2625 15.9972V10.0028C4.72445 9.54668 6.05502 8.71188 7.13302 7.57443C8.21102 6.43698 9.00218 5.03303 9.43445 3.49045H30.5655C30.9978 5.03303 31.789 6.43698 32.867 7.57443C33.945 8.71188 35.2756 9.54668 36.7375 10.0028V15.9972ZM36.7375 7.11936C35.1931 6.41885 33.9622 5.12002 33.2983 3.49045H36.7375V7.11936Z" fill="black"/>
</svg>
