<svg width="73" height="72" viewBox="0 0 73 72" fill="none" xmlns="http://www.w3.org/2000/svg">
<path d="M0.666504 36C0.666504 16.1178 16.7843 0 36.6665 0C56.5488 0 72.6665 16.1178 72.6665 36C72.6665 55.8823 56.5488 72 36.6665 72C16.7843 72 0.666504 55.8823 0.666504 36Z" fill="#0884A2"/>
<path d="M45.3337 54.7506L44.7087 51.6256C44.292 51.452 43.9017 51.2701 43.5378 51.0798C43.1739 50.8895 42.8003 50.6548 42.417 50.3756L39.3962 51.3132L37.3128 47.7715L39.7087 45.6881C39.6392 45.202 39.6045 44.7507 39.6045 44.334C39.6045 43.9173 39.6392 43.4659 39.7087 42.9798L37.3128 40.8965L39.3962 37.3548L42.417 38.2923C42.7989 38.0145 43.1725 37.7805 43.5378 37.5902C43.9031 37.4 44.2934 37.2173 44.7087 37.0423L45.3337 33.9173H49.5003L50.1253 37.0423C50.542 37.2159 50.933 37.4069 51.2982 37.6152C51.6635 37.8236 52.0364 38.084 52.417 38.3965L55.4378 37.3548L57.5212 41.0006L55.1253 43.084C55.1948 43.5006 55.2295 43.9347 55.2295 44.3861C55.2295 44.8375 55.1948 45.2715 55.1253 45.6881L57.5212 47.7715L55.4378 51.3132L52.417 50.3756C52.035 50.6534 51.6621 50.8882 51.2982 51.0798C50.9344 51.2715 50.5434 51.4534 50.1253 51.6256L49.5003 54.7506H45.3337ZM16.167 52.6673V46.834C16.167 45.6882 16.4621 44.6118 17.0524 43.6048C17.6427 42.5979 18.4587 41.834 19.5003 41.3132C21.2712 40.4104 23.2677 39.6465 25.4899 39.0215C27.7121 38.3965 30.16 38.084 32.8337 38.084H33.5628C33.7712 38.084 33.9795 38.1187 34.1878 38.1882C33.1809 40.6882 32.7642 43.1708 32.9378 45.6361C33.1114 48.1013 33.9448 50.4451 35.4378 52.6673H16.167ZM47.417 48.5007C48.5628 48.5007 49.5441 48.093 50.3607 47.2777C51.1774 46.4625 51.585 45.4812 51.5837 44.334C51.5823 43.1868 51.1746 42.2062 50.3607 41.3923C49.5469 40.5784 48.5656 40.1701 47.417 40.1673C46.2684 40.1645 45.2878 40.5729 44.4753 41.3923C43.6628 42.2118 43.2545 43.1923 43.2503 44.334C43.2462 45.4757 43.6545 46.4569 44.4753 47.2777C45.2962 48.0986 46.2767 48.5062 47.417 48.5007ZM32.8337 36.0007C30.542 36.0007 28.5802 35.1847 26.9482 33.5527C25.3163 31.9208 24.5003 29.959 24.5003 27.6673C24.5003 25.3757 25.3163 23.4138 26.9482 21.7819C28.5802 20.15 30.542 19.334 32.8337 19.334C35.1253 19.334 37.0871 20.15 38.7191 21.7819C40.351 23.4138 41.167 25.3757 41.167 27.6673C41.167 29.959 40.351 31.9208 38.7191 33.5527C37.0871 35.1847 35.1253 36.0007 32.8337 36.0007Z" fill="white"/>
</svg>
