<svg width="28" height="32" viewBox="0 0 28 32" fill="none" xmlns="http://www.w3.org/2000/svg">
<path d="M14.001 3.33126C13.5745 3.33091 13.1572 3.45403 12.8002 3.68551C12.4433 3.91699 12.1623 4.24675 11.9917 4.63433L11.6091 5.50304H3.04934V28.6687H24.9526V5.50304H16.3928L16.0102 4.63433C15.8396 4.24675 15.5586 3.91699 15.2017 3.68551C14.8448 3.45403 14.4275 3.33091 14.001 3.33126ZM9.80723 2.60733C10.278 1.937 10.9052 1.38943 11.6354 1.01128C12.3656 0.633134 13.1772 0.435613 14.001 0.435547C15.7386 0.435547 17.2719 1.29557 18.1947 2.60733H27.873V31.5645H0.128906V2.60733H9.80723ZM6.69989 9.84661H21.3021V12.7423H6.69989V9.84661ZM6.69989 15.638H21.3021V18.5337H6.69989V15.638ZM6.69989 21.4295H16.9214V24.3252H6.69989V21.4295Z" fill="black"/>
</svg>
