<svg width="25" height="25" viewBox="0 0 25 25" fill="none" xmlns="http://www.w3.org/2000/svg">
<path d="M21.999 5.87959L12.624 2.75459C12.5435 2.72764 12.4565 2.72764 12.376 2.75459L3.00098 5.87959C2.92337 5.90557 2.85588 5.95528 2.80804 6.02169C2.76021 6.0881 2.73444 6.16786 2.73438 6.2497V14.0622C2.73438 14.1658 2.77553 14.2652 2.84879 14.3384C2.92204 14.4117 3.0214 14.4528 3.125 14.4528C3.2286 14.4528 3.32796 14.4117 3.40121 14.3384C3.47447 14.2652 3.51562 14.1658 3.51562 14.0622V6.7917L7.80078 8.22041C7.2717 8.93106 6.91066 9.75244 6.74483 10.6228C6.579 11.4931 6.61269 12.3897 6.84337 13.2451C7.07405 14.1005 7.49571 14.8925 8.07664 15.5614C8.65756 16.2303 9.38262 16.7588 10.1973 17.1071C8.16016 17.6677 6.38867 18.9753 5.1416 20.8815C5.08995 20.9682 5.07386 21.0716 5.0967 21.1699C5.11954 21.2682 5.17954 21.3538 5.26413 21.4089C5.34872 21.4639 5.45133 21.4841 5.55046 21.4652C5.64959 21.4462 5.73755 21.3897 5.7959 21.3073C7.34082 18.9372 9.78516 17.5778 12.5 17.5778C15.2148 17.5778 17.6592 18.9372 19.2041 21.3063C19.2625 21.3887 19.3504 21.4452 19.4495 21.4642C19.5487 21.4831 19.6513 21.4629 19.7359 21.4079C19.8205 21.3528 19.8805 21.2672 19.9033 21.1689C19.9261 21.0706 19.91 20.9673 19.8584 20.8806C18.6162 18.9743 16.8398 17.6667 14.8027 17.1061C15.6174 16.7579 16.3424 16.2294 16.9234 15.5604C17.5043 14.8915 17.926 14.0995 18.1566 13.2441C18.3873 12.3887 18.421 11.4921 18.2552 10.6218C18.0893 9.75146 17.7283 8.93008 17.1992 8.21943L21.999 6.61884C22.0765 6.59271 22.1438 6.54294 22.1914 6.47654C22.2391 6.41014 22.2647 6.33046 22.2647 6.24873C22.2647 6.16699 22.2391 6.08731 22.1914 6.02092C22.1438 5.95452 22.0765 5.90572 21.999 5.87959ZM17.5781 11.7185C17.5782 12.5333 17.3821 13.3362 17.0065 14.0593C16.6309 14.7825 16.0868 15.4046 15.4202 15.8732C14.7535 16.3417 13.9839 16.643 13.1763 16.7515C12.3687 16.8601 11.5469 16.7727 10.7802 16.4967C10.0135 16.2207 9.32445 15.7643 8.77128 15.166C8.21812 14.5677 7.81705 13.845 7.60197 13.059C7.38689 12.2731 7.3641 11.4469 7.53553 10.6503C7.70696 9.8537 8.06757 9.11003 8.58691 8.48213L12.376 9.74482C12.4564 9.77213 12.5436 9.77213 12.624 9.74482L16.4131 8.48213C17.1672 9.39191 17.5793 10.5368 17.5781 11.7185ZM12.5 8.96259L4.36035 6.2497L12.5 3.53681L20.6396 6.2497L12.5 8.96259Z" fill="white"/>
</svg>
