<svg width="73" height="72" viewBox="0 0 73 72" fill="none" xmlns="http://www.w3.org/2000/svg">
<path d="M0.666504 36C0.666504 16.1178 16.7843 0 36.6665 0C56.5488 0 72.6665 16.1178 72.6665 36C72.6665 55.8823 56.5488 72 36.6665 72C16.7843 72 0.666504 55.8823 0.666504 36Z" fill="#0884A2"/>
<g clip-path="url(#clip0_2155_5855)">
<path d="M42.6098 40C44.9161 40 47.1279 40.9219 48.7587 42.5628C50.3895 44.2038 51.3057 46.4294 51.3057 48.75V50.5C51.3057 51.4283 50.9392 52.3185 50.2869 52.9749C49.6346 53.6312 48.7498 54 47.8273 54H23.4788C22.5563 54 21.6716 53.6312 21.0193 52.9749C20.367 52.3185 20.0005 51.4283 20.0005 50.5V48.75C20.0005 46.4294 20.9167 44.2038 22.5475 42.5628C24.1782 40.9219 26.3901 40 28.6964 40H42.6098ZM52.0257 31.3918C52.338 31.0746 52.7589 30.8894 53.2023 30.8743C53.6458 30.8592 54.0782 31.0151 54.4111 31.3103C54.744 31.6055 54.9522 32.0175 54.9931 32.4621C55.034 32.9067 54.9044 33.3501 54.631 33.7017L54.4849 33.868L49.5665 38.817C49.267 39.1183 48.8686 39.2993 48.4459 39.3261C48.0233 39.3528 47.6054 39.2234 47.2708 38.9622L47.1073 38.817L44.6481 36.3425C44.3329 36.0283 44.1489 35.6047 44.1339 35.1585C44.1188 34.7123 44.2738 34.2772 44.5672 33.9422C44.8605 33.6073 45.27 33.3978 45.7118 33.3566C46.1537 33.3155 46.5944 33.4459 46.9438 33.721L47.1073 33.868L48.3369 35.1052L52.0257 31.3918ZM35.6531 19C37.9594 19 40.1712 19.9219 41.802 21.5628C43.4328 23.2038 44.349 25.4294 44.349 27.75C44.349 30.0706 43.4328 32.2962 41.802 33.9372C40.1712 35.5781 37.9594 36.5 35.6531 36.5C33.3468 36.5 31.135 35.5781 29.5042 33.9372C27.8734 32.2962 26.9572 30.0706 26.9572 27.75C26.9572 25.4294 27.8734 23.2038 29.5042 21.5628C31.135 19.9219 33.3468 19 35.6531 19Z" fill="white"/>
</g>
<defs>
<clipPath id="clip0_2155_5855">
<rect width="50" height="50" fill="white" transform="translate(12.0005 11)"/>
</clipPath>
</defs>
</svg>
