<svg width="34" height="32" viewBox="0 0 34 32" fill="none" xmlns="http://www.w3.org/2000/svg">
<path d="M16.999 28.4812C19.0702 28.4812 20.831 27.7989 22.2813 26.4343C23.7317 25.0697 24.4563 23.4118 24.4552 21.4605C24.4541 19.5093 23.7295 17.8519 22.2813 16.4883C20.8332 15.1247 19.0724 14.4419 16.999 14.4398C14.9256 14.4378 13.1654 15.1206 11.7184 16.4883C10.2713 17.8561 9.54614 19.5135 9.54282 21.4605C9.53951 23.4076 10.2647 25.0655 11.7184 26.4343C13.1721 27.8031 14.9323 28.4854 16.999 28.4812ZM12.1525 12.4116C12.7048 12.1256 13.2919 11.8983 13.9138 11.7298C14.5357 11.5614 15.1637 11.4506 15.7977 11.3975L11.614 3.51875H7.47165L12.1525 12.4116ZM7.7202 26.6091C7.25073 25.855 6.88455 25.0427 6.62165 24.1721C6.35875 23.3015 6.22785 22.3977 6.22895 21.4605C6.23006 20.5234 6.36151 19.6201 6.6233 18.7506C6.8851 17.881 7.25073 17.0682 7.7202 16.312C6.56034 16.6761 5.6076 17.3199 4.86199 18.2435C4.11636 19.1671 3.74355 20.2395 3.74355 21.4605C3.74355 22.6816 4.11636 23.7545 4.86199 24.6791C5.6076 25.6038 6.56034 26.2471 7.7202 26.6091ZM26.2779 26.6091C27.4377 26.245 28.3904 25.6017 29.1361 24.6791C29.8817 23.7566 30.2545 22.6837 30.2545 21.4605C30.2545 20.2374 29.8817 19.165 29.1361 18.2435C28.3904 17.322 27.4377 16.6781 26.2779 16.312C26.7473 17.0661 27.1135 17.8789 27.3764 18.7506C27.6393 19.6222 27.7702 20.5255 27.7691 21.4605C27.768 22.3956 27.6365 23.2994 27.3747 24.1721C27.1129 25.0447 26.7473 25.8571 26.2779 26.6091ZM16.999 31.6016C15.8944 31.6016 14.8384 31.4518 13.831 31.1522C12.8236 30.8527 11.8912 30.4439 11.0341 29.926C10.7855 29.978 10.537 30.0107 10.2884 30.0242C10.0399 30.0378 9.77755 30.0435 9.5014 30.0414C6.98838 30.0414 4.84818 29.2093 3.08078 27.5452C1.31339 25.881 0.429688 23.8658 0.429688 21.4995C0.429688 19.2373 1.23054 17.3001 2.83224 15.688C4.43394 14.0758 6.40846 13.1787 8.75578 12.9967L3.2879 2.66066C3.01174 2.14061 3.03273 1.63356 3.35086 1.13951C3.66899 0.645462 4.14508 0.398438 4.77914 0.398438H11.6554C12.2906 0.398438 12.8639 0.554453 13.3753 0.866484C13.8867 1.17852 14.2938 1.59456 14.5965 2.11461L16.999 6.63906L19.4016 2.11461C19.7053 1.59456 20.113 1.17852 20.6244 0.866484C21.1358 0.554453 21.7086 0.398437 22.3426 0.398438H29.2189C29.8541 0.398438 30.3307 0.645462 30.6488 1.13951C30.967 1.63356 30.9874 2.14061 30.7101 2.66066L25.2837 12.9187C27.631 13.1267 29.5989 14.0368 31.1873 15.649C32.7758 17.2611 33.5695 19.1983 33.5684 21.4605C33.5684 23.8528 32.6847 25.881 30.9173 27.5452C29.1499 29.2093 26.9959 30.0414 24.4552 30.0414C24.2067 30.0414 23.9515 30.0352 23.6897 30.0227C23.4279 30.0102 23.1722 29.9774 22.9226 29.9244C22.0665 30.4444 21.1414 30.8542 20.1472 31.1538C19.153 31.4533 18.1036 31.6026 16.999 31.6016ZM16.999 23.5668L14.9693 25.0099C14.8036 25.1399 14.6379 25.1467 14.4722 25.0302C14.3065 24.9137 14.2513 24.7639 14.3065 24.5809L15.0935 22.2016L13.0638 20.8365C12.8981 20.7065 12.8429 20.5567 12.8981 20.3872C12.9533 20.2176 13.0914 20.1334 13.3123 20.1344H15.7977L16.5848 17.5992C16.64 17.4171 16.7781 17.3261 16.999 17.3261C17.2199 17.3261 17.358 17.4171 17.4133 17.5992L18.2003 20.1344H20.6857C20.9066 20.1344 21.0447 20.2192 21.0999 20.3887C21.1552 20.5583 21.0999 20.7075 20.9342 20.8365L18.9045 22.2016L19.6915 24.5809C19.7468 24.7629 19.6915 24.9126 19.5258 25.0302C19.3602 25.1477 19.1945 25.141 19.0288 25.0099L16.999 23.5668ZM21.8456 12.4116L26.5678 3.51875H22.3841L18.8631 10.1494L19.6501 11.6316C20.0367 11.7356 20.4095 11.8463 20.7685 11.9639C21.1275 12.0814 21.4866 12.2307 21.8456 12.4116Z" fill="black"/>
</svg>
