<svg width="25" height="26" viewBox="0 0 25 26" fill="none" xmlns="http://www.w3.org/2000/svg">
<path d="M21.999 6.35029L12.624 3.22529C12.5435 3.19834 12.4565 3.19834 12.376 3.22529L3.00098 6.35029C2.92337 6.37628 2.85588 6.42598 2.80804 6.49239C2.76021 6.5588 2.73444 6.63856 2.73438 6.72041V14.5329C2.73438 14.6365 2.77553 14.7359 2.84879 14.8091C2.92204 14.8824 3.0214 14.9235 3.125 14.9235C3.2286 14.9235 3.32796 14.8824 3.40121 14.8091C3.47447 14.7359 3.51562 14.6365 3.51562 14.5329V7.2624L7.80078 8.69111C7.2717 9.40176 6.91066 10.2231 6.74483 11.0935C6.579 11.9638 6.61269 12.8604 6.84337 13.7158C7.07405 14.5712 7.49571 15.3632 8.07664 16.0321C8.65756 16.7011 9.38262 17.2295 10.1973 17.5778C8.16016 18.1384 6.38867 19.446 5.1416 21.3522C5.08995 21.4389 5.07386 21.5423 5.0967 21.6406C5.11954 21.7389 5.17954 21.8245 5.26413 21.8796C5.34872 21.9346 5.45133 21.9548 5.55046 21.9359C5.64959 21.9169 5.73755 21.8604 5.7959 21.778C7.34082 19.4079 9.78516 18.0485 12.5 18.0485C15.2148 18.0485 17.6592 19.4079 19.2041 21.777C19.2625 21.8594 19.3504 21.916 19.4495 21.9349C19.5487 21.9538 19.6513 21.9336 19.7359 21.8786C19.8205 21.8236 19.8805 21.7379 19.9033 21.6396C19.9261 21.5413 19.91 21.438 19.8584 21.3513C18.6162 19.445 16.8398 18.1374 14.8027 17.5769C15.6174 17.2286 16.3424 16.7001 16.9234 16.0311C17.5043 15.3622 17.926 14.5702 18.1566 13.7148C18.3873 12.8594 18.421 11.9628 18.2552 11.0925C18.0893 10.2222 17.7283 9.40078 17.1992 8.69013L21.999 7.08955C22.0765 7.06341 22.1438 7.01364 22.1914 6.94724C22.2391 6.88085 22.2647 6.80117 22.2647 6.71943C22.2647 6.63769 22.2391 6.55802 22.1914 6.49162C22.1438 6.42522 22.0765 6.37643 21.999 6.35029ZM17.5781 12.1892C17.5782 13.004 17.3821 13.8069 17.0065 14.53C16.6309 15.2532 16.0868 15.8753 15.4202 16.3439C14.7535 16.8124 13.9839 17.1137 13.1763 17.2222C12.3687 17.3308 11.5469 17.2434 10.7802 16.9674C10.0135 16.6914 9.32445 16.235 8.77128 15.6367C8.21812 15.0384 7.81705 14.3157 7.60197 13.5298C7.38689 12.7438 7.3641 11.9176 7.53553 11.121C7.70696 10.3244 8.06757 9.58074 8.58691 8.95283L12.376 10.2155C12.4564 10.2428 12.5436 10.2428 12.624 10.2155L16.4131 8.95283C17.1672 9.86261 17.5793 11.0075 17.5781 12.1892ZM12.5 9.4333L4.36035 6.72041L12.5 4.00752L20.6396 6.72041L12.5 9.4333Z" fill="#878787"/>
</svg>
