<svg width="27" height="28" viewBox="0 0 27 28" fill="none" xmlns="http://www.w3.org/2000/svg">
<path d="M13.5008 25.2205C12.0945 25.2205 10.7775 24.9535 9.54978 24.4195C8.32203 23.8855 7.25328 23.1636 6.34353 22.2539C5.43378 21.3441 4.71191 20.2754 4.17791 19.0476C3.64391 17.8199 3.37653 16.5025 3.37578 15.0955C3.37503 13.6885 3.64241 12.3715 4.17791 11.1445C4.71341 9.91751 5.43491 8.84876 6.34241 7.93826C7.24991 7.02776 8.31866 6.30588 9.54866 5.77263C10.7787 5.23938 12.096 4.97201 13.5008 4.97051C14.9055 4.96901 16.2229 5.23638 17.4529 5.77263C18.6829 6.30888 19.7517 7.03076 20.6592 7.93826C21.5667 8.84576 22.2885 9.91451 22.8248 11.1445C23.361 12.3745 23.628 13.6915 23.6258 15.0955C23.6235 16.4995 23.3565 17.8169 22.8248 19.0476C22.293 20.2784 21.5712 21.3471 20.6592 22.2539C19.7472 23.1606 18.6784 23.8825 17.4529 24.4195C16.2274 24.9565 14.91 25.2235 13.5008 25.2205ZM16.6508 19.8205L18.2258 18.2455L14.6258 14.6455V9.47051H12.3758V15.5455L16.6508 19.8205ZM6.30078 3.11426L7.87578 4.68926L3.09453 9.47051L1.51953 7.89551L6.30078 3.11426ZM20.7008 3.11426L25.482 7.89551L23.907 9.47051L19.1258 4.68926L20.7008 3.11426ZM13.5008 22.9705C15.6945 22.9705 17.5557 22.2066 19.0842 20.6789C20.6127 19.1511 21.3765 17.29 21.3758 15.0955C21.375 12.901 20.6112 11.0403 19.0842 9.51326C17.5572 7.98626 15.696 7.22201 13.5008 7.22051C11.3055 7.21901 9.44478 7.98326 7.91853 9.51326C6.39228 11.0433 5.62803 12.904 5.62578 15.0955C5.62353 17.287 6.38778 19.1481 7.91853 20.6789C9.44928 22.2096 11.31 22.9735 13.5008 22.9705Z" fill="#424242"/>
</svg>
