<svg width="27" height="28" viewBox="0 0 27 28" fill="none" xmlns="http://www.w3.org/2000/svg">
<path d="M13.5 2.30371C7.29675 2.30371 2.25 7.53738 2.25 13.9704C2.25 20.4034 7.29675 25.637 13.5 25.637C19.7033 25.637 24.75 20.4034 24.75 13.9704C24.75 7.53738 19.7033 2.30371 13.5 2.30371ZM13.5 23.3037C8.53763 23.3037 4.5 19.1165 4.5 13.9704C4.5 8.82421 8.53763 4.63704 13.5 4.63704C18.4624 4.63704 22.5 8.82421 22.5 13.9704C22.5 19.1165 18.4624 23.3037 13.5 23.3037Z" fill="#424242"/>
<path d="M14.625 8.27637H12.375V15.1097H19.125V12.8319H14.625V8.27637Z" fill="#424242"/>
</svg>
