<svg width="19" height="20" viewBox="0 0 19 20" fill="none" xmlns="http://www.w3.org/2000/svg">
<path d="M1.40039 5.15385H17.4004M6.06706 5.15385V4.46154C6.06706 3.54348 6.41825 2.66303 7.04337 2.01386C7.66849 1.3647 8.51634 1 9.40039 1C10.2844 1 11.1323 1.3647 11.7574 2.01386C12.3825 2.66303 12.7337 3.54348 12.7337 4.46154V5.15385M7.40039 9.30908V14.8503M11.4004 9.30908V14.8503M3.40039 5.15385H15.4004V17.6154C15.4004 17.9826 15.2599 18.3348 15.0099 18.5945C14.7598 18.8541 14.4207 19 14.0671 19H4.73372C4.3801 19 4.04096 18.8541 3.79091 18.5945C3.54087 18.3348 3.40039 17.9826 3.40039 17.6154V5.15385Z" stroke="#F54547" stroke-width="2" stroke-linecap="round" stroke-linejoin="round"/>
</svg>
