<svg width="26" height="26" viewBox="0 0 26 26" fill="none" xmlns="http://www.w3.org/2000/svg">
<path d="M7.58268 4.33366C7.58268 3.75902 7.81096 3.20792 8.21728 2.80159C8.62361 2.39527 9.17471 2.16699 9.74935 2.16699H16.2493C16.824 2.16699 17.3751 2.39527 17.7814 2.80159C18.1877 3.20792 18.416 3.75902 18.416 4.33366V6.50033H22.7493C23.0367 6.50033 23.3122 6.61446 23.5154 6.81763C23.7185 7.02079 23.8327 7.29634 23.8327 7.58366C23.8327 7.87098 23.7185 8.14653 23.5154 8.34969C23.3122 8.55286 23.0367 8.66699 22.7493 8.66699H21.5913L20.652 21.8208C20.6131 22.3675 20.3685 22.879 19.9675 23.2525C19.5664 23.626 19.0388 23.8337 18.4908 23.8337H7.50685C6.95883 23.8337 6.43117 23.626 6.03014 23.2525C5.62911 22.879 5.38451 22.3675 5.3456 21.8208L4.40852 8.66699H3.24935C2.96203 8.66699 2.68648 8.55286 2.48332 8.34969C2.28015 8.14653 2.16602 7.87098 2.16602 7.58366C2.16602 7.29634 2.28015 7.02079 2.48332 6.81763C2.68648 6.61446 2.96203 6.50033 3.24935 6.50033H7.58268V4.33366ZM9.74935 6.50033H16.2493V4.33366H9.74935V6.50033ZM6.57951 8.66699L7.50793 21.667H18.4918L19.4203 8.66699H6.57951ZM10.8327 10.8337C11.12 10.8337 11.3955 10.9478 11.5987 11.151C11.8019 11.3541 11.916 11.6297 11.916 11.917V18.417C11.916 18.7043 11.8019 18.9799 11.5987 19.183C11.3955 19.3862 11.12 19.5003 10.8327 19.5003C10.5454 19.5003 10.2698 19.3862 10.0666 19.183C9.86349 18.9799 9.74935 18.7043 9.74935 18.417V11.917C9.74935 11.6297 9.86349 11.3541 10.0666 11.151C10.2698 10.9478 10.5454 10.8337 10.8327 10.8337ZM15.166 10.8337C15.4533 10.8337 15.7289 10.9478 15.932 11.151C16.1352 11.3541 16.2493 11.6297 16.2493 11.917V18.417C16.2493 18.7043 16.1352 18.9799 15.932 19.183C15.7289 19.3862 15.4533 19.5003 15.166 19.5003C14.8787 19.5003 14.6031 19.3862 14.4 19.183C14.1968 18.9799 14.0827 18.7043 14.0827 18.417V11.917C14.0827 11.6297 14.1968 11.3541 14.4 11.151C14.6031 10.9478 14.8787 10.8337 15.166 10.8337Z" fill="#424242"/>
</svg>
