w<svg width="25" height="26" viewBox="0 0 25 26" fill="none" xmlns="http://www.w3.org/2000/svg">
<path fill-rule="evenodd" clip-rule="evenodd" d="M18.3389 1.87466C18.1033 1.48902 17.7561 1.18823 17.3458 1.01415C16.9355 0.840064 16.4825 0.801354 16.0497 0.903406L12.9781 1.62616C12.6633 1.70027 12.3362 1.70027 12.0214 1.62616L8.94986 0.903406C8.51708 0.801354 8.064 0.840064 7.6537 1.01415C7.2434 1.18823 6.89629 1.48902 6.66069 1.87466L4.98653 4.61166C4.81569 4.89166 4.58507 5.12791 4.31173 5.30466L1.6399 7.01966C1.2641 7.26079 0.970896 7.61579 0.800995 8.03538C0.631094 8.45497 0.592921 8.91833 0.691775 9.36116L1.39732 12.5112C1.46941 12.8331 1.46941 13.1675 1.39732 13.4894L0.691775 16.6377C0.592537 17.0807 0.630518 17.5445 0.800437 17.9644C0.970356 18.3844 1.26377 18.7397 1.6399 18.9809L4.31173 20.6959C4.58507 20.8709 4.81569 21.1072 4.98823 21.3872L6.6624 24.1242C7.14415 24.9134 8.06323 25.3037 8.94986 25.0954L12.0214 24.3727C12.3362 24.2985 12.6633 24.2985 12.9781 24.3727L16.0514 25.0954C16.4839 25.1971 16.9366 25.1582 17.3466 24.9841C17.7565 24.81 18.1034 24.5095 18.3389 24.1242L20.013 21.3872C20.1839 21.1072 20.4145 20.8709 20.6878 20.6959L23.3614 18.9809C23.7375 18.7393 24.0308 18.3836 24.2004 17.9633C24.37 17.5431 24.4076 17.0791 24.3078 16.6359L23.6039 13.4894C23.5316 13.1669 23.5316 12.8319 23.6039 12.5094L24.3095 9.36116C24.4089 8.91826 24.3712 8.45464 24.2016 8.03471C24.0319 7.61478 23.7389 7.25939 23.3631 7.01791L20.6895 5.30291C20.4166 5.12759 20.1859 4.89127 20.0147 4.61166L18.3389 1.87466ZM17.4796 9.09691C17.5852 8.89787 17.6114 8.66461 17.5526 8.44621C17.4938 8.2278 17.3546 8.04128 17.1642 7.92588C16.9739 7.81049 16.7473 7.77521 16.5321 7.82749C16.3169 7.87976 16.1299 8.0155 16.0104 8.20616L11.5431 15.9517L8.84565 13.3057C8.76562 13.2215 8.66987 13.1547 8.5641 13.1092C8.45833 13.0638 8.34471 13.0406 8.23001 13.0412C8.11531 13.0417 8.00189 13.0658 7.89651 13.1122C7.79113 13.1586 7.69595 13.2263 7.61664 13.3111C7.53734 13.396 7.47553 13.4964 7.43492 13.6063C7.3943 13.7162 7.3757 13.8333 7.38023 13.9507C7.38476 14.0681 7.41233 14.1834 7.46129 14.2896C7.51025 14.3959 7.57959 14.491 7.66519 14.5692L11.1399 17.9799C11.2329 18.071 11.3448 18.1394 11.4672 18.18C11.5897 18.2206 11.7195 18.2323 11.8469 18.2143C11.9744 18.1963 12.0962 18.149 12.2034 18.076C12.3105 18.003 12.4001 17.9061 12.4656 17.7927L17.4796 9.09691Z" fill="#0884A2"/>
</svg>
