<svg width="71" height="48" viewBox="0 0 71 48" fill="none" xmlns="http://www.w3.org/2000/svg">
<path d="M59.3925 21.0296C62.7459 21.7501 65.7007 23.6093 67.6932 26.2525C69.6857 28.8958 70.5765 32.1381 70.1958 35.361C69.815 38.5839 68.1893 41.5618 65.6287 43.7269C63.0681 45.8919 59.7519 47.0925 56.3125 47.0996H17.8125C13.4727 47.1037 9.28608 45.5873 6.06538 42.8447C2.84468 40.102 0.819708 36.3289 0.383561 32.2578C-0.0525869 28.1867 1.13121 24.108 3.70514 20.8135C6.27908 17.519 10.0595 15.2438 14.3125 14.4296V14.0996C14.3103 12.3543 14.7975 10.6395 15.7247 9.12891C16.6519 7.61835 17.9862 6.36574 19.5922 5.49803C21.1983 4.63032 23.0191 4.17835 24.8702 4.18793C26.7212 4.19751 28.5367 4.6683 30.1325 5.55258C32.5885 3.26456 35.7098 1.71579 39.1007 1.10269C42.4915 0.4896 45.999 0.839809 49.1785 2.1089C52.3579 3.378 55.066 5.5088 56.9592 8.23107C58.8524 10.9533 59.8455 14.1444 59.8125 17.3996C59.8125 18.6536 59.6725 19.8416 59.3925 21.0296ZM38.8125 27.2996H49.3125L35.3125 14.0996L21.3125 27.2996H31.8125V37.1996H38.8125V27.2996Z" fill="#0884A2"/>
</svg>
