<svg width="73" height="72" viewBox="0 0 73 72" fill="none" xmlns="http://www.w3.org/2000/svg">
<path d="M0.666016 36C0.666016 16.1178 16.7838 0 36.666 0C56.5483 0 72.666 16.1178 72.666 36C72.666 55.8823 56.5483 72 36.666 72C16.7838 72 0.666016 55.8823 0.666016 36Z" fill="#0884A2"/>
<path d="M38.5625 53.1875V43.8125H44.8125L37 34.4375L29.1875 43.8125H35.4375V53.1875H27.625V53.1094C27.3625 53.125 27.1125 53.1875 26.8438 53.1875C23.7357 53.1875 20.755 51.9529 18.5573 49.7552C16.3597 47.5575 15.125 44.5768 15.125 41.4688C15.125 35.4563 19.6719 30.5563 25.5063 29.8844C26.0178 27.2103 27.4452 24.798 29.5429 23.0625C31.6405 21.327 34.2774 20.3767 37 20.375C39.723 20.3765 42.3603 21.3267 44.4585 23.0622C46.5567 24.7977 47.9847 27.21 48.4969 29.8844C54.3313 30.5563 58.8719 35.4563 58.8719 41.4688C58.8719 44.5768 57.6372 47.5575 55.4395 49.7552C53.2418 51.9529 50.2611 53.1875 47.1531 53.1875C46.8906 53.1875 46.6375 53.125 46.3719 53.1094V53.1875H38.5625Z" fill="white"/>
</svg>
