<svg width="19" height="24" viewBox="0 0 19 24" fill="none" xmlns="http://www.w3.org/2000/svg">
<path d="M9.5 18.0238C10.1299 18.0238 10.734 17.793 11.1794 17.3822C11.6248 16.9714 11.875 16.4143 11.875 15.8333C11.875 15.2524 11.6248 14.6952 11.1794 14.2844C10.734 13.8736 10.1299 13.6429 9.5 13.6429C8.87011 13.6429 8.26602 13.8736 7.82062 14.2844C7.37522 14.6952 7.125 15.2524 7.125 15.8333C7.125 16.4143 7.37522 16.9714 7.82062 17.3822C8.26602 17.793 8.87011 18.0238 9.5 18.0238ZM16.625 8.16667C17.2549 8.16667 17.859 8.39745 18.3044 8.80824C18.7498 9.21904 19 9.77619 19 10.3571V21.3095C19 21.8905 18.7498 22.4476 18.3044 22.8584C17.859 23.2692 17.2549 23.5 16.625 23.5H2.375C1.74511 23.5 1.14102 23.2692 0.695621 22.8584C0.250222 22.4476 0 21.8905 0 21.3095V10.3571C0 9.77619 0.250222 9.21904 0.695621 8.80824C1.14102 8.39745 1.74511 8.16667 2.375 8.16667H3.5625V5.97619C3.5625 4.52381 4.18806 3.13092 5.30155 2.10394C6.41505 1.07695 7.92528 0.5 9.5 0.5C10.2797 0.5 11.0518 0.641646 11.7722 0.91685C12.4926 1.19205 13.1471 1.59543 13.6984 2.10394C14.2498 2.61245 14.6871 3.21614 14.9855 3.88054C15.2839 4.54494 15.4375 5.25705 15.4375 5.97619V8.16667H16.625ZM9.5 2.69048C8.55517 2.69048 7.64903 3.03665 6.98093 3.65284C6.31283 4.26903 5.9375 5.10476 5.9375 5.97619V8.16667H13.0625V5.97619C13.0625 5.10476 12.6872 4.26903 12.0191 3.65284C11.351 3.03665 10.4448 2.69048 9.5 2.69048Z" fill="#CCCCCC"/>
</svg>
