<svg width="130" height="111" viewBox="0 0 130 111" fill="none" xmlns="http://www.w3.org/2000/svg">
<ellipse cx="65" cy="55.5" rx="40" ry="37.5" fill="#FEF5F6"/>
<path d="M84.4285 65.922L68.8132 41.2256C68.423 40.6205 67.8659 40.1188 67.1972 39.7702C66.5285 39.4217 65.7714 39.2383 65.0009 39.2383C64.2304 39.2383 63.4733 39.4217 62.8046 39.7702C62.1359 40.1188 61.5788 40.6205 61.1886 41.2256L45.5733 65.922C45.1979 66.5072 45 67.1728 45 67.8506C45 68.5284 45.1979 69.194 45.5733 69.7792C45.9585 70.3879 46.5146 70.8923 47.1846 71.2407C47.8545 71.5891 48.6142 71.7688 49.3856 71.7615H80.6162C81.387 71.7682 82.1459 71.5882 82.8152 71.2399C83.4844 70.8915 84.04 70.3874 84.4249 69.7792C84.8009 69.1943 84.9994 68.5288 85 67.851C85.0006 67.1733 84.8034 66.5075 84.4285 65.922ZM63.5724 52.2476C63.5724 51.9026 63.7229 51.5717 63.9908 51.3277C64.2587 51.0838 64.622 50.9467 65.0009 50.9467C65.3798 50.9467 65.7431 51.0838 66.011 51.3277C66.2789 51.5717 66.4294 51.9026 66.4294 52.2476V58.7523C66.4294 59.0973 66.2789 59.4282 66.011 59.6722C65.7431 59.9161 65.3798 60.0532 65.0009 60.0532C64.622 60.0532 64.2587 59.9161 63.9908 59.6722C63.7229 59.4282 63.5724 59.0973 63.5724 58.7523V52.2476ZM65.0009 66.5578C64.5771 66.5578 64.1628 66.4434 63.8104 66.2289C63.4581 66.0145 63.1834 65.7097 63.0212 65.3532C62.8591 64.9966 62.8166 64.6043 62.8993 64.2257C62.982 63.8472 63.1861 63.4995 63.4857 63.2266C63.7854 62.9537 64.1672 62.7678 64.5829 62.6925C64.9985 62.6172 65.4293 62.6559 65.8209 62.8036C66.2124 62.9513 66.5471 63.2014 66.7825 63.5223C67.018 63.8432 67.1436 64.2205 67.1436 64.6064C67.1436 65.124 66.9179 65.6203 66.516 65.9863C66.1142 66.3522 65.5692 66.5578 65.0009 66.5578Z" fill="#F34257"/>
</svg>
