<svg width="22" height="21" viewBox="0 0 22 21" fill="none" xmlns="http://www.w3.org/2000/svg">
<path d="M15.3153 13.0576L14.7845 13.5861C14.7845 13.5861 13.521 14.8415 10.0735 11.4138C6.62601 7.98613 7.88951 6.73079 7.88951 6.73079L8.22318 6.39713C9.04801 5.57813 9.12618 4.26213 8.40635 3.30079L6.93635 1.33729C6.04501 0.147294 4.32418 -0.0102061 3.30335 1.00479L1.47168 2.82479C0.966512 3.32879 0.628179 3.97979 0.669012 4.70313C0.774012 6.55463 1.61168 10.5365 6.28301 15.1821C11.2378 20.1078 15.887 20.3038 17.7875 20.1265C18.3895 20.0705 18.9122 19.7648 19.3333 19.3448L20.99 17.6975C22.11 16.5856 21.795 14.6781 20.3623 13.9L18.134 12.6878C17.1937 12.178 16.0503 12.3273 15.3153 13.0576Z" fill="#CCCCCC"/>
</svg>
