<svg width="121" height="45" viewBox="0 0 121 45" fill="none" xmlns="http://www.w3.org/2000/svg">
<path d="M25.928 15.04C26.236 15.04 26.4927 15.15 26.698 15.37C26.918 15.5753 27.028 15.8247 27.028 16.118C27.028 16.426 26.918 16.69 26.698 16.91C26.4927 17.1153 26.236 17.218 25.928 17.218C25.6347 17.218 25.378 17.1153 25.158 16.91C24.9527 16.69 24.85 16.426 24.85 16.118C24.85 15.8247 24.9527 15.5753 25.158 15.37C25.378 15.15 25.6347 15.04 25.928 15.04ZM22.584 28.438C21.66 27.4407 21.198 26.194 21.198 24.698C21.198 23.2753 21.5867 22.1093 22.364 21.2C23.2587 20.144 24.4467 19.616 25.928 19.616C27.248 19.616 28.348 20.0487 29.228 20.914C30.196 21.8673 30.68 23.1287 30.68 24.698C30.68 26.1647 30.218 27.4113 29.294 28.438H31.208V30H28.062H27.798C26.9327 30 26.324 29.9413 25.972 29.824H25.906C25.554 29.9413 24.938 30 24.058 30H23.794H14.972C14.092 30 13.3293 29.6993 12.684 29.098C11.9067 28.3793 11.518 27.47 11.518 26.37V22.234L12.464 21.464H13.388V26.37C13.388 26.9273 13.5787 27.404 13.96 27.8C14.3707 28.2253 14.884 28.438 15.5 28.438H22.584ZM28.81 24.72C28.81 23.6347 28.546 22.7767 28.018 22.146C27.5047 21.5153 26.808 21.2 25.928 21.2C25.004 21.2 24.2927 21.53 23.794 22.19C23.3247 22.806 23.09 23.664 23.09 24.764C23.09 25.7907 23.3613 26.6487 23.904 27.338C24.4467 28.0273 25.1213 28.394 25.928 28.438C26.8813 28.394 27.6293 27.9247 28.172 27.03C28.5973 26.3407 28.81 25.5707 28.81 24.72ZM33.3186 15.04C33.6266 15.04 33.8833 15.15 34.0886 15.37C34.294 15.5753 34.3966 15.8247 34.3966 16.118C34.3966 16.426 34.294 16.69 34.0886 16.91C33.8833 17.1153 33.6266 17.218 33.3186 17.218C33.0253 17.218 32.7686 17.1153 32.5486 16.91C32.3433 16.69 32.2406 16.426 32.2406 16.118C32.2406 15.8247 32.3433 15.5753 32.5486 15.37C32.7686 15.15 33.0253 15.04 33.3186 15.04ZM36.0026 15.04C36.296 15.04 36.5453 15.15 36.7506 15.37C36.9706 15.5753 37.0806 15.8247 37.0806 16.118C37.0806 16.426 36.9706 16.69 36.7506 16.91C36.5453 17.1153 36.296 17.218 36.0026 17.218C35.6946 17.218 35.4306 17.1153 35.2106 16.91C35.0053 16.69 34.9026 16.426 34.9026 16.118C34.9026 15.8247 35.0053 15.5753 35.2106 15.37C35.4306 15.15 35.6946 15.04 36.0026 15.04ZM36.8826 19.88V27.91C36.8826 28.4527 36.7066 28.922 36.3546 29.318C35.9586 29.7727 35.4673 30 34.8806 30H31.0526V28.438H34.1766C34.426 28.438 34.6313 28.35 34.7926 28.174C34.9393 28.0273 35.0126 27.8367 35.0126 27.602V19.88H36.8826ZM41.9837 14.248V27.602C41.9837 27.8367 42.057 28.0347 42.2037 28.196C42.365 28.3573 42.5704 28.438 42.8197 28.438H43.1057V30H42.0937C41.6244 30 41.2137 29.846 40.8617 29.538C40.363 29.1127 40.1137 28.57 40.1137 27.91V14.248H41.9837ZM48.389 20.122C49.9583 19.4033 51.5863 19.044 53.273 19.044C57.1156 19.044 59.037 21.2367 59.037 25.622V27.932C59.037 28.108 59.0223 28.2767 58.993 28.438H59.763V30H59.279L58.663 29.23H58.597C58.4796 29.3767 58.3476 29.5087 58.201 29.626C57.849 29.8753 57.475 30 57.079 30H51.777C50.941 30 50.369 29.9487 50.061 29.846H49.973C49.6796 29.9487 49.1003 30 48.235 30H42.955V28.438H47.223C46.8856 28.0567 46.6216 27.5947 46.431 27.052C46.2403 26.4947 46.145 25.9007 46.145 25.27C46.145 24.17 46.387 23.268 46.871 22.564C47.2376 22.0213 47.7436 21.618 48.389 21.354V20.122ZM57.167 25.93C57.167 24.038 56.837 22.696 56.177 21.904C55.4876 21.0827 54.373 20.672 52.833 20.672C51.865 20.672 50.941 20.804 50.061 21.068C51.469 21.0827 52.503 21.596 53.163 22.608C53.647 23.312 53.889 24.1993 53.889 25.27C53.889 25.8273 53.8083 26.3627 53.647 26.876C53.4563 27.492 53.1703 28.0127 52.789 28.438H56.353C56.617 28.438 56.8296 28.3353 56.991 28.13C57.1083 27.9833 57.167 27.8073 57.167 27.602V25.93ZM52.239 25.248C52.239 24.3827 52.0336 23.6933 51.623 23.18C51.227 22.6667 50.677 22.41 49.973 22.41C49.269 22.41 48.719 22.6593 48.323 23.158C47.927 23.6567 47.729 24.3533 47.729 25.248C47.729 26.1133 47.9416 26.832 48.367 27.404C48.7923 27.976 49.3276 28.2767 49.973 28.306C50.633 28.2767 51.1756 27.976 51.601 27.404C52.0263 26.832 52.239 26.1133 52.239 25.248ZM65.4139 14.248V27.91C65.4139 28.482 65.2232 28.966 64.8419 29.362C64.4459 29.7873 63.9692 30 63.4119 30H59.5839V28.438H62.7079C62.9865 28.438 63.1992 28.3427 63.3459 28.152C63.4779 27.9907 63.5439 27.8073 63.5439 27.602V14.248H65.4139ZM70.3216 14.248V29.78L69.3756 30.55H68.4516V14.248H70.3216ZM79.9851 28.438C79.1931 27.602 78.7971 26.4213 78.7971 24.896C78.8411 23.1653 79.3618 21.8307 80.3591 20.892C81.2391 20.0853 82.3978 19.6673 83.8351 19.638C85.0378 19.638 86.0058 19.9387 86.7391 20.54C87.6191 21.244 88.0591 22.2707 88.0591 23.62V27.602C88.0591 27.866 88.1324 28.0713 88.2791 28.218C88.3964 28.35 88.5358 28.4233 88.6971 28.438H88.7631V30H88.2131C87.9638 30 87.7291 29.956 87.5091 29.868C87.1864 29.7653 86.8931 29.5527 86.6291 29.23C86.2331 29.494 85.7711 29.692 85.2431 29.824C84.7444 29.9413 83.9964 30 82.9991 30H79.7871C79.2298 30 78.9511 30.2787 78.9511 30.836V37.436L78.0051 38.206H77.0811V30.506C77.0811 29.9047 77.2938 29.3987 77.7191 28.988C78.1151 28.6213 78.5698 28.438 79.0831 28.438H79.9851ZM86.1671 23.62C86.1671 22.96 85.9838 22.4027 85.6171 21.948C85.1771 21.4493 84.5684 21.2 83.7911 21.2C82.8671 21.2 82.1118 21.5373 81.5251 22.212C80.9531 22.872 80.6671 23.7373 80.6671 24.808C80.6671 25.9667 80.9531 26.8687 81.5251 27.514C82.0971 28.1447 82.9111 28.46 83.9671 28.46C84.8618 28.46 85.5951 28.284 86.1671 27.932V23.62ZM95.8478 15.04C96.1411 15.04 96.3904 15.15 96.5958 15.37C96.8158 15.5753 96.9258 15.8247 96.9258 16.118C96.9258 16.426 96.8158 16.69 96.5958 16.91C96.3904 17.1153 96.1411 17.218 95.8478 17.218C95.5398 17.218 95.2758 17.1153 95.0558 16.91C94.8504 16.69 94.7478 16.426 94.7478 16.118C94.7478 15.8247 94.8504 15.5753 95.0558 15.37C95.2758 15.15 95.5398 15.04 95.8478 15.04ZM98.5098 15.04C98.8178 15.04 99.0744 15.15 99.2798 15.37C99.4851 15.5753 99.5878 15.8247 99.5878 16.118C99.5878 16.426 99.4851 16.69 99.2798 16.91C99.0744 17.1153 98.8178 17.218 98.5098 17.218C98.2164 17.218 97.9598 17.1153 97.7398 16.91C97.5344 16.69 97.4318 16.426 97.4318 16.118C97.4318 15.8247 97.5344 15.5753 97.7398 15.37C97.9598 15.15 98.2164 15.04 98.5098 15.04ZM93.5158 28.438C92.9584 27.9247 92.5478 27.2867 92.2838 26.524C92.0784 25.908 91.9758 25.2993 91.9758 24.698C91.9758 23.1287 92.4451 21.882 93.3838 20.958C94.3078 20.0633 95.5618 19.616 97.1458 19.616C98.3484 19.616 99.3091 19.924 100.028 20.54C100.864 21.244 101.296 22.2707 101.326 23.62V27.91C101.326 28.482 101.128 28.9733 100.732 29.384C100.35 29.7947 99.8884 30 99.3458 30H88.5878V28.438H93.5158ZM99.4338 23.62C99.4338 22.7987 99.1918 22.168 98.7078 21.728C98.3264 21.376 97.8058 21.2 97.1458 21.2C95.9284 21.2 95.0338 21.6253 94.4618 22.476C94.0511 23.0627 93.8458 23.8253 93.8458 24.764C93.8604 25.7613 94.1831 26.612 94.8138 27.316C95.4738 28.064 96.3464 28.438 97.4318 28.438H98.6198C99.1624 28.438 99.4338 28.1593 99.4338 27.602V23.62ZM108.827 19.88V29.802C108.827 31.43 108.365 32.7133 107.441 33.652C106.723 34.3853 105.755 34.8693 104.537 35.104C104.068 35.192 103.555 35.236 102.997 35.236C102.645 35.236 102.308 35.2287 101.985 35.214L101.259 34.312V33.608C101.685 33.6667 102.147 33.696 102.645 33.696C105.52 33.696 106.957 32.376 106.957 29.736V19.88H108.827Z" fill="#A6A6A6"/>
</svg>
