<svg width="22" height="23" viewBox="0 0 22 23" fill="none" xmlns="http://www.w3.org/2000/svg">
<path d="M19.4616 4.17268C19.3779 4.16379 19.2935 4.16379 19.2098 4.17268H2.01774C1.90756 4.17443 1.7981 4.19147 1.69232 4.22333L10.5647 13.3327L19.4616 4.17268Z" fill="#CCCCCC"/>
<path d="M21.0777 5.08398L11.8377 13.902C11.5999 14.1285 11.2782 14.2557 10.9429 14.2557C10.6076 14.2557 10.2859 14.1285 10.0481 13.902L0.890584 5.15088C0.862432 5.25003 0.847505 5.3522 0.846161 5.45495V17.6177C0.846161 17.9403 0.979883 18.2496 1.21791 18.4777C1.45594 18.7058 1.77877 18.834 2.11539 18.834H19.8846C20.2212 18.834 20.5441 18.7058 20.7821 18.4777C21.0201 18.2496 21.1539 17.9403 21.1539 17.6177V5.45495C21.1488 5.32825 21.1231 5.20308 21.0777 5.08398ZM2.98481 17.6177H2.1027V16.7481L6.71635 12.3634L7.61116 13.2209L2.98481 17.6177ZM19.8719 17.6177H18.9835L14.3571 13.2209L15.2519 12.3634L19.8656 16.7481L19.8719 17.6177Z" fill="#CCCCCC"/>
</svg>
