<svg width="18" height="16" viewBox="0 0 18 16" fill="none" xmlns="http://www.w3.org/2000/svg">
<path d="M17.4023 7.49544C16.7158 6.04895 15.8987 4.86926 14.9512 3.95637L13.9574 4.95012C14.7678 5.72454 15.4736 6.73762 16.084 7.99934C14.459 11.3626 12.1523 12.9603 9 12.9603C8.05378 12.9603 7.18223 12.8146 6.38535 12.5232L5.30859 13.5999C6.41536 14.111 7.64583 14.3665 9 14.3665C12.7539 14.3665 15.5547 12.4115 17.4023 8.5013C17.4766 8.34404 17.5151 8.17228 17.5151 7.99837C17.5151 7.82445 17.4766 7.65269 17.4023 7.49544ZM16.1607 1.23294L15.3281 0.399342C15.3136 0.384814 15.2964 0.373289 15.2774 0.365426C15.2584 0.357563 15.2381 0.353516 15.2176 0.353516C15.197 0.353516 15.1767 0.357563 15.1577 0.365426C15.1388 0.373289 15.1215 0.384814 15.107 0.399342L12.9709 2.5345C11.7932 1.93294 10.4695 1.63215 9 1.63215C5.24609 1.63215 2.44531 3.58723 0.597657 7.49739C0.52339 7.65465 0.484873 7.8264 0.484873 8.00032C0.484873 8.17423 0.52339 8.34599 0.597657 8.50325C1.33581 10.0579 2.22448 11.3041 3.26367 12.2417L1.19688 14.3079C1.16759 14.3372 1.15115 14.377 1.15115 14.4184C1.15115 14.4598 1.16759 14.4995 1.19688 14.5288L2.03066 15.3626C2.05996 15.3919 2.09969 15.4084 2.14111 15.4084C2.18254 15.4084 2.22226 15.3919 2.25156 15.3626L16.1607 1.45403C16.1753 1.43952 16.1868 1.42229 16.1947 1.40332C16.2025 1.38435 16.2066 1.36402 16.2066 1.34348C16.2066 1.32295 16.2025 1.30262 16.1947 1.28365C16.1868 1.26468 16.1753 1.24745 16.1607 1.23294ZM1.91602 7.99934C3.54297 4.63606 5.84961 3.0384 9 3.0384C10.0652 3.0384 11.0338 3.22122 11.9125 3.5929L10.5395 4.96594C9.8892 4.619 9.14464 4.49023 8.41564 4.59865C7.68663 4.70707 7.01177 5.04692 6.49061 5.56808C5.96945 6.08923 5.6296 6.76409 5.52118 7.4931C5.41277 8.22211 5.54153 8.96666 5.88848 9.61692L4.25918 11.2462C3.35742 10.4503 2.58008 9.372 1.91602 7.99934ZM6.73438 7.99934C6.73472 7.65494 6.81629 7.31547 6.97248 7.00851C7.12867 6.70156 7.35506 6.43578 7.63326 6.23276C7.91147 6.02974 8.23364 5.8952 8.57361 5.84009C8.91357 5.78497 9.26175 5.81083 9.58984 5.91555L6.83809 8.66731C6.76911 8.45137 6.73413 8.22603 6.73438 7.99934Z" fill="#808080"/>
</svg>
