<svg width="15" height="14" viewBox="0 0 15 14" fill="none" xmlns="http://www.w3.org/2000/svg">
<path d="M7.5 6.38379C6.67533 6.38379 5.969 6.08979 5.381 5.50179C4.793 4.91379 4.49933 4.20779 4.5 3.38379C4.50067 2.55979 4.79433 1.85313 5.381 1.26379C5.96767 0.67446 6.674 0.38146 7.5 0.384794C8.326 0.388127 9.03233 0.68146 9.619 1.26479C10.2057 1.84813 10.4993 2.55479 10.5 3.38479C10.5007 4.21479 10.207 4.92079 9.619 5.50279C9.031 6.08479 8.32467 6.37779 7.5 6.38379ZM0.5 13.6148V11.9688C0.5 11.5561 0.62 11.1701 0.86 10.8108C1.10067 10.4508 1.424 10.1715 1.83 9.97279C2.774 9.52013 3.71867 9.18079 4.664 8.95479C5.60867 8.72813 6.554 8.61479 7.5 8.61479C8.446 8.61479 9.39167 8.72813 10.337 8.95479C11.2823 9.18146 12.2263 9.52079 13.169 9.97279C13.5757 10.1715 13.899 10.4508 14.139 10.8108C14.3797 11.1701 14.5 11.5561 14.5 11.9688V13.6148H0.5Z" fill="#CCCCCC"/>
</svg>
