<svg width="460" height="490" viewBox="0 0 460 490" fill="none" xmlns="http://www.w3.org/2000/svg">
<path d="M276.328 390.622C279.452 390.401 284.314 392.102 285.538 389.505C286.547 387.356 284.681 382.501 283.842 380.012C281.867 374.172 278.342 367.64 273.415 365.21C268.066 362.583 261.053 362.159 254.016 361.301C246.673 360.411 239.296 359.09 233.16 359.07C231.994 358.21 232.126 356.519 231.708 355.16C225.827 336.082 218.118 315.852 210.37 298.754C205.949 289.004 201.505 280.339 194.362 273.902C187.23 267.47 177.099 264.384 165.021 263.568C154.577 262.862 146.14 265.106 145.138 275.576C144.352 283.805 147.091 292.611 149.019 299.593C154.72 320.225 164.099 341.89 170.596 359.63C160.436 359.867 161.457 374.573 162.112 385.598C162.924 386.707 164.239 387.24 166.234 386.993C163.113 413.788 160.029 441.125 156.774 467.973C156.601 469.427 156.348 470.931 156.162 472.449H161.722C161.835 471.335 161.945 470.2 162.113 469.089C166.133 442.364 170.498 414.207 174.483 387.273C188.247 387.705 204.14 388.115 218.854 388.391C220.085 392.417 220.169 396.728 220.794 400.954C224.227 424.188 227.735 448.276 231.189 472.449H236.342C233.664 444.806 230.84 416.161 228.313 388.669C240.898 388.512 254.856 389.189 267.352 390.067C275.046 412.565 283.421 438.143 291.361 462.389C292.329 465.351 293.506 468.833 294.721 472.449H300C292.157 445.531 284.105 417.74 276.328 390.622ZM177.146 358.787C172.693 346.193 167.593 333.392 162.356 319.14C158.964 309.913 154.736 298.786 152.657 287.585C151.518 281.45 150.191 272.499 155.323 271.667C167.359 298.388 175.763 329.296 185.634 358.513C182.655 358.435 180.243 359.004 177.146 358.787ZM192.425 358.228C182.503 328.886 174.265 297.607 161.869 271.109C165.066 270.875 167.371 271.661 170.36 271.667C179.733 299.964 188.856 328.55 197.033 358.228H192.425ZM203.821 358.228C198.014 336.472 191.067 314.516 184.421 294.005C182.38 287.7 180.093 281.609 178.359 275.576C178.211 275.064 177.049 273.855 178.115 273.338C180.436 274.015 182.726 274.736 184.662 275.856C191.239 304.306 200.464 329.702 206.973 358.228H203.821ZM213.767 358.228C207.682 331.822 199.197 306.683 192.663 281.719C200.772 291.699 206.058 304.69 211.338 317.743C216.683 330.947 221.367 344.888 226.13 358.513C221.744 358.721 218.11 358.063 213.767 358.228Z" fill="#2257BF"/>
<path d="M201.855 144.667L201.876 146.924C201.908 150.172 199.3 152.834 196.048 152.865L28.5848 154.459C25.3335 154.49 22.6733 151.879 22.6448 148.63L22.6221 146.374L201.855 144.667Z" fill="#00B2FF"/>
<path d="M21.5261 34.4748C21.4978 31.2245 24.107 28.5634 27.357 28.5333L194.82 26.9394C198.07 26.9092 200.732 29.5187 200.761 32.7703L201.855 150.668L22.6219 152.374L21.5261 34.4748Z" fill="#00B2FF"/>
<path opacity="0.75" d="M197.227 147.691L196.176 37.0198C196.144 33.9367 193.621 31.4612 190.538 31.4903L31.7249 33.0025C28.642 33.0304 26.168 35.5545 26.1972 38.6365L27.2511 149.309L197.227 147.691Z" fill="white"/>
<path d="M26.2755 33.5121L108.763 98.6763C111.403 100.762 115.153 100.674 117.693 98.4683L194.759 31.5292" stroke="#00B2FF" stroke-width="5"/>
<path fill-rule="evenodd" clip-rule="evenodd" d="M273.125 69.1043C272.743 69.1513 271.412 69.6598 270.827 69.959C268.638 71.0843 266.64 72.7683 264.609 74.4307C254.622 82.6082 246.464 89.279 236.508 97.8112C234.777 99.2921 233.179 100.577 231.056 102.57C229.188 104.326 227.487 106.437 228.199 108.229C229.03 110.32 232.139 110.72 233.995 111.029C240.602 112.12 247.355 111.909 253.969 112.463C260.342 112.989 266.777 114.013 273.807 114.272C275.797 114.341 279.132 114.696 280.833 113.068C282.863 111.117 279.994 103.839 278.991 100.663C277.828 96.9818 277.139 94.1251 275.868 90.7115C275.461 89.6303 274.589 88.6339 274.29 87.474C274.021 86.4666 274.588 84.5457 274.829 82.9888C275.298 79.9221 275.543 77.1689 275.647 74.13C275.698 72.7541 275.847 68.7884 273.125 69.1043Z" fill="#00B2FF"/>
<path fill-rule="evenodd" clip-rule="evenodd" d="M273.125 69.1043C272.743 69.1513 271.412 69.6598 270.827 69.959C268.638 71.0843 266.64 72.7683 264.609 74.4307C254.622 82.6082 246.464 89.279 236.508 97.8112C234.777 99.2921 233.179 100.577 231.056 102.57C229.188 104.326 227.487 106.437 228.199 108.229C229.03 110.32 232.139 110.72 233.995 111.029C240.602 112.12 247.355 111.909 253.969 112.463C260.342 112.989 266.777 114.013 273.807 114.272C275.797 114.341 279.132 114.696 280.833 113.068C282.863 111.117 279.994 103.839 278.991 100.663C277.828 96.9818 277.139 94.1251 275.868 90.7115C275.461 89.6303 274.589 88.6339 274.29 87.474C274.021 86.4666 274.588 84.5457 274.829 82.9888C275.298 79.9221 275.543 77.1689 275.647 74.13C275.698 72.7541 275.847 68.7884 273.125 69.1043Z" fill="#00B2FF"/>
<path opacity="0.42" fill-rule="evenodd" clip-rule="evenodd" d="M273.125 69.1043C272.743 69.1513 271.412 69.6598 270.827 69.959C268.638 71.0843 266.64 72.7683 264.609 74.4307C254.622 82.6082 246.464 89.279 236.508 97.8112C234.777 99.2921 233.179 100.577 231.056 102.57C229.188 104.326 227.487 106.437 228.199 108.229C229.03 110.32 232.139 110.72 233.995 111.029C240.602 112.12 247.355 111.909 253.969 112.463C260.342 112.989 266.777 114.013 273.807 114.272C275.797 114.341 279.132 114.696 280.833 113.068C282.863 111.117 279.994 103.839 278.991 100.663C277.828 96.9818 277.139 94.1251 275.868 90.7115C275.461 89.6303 274.589 88.6339 274.29 87.474C274.021 86.4666 274.588 84.5457 274.829 82.9888C275.298 79.9221 275.543 77.1689 275.647 74.13C275.698 72.7541 275.847 68.7884 273.125 69.1043Z" fill="white"/>
<path fill-rule="evenodd" clip-rule="evenodd" d="M283.051 92.7435C282.701 91.4393 281.359 91.1195 280.512 90.5561C279.614 89.957 278.778 89.2539 277.771 88.6184C276.15 87.5751 273.754 85.6978 271.924 85.6818C271.167 85.68 269.523 86.2463 268.522 86.5523C264.836 87.6717 261.314 89.7721 257.703 91.6272C248.761 96.2247 238.621 100.904 230.221 106.397C229.673 106.754 228.441 107.276 228.667 107.869C229.031 108.815 230.633 108.235 231.69 107.952C247.632 103.679 264.333 97.5191 279.961 93.9422C281.005 93.7074 282.357 93.8263 283.051 92.7435Z" fill="#00B2FF"/>
<path fill-rule="evenodd" clip-rule="evenodd" d="M283.051 92.7435C282.701 91.4393 281.359 91.1195 280.512 90.5561C279.614 89.957 278.778 89.2539 277.771 88.6184C276.15 87.5751 273.754 85.6978 271.924 85.6818C271.167 85.68 269.523 86.2463 268.522 86.5523C264.836 87.6717 261.314 89.7721 257.703 91.6272C248.761 96.2247 238.621 100.904 230.221 106.397C229.673 106.754 228.441 107.276 228.667 107.869C229.031 108.815 230.633 108.235 231.69 107.952C247.632 103.679 264.333 97.5191 279.961 93.9422C281.005 93.7074 282.357 93.8263 283.051 92.7435Z" fill="#00B2FF"/>
<path d="M451.805 157.099C435.943 132.348 376.619 94.8387 344.908 129.574C317.418 159.685 349.998 187.561 373.238 168.426C396.478 149.291 373.026 63.1258 289.67 88.0295" stroke="#003294" stroke-width="5" stroke-linecap="round" stroke-dasharray="11 11"/>
<path fill-rule="evenodd" clip-rule="evenodd" d="M301.402 346.465C301.207 343.554 300.475 341.009 300.909 337.205C301.309 333.662 302.673 328.355 305.728 328.558C308.79 328.768 309.456 333.545 309.346 336.271C309.109 342.434 306.252 347.234 304.483 351.333C305.737 353.919 307.052 356.459 308.468 358.911C308.902 355.124 309.246 351.184 310.137 347.472C310.825 344.605 312.404 340.267 315.273 340.601C318.508 340.975 318.264 346.811 317.632 350.249C316.563 356.046 313.672 360.726 310.978 364.24C312.459 367.78 313.86 371.394 315.485 374.824C316.549 368.488 317.678 362.861 320.85 358.433C321.821 357.079 323.241 355.602 324.956 355.956C327.147 356.407 327.359 359.511 326.81 362.422C325.512 369.312 320.639 375.483 317.197 379.541C318.049 382.498 319.195 385.214 320.015 388.198C321.891 382.459 323.531 376.325 327.098 372.004C328.189 370.679 329.565 368.915 331.41 369.205C333.662 369.559 334.057 372.862 333.647 375.366C332.422 382.932 325.571 387.854 321.308 391.999C323.721 401.493 327.464 413.009 327.908 425.053C327.991 427.332 328.242 430.279 325.98 429.689C324.604 429.33 325.068 427.286 325.046 425.763C324.987 421.295 324.009 416.399 323.577 412.919C318.731 414.098 313.993 412.399 310.052 409.793C308.422 408.715 304.831 406.475 305.465 404.403C306.268 401.802 312.729 405.318 314.141 405.925C317.411 407.311 319.963 408.38 322.737 409.697C322.456 406.493 321.202 402.716 320.456 399.359C315.193 401.379 308.081 399.554 303.232 396.675C301.597 395.706 298.103 393.235 298.857 390.963C299.83 388.04 306.789 391.034 309.007 391.788C312.735 393.047 316.034 393.96 319.201 395.224C318.049 390.791 316.578 386.616 315.121 382.427C310.602 384.164 302.111 383.081 297.668 380.236C296.292 379.353 294.323 378.086 294.828 376.261C295.562 373.599 301.872 375.761 304.2 376.302C307.992 377.188 310.864 377.92 313.66 378.608C312.533 374.982 310.959 371.717 309.641 368.245C306.481 370.919 299.908 370.821 294.713 368.262C292.658 367.25 287.349 364.217 288.074 361.069C288.935 357.321 297.053 360.205 300.206 361.254C303.066 362.203 305.776 363.177 307.831 364.392C306.011 360.022 303.925 355.874 301.641 351.87C296.114 353.544 285.252 351.267 281.541 348.505C280.416 347.668 278.664 345.665 278.935 344.04C279.528 340.439 286.492 342.937 289.2 343.835C292.904 345.062 296 346.504 299.162 347.763C298.484 346.128 297.305 344.564 296.078 342.893C294.946 341.353 293.757 339.355 292.272 338.289C290.771 337.208 288.903 336.605 287.348 335.81C284.218 334.197 281.326 332.35 279.037 329.639C277.895 328.297 276.478 326.56 277.193 324.569C277.752 322.998 279.591 322.334 281.865 323.193C284.998 324.386 287.274 327.468 289.243 329.952C290.758 331.863 292.403 333.737 293.772 335.857C294.199 336.528 294.445 337.409 294.899 338.072C295.899 339.529 297.388 340.744 298.43 342.125C299.589 343.679 300.421 345.197 301.402 346.465Z" fill="#889922"/>
<path d="M366.556 367.369C367.586 366.505 368.691 365.681 369.757 364.88C371.809 363.343 373.746 361.894 375.174 360.215C377.209 357.819 378.031 355.767 377.695 353.937C377.344 352.048 376.109 351.768 375.406 351.768C373.483 351.768 371.202 353.761 370.953 353.986C367.766 356.843 365.404 360.44 363.294 365.634C362.157 366.683 361.008 367.903 359.902 369.079C359.126 369.901 358.384 370.697 357.665 371.407C357.745 369.577 357.811 367.533 357.636 365.29C357.512 363.629 357.116 358.573 354.279 358.573C351.6 358.617 350.953 363.077 350.983 365.432C351.046 369.966 352.108 374.084 353.735 376.187C353.227 376.804 352.756 377.524 352.298 378.225C351.922 378.801 351.556 379.362 351.193 379.83C350.856 377.788 350.502 376.197 349.705 374.189C348.251 370.549 346.494 368.98 344.691 369.568C343.305 370.017 343.22 372.364 343.395 374.25C343.717 377.695 345.244 383.039 348.185 384.722C347.67 385.51 347.231 386.357 346.802 387.179C346.695 387.386 346.585 387.594 346.475 387.804C345.953 386.116 345.25 384.601 344.413 382.883C344.323 382.693 344.225 382.471 344.11 382.222C343.271 380.346 341.938 377.44 339.808 377.81C339.286 377.9 338.857 378.171 338.573 378.591C337.936 379.535 338.163 381.058 338.432 382.283C339.352 386.455 341.279 389.917 344.166 392.575C342.785 395.74 341.524 399.319 340.162 403.977C340.033 403.718 339.903 403.465 339.779 403.199C339.315 402.25 338.832 401.269 338.156 400.22L337.924 399.844C337.031 398.409 335.452 395.925 333.449 396.301C332.856 396.399 332.383 396.75 332.063 397.309C331.309 398.651 331.643 401.008 332.124 402.25C333.12 404.822 335.984 408.857 337.655 409.619C338.063 409.807 338.482 409.878 338.851 409.907C337.887 414.267 337.253 419.977 337.087 425.725L337.072 426.142C337.036 427.569 336.982 429.348 337.167 430.766L337.194 430.988C337.25 431.562 337.34 432.516 338.233 432.816L338.392 432.867L338.56 432.833C340.022 432.533 339.973 431.018 339.943 430.113C339.929 429.884 339.924 429.664 339.941 429.469C339.985 428.781 340.029 428.059 340.075 427.324C340.229 424.755 341.219 415.398 341.219 415.398C341.5 413.527 341.787 411.604 342.231 409.866C345.491 410.398 348.841 409.874 352.962 408.163C354.453 407.551 357.944 406.104 357.451 403.544C357.283 402.668 356.602 401.621 354.326 401.621C352.674 401.621 350.732 402.151 349.568 402.465L349.251 402.55C346.718 403.228 345.052 403.924 343.447 404.714C344.345 401.262 345.353 398.295 346.502 395.694C347.817 396.284 349.418 396.836 351.433 396.953C351.926 396.98 352.509 396.992 353.139 396.992C355.128 396.992 359.937 396.821 361.525 395.204C361.908 394.811 362.111 394.343 362.098 393.843C362.059 391.366 357.745 390.957 354.503 390.866C352.524 390.807 351.075 390.954 349.664 391.095C349.279 391.134 348.895 391.171 348.495 391.207C349.022 390.001 349.644 388.882 350.254 387.784C350.469 387.403 350.681 387.015 350.886 386.632C352.84 388.042 355.641 388.913 358.882 389.109C359.284 389.133 359.726 389.148 360.19 389.148C361.83 389.148 365.814 388.972 367.288 387.328C367.715 386.852 367.908 386.279 367.842 385.664C367.586 383.292 362.667 382.663 359.415 382.909C358.41 382.989 357.412 382.999 356.573 382.999L354.209 382.989C353.848 382.989 353.482 382.989 353.111 382.996C354.038 381.357 355.141 379.88 356.427 378.226C358.355 379.307 361.299 379.941 364.467 379.941C366.736 379.941 368.949 379.609 370.708 379.009L370.84 378.963C372.501 378.399 375.01 377.54 374.793 375.51C374.556 373.304 370.889 373.241 368.698 373.207L368.137 373.192C365.287 373.111 362.381 373.426 359.834 374.051C360.373 373.504 360.925 372.919 361.498 372.314C362.967 370.751 364.641 368.987 366.556 367.369Z" fill="#889922"/>
<path fill-rule="evenodd" clip-rule="evenodd" d="M359.029 425.139C358.936 422.963 358.978 420.032 357.624 419.283C357.121 419.007 356.158 418.91 355.05 418.878L355.052 418.871L354.315 418.866H354.303L305.407 418.666V418.671C304.477 418.659 303.575 418.673 302.703 418.776C299.904 419.098 300.046 421.324 300.114 424.327C300.18 426.989 299.819 430.063 301.371 431.042C302.657 431.835 305.936 431.63 305.936 431.63C306.824 441.653 308.088 451.886 309.096 462.166C309.394 465.214 309.457 470.455 310.904 471.731C312.28 472.944 347.196 473.197 348.562 472.023C349.487 471.235 349.523 469.669 349.719 467.604C350.907 455.47 352.161 443.236 353.435 431.673C355.377 431.576 356.873 431.773 357.856 431.122C359.182 430.251 359.104 427.191 359.029 425.139Z" fill="#EFAD1B"/>
<path opacity="0.2" fill-rule="evenodd" clip-rule="evenodd" d="M353.435 431.673L306.222 434.726L305.931 431.629L353.435 431.673Z" fill="black"/>
<path fill-rule="evenodd" clip-rule="evenodd" d="M95.9737 291.527C95.9011 291.54 95.8017 291.501 95.7392 291.527C93.858 292.104 93.1982 296.392 92.3319 298.745C89.4515 306.558 87.2019 315.399 87.9521 325.83C88.3563 331.459 90.9397 337.278 93.0553 341.859C93.723 343.285 94.7646 344.94 94.999 346.149C95.4534 348.44 95.0962 351.207 95.2469 353.599C95.6801 360.488 96.3399 368.198 96.7027 375.041C78.9705 372.471 50.4669 364.5 30.7887 363.738C29.6824 364.686 29.3374 366.231 28.8406 367.574C27.4216 371.445 26.1757 376.301 25.6855 381.345C26.7808 382.384 28.3583 383.015 29.8141 383.602C40.0495 387.717 61.7361 396.27 72.1524 400.776C77.8909 403.261 83.8013 405.67 89.8981 407.772C96.0864 409.909 102.815 412.418 109.586 412.966C121.042 413.889 125.06 408.276 127.824 400.776C130.478 393.563 131.294 385.451 131.956 375.946C132.25 371.702 132.896 366.162 131.956 362.177C131.584 360.61 130.462 359.237 129.762 357.666C125.235 347.426 119.653 336.571 114.453 326.964C108.138 315.309 101.41 304.594 96.4627 292.2C96.4738 291.816 96.2807 291.617 95.9737 291.527Z" fill="#003294"/>
<path opacity="0.19" d="M98.8907 379.559C99.3964 381.545 100.56 384.558 98.8907 385.65C95.9679 384.78 94.6382 381.493 93.0551 379.106C91.9163 377.375 90.5811 375.603 89.5908 373.981C91.9543 374.342 94.3278 374.696 96.7025 375.043C96.6734 374.5 96.6455 373.943 96.6053 373.391C96.7159 373.416 96.8342 373.439 96.9503 373.462C97.4806 375.151 98.3369 377.414 98.8907 379.559Z" fill="black"/>
<path fill-rule="evenodd" clip-rule="evenodd" d="M14.9738 384.572C13.0469 387.506 11.0719 390.221 8.70061 392.4C8.45053 392.629 7.80635 392.469 7.54845 392.686C7.22245 392.96 7.27939 393.606 6.93776 393.858C6.46886 394.204 5.98545 394.53 5.48306 394.834C4.30969 395.546 2.65738 396.595 1.25961 395.927C-0.592549 395.041 -0.0209375 391.493 0.584167 388.549C1.8569 382.356 3.50698 376.73 5.63377 370.529C7.36424 365.519 9.31352 361.132 12.8604 360.457C14.803 360.086 16.9242 360.37 19.1046 360.791C19.4239 360.852 19.5791 361.38 19.9006 361.446C20.2166 361.511 20.6977 361.113 21.0148 361.179C21.1142 361.201 21.2135 361.221 21.314 361.242C24.2424 361.857 27.0525 362.768 30.2845 364.301C29.5845 368.768 28.1254 374.554 26.233 380.018C29.6191 380.976 30.2488 383.304 29.436 386.857C29.1558 388.075 28.4045 390.03 27.6297 390.342C26.0711 390.98 16.7824 385.838 14.9738 384.572Z" fill="#EFAD1B"/>
<path d="M12.8826 377.696C8.92372 379.843 6.05896 385.498 6.50107 391.204C6.56247 391.939 6.6596 392.972 6.93759 393.856C7.54828 393.405 8.12994 392.907 8.69262 392.389C8.59884 392.088 8.51511 391.789 8.4805 391.496C8.28624 389.833 8.38895 387.774 9.15594 385.509C11.9169 377.283 19.2462 377.775 26.7207 380.199C26.982 380.282 27.2376 380.396 27.491 380.513C27.1226 380.323 26.7107 380.151 26.2362 380.017C26.4416 379.413 26.6426 378.804 26.8446 378.191C26.3277 378.039 25.841 377.901 25.4234 377.785C20.5558 376.384 16.3781 375.801 12.8826 377.696Z" fill="white"/>
<path d="M20.8465 362.255C20.9169 361.928 20.9816 361.558 21.0162 361.18C20.3776 361.049 19.7435 360.914 19.1049 360.791C19.1183 361.115 19.1373 361.444 19.0759 361.748C17.9751 367.341 13.8867 368.49 9.87314 368.103C8.78909 367.999 7.48287 367.619 6.65448 367.792C6.4658 368.27 6.27489 368.759 6.0918 369.259C6.89897 370.083 9.5103 370.121 10.5999 370.155C15.2811 370.32 19.6464 368.49 20.8465 362.255Z" fill="white"/>
<path d="M11.8622 360.773C8.93603 362.013 7.1944 366.009 5.63363 370.529C3.50795 376.728 1.85787 382.354 0.584025 388.548C0.0403239 391.183 -0.471001 394.288 0.761537 395.551L11.8622 360.773Z" fill="#003294"/>
<path d="M22.8277 392.345C22.6848 392.488 22.5151 392.619 22.3141 392.73C21.8675 392.989 21.3294 392.987 20.7232 392.71C18.5026 391.703 15.5318 387.052 15.0171 385.194C14.9658 385.013 15.006 384.817 15.1198 384.677C15.2304 384.538 15.4101 384.47 15.5753 384.499C16.8648 384.708 22.4392 388.07 23.1927 390.567C23.3904 391.236 23.2608 391.869 22.8277 392.345ZM16.4372 385.984C17.4219 388.014 19.6213 391.02 21.1151 391.69C21.4243 391.827 21.6621 391.857 21.8307 391.763C21.9468 391.693 22.0384 391.618 22.1053 391.548C22.2237 391.42 22.323 391.258 22.2136 390.899C21.7235 389.28 18.2916 386.919 16.4372 385.984Z" fill="#003294"/>
<path d="M18.5589 395.158C18.2284 395.518 17.7617 395.669 17.1856 395.624C16.6821 395.586 16.2333 395.275 15.8448 394.693C14.4537 392.577 14.2215 386.945 14.6982 385.087C14.7463 384.902 14.8702 384.762 15.0455 384.707C15.204 384.647 15.3904 384.687 15.5244 384.812C16.4421 385.662 18.9831 390.577 19.0724 393.374C19.1003 394.172 18.9306 394.771 18.5589 395.158ZM15.5177 386.578C15.3636 388.866 15.7522 392.642 16.6833 394.065C16.8775 394.354 17.0684 394.513 17.2515 394.535C17.5284 394.547 17.7249 394.496 17.841 394.374C18.0029 394.215 18.0754 393.878 18.0587 393.409C17.9939 391.465 16.489 388.208 15.5177 386.578Z" fill="#003294"/>
<path d="M11.9563 392.685L15.6439 385.495L14.7474 384.965L11.0576 392.159L11.9563 392.685Z" fill="#003294"/>
<path fill-rule="evenodd" clip-rule="evenodd" d="M156.165 391.091C146.024 408.915 143.03 433.38 140.274 458.054C140.616 458.946 141.892 458.896 142.645 459.161C146.747 460.601 151.617 462.02 156.539 463.295C157.861 463.638 159.397 463.892 160.671 464.226C166.641 451.333 171.375 438.902 177.041 425.451C180.828 416.486 185.326 406.066 188.192 395.499C189.205 391.769 190.184 387.655 190.087 383.825C189.984 379.573 188.168 375.884 186.06 372.366C180.31 362.784 172.979 353.591 166.603 345.055C162.32 339.315 157.901 333.226 153.556 326.987C148.076 319.145 140.927 310.419 143.826 297.695C129.456 295.565 113.449 294.153 99.2273 292.63C98.7082 292.573 98.6322 292.278 97.8038 292.408C96.4552 292.623 96.779 293.331 96.3804 294.828C94.6979 301.232 93.5302 309.282 94.0035 317.295C94.574 326.753 99.6069 334.408 104.212 340.871C117.503 359.525 138.358 377.484 156.165 391.091Z" fill="#00B2FF"/>
<path fill-rule="evenodd" clip-rule="evenodd" d="M160.743 474.351C163.553 476.308 166.149 478.31 168.21 480.681C168.537 481.058 168.045 481.398 168.343 481.793C168.493 481.991 169.444 482.237 169.586 482.44C169.91 482.905 170.215 483.386 170.498 483.884C171.16 485.047 172.14 486.691 171.451 488.032C170.533 489.816 167.088 489.166 164.227 488.493C158.225 487.083 152.779 485.321 146.79 483.076C141.951 481.254 137.725 479.236 137.16 475.756C136.852 473.849 137.187 471.789 137.657 469.673C137.717 469.402 138.796 469.382 138.859 469.108C138.94 468.762 138.007 468.163 138.089 467.816C138.111 467.721 138.133 467.627 138.156 467.532C138.837 464.689 139.8 461.976 141.383 458.865C145.725 459.666 151.329 461.248 156.607 463.244C157.637 459.963 159.923 459.41 163.368 460.303C164.545 460.61 166.434 461.393 166.719 462.158C167.292 463.699 162.031 472.617 160.743 474.351Z" fill="#EFAD1B"/>
<path d="M153.977 476.202C155.969 480.124 161.403 483.073 166.98 482.794C167.703 482.756 168.716 482.685 169.586 482.44C169.158 481.832 168.689 481.254 168.199 480.69C167.903 480.775 167.612 480.848 167.321 480.872C165.694 481.017 163.691 480.863 161.499 480.054C153.75 477.208 154.201 470.353 156.608 463.313L156.606 463.244C156.022 463.023 155.433 462.809 154.838 462.6C154.676 463.092 154.531 463.57 154.41 463.969C152.908 468.683 152.225 472.739 153.977 476.202Z" fill="white"/>
<path d="M139.13 468.011C138.817 467.94 138.457 467.86 138.088 467.814C137.943 468.437 137.793 469.055 137.655 469.671C137.973 469.668 138.294 469.662 138.59 469.725C144.019 470.953 145.026 474.971 144.538 478.878C144.406 479.933 144.008 481.195 144.145 482.004C144.608 482.206 145.08 482.403 145.569 482.595C146.389 481.831 146.494 479.287 146.562 478.224C146.847 473.659 145.183 469.352 139.13 468.011Z" fill="white"/>
<path d="M137.442 476.742C138.572 479.627 142.425 481.433 146.79 483.077C152.779 485.322 158.224 487.084 164.227 488.494C166.789 489.095 169.801 489.675 171.068 488.513L137.442 476.742Z" fill="#003294"/>
<path d="M168.541 466.897C168.675 467.043 168.803 467.212 168.9 467.409C169.142 467.854 169.129 468.38 168.837 468.961C167.798 471.105 163.175 473.874 161.347 474.323C161.172 474.369 160.984 474.323 160.855 474.212C160.723 474.1 160.656 473.924 160.691 473.76C160.925 472.513 164.359 467.165 166.814 466.496C167.477 466.32 168.088 466.459 168.541 466.897ZM162.162 472.961C164.169 472.05 167.16 469.987 167.855 468.55C167.998 468.254 168.029 468.019 167.946 467.855C167.882 467.74 167.809 467.648 167.748 467.58C167.624 467.457 167.467 467.358 167.116 467.455C165.521 467.889 163.128 471.174 162.162 472.961Z" fill="#003294"/>
<path d="M171.165 471.138C171.505 471.472 171.644 471.93 171.585 472.492C171.534 472.982 171.219 473.411 170.643 473.771C168.541 475.078 163.037 475.145 161.241 474.633C161.058 474.585 160.924 474.454 160.879 474.283C160.825 474.125 160.865 473.947 160.991 473.816C161.848 472.947 166.711 470.601 169.443 470.59C170.219 470.584 170.803 470.769 171.165 471.138ZM162.714 473.874C164.938 474.088 168.636 473.813 170.049 472.941C170.343 472.758 170.498 472.576 170.526 472.4C170.545 472.127 170.499 471.934 170.386 471.818C170.235 471.658 169.909 471.578 169.453 471.582C167.55 471.589 164.332 472.966 162.714 473.874Z" fill="#003294"/>
<path d="M168.579 477.516L161.661 473.723L161.123 474.583L168.038 478.377L168.579 477.516Z" fill="#003294"/>
<path fill-rule="evenodd" clip-rule="evenodd" d="M14.4373 146.578C13.4761 146.304 10.4885 144.856 8.87418 144.653C8.2501 144.568 7.48311 144.644 7.28662 145.138C6.87801 146.169 9.34308 147.115 10.1614 147.554C11.5614 148.32 12.4925 148.929 13.7117 149.549C12.5763 149.377 9.68471 147.955 7.71756 147.608C6.89364 147.459 5.92458 147.438 5.70129 148.081C5.41102 148.89 7.34914 149.886 7.98662 150.236C11.0579 151.932 14.4731 153.85 16.6133 155.653C19.0795 157.732 20.9115 159.831 22.5002 162.474C22.8854 163.113 23.4157 164.633 24.1637 164.872C24.5131 164.985 25.4554 164.742 25.7925 164.6C26.9391 164.115 28.0879 163.17 29.5717 162.054C30.131 161.626 30.7149 161.224 31.3479 160.597C31.8626 160.09 32.8361 159.312 32.9578 158.994C33.1543 158.489 32.6831 157.292 32.3985 156.589C31.5645 154.53 30.1511 151.734 29.4031 150.051C28.7645 148.59 28.0969 147.059 27.4918 145.647C26.9291 144.308 25.1126 139.906 23.1801 140.366C21.5814 140.75 23.8935 144.814 23.9739 146.01C22.45 144.509 19.5897 142.439 16.1868 141.026C15.2959 140.655 13.4661 139.79 12.9625 140.45C12.2659 141.355 13.6949 142.093 14.2766 142.549C15.0893 143.18 15.6118 143.724 16.4078 144.153C15.0949 143.845 12.4356 142.478 10.8313 142.323C10.3032 142.272 9.64675 142.398 9.47482 142.768C9.08184 143.638 10.5812 144.209 11.4855 144.753C12.7203 145.494 13.4672 146.057 14.3335 146.552C14.3614 146.557 14.3916 146.569 14.4373 146.578Z" fill="#FCD2C0"/>
<path fill-rule="evenodd" clip-rule="evenodd" d="M195.427 148.992C195.214 150.794 194.679 153.851 194.479 156.042C194.418 156.795 194.323 158.066 194.657 158.497C194.867 158.777 196.034 159.273 196.681 159.626C197.434 160.051 198.085 160.283 198.726 160.536C200.944 158.93 203.545 157.79 206.324 157.228C207.051 155.094 208.023 153.147 209.379 151.118C210.905 148.837 213.624 146.122 216.073 143.707C216.584 143.203 218.156 141.755 217.639 141.051C217.233 140.491 216.302 140.763 215.554 141.106C213.764 141.948 211.412 144.054 210.373 144.508C211.357 143.603 212.071 142.775 213.196 141.683C213.842 141.05 215.941 139.511 215.239 138.631C214.903 138.206 214.146 138.329 213.57 138.565C212.128 139.154 209.823 141.166 208.906 141.761L208.887 141.779C208.86 141.799 208.825 141.814 208.795 141.833C208.825 141.814 208.875 141.776 208.906 141.761C209.579 141.066 210.133 140.345 211.094 139.323C211.799 138.569 213.078 137.644 212.437 136.906C212.168 136.59 211.498 136.638 211.01 136.821C209.505 137.379 207.36 139.376 206.176 140.005C206.813 139.389 207.166 138.736 207.753 137.919C208.179 137.327 209.339 136.256 208.4 135.567C207.713 135.057 206.212 136.358 205.466 136.937C202.616 139.163 200.475 141.882 199.461 143.718C199.178 142.552 200.193 138.05 198.551 138.092C196.551 138.137 196.105 142.835 195.958 144.264C195.803 145.773 195.612 147.423 195.427 148.992Z" fill="#FCD2C0"/>
<path fill-rule="evenodd" clip-rule="evenodd" d="M195.359 149.514C198.431 150.459 204.969 152.557 207.884 153.613C204.43 163.382 198.439 185.022 195.05 193.419C191.629 201.915 189.917 207.282 183.522 212.998C171.16 224.05 162.172 229.04 157.405 241.14C153.649 250.68 156.915 289.898 158.956 312.727C144.343 314.548 100.14 318.753 82.1759 316.568C82.7542 303.572 85.1154 254.56 80.7223 245.24C77.7883 239.024 65.0085 226.905 61.4292 224.494C54.3288 219.718 47.312 214.424 41.9264 207.932C36.2605 201.107 23.1603 174.87 19.2305 158.129C22.6601 155.83 26.7184 154.609 30.8447 153.142C38.8204 167.632 47.8579 185.325 61.3433 195.781C74.6422 206.084 87.47 215.261 107.886 221.045C116.421 222.668 120.405 222.46 125.511 220.152C138.885 212.162 155.77 206.234 168.414 197.484C181.211 188.63 195.359 149.514 195.359 149.514Z" fill="#EFAD1B"/>
<path fill-rule="evenodd" clip-rule="evenodd" d="M124.033 213.965C130.205 213.334 133.909 210.631 133.295 203.717C133.079 201.213 132.245 197.702 131.744 194.375C130.824 188.289 129.55 183.977 126.092 180.972C123.796 178.981 120.585 177.93 117.839 177.413C115.042 176.893 110.776 177.728 108.655 178.562C103.041 180.776 98.3874 187.771 100.284 195.274C101.03 198.211 102.446 200.749 103.88 202.926C106.211 206.469 106.787 209.417 107.323 214.119C107.552 216.084 107.76 220.456 107.76 220.456C107.806 224.666 113.991 230.864 118.653 230.092C121.473 229.63 124.462 226.159 124.065 221.963L124.033 213.965Z" fill="#FCD2C0"/>
<path fill-rule="evenodd" clip-rule="evenodd" d="M110.627 204.483C110.861 207.25 109.728 209.436 106.573 209.898C101.567 210.638 90.8346 197.711 91.8226 189.378C92.1542 186.52 93.8981 184.247 96.8265 182.629C98.5089 178.019 99.823 175.409 105.945 173.076C113.996 170.009 128.062 167.454 130.805 172.198C133.184 176.318 129.924 180.664 127.631 182.597C126.328 183.693 124.089 184.921 122.232 185.788C120.116 186.782 117.409 187.202 116.076 188.417C114.948 189.457 114.859 192.177 114.994 194.253C115.088 195.622 116.322 199.218 113.915 200.092C110.763 201.231 109.635 195.455 106.379 196.305C103.401 197.091 104.193 201.131 106.222 203.178C107.561 204.531 109.063 204.354 110.627 204.483Z" fill="#003294"/>
<path fill-rule="evenodd" clip-rule="evenodd" d="M122.385 191.376C123.225 190.223 124.141 189.608 125.009 189.311C127.078 189.294 127.549 189.751 127.549 189.751C127.549 189.751 127.768 190.28 126.866 191.372C126.596 191.503 126.293 191.625 125.953 191.731C124.295 192.249 122.385 191.376 122.385 191.376Z" fill="white"/>
<path fill-rule="evenodd" clip-rule="evenodd" d="M128.82 189.67C128.82 189.67 127.054 188.623 125.009 189.31C124.976 189.478 124.885 189.802 124.909 189.977C124.998 190.755 125.709 191.347 126.607 191.485C128.301 190.762 128.82 189.67 128.82 189.67Z" fill="#003294"/>
<path d="M121.327 190.19C122.952 187.426 126.524 186.949 127.908 187.156L128.097 186.054C125.919 185.725 122.051 186.628 120.27 189.658L121.327 190.19Z" fill="#003294"/>
<path fill-rule="evenodd" clip-rule="evenodd" d="M130.336 188.883C129.291 188.939 130.985 195.488 132.174 197.943C133.525 198.042 135.186 197.423 135.404 196.364C135.856 194.268 131.321 188.829 130.336 188.883Z" fill="#FCD2C0"/>
<path opacity="0.13" fill-rule="evenodd" clip-rule="evenodd" d="M130.336 188.883C129.291 188.939 130.985 195.488 132.174 197.943C133.525 198.042 135.186 197.423 135.404 196.364C135.856 194.268 131.321 188.829 130.336 188.883Z" fill="black"/>
<path opacity="0.13" d="M125.767 201.275L124.925 202.296C127.176 203.882 130.537 204.698 133.242 203.237C133.196 202.787 133.139 202.318 133.061 201.82C130.824 203.391 127.766 202.69 125.767 201.275Z" fill="black"/>
<path opacity="0.13" fill-rule="evenodd" clip-rule="evenodd" d="M124.032 213.965C124.032 213.965 117.855 213.725 113.603 211.65C113.603 211.65 116.18 219.082 124.148 219.157L124.032 213.965Z" fill="black"/>
<path fill-rule="evenodd" clip-rule="evenodd" d="M106.766 241.109C109.828 241.724 119.893 232.521 119.488 230.523C119.044 228.38 110.009 217.292 108.286 216.945C105.673 216.808 105.535 220.352 105.234 222.689C104.72 226.647 104.738 230.795 104.989 235.01C105.119 237.325 104.682 240.696 106.766 241.109Z" fill="white"/>
<path fill-rule="evenodd" clip-rule="evenodd" d="M118.776 230.633C119.247 233.67 127.614 238.928 129.469 238.007C131.42 237.033 127.187 219.512 124.398 219.186C121.847 220.284 118.364 227.999 118.776 230.633Z" fill="white"/>
<path opacity="0.19" d="M166.439 396.601C163.233 394.4 159.15 392.158 155.53 390.236C155.256 390.188 155.144 390.303 155.009 390.386C155.354 390.648 155.7 390.919 156.034 391.177C154.942 393.096 153.949 395.105 153 397.159C157.92 398.398 163.566 399.776 168.985 399.663C169.176 398.164 167.516 397.336 166.439 396.601Z" fill="black"/>
</svg>
