<svg width="24" height="24" viewBox="0 0 24 24" fill="none" xmlns="http://www.w3.org/2000/svg">
<path fill-rule="evenodd" clip-rule="evenodd" d="M23.73 12C23.73 18.6276 18.418 24 11.865 24C5.31196 24 0 18.6276 0 12C0 5.3724 5.31196 0 11.865 0C18.418 0 23.73 5.3724 23.73 12ZM7.2507 16.6668C7.13948 16.5543 7.07701 16.4017 7.07701 16.2426C7.07701 16.0835 7.13948 15.9309 7.2507 15.8184L11.0261 12L7.2507 8.1816C7.14264 8.06844 7.08284 7.91688 7.08419 7.75956C7.08554 7.60224 7.14794 7.45175 7.25793 7.34051C7.36792 7.22926 7.51672 7.16616 7.67226 7.1648C7.82781 7.16343 7.97767 7.22391 8.08956 7.3332L11.865 11.1516L15.6404 7.3332C15.7523 7.22391 15.9022 7.16343 16.0577 7.1648C16.2133 7.16616 16.3621 7.22926 16.4721 7.34051C16.5821 7.45175 16.6445 7.60224 16.6458 7.75956C16.6472 7.91688 16.5874 8.06844 16.4793 8.1816L12.7039 12L16.4793 15.8184C16.5874 15.9316 16.6472 16.0831 16.6458 16.2404C16.6445 16.3978 16.5821 16.5482 16.4721 16.6595C16.3621 16.7707 16.2133 16.8338 16.0577 16.8352C15.9022 16.8366 15.7523 16.7761 15.6404 16.6668L11.865 12.8484L8.08956 16.6668C7.97831 16.7793 7.82744 16.8425 7.67013 16.8425C7.51282 16.8425 7.36195 16.7793 7.2507 16.6668Z" fill="#F54547"/>
</svg>
