<svg width="80" height="81" viewBox="0 0 80 81" fill="none" xmlns="http://www.w3.org/2000/svg">
<path d="M46.2397 6.75228L46.239 6.75087C44.3934 3.04027 42.0836 1.4375 39.9863 1.4375C37.888 1.4375 35.5684 3.04153 33.7029 6.75228H46.2397ZM46.2397 6.75228L53.2762 20.8252C53.2767 20.8263 53.2773 20.8274 53.2778 20.8284C53.8253 21.9445 54.7984 22.99 55.8942 23.7985C56.9915 24.6082 58.2796 25.2303 59.5058 25.4346L59.5062 25.4347M46.2397 6.75228L59.5062 25.4347M59.5062 25.4347L72.2644 27.5544C72.2645 27.5544 72.2647 27.5544 72.2648 27.5545C76.2148 28.2129 78.3967 29.9286 79.0379 31.9236C79.6786 33.9169 78.9046 36.5745 76.0587 39.401L76.0569 39.4028M59.5062 25.4347L76.0569 39.4028M76.0569 39.4028L66.138 49.3217C65.1857 50.274 64.4827 51.6275 64.0825 53.0253C63.6823 54.4234 63.5628 55.9439 63.8567 57.2553L63.8579 57.2603M76.0569 39.4028L63.8579 57.2603M63.8579 57.2603L66.6974 69.5383L63.8579 57.2603ZM65.2916 78.5128C66.9878 77.2763 67.8027 74.3348 66.6976 69.5389L65.2916 78.5128ZM65.2916 78.5128C63.5942 79.7502 60.5353 79.6302 56.2916 77.1236L65.2916 78.5128ZM26.6664 20.8252L33.7022 6.75368L56.291 77.1232L44.3332 70.0445C44.3331 70.0445 44.333 70.0444 44.3329 70.0444C43.1091 69.3193 41.5385 68.9799 40.0063 68.9799C38.4733 68.9799 36.8954 69.3196 35.6546 70.0415L35.6497 70.0444L23.691 77.1236L23.6903 77.124C19.4699 79.6286 16.4099 79.7411 14.7062 78.498C13.0031 77.2553 12.1807 74.3111 13.285 69.539L13.2851 69.5389L16.1248 57.2603L16.1259 57.2553C16.4198 55.9439 16.3003 54.4234 15.9001 53.0253C15.5 51.6275 14.7969 50.274 13.8446 49.3217L3.92568 39.4028C1.09901 36.5762 0.323061 33.9173 0.96016 31.9222C1.59701 29.9279 3.76861 28.2128 7.71781 27.5545C7.71794 27.5544 7.71807 27.5544 7.71819 27.5544L20.4764 25.4347L20.479 25.4343C21.686 25.2293 22.9639 24.6064 24.0548 23.7975C25.1448 22.9893 26.1177 21.944 26.665 20.828C26.6655 20.8271 26.6659 20.8261 26.6664 20.8252Z" fill="#FABF35" stroke="#FABF35" stroke-width="1.5" stroke-linecap="round" stroke-linejoin="round"/>
<path d="M30.8708 38.4486C32.3711 38.4486 33.5873 37.2324 33.5873 35.7321C33.5873 34.2318 32.3711 33.0156 30.8708 33.0156C29.3705 33.0156 28.1543 34.2318 28.1543 35.7321C28.1543 37.2324 29.3705 38.4486 30.8708 38.4486Z" fill="#BB8300"/>
<path d="M49.3161 38.4486C50.8164 38.4486 52.0326 37.2324 52.0326 35.7321C52.0326 34.2318 50.8164 33.0156 49.3161 33.0156C47.8158 33.0156 46.5996 34.2318 46.5996 35.7321C46.5996 37.2324 47.8158 38.4486 49.3161 38.4486Z" fill="#BB8300"/>
<path d="M50.6028 49.8755C50.591 49.9246 50.5881 49.9432 50.5832 49.9682L50.5704 50.0364L50.5468 50.1595C50.5302 50.2395 50.5125 50.313 50.4949 50.3886C50.4595 50.5357 50.4169 50.6789 50.3742 50.8207C50.2846 51.0983 50.1793 51.3707 50.0588 51.6364C49.8175 52.166 49.5216 52.669 49.1759 53.1372C48.4707 54.0786 47.5949 54.8791 46.594 55.497C46.0981 55.7999 45.5794 56.064 45.0426 56.2866C44.5146 56.5019 43.9715 56.6781 43.4177 56.8139C42.3468 57.0745 41.2487 57.2062 40.1466 57.2063C39.0584 57.2177 37.9724 57.1058 36.9094 56.8728L36.5028 56.7776C36.3674 56.7467 36.2321 56.7021 36.0977 56.6648C35.9633 56.6275 35.8279 56.5902 35.694 56.5412L35.2928 56.4009C34.7548 56.2027 34.2331 55.9626 33.7326 55.6829C33.2252 55.3998 32.7431 55.0738 32.2915 54.7083C31.8395 54.3378 31.4231 53.926 31.0477 53.4781C30.954 53.3663 30.8662 53.2486 30.7769 53.1348C30.6876 53.021 30.6043 52.8994 30.5233 52.7782C30.3612 52.5353 30.2123 52.2838 30.0775 52.0248C29.9406 51.7642 29.8201 51.4954 29.7165 51.2199C29.6674 51.0801 29.6159 50.9379 29.5723 50.7903C29.5507 50.7138 29.5296 50.6431 29.509 50.5602L29.4791 50.4361L29.4629 50.3675C29.4565 50.3405 29.4536 50.3248 29.4384 50.2718C29.3073 49.9015 29.3287 49.4942 29.4979 49.1397C29.6671 48.7851 29.9703 48.5123 30.3406 48.3813C30.711 48.2502 31.1182 48.2716 31.4728 48.4408C31.8273 48.61 32.1001 48.9131 32.2312 49.2835C32.2263 49.258 32.2341 49.2688 32.2381 49.2693C32.242 49.2698 32.2489 49.2761 32.2547 49.2811C32.2606 49.286 32.2798 49.3021 32.2945 49.3164L32.3788 49.4007C32.4391 49.4606 32.4995 49.5229 32.5637 49.5837C32.6888 49.7078 32.8247 49.8289 32.96 49.9457C33.2307 50.1776 33.517 50.3906 33.8169 50.5833C34.1123 50.7741 34.4192 50.9463 34.7361 51.0988C35.0544 51.2483 35.3805 51.3804 35.7131 51.4946C36.0511 51.6105 36.3949 51.7087 36.7431 51.7889C36.9212 51.8267 37.0963 51.8684 37.2793 51.8973C37.37 51.913 37.4578 51.9326 37.5505 51.9463L37.8266 51.9866C38.5884 52.0888 39.3565 52.1368 40.125 52.1303C40.8805 52.1318 41.6349 52.0741 42.3813 51.9576C42.7357 51.902 43.0872 51.8287 43.4343 51.7379C43.7752 51.6471 44.1053 51.5368 44.4305 51.4151C45.0783 51.161 45.6908 50.8249 46.2531 50.4151C46.5417 50.202 46.8161 49.9705 47.0747 49.722C47.2032 49.595 47.3327 49.4655 47.4534 49.3325L47.5436 49.2345L47.63 49.1364L47.7114 49.0441C47.7261 49.0284 47.7379 49.0167 47.7496 49.0049C47.7543 48.9992 47.7599 48.9944 47.7663 48.9907C47.7712 48.9907 47.7781 48.9794 47.7746 49.0015C47.832 48.8156 47.9255 48.6428 48.0496 48.493C48.1738 48.3433 48.3262 48.2194 48.4983 48.1285C48.6703 48.0377 48.8585 47.9816 49.0522 47.9635C49.2459 47.9454 49.4413 47.9656 49.6272 48.023C49.8131 48.0803 49.9859 48.1738 50.1356 48.298C50.2854 48.4221 50.4093 48.5746 50.5001 48.7466C50.591 48.9186 50.6471 49.1068 50.6652 49.3005C50.6833 49.4942 50.6631 49.6896 50.6057 49.8755H50.6028Z" fill="#BB8300"/>
</svg>
