<svg width="80" height="80" viewBox="0 0 80 80" fill="none" xmlns="http://www.w3.org/2000/svg">
<path d="M46.9105 6.07312L53.9498 20.1516C54.9097 22.1113 57.4694 23.9911 59.6291 24.3511L72.3877 26.4709C80.5468 27.8307 82.4666 33.7501 76.5873 39.5894L66.6684 49.5083C64.9885 51.1881 64.0686 54.4278 64.5886 56.7475L67.4283 69.0262C69.668 78.7451 64.5086 82.5047 55.9095 77.4252L43.9509 70.346C41.7911 69.0662 38.2315 69.0662 36.0317 70.346L24.0731 77.4252C15.514 82.5047 10.3146 78.7051 12.5543 69.0262L15.394 56.7475C15.914 54.4278 14.9941 51.1881 13.3143 49.5083L3.39535 39.5894C-2.444 33.7501 -0.564207 27.8307 7.59489 26.4709L20.3535 24.3511C22.4732 23.9911 25.033 22.1113 25.9929 20.1516L33.0321 6.07312C36.8717 -1.56604 43.111 -1.56604 46.9105 6.07312Z" fill="#FABF35"/>
<path d="M31.5085 38.1049C33.0088 38.1049 34.225 36.8887 34.225 35.3884C34.225 33.8881 33.0088 32.6719 31.5085 32.6719C30.0082 32.6719 28.792 33.8881 28.792 35.3884C28.792 36.8887 30.0082 38.1049 31.5085 38.1049Z" fill="#BB8300"/>
<path d="M48.7751 38.1049C50.2754 38.1049 51.4916 36.8887 51.4916 35.3884C51.4916 33.8881 50.2754 32.6719 48.7751 32.6719C47.2748 32.6719 46.0586 33.8881 46.0586 35.3884C46.0586 36.8887 47.2748 38.1049 48.7751 38.1049Z" fill="#BB8300"/>
<path d="M30.1652 47.9062C29.4443 47.9255 29.0215 48.6183 29.0215 50.4847C29.0215 56.6828 38.1121 56.8757 39.8788 56.8545C41.5711 56.878 50.7655 56.7168 50.7655 50.4851C50.7655 48.6762 50.3684 47.9696 49.6875 47.9104" fill="#BB8300"/>
</svg>
