<svg width="51" height="50" viewBox="0 0 51 50" fill="none" xmlns="http://www.w3.org/2000/svg">
<path d="M20.85 28.75C17.223 28.75 10 31.2571 10 36.25V40H31.7V36.25C31.7 31.2571 24.477 28.75 20.85 28.75ZM13.627 35.7143C14.929 34.4714 18.0755 33.0357 20.85 33.0357C23.6245 33.0357 26.771 34.4714 28.073 35.7143H13.627ZM20.85 25C23.8415 25 26.275 21.6357 26.275 17.5C26.275 13.3643 23.8415 10 20.85 10C17.8585 10 15.425 13.3643 15.425 17.5C15.425 21.6357 17.8585 25 20.85 25ZM20.85 14.2857C22.1365 14.2857 23.175 15.7214 23.175 17.5C23.175 19.2786 22.1365 20.7143 20.85 20.7143C19.5635 20.7143 18.525 19.2786 18.525 17.5C18.525 15.7214 19.5635 14.2857 20.85 14.2857ZM31.762 28.8786C33.56 30.6786 34.8 33.0786 34.8 36.25V40H41V36.25C41 31.9214 35.575 29.4571 31.762 28.8786ZM30.15 25C33.1415 25 35.575 21.6357 35.575 17.5C35.575 13.3643 33.1415 10 30.15 10C29.313 10 28.538 10.2786 27.825 10.75C28.8015 12.6571 29.375 14.9929 29.375 17.5C29.375 20.0071 28.8015 22.3429 27.825 24.25C28.538 24.7214 29.313 25 30.15 25Z" fill="black"/>
</svg>
