<svg width="96" height="95" viewBox="0 0 96 95" fill="none" xmlns="http://www.w3.org/2000/svg">
<circle cx="48.416" cy="47.5" r="47.5" fill="#D2D2D2"/>
<path d="M48.4167 29.1665C50.7594 29.1665 53.0062 30.1323 54.6628 31.8514C56.3193 33.5704 57.25 35.902 57.25 38.3332C57.25 40.7643 56.3193 43.0959 54.6628 44.815C53.0062 46.5341 50.7594 47.4998 48.4167 47.4998C46.0739 47.4998 43.8271 46.5341 42.1706 44.815C40.514 43.0959 39.5833 40.7643 39.5833 38.3332C39.5833 35.902 40.514 33.5704 42.1706 31.8514C43.8271 30.1323 46.0739 29.1665 48.4167 29.1665ZM48.4167 33.7498C47.2453 33.7498 46.1219 34.2327 45.2936 35.0923C44.4653 35.9518 44 37.1176 44 38.3332C44 39.5487 44.4653 40.7145 45.2936 41.5741C46.1219 42.4336 47.2453 42.9165 48.4167 42.9165C49.588 42.9165 50.7114 42.4336 51.5397 41.5741C52.368 40.7145 52.8333 39.5487 52.8333 38.3332C52.8333 37.1176 52.368 35.9518 51.5397 35.0923C50.7114 34.2327 49.588 33.7498 48.4167 33.7498ZM48.4167 49.7915C54.3129 49.7915 66.0833 52.8394 66.0833 58.9582V65.8332H30.75V58.9582C30.75 52.8394 42.5204 49.7915 48.4167 49.7915ZM48.4167 54.1457C41.8579 54.1457 34.9458 57.4915 34.9458 58.9582V61.479H61.8875V58.9582C61.8875 57.4915 54.9754 54.1457 48.4167 54.1457Z" fill="#424242"/>
</svg>
