<svg width="51" height="50" viewBox="0 0 51 50" fill="none" xmlns="http://www.w3.org/2000/svg">
<path fill-rule="evenodd" clip-rule="evenodd" d="M29.9286 18.5C29.9286 19.4851 29.462 20.4298 28.6315 21.1264C27.801 21.823 26.6745 22.2143 25.5 22.2143C24.3255 22.2143 23.199 21.823 22.3685 21.1264C21.538 20.4298 21.0714 19.4851 21.0714 18.5C21.0714 17.5149 21.538 16.5702 22.3685 15.8736C23.199 15.177 24.3255 14.7857 25.5 14.7857C26.6745 14.7857 27.801 15.177 28.6315 15.8736C29.462 16.5702 29.9286 17.5149 29.9286 18.5ZM33.25 18.5C33.25 20.2239 32.4335 21.8772 30.9801 23.0962C29.5267 24.3152 27.5554 25 25.5 25C23.4446 25 21.4733 24.3152 20.0199 23.0962C18.5665 21.8772 17.75 20.2239 17.75 18.5C17.75 16.7761 18.5665 15.1228 20.0199 13.9038C21.4733 12.6848 23.4446 12 25.5 12C27.5554 12 29.5267 12.6848 30.9801 13.9038C32.4335 15.1228 33.25 16.7761 33.25 18.5ZM13.3214 33.3571C13.3214 32.9783 13.8086 31.8547 16.2443 30.6476C18.4984 29.5314 21.78 28.7143 25.5 28.7143C29.22 28.7143 32.5016 29.5314 34.7557 30.6476C37.1914 31.8547 37.6786 32.9783 37.6786 33.3571C37.6786 33.8497 37.4453 34.3221 37.03 34.6703C36.6148 35.0186 36.0515 35.2143 35.4643 35.2143H15.5357C14.9484 35.2143 14.3852 35.0186 13.97 34.6703C13.5547 34.3221 13.3214 33.8497 13.3214 33.3571ZM25.5 25.9286C16.975 25.9286 10 29.6429 10 33.3571C10 34.5885 10.5832 35.7694 11.6214 36.6401C12.6595 37.5108 14.0676 38 15.5357 38H35.4643C36.9324 38 38.3405 37.5108 39.3786 36.6401C40.4168 35.7694 41 34.5885 41 33.3571C41 29.6429 34.025 25.9286 25.5 25.9286Z" fill="black"/>
</svg>
