<svg width="53" height="44" viewBox="0 0 53 44" fill="none" xmlns="http://www.w3.org/2000/svg">
<g clip-path="url(#clip0_1653_4704)">
<path d="M30.1109 40.6427L30.1109 33.3005C30.1109 32.3048 31.0648 31.4979 32.2417 31.4979C36.4404 31.4979 38.7243 27.8541 39.0408 20.6622L32.2417 20.6622C31.0648 20.6622 30.1109 19.8547 30.1109 18.8593L30.1109 3.35658C30.1109 2.36132 31.0649 1.55438 32.2417 1.55438L50.3697 1.55438C51.5469 1.55438 52.5 2.36196 52.5 3.35659L52.5 18.8593C52.5 22.3069 52.0898 25.4707 51.281 28.2637C50.4516 31.1276 49.1784 33.6316 47.4979 35.7065C45.7688 37.8388 43.6058 39.5121 41.0687 40.6778C38.5144 41.8505 35.544 42.4453 32.2409 42.4453C31.0648 42.4453 30.1109 41.6385 30.1109 40.6427ZM2.63092 31.4978C1.45471 31.4978 0.499997 32.3054 0.499997 33.3004L0.499996 40.6426C0.499996 41.6384 1.45456 42.4452 2.63092 42.4452C5.9327 42.4452 8.9035 41.8502 11.4569 40.6776C13.9945 39.512 16.1586 37.8387 17.8881 35.7064C19.568 33.6315 20.8412 31.1274 21.6707 28.2628C22.479 25.4689 22.8893 22.3051 22.8893 18.8591L22.8893 3.35646C22.8893 2.3612 21.935 1.55425 20.7585 1.55425L2.63108 1.55424C1.45486 1.55424 0.501042 2.36182 0.501041 3.35646L0.50104 18.8593C0.50104 19.8545 1.45471 20.6622 2.63108 20.6622L9.33326 20.6622C9.02147 27.8539 6.77093 31.4978 2.63092 31.4978Z" fill="#0884A2"/>
</g>
<defs>
<clipPath id="clip0_1653_4704">
<rect width="52" height="44" fill="white" transform="translate(52.5 44) rotate(-180)"/>
</clipPath>
</defs>
</svg>
