<svg width="80" height="80" viewBox="0 0 80 80" fill="none" xmlns="http://www.w3.org/2000/svg">
<path d="M46.2397 6.06478L46.239 6.06337C44.3934 2.35277 42.0836 0.75 39.9863 0.75C37.888 0.75 35.5684 2.35403 33.7029 6.06478H46.2397ZM46.2397 6.06478L53.2762 20.1377C53.2767 20.1388 53.2773 20.1399 53.2778 20.1409C53.8253 21.257 54.7984 22.3025 55.8942 23.111C56.9915 23.9207 58.2796 24.5428 59.5058 24.7471L59.5062 24.7472M46.2397 6.06478L59.5062 24.7472M59.5062 24.7472L72.2644 26.8669C72.2645 26.8669 72.2647 26.867 72.2648 26.867C76.2148 27.5254 78.3967 29.2411 79.0379 31.2361C79.6786 33.2294 78.9046 35.887 76.0587 38.7135L76.0569 38.7153M59.5062 24.7472L76.0569 38.7153M76.0569 38.7153L66.138 48.6342C65.1857 49.5865 64.4827 50.94 64.0825 52.3378C63.6823 53.7359 63.5628 55.2564 63.8567 56.5678L63.8579 56.5728M76.0569 38.7153L63.8579 56.5728M63.8579 56.5728L66.6974 68.8508L63.8579 56.5728ZM65.2916 77.8253C66.9878 76.5888 67.8027 73.6473 66.6976 68.8514L65.2916 77.8253ZM65.2916 77.8253C63.5942 79.0627 60.5353 78.9427 56.2916 76.4361L65.2916 77.8253ZM26.6664 20.1377L33.7022 6.06618L56.291 76.4357L44.3332 69.357C44.3331 69.357 44.333 69.3569 44.3329 69.3569C43.1091 68.6318 41.5385 68.2924 40.0063 68.2924C38.4733 68.2924 36.8954 68.6321 35.6546 69.354L35.6497 69.3569L23.691 76.4361L23.6903 76.4365C19.4699 78.9411 16.4099 79.0536 14.7062 77.8105C13.0031 76.5678 12.1807 73.6237 13.285 68.8515L13.2851 68.8514L16.1248 56.5728L16.1259 56.5678C16.4198 55.2564 16.3003 53.7359 15.9001 52.3378C15.5 50.94 14.7969 49.5865 13.8446 48.6342L3.92568 38.7153C1.09901 35.8887 0.323061 33.2298 0.960161 31.2347C1.59701 29.2404 3.76861 27.5253 7.71781 26.867C7.71794 26.867 7.71807 26.8669 7.71819 26.8669L20.4764 24.7472L20.479 24.7468C21.686 24.5418 22.9639 23.9189 24.0548 23.11C25.1448 22.3018 26.1177 21.2565 26.665 20.1405C26.6655 20.1396 26.6659 20.1386 26.6664 20.1377Z" fill="#E8E8E8" stroke="#E8E8E8" stroke-width="1.5" stroke-linecap="round" stroke-linejoin="round"/>
<path d="M31.5085 37.7611C33.0088 37.7611 34.225 36.5449 34.225 35.0446C34.225 33.5443 33.0088 32.3281 31.5085 32.3281C30.0082 32.3281 28.792 33.5443 28.792 35.0446C28.792 36.5449 30.0082 37.7611 31.5085 37.7611Z" fill="#C6C6C6"/>
<path d="M48.7751 37.7611C50.2754 37.7611 51.4916 36.5449 51.4916 35.0446C51.4916 33.5443 50.2754 32.3281 48.7751 32.3281C47.2748 32.3281 46.0586 33.5443 46.0586 35.0446C46.0586 36.5449 47.2748 37.7611 48.7751 37.7611Z" fill="#C6C6C6"/>
<path d="M30.1652 47.5625C29.4443 47.5818 29.0215 48.2746 29.0215 50.1409C29.0215 56.3391 38.1121 56.5319 39.8788 56.5108C41.5711 56.5342 50.7655 56.373 50.7655 50.1414C50.7655 48.3324 50.3684 47.6259 49.6875 47.5666" fill="#C6C6C6"/>
</svg>
