<svg width="81" height="80" viewBox="0 0 81 80" fill="blue" xmlns="http://www.w3.org/2000/svg">
<path d="M46.7397 6.06478L46.739 6.06337C44.8934 2.35277 42.5836 0.75 40.4863 0.75C38.388 0.75 36.0684 2.35403 34.2029 6.06478H46.7397ZM46.7397 6.06478L53.7762 20.1377C53.7767 20.1388 53.7773 20.1399 53.7778 20.1409C54.3253 21.257 55.2984 22.3025 56.3942 23.111C57.4915 23.9207 58.7796 24.5428 60.0058 24.7471L60.0062 24.7472M46.7397 6.06478L60.0062 24.7472M60.0062 24.7472L72.7644 26.8669C72.7645 26.8669 72.7647 26.8669 72.7648 26.867C76.7148 27.5254 78.8967 29.2411 79.5379 31.2361C80.1786 33.2294 79.4046 35.887 76.5587 38.7135L76.5569 38.7153M60.0062 24.7472L76.5569 38.7153M76.5569 38.7153L66.638 48.6342C65.6857 49.5865 64.9827 50.94 64.5825 52.3378C64.1823 53.7359 64.0628 55.2564 64.3567 56.5678L64.3579 56.5728M76.5569 38.7153L64.3579 56.5728M64.3579 56.5728L67.1974 68.8508L64.3579 56.5728ZM65.7916 77.8253C67.4878 76.5888 68.3027 73.6473 67.1976 68.8514L65.7916 77.8253ZM65.7916 77.8253C64.0942 79.0627 61.0353 78.9427 56.7916 76.4361L65.7916 77.8253ZM27.1664 20.1377L34.2022 6.06618L56.791 76.4357L44.8332 69.357C44.8331 69.357 44.833 69.3569 44.8329 69.3569C43.6091 68.6318 42.0385 68.2924 40.5063 68.2924C38.9733 68.2924 37.3954 68.6321 36.1546 69.354L36.1497 69.3569L24.191 76.4361L24.1903 76.4365C19.9699 78.9411 16.9099 79.0536 15.2062 77.8105C13.5031 76.5678 12.6807 73.6236 13.785 68.8515L13.7851 68.8514L16.6248 56.5728L16.6259 56.5678C16.9198 55.2564 16.8003 53.7359 16.4001 52.3378C16 50.94 15.2969 49.5865 14.3446 48.6342L4.42568 38.7153C1.59901 35.8887 0.823061 33.2298 1.46016 31.2347C2.09701 29.2404 4.26861 27.5253 8.21781 26.867C8.21794 26.8669 8.21807 26.8669 8.21819 26.8669L20.9764 24.7472L20.979 24.7468C22.186 24.5418 23.4639 23.9189 24.5548 23.11C25.6448 22.3018 26.6177 21.2565 27.165 20.1405C27.1655 20.1396 27.1659 20.1386 27.1664 20.1377Z" fill="#E8E8E8" stroke="#E8E8E8" stroke-width="1.5" stroke-linecap="round" stroke-linejoin="round"/>
<path d="M31.3728 37.7631C32.873 37.7631 34.0892 36.5469 34.0892 35.0466C34.0892 33.5463 32.873 32.3301 31.3728 32.3301C29.8725 32.3301 28.6562 33.5463 28.6562 35.0466C28.6562 36.5469 29.8725 37.7631 31.3728 37.7631Z" fill="#C6C6C6"/>
<path d="M49.818 37.7631C51.3183 37.7631 52.5346 36.5469 52.5346 35.0466C52.5346 33.5463 51.3183 32.3301 49.818 32.3301C48.3178 32.3301 47.1016 33.5463 47.1016 35.0466C47.1016 36.5469 48.3178 37.7631 49.818 37.7631Z" fill="#C6C6C6"/>
<path d="M51.1047 49.19C51.093 49.239 51.09 49.2577 51.0851 49.2827L51.0723 49.3509L51.0488 49.474C51.0321 49.5539 51.0145 49.6275 50.9968 49.703C50.9615 49.8502 50.9188 49.9934 50.8762 50.1351C50.7866 50.4128 50.6813 50.6851 50.5608 50.9508C50.3194 51.4804 50.0235 51.9834 49.6779 52.4517C48.9727 53.3931 48.0969 54.1935 47.096 54.8114C46.6001 55.1144 46.0814 55.3784 45.5446 55.6011C45.0166 55.8163 44.4734 55.9926 43.9196 56.1284C42.8488 56.3889 41.7507 56.5206 40.6486 56.5207C39.5604 56.5321 38.4744 56.4203 37.4114 56.1872L37.0048 56.0921C36.8694 56.0612 36.734 56.0165 36.5996 55.9793C36.4652 55.942 36.3299 55.9047 36.196 55.8557L35.7947 55.7154C35.2567 55.5171 34.735 55.277 34.2345 54.9973C33.7272 54.7143 33.2451 54.3882 32.7935 54.0227C32.3415 53.6523 31.925 53.2404 31.5496 52.7926C31.4559 52.6807 31.3681 52.563 31.2789 52.4492C31.1896 52.3354 31.1062 52.2138 31.0253 52.0927C30.8631 51.8498 30.7143 51.5983 30.5794 51.3393C30.4426 51.0787 30.322 50.8099 30.2184 50.5344C30.1694 50.3946 30.1179 50.2524 30.0742 50.1047C30.0527 50.0282 30.0316 49.9576 30.011 49.8747L29.981 49.7506L29.9649 49.6819C29.9585 49.655 29.9555 49.6393 29.9403 49.5863C29.8093 49.2159 29.8307 48.8087 29.9999 48.4541C30.1691 48.0996 30.4722 47.8268 30.8426 47.6957C31.2129 47.5647 31.6202 47.5861 31.9747 47.7553C32.3293 47.9245 32.6021 48.2276 32.7331 48.598C32.7282 48.5724 32.7361 48.5832 32.74 48.5837C32.7439 48.5842 32.7508 48.5906 32.7567 48.5955C32.7626 48.6004 32.7817 48.6166 32.7964 48.6308L32.8808 48.7152C32.9411 48.775 33.0014 48.8373 33.0657 48.8981C33.1908 49.0222 33.3266 49.1434 33.462 49.2601C33.7327 49.492 34.019 49.7051 34.3189 49.8977C34.6142 50.0886 34.9212 50.2607 35.238 50.4132C35.5563 50.5627 35.8825 50.6949 36.2151 50.8091C36.5531 50.9249 36.8969 51.0232 37.2451 51.1034C37.4231 51.1411 37.5983 51.1828 37.7812 51.2117C37.8719 51.2274 37.9598 51.2471 38.0525 51.2608L38.3286 51.301C39.0904 51.4033 39.8584 51.4513 40.627 51.4447C41.3824 51.4463 42.1368 51.3885 42.8832 51.2721C43.2377 51.2165 43.5892 51.1431 43.9363 51.0523C44.2772 50.9616 44.6073 50.8512 44.9325 50.7296C45.5802 50.4755 46.1928 50.1394 46.7551 49.7295C47.0436 49.5165 47.3181 49.285 47.5767 49.0364C47.7052 48.9094 47.8347 48.7799 47.9553 48.647L48.0456 48.5489L48.1319 48.4508L48.2133 48.3586C48.228 48.3429 48.2398 48.3311 48.2516 48.3194C48.2563 48.3137 48.2619 48.3089 48.2682 48.3051C48.2732 48.3051 48.28 48.2939 48.2766 48.3159C48.334 48.13 48.4274 47.9573 48.5516 47.8075C48.6757 47.6577 48.8282 47.5339 49.0002 47.443C49.1722 47.3521 49.3605 47.296 49.5542 47.2779C49.7479 47.2598 49.9433 47.28 50.1291 47.3374C50.315 47.3948 50.4878 47.4882 50.6376 47.6124C50.7874 47.7366 50.9112 47.889 51.0021 48.061C51.0929 48.2331 51.149 48.4213 51.1672 48.615C51.1853 48.8087 51.1651 49.0041 51.1077 49.19H51.1047Z" fill="#C6C6C6"/>
</svg>
