<svg width="80" height="80" viewBox="0 0 80 80" fill="none" xmlns="http://www.w3.org/2000/svg">
<path d="M46.2397 6.06478L46.239 6.06337C44.3934 2.35277 42.0836 0.75 39.9863 0.75C37.888 0.75 35.5684 2.35403 33.7029 6.06478H46.2397ZM46.2397 6.06478L53.2762 20.1377C53.2767 20.1388 53.2773 20.1399 53.2778 20.1409C53.8253 21.257 54.7984 22.3025 55.8942 23.111C56.9915 23.9207 58.2796 24.5428 59.5058 24.7471L59.5062 24.7472M46.2397 6.06478L59.5062 24.7472M59.5062 24.7472L72.2644 26.8669C72.2645 26.8669 72.2647 26.8669 72.2648 26.867C76.2148 27.5254 78.3967 29.2411 79.0379 31.2361C79.6786 33.2294 78.9046 35.887 76.0587 38.7135L76.0569 38.7153M59.5062 24.7472L76.0569 38.7153M76.0569 38.7153L66.138 48.6342C65.1857 49.5865 64.4827 50.94 64.0825 52.3378C63.6823 53.7359 63.5628 55.2564 63.8567 56.5678L63.8579 56.5728M76.0569 38.7153L63.8579 56.5728M63.8579 56.5728L66.6974 68.8508L63.8579 56.5728ZM65.2916 77.8253C66.9878 76.5888 67.8027 73.6473 66.6976 68.8514L65.2916 77.8253ZM65.2916 77.8253C63.5942 79.0627 60.5353 78.9427 56.2916 76.4361L65.2916 77.8253ZM26.6664 20.1377L33.7022 6.06618L56.291 76.4357L44.3332 69.357C44.3331 69.357 44.333 69.3569 44.3329 69.3569C43.1091 68.6318 41.5385 68.2924 40.0063 68.2924C38.4733 68.2924 36.8954 68.6321 35.6546 69.354L35.6497 69.3569L23.691 76.4361L23.6903 76.4365C19.4699 78.9411 16.4099 79.0536 14.7062 77.8105C13.0031 76.5678 12.1807 73.6236 13.285 68.8515L13.2851 68.8514L16.1248 56.5728L16.1259 56.5678C16.4198 55.2564 16.3003 53.7359 15.9001 52.3378C15.5 50.94 14.7969 49.5865 13.8446 48.6342L3.92568 38.7153C1.09901 35.8887 0.323061 33.2298 0.96016 31.2347C1.59701 29.2404 3.76861 27.5253 7.71781 26.867C7.71794 26.8669 7.71807 26.8669 7.71819 26.8669L20.4764 24.7472L20.479 24.7468C21.686 24.5418 22.9639 23.9189 24.0548 23.11C25.1448 22.3018 26.1177 21.2565 26.665 20.1405C26.6655 20.1396 26.6659 20.1386 26.6664 20.1377Z" fill="#E8E8E8" stroke="#E8E8E8" stroke-width="1.5" stroke-linecap="round" stroke-linejoin="round"/>
<path d="M30.8708 37.7611C32.3711 37.7611 33.5873 36.5449 33.5873 35.0446C33.5873 33.5443 32.3711 32.3281 30.8708 32.3281C29.3705 32.3281 28.1543 33.5443 28.1543 35.0446C28.1543 36.5449 29.3705 37.7611 30.8708 37.7611Z" fill="#C6C6C6"/>
<path d="M49.3161 37.7611C50.8164 37.7611 52.0326 36.5449 52.0326 35.0446C52.0326 33.5443 50.8164 32.3281 49.3161 32.3281C47.8158 32.3281 46.5996 33.5443 46.5996 35.0446C46.5996 36.5449 47.8158 37.7611 49.3161 37.7611Z" fill="#C6C6C6"/>
<path d="M50.6028 49.188C50.591 49.2371 50.5881 49.2557 50.5832 49.2807L50.5704 49.3489L50.5468 49.472C50.5302 49.552 50.5125 49.6255 50.4949 49.7011C50.4595 49.8482 50.4169 49.9914 50.3742 50.1332C50.2846 50.4108 50.1793 50.6832 50.0588 50.9489C49.8175 51.4785 49.5216 51.9815 49.1759 52.4497C48.4707 53.3911 47.5949 54.1916 46.594 54.8095C46.0981 55.1124 45.5794 55.3765 45.0426 55.5991C44.5146 55.8144 43.9715 55.9906 43.4177 56.1264C42.3468 56.387 41.2487 56.5187 40.1466 56.5188C39.0584 56.5302 37.9724 56.4183 36.9094 56.1853L36.5028 56.0901C36.3674 56.0592 36.2321 56.0146 36.0977 55.9773C35.9633 55.94 35.8279 55.9027 35.694 55.8537L35.2928 55.7134C34.7548 55.5152 34.2331 55.2751 33.7326 54.9954C33.2252 54.7123 32.7431 54.3863 32.2915 54.0208C31.8395 53.6503 31.4231 53.2385 31.0477 52.7906C30.954 52.6788 30.8662 52.5611 30.7769 52.4473C30.6876 52.3335 30.6043 52.2119 30.5233 52.0907C30.3612 51.8478 30.2123 51.5963 30.0775 51.3373C29.9406 51.0767 29.8201 50.8079 29.7165 50.5324C29.6674 50.3926 29.6159 50.2504 29.5723 50.1028C29.5507 50.0263 29.5296 49.9556 29.509 49.8727L29.4791 49.7486L29.4629 49.68C29.4565 49.653 29.4536 49.6373 29.4384 49.5843C29.3073 49.214 29.3287 48.8067 29.4979 48.4522C29.6671 48.0976 29.9703 47.8248 30.3406 47.6938C30.711 47.5627 31.1182 47.5841 31.4728 47.7533C31.8273 47.9225 32.1001 48.2256 32.2312 48.596C32.2263 48.5705 32.2341 48.5813 32.2381 48.5818C32.242 48.5823 32.2489 48.5886 32.2547 48.5936C32.2606 48.5985 32.2798 48.6146 32.2945 48.6289L32.3788 48.7132C32.4391 48.7731 32.4995 48.8354 32.5637 48.8962C32.6888 49.0203 32.8247 49.1414 32.96 49.2582C33.2307 49.4901 33.517 49.7031 33.8169 49.8958C34.1123 50.0866 34.4192 50.2588 34.7361 50.4113C35.0544 50.5608 35.3805 50.6929 35.7131 50.8071C36.0511 50.923 36.3949 51.0212 36.7431 51.1014C36.9212 51.1392 37.0963 51.1809 37.2793 51.2098C37.37 51.2255 37.4578 51.2451 37.5505 51.2588L37.8266 51.2991C38.5884 51.4013 39.3565 51.4493 40.125 51.4428C40.8805 51.4443 41.6349 51.3866 42.3813 51.2701C42.7357 51.2145 43.0872 51.1412 43.4343 51.0504C43.7752 50.9596 44.1053 50.8493 44.4305 50.7276C45.0783 50.4735 45.6908 50.1374 46.2531 49.7276C46.5417 49.5145 46.8161 49.283 47.0747 49.0345C47.2032 48.9075 47.3327 48.778 47.4534 48.645L47.5436 48.547L47.63 48.4489L47.7114 48.3566C47.7261 48.3409 47.7379 48.3292 47.7496 48.3174C47.7543 48.3117 47.7599 48.3069 47.7663 48.3032C47.7712 48.3032 47.7781 48.2919 47.7746 48.314C47.832 48.1281 47.9255 47.9553 48.0496 47.8055C48.1738 47.6558 48.3262 47.5319 48.4983 47.441C48.6703 47.3502 48.8585 47.2941 49.0522 47.276C49.2459 47.2579 49.4413 47.2781 49.6272 47.3355C49.8131 47.3928 49.9859 47.4863 50.1356 47.6105C50.2854 47.7346 50.4093 47.8871 50.5001 48.0591C50.591 48.2311 50.6471 48.4193 50.6652 48.613C50.6833 48.8067 50.6631 49.0021 50.6057 49.188H50.6028Z" fill="#C6C6C6"/>
</svg>
