<svg width="80" height="80" viewBox="0 0 80 80" fill="none" xmlns="http://www.w3.org/2000/svg">
<path d="M46.2397 6.06478L46.239 6.06337C44.3934 2.35277 42.0836 0.75 39.9863 0.75C37.888 0.75 35.5684 2.35403 33.7029 6.06478H46.2397ZM46.2397 6.06478L53.2762 20.1377C53.2767 20.1388 53.2773 20.1399 53.2778 20.1409C53.8253 21.257 54.7984 22.3025 55.8942 23.111C56.9915 23.9207 58.2796 24.5428 59.5058 24.7471L59.5062 24.7472M46.2397 6.06478L59.5062 24.7472M59.5062 24.7472L72.2644 26.8669C72.2645 26.8669 72.2647 26.867 72.2648 26.867C76.2148 27.5254 78.3967 29.2411 79.0379 31.2361C79.6786 33.2294 78.9046 35.887 76.0587 38.7135L76.0569 38.7153M59.5062 24.7472L76.0569 38.7153M76.0569 38.7153L66.138 48.6342C65.1857 49.5865 64.4827 50.94 64.0825 52.3378C63.6823 53.7359 63.5628 55.2564 63.8567 56.5678L63.8579 56.5728M76.0569 38.7153L63.8579 56.5728M63.8579 56.5728L66.6974 68.8508L63.8579 56.5728ZM65.2916 77.8253C66.9878 76.5888 67.8027 73.6473 66.6976 68.8514L65.2916 77.8253ZM65.2916 77.8253C63.5942 79.0627 60.5353 78.9427 56.2916 76.4361L65.2916 77.8253ZM26.6664 20.1377L33.7022 6.06618L56.291 76.4357L44.3332 69.357C44.3331 69.357 44.333 69.3569 44.3329 69.3569C43.1091 68.6318 41.5385 68.2924 40.0063 68.2924C38.4733 68.2924 36.8954 68.6321 35.6546 69.354L35.6497 69.3569L23.691 76.4361L23.6903 76.4365C19.4699 78.9411 16.4099 79.0536 14.7062 77.8105C13.0031 76.5678 12.1807 73.6237 13.285 68.8515L13.2851 68.8514L16.1248 56.5728L16.1259 56.5678C16.4198 55.2564 16.3003 53.7359 15.9001 52.3378C15.5 50.94 14.7969 49.5865 13.8446 48.6342L3.92568 38.7153C1.09901 35.8887 0.323061 33.2298 0.96016 31.2347C1.59701 29.2404 3.76861 27.5253 7.71781 26.867C7.71794 26.867 7.71806 26.8669 7.71819 26.8669L20.4764 24.7472L20.479 24.7468C21.686 24.5418 22.9639 23.9189 24.0548 23.11C25.1448 22.3018 26.1177 21.2565 26.665 20.1405C26.6655 20.1396 26.6659 20.1386 26.6664 20.1377Z" fill="#E8E8E8" stroke="#E8E8E8" stroke-width="1.5" stroke-linecap="round" stroke-linejoin="round"/>
<path d="M30.5475 37.7611C32.0477 37.7611 33.2639 36.5449 33.2639 35.0446C33.2639 33.5443 32.0477 32.3281 30.5475 32.3281C29.0472 32.3281 27.8311 33.5443 27.8311 35.0446C27.8311 36.5449 29.0472 37.7611 30.5475 37.7611Z" fill="#C6C6C6"/>
<path d="M49.5641 37.7611C51.0643 37.7611 52.2805 36.5449 52.2805 35.0446C52.2805 33.5443 51.0643 32.3281 49.5641 32.3281C48.0639 32.3281 46.8477 33.5443 46.8477 35.0446C46.8477 36.5449 48.0639 37.7611 49.5641 37.7611Z" fill="#C6C6C6"/>
<path d="M29.134 54.5416C29.1457 54.491 29.1487 54.4718 29.1533 54.4465L29.1664 54.3767L29.1902 54.2498C29.2064 54.1674 29.2241 54.091 29.2407 54.0132C29.2766 53.8615 29.3196 53.7133 29.3631 53.5672C29.4533 53.2799 29.5597 52.998 29.6817 52.7227C29.9272 52.1739 30.2288 51.652 30.5818 51.1653C31.302 50.1837 32.2014 49.3471 33.2325 48.6996C33.7438 48.3803 34.2799 48.1024 34.8354 47.8683C35.382 47.6415 35.9447 47.4555 36.5188 47.3121C37.6292 47.0367 38.7688 46.8968 39.9128 46.8954C41.0418 46.8831 42.1684 47.0008 43.2704 47.2463L43.6922 47.3475C43.8322 47.3808 43.9723 47.4269 44.1124 47.4663C44.392 47.5432 44.6686 47.6448 44.9457 47.7439C45.5028 47.9522 46.0423 48.2044 46.5593 48.4984C47.0831 48.7955 47.5801 49.1375 48.0449 49.5203C48.5101 49.9069 48.9375 50.3368 49.3213 50.8042C49.7038 51.2711 50.0356 51.7774 50.3108 52.3146C50.4499 52.5849 50.5723 52.8633 50.6774 53.1485C50.728 53.2931 50.7786 53.4402 50.8231 53.593C50.8448 53.6713 50.8661 53.7447 50.8868 53.8301L50.9166 53.9581L50.9328 54.0288C50.9394 54.0561 50.9424 54.0728 50.9576 54.1264C51.0306 54.3173 51.0645 54.5208 51.0574 54.725C51.0503 54.9292 51.0023 55.1299 50.9162 55.3152C50.8302 55.5005 50.7078 55.6667 50.5563 55.8038C50.4049 55.941 50.2275 56.0464 50.0346 56.1137C49.8417 56.1811 49.6372 56.209 49.4333 56.1959C49.2294 56.1828 49.0302 56.1289 48.8475 56.0375C48.6648 55.946 48.5023 55.8188 48.3697 55.6634C48.237 55.508 48.1369 55.3275 48.0753 55.1327C48.0798 55.158 48.0723 55.1469 48.0677 55.1464C48.0632 55.1459 48.0566 55.1388 48.05 55.1337C48.0434 55.1287 48.0247 55.111 48.0095 55.0958L47.9221 55.0068C47.8599 54.9436 47.7977 54.8784 47.7314 54.8141C47.603 54.6842 47.4624 54.5573 47.3234 54.4339C47.0448 54.1897 46.7498 53.9648 46.4405 53.7608C46.1369 53.5594 45.8205 53.378 45.4933 53.2178C45.166 53.0601 44.8302 52.9205 44.4876 52.7996L44.2287 52.7111L43.9637 52.6327C43.8777 52.6034 43.7862 52.5821 43.6962 52.5589C43.6062 52.5356 43.5192 52.5083 43.4267 52.4906C43.2431 52.4517 43.0631 52.4067 42.8745 52.3763C42.781 52.3596 42.6899 52.3394 42.5949 52.3258L42.3102 52.2838C41.5241 52.1756 40.7311 52.1249 39.9376 52.1321C38.325 52.1397 36.8273 52.3586 35.5019 52.8906C34.8333 53.1594 34.2024 53.5138 33.6249 53.9449C33.3272 54.1693 33.0444 54.4129 32.7784 54.6741C32.6464 54.8071 32.5129 54.9431 32.389 55.0827L32.296 55.1868L32.207 55.2879L32.1225 55.385C32.1079 55.4012 32.0952 55.4139 32.0831 55.4265C32.0781 55.4323 32.0723 55.4375 32.0659 55.4417C32.0608 55.4417 32.0538 55.4538 32.0568 55.4321C31.9388 55.8196 31.6718 56.1444 31.3144 56.335C30.9569 56.5256 30.5385 56.5664 30.1509 56.4485C29.7634 56.3305 29.4386 56.0634 29.248 55.706C29.0574 55.3486 29.0166 54.9301 29.1345 54.5426L29.134 54.5416Z" fill="#C6C6C6"/>
</svg>
