<svg width="35" height="30" viewBox="0 0 35 30" fill="none" xmlns="http://www.w3.org/2000/svg">
<path d="M31.0792 12.4783H20.6707L17.4478 3.64844L14.2249 12.4783H3.81641L12.27 17.8692L9.04705 26.6527L17.5006 21.2153L25.9542 26.6527L22.6256 17.8692L31.0792 12.4783Z" fill="#FAD97F"/>
<path d="M34.408 11.5017H21.5163L17.5009 0.626953L13.4854 11.5017H0.59375L11.0022 18.1938L6.98676 29.0686L17.5009 22.3764L27.9622 29.115L23.9467 18.2403L34.408 11.5017ZM17.5009 21.2146L9.04732 26.652L12.2702 17.8685L3.81667 12.4776H14.2251L17.4481 3.64771L20.671 12.4776H31.0794L22.6259 17.8685L25.9545 26.652L17.5009 21.2146Z" fill="white"/>
</svg>
