<svg width="51" height="56" viewBox="0 0 51 56" fill="none" xmlns="http://www.w3.org/2000/svg">
<path d="M20.5251 38.5569C19.9032 38.6976 19.4367 38.8383 18.9702 39.1197C18.3483 38.2755 17.8819 37.2905 17.2599 36.5869C16.1715 35.1797 14.9276 33.9133 13.8391 32.5061C12.1288 30.3954 10.7294 28.2847 10.1075 25.6111C8.70806 18.9975 12.7507 12.5246 19.7477 9.99176C28.9214 6.6146 39.4946 12.2432 40.894 21.1082C41.516 25.189 40.1166 28.5661 37.6288 31.8026C36.5403 33.2097 35.141 34.6169 34.0526 36.1647C33.2751 37.1497 32.8087 38.1347 32.0312 39.1197C31.7203 39.5419 31.4093 39.964 30.9428 40.1048C27.3666 41.3712 23.7904 42.4969 20.2142 43.6226C19.7477 43.7633 19.4367 43.6226 19.2812 43.3412C19.1257 42.9191 19.1258 42.4969 19.5922 42.3562C19.9032 42.2155 20.2141 42.0748 20.5251 42.0748C23.6349 41.0898 26.7446 40.1048 29.8544 38.979C30.1653 38.8383 30.4763 38.5569 30.6318 38.2755C31.8757 36.1647 33.4306 34.4762 34.9855 32.5061C36.5404 30.6769 37.9397 28.9883 38.5617 26.7368C40.1166 22.234 39.0282 18.2939 35.6074 14.9168C31.7202 10.9768 26.7447 9.71033 21.1471 11.2582C15.5495 12.8061 12.4397 16.3239 11.3513 21.5304C10.5739 25.189 11.9733 28.2847 14.3056 31.099C15.705 32.7876 17.1044 34.4762 18.5038 36.1647C19.4367 36.7276 19.9032 37.5719 20.5251 38.5569Z" fill="#F54547"/>
<path d="M19.7477 52.4875C19.5922 52.3467 19.2812 52.206 19.2812 51.9246C19.2812 51.6432 19.4368 51.3617 19.5922 51.0803C19.5922 50.9396 19.9032 50.9396 20.0587 50.9396C23.4794 49.8139 27.0557 48.6882 30.4764 47.5624C31.2538 47.281 31.5648 47.4217 31.7203 47.8439C31.8758 48.266 31.5648 48.6882 30.9428 48.9696C27.3666 50.0953 23.9459 51.221 20.3697 52.4875C20.2142 52.3467 20.0587 52.3467 19.7477 52.4875Z" fill="#F54547"/>
<path d="M19.7477 47.8429C19.5922 47.7022 19.2812 47.5615 19.2812 47.2801C19.2812 46.9986 19.4368 46.7172 19.5922 46.4358C19.5922 46.2951 19.9032 46.2951 20.0587 46.2951C23.4794 45.1693 27.0557 44.0436 30.4764 42.9179C31.2538 42.6365 31.5648 42.7772 31.7203 43.1993C31.8758 43.6215 31.7203 44.0436 30.9428 44.325C27.3666 45.4508 23.9459 46.7172 20.3697 47.8429C20.2142 47.8429 20.0587 47.8429 19.7477 47.8429Z" fill="#F54547"/>
<path d="M30.9427 51.7832C29.8543 55.1604 23.7903 57.1304 20.0586 55.3011C23.6348 54.1754 27.211 52.9089 30.9427 51.7832Z" fill="#F54547"/>
<path d="M26.2775 2.53287C26.2775 3.09573 26.2775 3.65859 26.2775 4.22145C26.2775 4.64359 25.9666 4.92502 25.5001 4.92502C25.0336 4.92502 24.7227 4.64359 24.7227 4.22145C24.7227 3.09573 24.7227 1.97001 24.7227 0.703575C24.7227 0.28143 25.0336 0 25.5001 0C25.9666 0 26.2775 0.28143 26.2775 0.703575C26.2775 1.26643 26.2775 1.97001 26.2775 2.53287Z" fill="#F54547"/>
<path d="M2.79876 22.2324C3.42071 22.2324 4.04268 22.2324 4.66464 22.2324C5.28659 22.2324 5.59757 22.5139 5.59757 22.936C5.59757 23.3581 5.28659 23.6396 4.66464 23.6396C3.42073 23.6396 2.17684 23.6396 0.932936 23.6396C0.310985 23.6396 0 23.3581 0 22.936C0 22.5139 0.310985 22.2324 0.932936 22.2324C1.55489 22.2324 2.17681 22.2324 2.79876 22.2324Z" fill="#F54547"/>
<path d="M48.2009 23.7802C47.579 23.7802 46.957 23.7802 46.3351 23.7802C45.8686 23.7802 45.5576 23.4988 45.5576 23.0766C45.5576 22.6545 45.8686 22.373 46.3351 22.373C47.579 22.373 48.9783 22.373 50.2223 22.373C50.6887 22.373 50.9997 22.6545 50.9997 23.0766C50.9997 23.4988 50.6887 23.7802 50.2223 23.7802C49.4448 23.7802 48.8229 23.7802 48.2009 23.7802Z" fill="#F54547"/>
<path d="M7.77446 6.19141C8.08544 6.33212 8.24091 6.47284 8.3964 6.61355C9.32933 7.45784 10.1068 8.16141 11.0397 9.0057C11.5062 9.42785 11.5062 9.70928 11.0397 10.1314C10.7287 10.4129 10.2622 10.4129 9.79578 10.1314C8.86286 9.28713 7.92996 8.58356 7.15252 7.73927C6.99703 7.59856 6.84153 7.17641 6.99702 6.89498C7.15251 6.47284 7.61897 6.33212 7.77446 6.19141Z" fill="#F54547"/>
<path d="M40.2713 35.5996C40.5823 35.7403 40.7378 35.881 40.8932 36.0218C41.8262 36.7253 42.6036 37.5696 43.5366 38.2732C44.003 38.6953 44.003 39.1175 43.6921 39.3989C43.3811 39.6803 42.9146 39.6803 42.4481 39.2582C41.5152 38.4139 40.7378 37.7103 39.8049 36.866C39.6494 36.7253 39.4939 36.3032 39.6494 36.0218C39.6494 35.881 39.9603 35.7403 40.2713 35.5996Z" fill="#F54547"/>
<path d="M44.0029 7.03725C43.8474 7.31868 43.6919 7.4594 43.5364 7.60011C42.6035 8.4444 41.8261 9.14797 40.8931 9.99226C40.5822 10.2737 40.1157 10.4144 39.6492 9.99226C39.3383 9.71083 39.3383 9.28869 39.6492 8.86655C40.5822 8.02226 41.3596 7.17797 42.2925 6.47439C42.448 6.33368 42.9145 6.19296 43.2254 6.33368C43.5364 6.47439 43.6919 6.89654 44.0029 7.03725Z" fill="#F54547"/>
<path d="M7.77406 39.6823C7.61857 39.5416 7.3076 39.4009 7.15211 39.1195C6.99663 38.9788 7.15211 38.5566 7.15211 38.4159C8.08504 37.5716 9.01796 36.5866 10.1064 35.7423C10.4173 35.4609 10.8838 35.4609 11.1948 35.7423C11.5057 36.0238 11.5057 36.4459 11.1948 36.7273C10.2618 37.5716 9.32892 38.4159 8.396 39.2602C8.24051 39.5416 8.08503 39.6823 7.77406 39.6823Z" fill="#F54547"/>
</svg>
