<svg width="51" height="56" viewBox="0 0 51 56" fill="none" xmlns="http://www.w3.org/2000/svg">
<path d="M49.4496 1.59718C48.6849 1.59718 47.7926 1.59718 47.0279 1.59718C41.8021 1.87757 36.8313 3.13935 32.1153 5.66292C26.3797 8.60707 21.5363 12.813 17.7126 18.4209C15.036 22.2063 13.1241 26.4122 11.7221 30.8985C11.5946 31.1789 11.7221 31.3191 11.8495 31.4593C12.9967 32.7211 14.1438 33.9829 15.2909 35.2447C15.4184 35.3849 15.5458 35.6653 15.5458 35.9457C15.5458 36.2261 15.4184 36.5064 15.1634 36.6466C14.9085 36.7868 14.5261 36.7868 14.3987 36.5064C13.7614 35.8055 13.2516 35.2447 12.6143 34.5437C11.8495 33.7025 11.2122 32.8613 10.4475 32.1603C10.1926 31.8799 10.0651 31.4593 10.1926 31.0387C11.8495 25.571 14.2712 20.5239 17.7126 16.0376C21.154 11.411 25.3601 7.76588 30.076 5.10212C34.4096 2.57856 39.1255 1.03639 43.9689 0.335396C46.0082 0.0550003 48.0476 -0.0851976 50.0869 0.0550003C50.7242 0.0550003 50.8516 0.335396 50.9791 1.03639C51.234 10.1492 49.1947 18.5611 44.7337 26.4122C40.2726 34.1231 34.1547 39.8712 26.5072 43.5163C25.3601 44.0771 24.0855 44.4977 22.8109 45.0585C22.4285 45.1987 22.1736 45.1987 21.9187 44.7781C20.6441 43.3761 19.2421 41.834 17.9675 40.432C17.7126 40.1516 17.5851 39.731 17.8401 39.3104C18.095 38.8898 18.6048 38.8898 18.9872 39.3104C20.1343 40.5722 21.2814 41.834 22.4285 43.0957C22.6835 43.3761 22.8109 43.3761 23.0658 43.2359C28.674 41.133 33.6448 37.7682 37.8509 33.2819C42.8218 27.9544 46.1357 21.6455 48.0476 14.4954C49.0672 10.5698 49.5771 6.5041 49.5771 2.29817C49.5771 2.01777 49.4496 1.87757 49.4496 1.59718Z" fill="#F54547"/>
<path d="M42.4385 17.9993C42.4385 22.7661 38.9972 26.5514 34.6636 26.5514C30.33 26.5514 26.8887 22.7661 26.8887 17.9993C26.8887 13.3728 30.33 9.44727 34.5361 9.44727C38.9972 9.44727 42.4385 13.2326 42.4385 17.9993ZM40.909 18.1395C40.909 14.214 38.105 11.1296 34.5361 11.1296C30.9673 11.1296 28.1633 14.214 28.1633 18.1395C28.1633 22.0651 30.9673 25.1494 34.5361 25.1494C38.105 25.0092 40.909 21.9249 40.909 18.1395Z" fill="#F54547"/>
<path d="M22.9383 53.893C23.8305 53.3322 24.7227 52.6312 25.4875 51.9302C28.0366 49.4066 29.4387 46.3223 30.076 42.6771C30.2034 42.1163 30.4583 41.8359 30.8407 41.8359C31.3506 41.8359 31.6055 42.2565 31.6055 42.8173C31.478 43.5183 31.3506 44.3595 31.0956 45.0605C29.6936 49.8272 27.1444 53.3322 23.1932 55.7155C22.301 56.2763 21.9187 55.9959 21.7912 55.0145C21.2814 52.0704 20.7716 48.986 20.2617 46.0419C20.2617 45.7615 20.2617 45.4811 20.2617 45.3409C20.3892 45.0605 20.6441 44.9203 21.0265 44.9203C21.2814 44.9203 21.5363 45.2007 21.6638 45.4811C21.7912 46.3223 21.9187 47.1635 22.1736 48.1448C22.301 50.1076 22.6834 51.9302 22.9383 53.893Z" fill="#F54547"/>
<path d="M1.9075 30.7629C2.67225 30.9031 3.437 31.0433 4.07429 31.1834C5.8587 31.604 7.64311 31.8844 9.30006 32.305C9.42752 32.305 9.42752 32.305 9.55497 32.305C9.93735 32.4452 10.1923 32.8658 10.0648 33.2864C9.93735 33.707 9.68243 33.9874 9.1726 33.8472C8.15294 33.5668 7.00582 33.4266 5.98615 33.1462C4.3292 32.7256 2.67225 32.4452 0.887839 32.0246C0.760381 32.0246 0.760381 32.0246 0.632923 32.0246C-0.004366 31.8844 -0.131824 31.4638 0.123092 30.7629C0.887839 29.2207 1.78004 27.6785 2.92717 26.4167C5.34886 23.6128 8.2804 22.0706 11.5943 21.2294C11.7218 21.2294 11.8492 21.2294 11.8492 21.0892C12.2316 20.949 12.614 21.2294 12.7414 21.65C12.8689 22.0706 12.614 22.4912 12.1041 22.6314C11.3394 22.9118 10.4472 23.052 9.68243 23.3324C6.36853 24.5941 3.81937 26.8373 1.9075 30.0619C2.03496 30.4825 2.03496 30.6227 1.9075 30.7629Z" fill="#F54547"/>
<path d="M10.957 43.2331C11.0845 43.0929 11.2119 42.8125 11.3394 42.6723C13.7611 40.0085 16.0553 37.485 18.477 34.8212C19.3692 33.8398 20.134 32.9986 21.0262 32.0173C21.4086 31.5967 21.7909 31.5967 22.1733 31.8771C22.4282 32.1575 22.4282 32.7182 22.0459 33.1388C19.2418 36.2232 16.4377 39.4477 13.5062 42.5321C13.1238 42.9527 12.7414 43.5135 12.2316 43.9341C11.9767 44.2145 11.7218 44.2145 11.4669 44.0743C11.0845 43.9341 10.957 43.6537 10.957 43.2331Z" fill="#F54547"/>
<path d="M7.6426 46.8789C7.89752 47.0191 8.15243 47.1593 8.27989 47.4397C8.40735 47.7201 8.27989 48.0005 8.15243 48.2809C8.02497 48.4211 7.77006 48.7015 7.6426 48.9819C6.11311 50.6642 4.58361 52.4868 2.92666 54.1692C2.67174 54.3094 2.54429 54.4496 2.28937 54.4496C2.03445 54.4496 1.77954 54.3094 1.65208 54.029C1.52462 53.6084 1.52462 53.328 1.77954 53.0476C2.7992 51.926 3.81886 50.8044 4.83853 49.6829C5.60327 48.8417 6.24056 48.1407 7.00531 47.2995C7.26023 47.1593 7.38768 47.0191 7.6426 46.8789Z" fill="#F54547"/>
<path d="M6.49562 41.1328C7.13291 41.1328 7.51528 41.8338 7.26037 42.2544C7.13291 42.3946 7.13291 42.5348 7.00545 42.675C5.3485 44.4976 3.69155 46.3201 2.0346 48.1427L1.90714 48.2829C1.52477 48.5633 1.14239 48.7035 0.887476 48.2829C0.63256 48.0025 0.63256 47.4417 0.887476 47.1613C2.16205 45.7593 3.43663 44.3574 4.71121 42.9554C5.22104 42.3946 5.60342 41.974 6.11325 41.5534C6.24071 41.273 6.49562 41.1328 6.49562 41.1328Z" fill="#F54547"/>
<path d="M13.6336 48.9802C13.6336 49.1204 13.5061 49.2606 13.3787 49.541C11.5943 51.5037 9.93732 53.3263 8.15291 55.2891C7.77053 55.7097 7.38816 55.7097 7.00579 55.2891C6.75087 55.0087 6.75087 54.4479 7.13324 54.1675C8.91765 52.2047 10.5746 50.3822 12.359 48.4194C12.6139 48.139 12.8688 47.9988 13.2512 48.139C13.5061 48.2792 13.6336 48.4194 13.6336 48.9802Z" fill="#F54547"/>
</svg>
